<?xml version="1.0" encoding="utf-8"?>
<!-- Generator: Adobe Illustrator 16.0.0, SVG Export Plug-In . SVG Version: 6.00 Build 0)  -->
<!DOCTYPE svg PUBLIC "-//W3C//DTD SVG 1.1//EN" "http://www.w3.org/Graphics/SVG/1.1/DTD/svg11.dtd">
<svg version="1.1" id="Layer_2" xmlns="http://www.w3.org/2000/svg" xmlns:xlink="http://www.w3.org/1999/xlink" x="0px" y="0px"
	 width="960px" height="476px" viewBox="0 0 960 476" enable-background="new 0 0 960 476" xml:space="preserve">
<path fill="#ff862a" d="M935.501,118.589c-29.291-58.584-91.327-91.004-174.68-91.287l-2.142-0.008
	c-2.004-0.008-4.012-0.016-6.02-0.016c-16.695,0-34.425,0.501-51.516,6.491c-1.66,0.582-3.108,1.12-4.427,1.61
	c-5.026,1.868-7.32,2.721-12.739,2.733l-61.758,0.141c-0.815,0.002-2.406,0.082-5.64,0.248c-5.928,0.305-15.851,0.814-23.335,0.814
	c-2.54,0-4.31-0.06-5.526-0.133c-0.448-1.398-0.909-2.932-1.386-4.511C582.177,20.865,575.893,0,557.674,0l-0.129,0
	c-7.462,0.046-12.166,3.373-13.033,4.04l-3.451,2.652l0.853,4.268c0.169,0.849,3.255,16.298,5.637,27.435l-96.073,0.217
	l-2.502,0.003c-44.573,0-89.809-2.706-133.555-5.323c-16.5-0.987-33.562-2.008-50.384-2.872c-11.205-0.576-22.492-0.867-33.55-0.867
	c-58.156,0-115.021,7.895-173.846,24.135c-4.085,1.128-8.163,2.282-12.241,3.435c-4.644,1.313-9.287,2.627-13.942,3.903
	c-11.794,3.231-15.829,17.24-18.239,25.609l-0.187,0.647c-6.186,21.396-8,43.582-9.754,65.037c-0.372,4.544-0.743,9.083-1.154,13.61
	l-0.015,0.188c-5.278,82.771-3.417,144.564,6.036,200.362l0.233,1.38c2.105,12.47,4.491,26.603,11.828,38.113
	c5.159,8.025,13.486,9.979,20.177,11.549c1.451,0.341,2.822,0.662,4.128,1.029c33.949,9.547,61.936,16.159,88.075,20.81
	c27.296,4.852,56.902,7.209,90.513,7.209c33.23,0,66.952-2.275,99.563-4.477c15.984-1.079,32.513-2.194,48.75-3.025
	c29.35-1.502,58.268-1.704,82.684-1.704c10.006,0,20.012,0.039,30.02,0.077c6.493,0.025,12.987,0.051,19.483,0.065l43.857,0.1
	c-2.426,10.528-5.712,25.08-5.896,25.895l-0.677,2.996l1.748,2.526c0.489,0.708,5.063,6.914,14.916,6.978h0.126
	c18.221,0,24.503-20.864,28.66-34.67c0.476-1.58,0.938-3.114,1.386-4.513c1.216-0.074,2.985-0.134,5.523-0.134
	c7.485,0,17.408,0.511,23.337,0.815c3.234,0.166,4.824,0.246,5.641,0.248l61.757,0.14c5.785,0.014,6.715,0.203,12.426,2.542
	c18.673,7.647,38.534,8.288,57.277,8.288c1.962,0,3.924-0.007,5.884-0.015l1.257-0.004c48.375-0.164,85.016-8.738,115.314-26.985
	c44.489-26.826,73.397-76.275,81.399-139.24C963.157,238.228,963.893,173.869,935.501,118.589z M950.591,281.59
	c-6.81,53.585-30.336,105.347-78.069,134.129c-33.848,20.384-72.888,25.848-111.724,25.979c-20.884,0.07-42.065,0.312-61.741-7.747
	c-6.463-2.646-8.313-3.049-15.062-3.064c-20.586-0.047-41.172-0.093-61.758-0.14c-3.429-0.008-38.835-2.509-39.882,0.188
	c-4.503,11.6-8.437,38.158-24.767,38.064c-6.49-0.042-9.199-3.959-9.199-3.959s6.017-26.653,7.887-34.416
	c-17.554-0.04-35.107-0.079-52.661-0.119c-44.211-0.1-88.388-0.689-132.56,1.57c-79.27,4.057-158.428,14.399-237.243,0.393
	c-29.531-5.254-58.546-12.541-87.405-20.656c-7.462-2.099-15.808-2.618-20.312-9.625c-6.815-10.691-8.973-24.632-11.048-36.877
	C4.051,300.407,4.92,232.01,9.094,166.562c2.354-25.887,3.395-52.199,10.662-77.337c2.028-7.015,5.295-19.187,13.551-21.449
	c8.748-2.396,17.454-4.928,26.196-7.341C127.512,41.659,194.175,33.79,264.677,37.41c62.333,3.202,124.361,8.342,186.815,8.201
	c34.928-0.079,69.855-0.158,104.783-0.236c-2.072-8.604-7.498-35.785-7.498-35.785s3.326-2.556,8.811-2.59
	c16.33-0.094,20.264,26.465,24.767,38.064c1.047,2.697,36.453,0.197,39.882,0.189c20.586-0.047,41.172-0.094,61.758-0.141
	c8.27-0.019,11.123-1.812,19.467-4.738c18.451-6.466,38.056-6.138,57.337-6.073c68.03,0.231,136.269,23.069,168.442,87.417
	C953.911,169.756,957.304,228.763,950.591,281.59z"/>
</svg>
