<svg xmlns="http://www.w3.org/2000/svg" width="512" height="512" viewBox="0 0 512 512"><path fill="#fff" d="M84.399 84.409c-94.579 94.579-94.579 248.604 0 343.182s248.603 94.578 343.181 0c94.707-94.578 94.707-248.603 0-343.182-94.578-94.579-248.602-94.579-343.181 0z"/><path fill="#FD9832" d="M435.271 76.728c-98.959-98.959-259.462-98.959-358.544 0-99.081 98.959-98.959 259.463 0 358.543 98.959 98.961 259.464 98.961 358.544 0 99.083-98.959 98.959-259.584 0-358.543zm-14.989 343.554c-90.55 90.55-238.014 90.55-328.564 0-90.55-90.55-90.55-238.014 0-328.564 90.55-90.55 238.016-90.55 328.564 0 90.673 90.55 90.673 238.014 0 328.564zM358.615 139.004l-102.859 102.616-102.372-102.129-14.38 14.381 102.371 102.128-102.371 102.128 14.38 14.38 102.372-102.127 102.859 102.615 14.381-14.381-102.859-102.615 102.859-102.616z"/></svg>