<svg xmlns="http://www.w3.org/2000/svg" width="2048" height="2048" viewBox="0 0 2048 2048"><g><g><circle stroke="#F15F61" stroke-width="177" stroke-miterlimit="10" cx="1024" cy="1024" r="915.8" fill="none"/><circle fill="#fff" cx="1024" cy="1024" r="915.8"/></g><path fill="#F15F61" d="M377.4 808.8h81c12.3-93.6 92.1-165.9 188.8-165.9 96.7 0 176.5 72.3 188.8 165.9h78.6c-11.9-138.3-127.6-246.8-268.6-246.8-141 0-256.7 108.5-268.6 246.8z"/><path fill="#F15F61" d="M1111.4 808.8h81c12.3-93.6 92.1-165.9 188.8-165.9 96.7 0 176.5 72.3 188.8 165.9h78.6c-11.9-138.3-127.6-246.8-268.6-246.8-141 0-256.7 108.5-268.6 246.8z"/><path fill="#F15F61" d="M901.5 1053.2c-140.6 0-256 108.2-267.9 246.1h80.8c12.2-93.3 91.8-165.4 188.3-165.4s176 72.1 188.3 165.4h78.4c-11.9-137.9-127.3-246.1-267.9-246.1z"/></g></svg>