<svg xmlns="http://www.w3.org/2000/svg" width="2048" height="620" viewBox="0 0 2048 620"><g><path fill="#F58223" d="M1007.762 254.546l.005-.047-.005.047zM1191.206 247.141c6.075-8.48 11.929-17.094 17.45-25.945 11.141-17.836 21.434-36.232 30.516-55.203 4.572-9.537 8.95-19.168 13.576-28.684 3.881-7.996 7.576-15.752 10.176-24.252 2.682-8.779 5.79-17.922 6.307-27.149.226-4.056.801-8.854-.302-12.804-.316-1.13-2.566-8.066-4.081-8.113-.646-.016.225.942-.821.913-.655.551-.944.343-1.607.881-.952-.025-3.103 1.689-3.86 2.249-2.539 1.855-5.467 4.143-7.258 6.726-2.529 3.643-5.465 7.142-7.56 11.028l-5.451 10.111c-1.895 4.139-4.363 8.002-6.2 12.168-1.683 3.821-3.13 7.664-4.963 11.429-3.842 7.913-7.326 16.073-10.66 24.223-7.571 18.54-14.157 37.673-20.102 56.794-5.593 17.943-9.832 36.253-15.094 54.291l.108-.371.097-.345.069-.217.31-1.062c.508-1.746 1.194-4.092 1.52-5.219l.07-.236-.07.236c-.237.802-.72 2.443-1.52 5.219l-.31 1.062-.069.217-.097.345-.108.375c-.76 2.619-1.485 5.252-2.214 7.882.903.451 11.409-15.518 12.148-16.549zM1181.25 255.886zM1359.82 258.367c7.668-10.132 15.219-20.509 22.335-31.032-5.118-.104-10.241-.206-15.361-.305l-3.687-.065c-1.953-.038-2.559-.69-3.224 1.368-.916 2.85-1.822 5.707-2.684 8.568-1.844 6.015-3.538 12.073-5.359 18.089-1.539 5.053-3.573 10.03-4.757 15.18l-.012.066c-.447 1.981-.867 3.967-1.275 5.956 1.017.488 12.832-16.256 14.024-17.825zM1347.075 270.236l.009-.048c-.2.894-.105.494-.009.048zM1347.084 270.193l.005-.02c.1-.45.21-.888-.005.02zM1519.386 417.107c5.134 1.938 10.218 3.49 15.674 4.363 7.58 1.217 15.368-.117 22.743-1.922 5.551-1.35 11.16-3.027 16.428-5.262 4.15-1.77 9.151-3.801 12.702-6.621 7.287-5.68 12.45-13.094 17.022-21.139 2.694-4.738 4.032-10.188 5.693-15.332 1.328-4.123 1.192-8.498 2-12.686 1.414-7.203 2.159-19.271-4.031-24.581-7.905-6.77-20.831-9.692-30.99-9.227-11.006.5-22.001 3.973-31.338 9.796-19.048 11.88-31.207 29.771-40.214 49.853l-.005.033c-1.522 3.379-2.786 6.867-3.855 10.414-.62 2.076-3.61 9.619-2.11 11.154 6.444 4.476 12.935 8.382 20.281 11.157zm39.99-60.033c5.517-3.443 12.081-5.498 18.471-5.795.292-.012.591-.02.895-.02 2.564 0 5.017.414 7.019.957l-.207 1.207c-.558 2.818-.816 5.346-1.025 7.379-.089.867-.212 2.018-.298 2.555-.358 1.113-.706 2.242-1.049 3.375-.785 2.572-1.676 5.48-2.348 6.652-3.799 6.697-6.862 10.672-10.222 13.295-1.017.688-4.124 2.004-5.981 2.795l-.796.34c-3.304 1.402-7.354 2.686-12.347 3.91-2.856.699-7.037 1.625-10.293 1.625-.719 0-1.353-.045-1.894-.133-2.696-.432-5.472-1.176-8.843-2.381 8.003-17.073 17.234-28.474 28.918-35.761zM1398.723 198.196c2.097.123 2.421-1.296 3.188-3.1 1.308-3.112 3.401-5.96 5.06-8.906 7.548-13.367 13.83-27.383 20.571-41.156 3.07-6.252 6.346-12.402 9.344-18.688 3.157-6.599 4.453-14.323 6.641-21.275 2.288-7.288 2.552-14.326 2.629-21.854.033-2.893-.716-6.802-1.976-9.393-.226-.47-2.187-3.146-2.293-1.292-.645.51-1.587.125-1.628.854-3.485-.175-8.61 5.084-10.886 7.278-2.886 2.782-5.212 6.367-7.604 9.579-3.126 4.215-5.49 8.941-8.178 13.431-2.358 3.94-4.956 7.662-7.039 11.755-9.297 18.261-18.66 36.663-26.243 55.707-3.365 8.438-6.606 16.924-9.752 25.446 7.221.399 14.44.81 21.662 1.23 2.171.134 4.336.255 6.504.384zM1505.075 384.377l.009-.02-.009.02zM1785.271 320.491c-3.861-3.379-9.579-3.7-14.435-3.625-3.239.054-8.263.487-11.584 2.384-3.67 2.101-7.711 6.16-6.142 10.772 2.067 6.076 7.179 10.101 11.932 14.011 5.267 3.045 9.985 6.627 15.604 9.051.81.348 4.469 2.449 5.192 1.424.983-1.377 1.295-3.436 1.683-5.049 1.032-4.234 2.054-8.66 2.509-12.979v-.019c.585-5.689-.216-11.994-4.759-15.97zM1790.031 336.461c.371-3.551.071-.649 0-.016v.016zM564.316 235.516c3.715-5.239 6.721-10.752 10.108-16.264 10.307-16.768 19.135-35.041 26.457-53.295 3.784-9.429 7.078-19.076 10.009-28.807 2.293-7.619 5.123-15.65 6.492-23.49 1.446-8.212 1.621-16.434.995-24.777-.265-3.576-1.564-6.709-2.662-10.069-.69-2.142-2.134-7.361-5.157-7.2.023.469.049.936.079 1.396-3.035.16-5.807 3.547-7.689 5.622-2.568 2.835-4.605 6.514-6.586 9.781-4.358 7.178-7.447 15.626-10.572 23.405-3.033 7.562-4.925 15.624-7.54 23.352-2.05 6.05-3.425 12.816-6.207 18.528-1.353 2.778-1.738 6.696-2.59 9.741-1.03 3.674-2.255 7.25-2.766 11.043-1.075 8.073-3.518 15.988-5.013 24.008-2.756 14.736-5.484 29.471-8.412 44.163l.175-.885-.181.897c-.668 3.346-1.17 6.729-1.681 10.102.709.333 11.737-15.828 12.741-17.251zM2026.125 460.457c-1.13-6.678-4.324-12.652-9.195-17.375-1.735-1.727-3.861-3.385-6.413-4.92l-1.004-.578c-5.101-2.852-10.791-4.355-16.464-4.355-6.757 0-19.615 2.197-29.844 16.898-1.863 2.688-4.16 5.516-6.583 8.525-1.417 1.758-2.837 3.512-4.225 5.293-5.695 7.307-12.024 14.307-18.726 21.713l-2.757 3.051c-12.222 13.545-24.023 24.426-35.948 33.113 2.324-11.297 6.854-22.736 11.48-33.742 7.104-16.893 18.471-33.229 32.021-45.986 2.433-2.289 5.344-4.51 8.92-6.781l1.356-.865c4.677-2.953 11.093-6.988 16.771-13.725 12.614-14.957 16.419-34.934 10.184-53.473-5.413-16.072-18.617-29.494-35.32-35.897-7.043-2.711-14.674-4.037-23.318-4.037-7.847 0-15.201 1.107-21.347 2.18-4.003.703-7.991 1.436-11.966 2.171-7.326 1.348-14.245 2.628-21.198 3.663-8.828 1.312-18.631 2.157-31.649 2.722.05-.776.098-1.562.167-2.359 1.581-19.417-7.729-39.496-23.145-49.958-13.651-9.276-27.302-11.636-40.008-12.812-2.776-.245-5.561-.381-8.291-.381-15.119 0-29.106 3.927-40.455 11.356-8.321 5.449-18.208 13.195-24.855 26.226-6.632-13.6-16.133-25.396-27.762-33.789-10.036-7.236-20.157-11.338-29.96-14.098 1.025.051 2.059.079 3.103.079 19.555 0 28.659-10.993 32.338-17.547 4.53-8.062 5.509-17.767 2.69-26.618-2.868-9.01-9.414-16.509-17.975-20.557-6.317-2.993-12.199-3.361-15.361-3.557l-.773-.052-10.568-1.044c-12.577-1.236-25.156-2.439-37.746-3.627-42.813-4.043-86.16-7.876-129.341-11.436 3.652-7.775 7.302-15.695 10.772-23.701 8.769-20.231 17.434-42.217 21.449-65.926 3.111-18.408-2.417-37.285-14.772-50.496-10.237-10.94-25.896-17.491-42.972-17.965-.738-.022-1.482-.035-2.224-.035-24.051 0-50.176 11.325-73.568 31.879-18.496 16.262-34.638 36.063-47.965 58.854-1.715 2.94-3.397 5.885-5.044 8.834 2.141-6.428 4.098-12.984 5.763-19.703 3.127-12.68 7.426-30.041 1.176-48.715-6.318-18.912-22.223-32.393-42.53-36.064-4.004-.727-8.899-1.482-14.86-1.631-.557-.02-1.127-.023-1.69-.023-7.637 0-15.3 1.339-24.153 4.225-14.111 4.615-26.967 11.582-37.175 20.151-19.43 16.296-35.77 35.618-49.932 59.064l-.326.544c-3.168 5.244-6.757 11.178-9.639 18.068-.577 1.371-1.543 3.181-2.568 5.092-1.662 3.113-3.553 6.649-5.23 10.887-1.766 4.471-3.813 9.008-5.982 13.811-.976 2.139-1.949 4.305-2.921 6.503 1.239-3.316 2.512-6.64 3.883-10.019 4.101-10.092 8.745-21.537 11.85-33.428l.388-1.468c5.258-20.103 17.568-67.171-21.491-88.513-9.425-5.148-21.143-7.986-32.979-7.986-3.468 0-6.89.242-10.175.727-15.772 2.32-31.486 8.678-43.095 17.441-8.447 6.371-18.312 14.217-27.538 24.16-8.007 8.63-15.57 18.494-23.126 30.158-8.094 12.504-14.668 25.43-20.584 38.377-12.65-20.294-35.931-32.8-62.89-32.8-34.858 0-63.304 20.812-70.779 51.793-5.142 21.303.729 43.409 15.396 59.52 1.092 1.393 2.326 2.693 3.702 3.871l5.017 4.287c1.232 1.032 2.527 1.928 3.874 2.697 12.333 8.316 27.261 12.842 42.823 12.842 9.807 0 19.445-1.852 28.312-5.355-.427 1.627-.867 3.271-1.289 4.863-6.464 24.761-11.565 49.833-15.159 74.528-2.142 14.738-3.518 26.124-4.461 36.902-.145 1.659-.274 3.316-.402 4.978-.274 3.533-.529 6.867-.947 9.869-.639 4.594-.836 8.787-1.012 12.479-.078 1.672-.155 3.355-.284 5.049-.188 2.371-.344 4.141-.477 5.588-.42 4.852-.606 7.234-.573 13.061-2.646 2.971-5 5.953-7.142 8.66l-1.796 2.262c-2.282 2.844-4.531 5.703-6.792 8.561-4.251 5.395-8.271 10.494-12.437 15.477-6.364 7.646-14.091 15.252-22.107 23.018-.9.875-1.813 1.756-2.733 2.641.25-.982.512-1.98.787-2.971.984-3.611 1.72-7.082 2.358-10.15.433-2.053.858-4.109 1.369-6.133.623-2.42 1.586-5.215 2.614-8.168.865-2.492 1.725-4.984 2.497-7.506 3.077-9.967 18.799-52.309 23.124-62.611.988-2.354 2.059-4.669 3.129-6.988 1.301-2.824 2.59-5.637 3.806-8.508.783-1.879 1.524-3.766 2.256-5.649 1.167-2.976 2.171-5.556 3.231-7.579.299-.572.577-1.156.836-1.754.697-1.604 1.513-3.312 2.307-4.987 1.249-2.65 2.468-5.24 3.394-7.476l.218-.531c2.201-5.278 5.52-13.259 4.669-24.425-1.289-16.97-9.991-32.636-23.863-42.972-11.183-8.347-25.135-12.937-39.281-12.937-22.043 0-42.098 10.744-53.657 28.757-3.52 5.486-5.395 10.609-6.908 14.725-.297.822-.599 1.648-.925 2.475-2.028 5.209-3.777 10.383-5.39 15.236-3.232 9.716-6.442 19.431-9.649 29.155-.135.396-.252.801-.369 1.203l-1.05 3.771c-5.987 21.523-12.178 43.775-16.811 66.628 0 0-.584 2.861-.76 3.742-3.055 4.527-9.105 12.887-11.94 16.564-1.502 1.949-2.778 3.602-3.959 5.098 2.87-5.918 5.774-12.234 8.66-19.34 4.42-10.885 7.455-21.764 10.386-32.268l.585-2.102c3.483-12.463 5.028-25.665 4.577-39.23-1.09-33.124-18.899-61.779-46.472-74.781-11.333-5.348-24.137-8.063-38.064-8.063-14.011 0-28.514 2.793-41.939 8.076-.9.354-1.794.72-2.687 1.095l.615-1.273c1.066-2.212 2.267-4.712 3.394-7.565 2.346-5.917 4.609-11.86 6.857-17.81l2.678-7.032c3.388-8.833 6.886-17.972 9.975-27.432 8.22-25.187 13.956-47.433 17.523-68.015.122-.727.219-1.459.285-2.195.201-2.254.465-4.623.735-7.064 2.14-19.259 5.725-51.51-18.582-72.703-9.597-8.36-22.78-12.961-37.125-12.961-2.972 0-5.926.207-8.79.611-14.741 2.089-28.319 7.574-41.498 16.775-10.841 7.566-20.396 16.715-28.406 27.189-1.081 1.414-2.227 2.764-3.374 4.11-2.242 2.653-4.781 5.661-7.279 9.257-3.562 5.146-7.004 10.771-10.827 17.705-6.643 12.036-12.506 25.209-17.921 40.355-4.639-17.514-13.883-33.536-27.448-47.346-18.75-19.076-44.031-31.658-75.147-37.386-12.812-2.357-26.255-3.507-41.113-3.507-11.718 0-24.225.721-38.239 2.216-24.758 2.634-49.251 8.226-74.872 17.086-49.442 17.091-94.125 47.442-125.821 85.485-31.367 37.649-54.883 82.086-69.902 132.099-11.208 37.309-21.886 94.454-9.121 154.809 13.242 62.592 40.896 107.65 82.191 133.928 9.619 6.115 21.59 13.738 35.735 18.805 11.79 4.225 24.448 7.498 37.625 9.719 11.146 1.869 21.898 1.869 30.531 1.869h1.864c1.974 0 3.943 0 5.921.025h1c8.095 0 15.468-1.107 21.972-2.084 3.399-.51 6.61-.998 9.558-1.271 5.276-.479 9.95-1.682 13.701-2.648 1.044-.266 2.079-.539 3.104-.771 2.092-.479 4.194-.922 6.291-1.379 3.07-.656 6.137-1.318 9.203-2.053 11.225-2.699 21.805-6.117 30.669-9.1 19.577-6.594 38.991-15.045 57.701-25.123 14.21-7.668 27.448-16.115 39.508-25.223-.106 8.625 1.064 18.961 7.073 29.285 9.221 15.844 25.158 26.086 43.716 28.102 2.129.225 4.293.348 6.43.348 16.92 0 32.892-7.189 43.827-19.711 10.212-11.701 12.396-24.789 13.983-34.348.254-1.508.5-3.023.794-4.525.858-4.342 1.471-7.025 2.458-9.623 1.662-4.393 3.523-8.814 5.495-13.5l2.119-5.012c4.029-9.598 7.833-18.65 12.213-27.293 12.738-25.133 26.063-46.803 40.689-66.166-.544 2.311-1.07 4.656-1.572 7.033-1.696 8.133-3.189 16.283-4.631 24.17l-1.67 9.086c-5.371 28.732-4.723 52.508 1.984 72.682 5.225 15.734 15.705 29.014 28.779 36.461 6.764 3.846 13.278 6.402 20.537 8.039 1.499.346 10.55 2.047 17.412 2.047 3.213 0 6.222-.381 9.009-1.154 37.167-4.602 64.448-35.264 73.681-45.648 3.136-3.529 6.104-7.111 8.962-10.725 6.705 14.645 16.511 26.193 29.155 34.348 11.296 7.275 26.189 11.621 39.829 11.621 3.761 0 7.43-.33 10.915-.971.973-.182 1.931-.33 2.882-.48 3.602-.564 8.078-1.275 13.158-2.971 6.894-2.295 12.445-5.365 17.491-8.158 12.664-7.02 23.082-16.977 31.607-25.793 8.866-9.17 16.48-19.416 23.508-29.186 1.357 3.479 2.832 6.963 4.445 10.408 15.331 32.818 42.987 52.41 74.211 52.41 34.725 0 67.376-17.623 94.718-50.467 2.162 4.236 4.412 8.227 6.559 12.023l.49.869c7.798 13.844 21.331 25.914 36.222 32.311 7.837 3.361 15.971 5.389 24.206 6.021 1.556.109 3.104.162 4.652.162 1.916 0 3.816-.082 5.719-.176.984-.059 1.975-.111 3.188-.111l.893.008c8.137 0 15.909-2.184 22.432-4.326 7.284-2.393 14.141-5.262 20.361-8.514 10.902-5.699 21.37-13.475 32.93-24.49 3.892-3.719 6.884-7.469 9.526-10.785.895-1.135 1.803-2.273 2.724-3.373.18-.195.347-.389.512-.598 2.953 6.037 6.182 11.471 9.697 16.369 17.282 24.006 39.853 38.832 67.092 44.045 5.698 1.096 11.594 1.652 17.517 1.652 21.085 0 42.975-7.047 61.638-19.838 6.567-4.502 12.46-9.451 17.814-14.641 6.438 10.961 14.267 20.502 23.173 28.029 20.504 17.326 47.546 27.846 76.129 29.619 3.071.197 6.207.285 9.312.285 23.223 0 47.405-5.305 71.891-15.766 23.765-10.152 46.186-22.359 66.646-36.291 19.942-13.578 39.071-29.094 58.483-47.455 10.429-9.879 19.555-20.242 27.31-29.195 2.828-3.27 5.61-6.178 8.56-9.262 2.929-3.07 5.917-6.193 8.983-9.703 3.962 1.205 8.049 2.338 12.304 3.283 2.16.484 4.188.959 6.138 1.412 4.256.986 8.392 1.951 12.845 2.787-1.24 4.631-2.289 9.191-3.173 13.725-2.469 12.719-4.113 26.188-4.878 40.01-.815 14.744-.137 27.486 2.068 38.926 2.371 12.27 5.652 26.451 14.717 39.381 10.33 14.74 27.025 24.975 44.664 27.375 2.615.352 5.297.537 7.973.537h.002c16.893 0 34.108-6.854 52.624-20.943 12.109-9.203 23.374-19.729 35.457-33.117 12.221-13.557 23.924-27.328 34.774-40.938 5.557-6.965 11.088-13.939 16.602-20.936.277-.363.623-.758.971-1.176 4.55-5.4 14.029-16.65 11.377-32.316zm-325.746-71.621c5.051 7.521 11.062 14.018 17.602 19.816l-2.908 2.59c-3.381 2.988-6.812 6.041-10.266 9.303-6.331 5.975-11.619 10.521-16.633 14.299-4.229 3.186-9.379 6.146-14.82 9.281l-2.41 1.393c-1.632.945-3.256 1.873-4.866 2.779 2.942-3.123 5.903-6.504 8.916-10.178 11.881-14.502 20.526-31.404 25.385-49.283zm-784.179-197.957c-17.332 9.281-40.402 7.142-55.375-5.66 9.036 7.733-9.044-7.727 0 0-11.266-9.635-16.467-24.46-12.959-38.998 9.818-40.636 75.798-42.075 89.078-3.187 6.547 19.174-3.491 38.61-20.744 47.845zm1076.678 286.617c-5.478 6.953-10.982 13.889-16.5 20.803-10.836 13.582-22.104 26.811-33.738 39.705-9.852 10.914-20.105 20.871-31.811 29.775-11.28 8.59-26.182 17.23-40.907 15.229-10.446-1.432-20.434-7.67-26.471-16.285-6.023-8.607-8.423-19.031-10.377-29.16-2.022-10.482-2.223-21.766-1.63-32.42.674-12.217 2.093-24.393 4.431-36.402 1.706-8.777 4.078-17.225 6.971-25.672 1.199-3.502 2.431-6.979 3.635-10.48.196-.596 1.096-1.645 2.205-5.447-1.468-.297-6.527-.473-7.754-.473-3.839-.006-7.554-.816-12.039-1.27-10.907-1.102-18.441-3.24-29.131-5.615-7.916-1.77-15.63-4.426-23.284-7.061-.56-.197-3.964-1.814-4.349-1.293-1.522 2.047-3.045 4.1-4.562 6.15-7.652 10.307-15.181 16.715-23.584 26.438-8.207 9.486-16.368 18.65-25.469 27.268-17.32 16.377-35.452 31.369-55.176 44.791-19.559 13.326-40.354 24.514-62.128 33.818-21.809 9.324-45.332 14.867-69.104 13.395-21.735-1.346-43.854-9.236-60.605-23.396-17.444-14.74-27.913-39.012-31.62-61.295-11.676 17.566-23.943 34.207-41.571 46.289-16.958 11.627-38.568 17.949-59.112 14.012-21.352-4.088-37.869-15.91-50.5-33.465-12.274-17.049-18.616-42.193-22.47-62.611-5.564 10.445-11.438 20.932-18.286 30.594-3.568 5.037-7.318 9.873-11.316 14.58-3.413 4.023-6.514 8.473-10.338 12.111-8.093 7.715-16.932 14.979-26.888 20.174-5.235 2.742-10.724 4.977-16.335 6.811-4.296 1.414-9.939 3.092-14.484 2.998-4.012-.068-7.999.502-12.094.199-5.409-.41-10.76-1.803-15.742-3.941-9.271-3.986-18.562-12.09-23.533-20.926-5.409-9.588-10.794-18.961-13.688-29.68-3.053-11.33-5.36-22.877-7.072-34.477-2.108 4.111-4.341 8.158-6.539 12.232-19.771 36.604-52.318 75.967-97.636 75.967-23.246.107-40.796-17.127-50.114-37.076-9.743-20.859-14.235-43.762-16.879-66.562-4.491 7.766-8.974 15.564-13.79 23.137-5.999 9.422-12.308 18.766-18.823 27.848-6.652 9.262-13.751 18.91-21.687 27.129-7.501 7.762-15.891 15.756-25.388 21.023-4.229 2.344-8.382 4.645-12.99 6.188-4.195 1.393-8.244 1.736-12.486 2.523-10.033 1.861-23.011-1.391-31.486-6.857-8.823-5.682-15.179-13.797-19.488-23.307-9.036-19.957-9.279-44.104-7.333-65.574-7.202 10.9-13.093 26.506-20.623 37.184-7.919 11.225-15.802 22.482-24.946 32.762-15.396 17.316-36.083 35.859-60.421 37.234.084 1.684-12.35-.389-13.965-.756-4.871-1.102-8.898-2.742-13.241-5.211-7.964-4.533-13.839-13.172-16.68-21.719-6.225-18.732-4.662-40.24-1.077-59.412 2.033-10.9 3.924-21.857 6.192-32.703 2.214-10.623 5.23-21.08 7.601-31.668 2.357-10.533 4.75-13.441 7.412-23.896 1.279-5.029 1.905-10.156 2.939-15.234.569-2.781.946-5.6 1.508-8.369.358-1.754 1.175-3.691 1.077-5.499-6.329 3.24-12.859 5.506-18.942 9.297-5.791 3.609-11.685 7.053-16.751 11.67-10.913 9.953-19.969 21.395-28.934 33.092-17.339 22.635-31.901 46.842-44.791 72.283-5.305 10.477-9.751 21.277-14.305 32.096-2.282 5.422-4.591 10.816-6.67 16.316-1.763 4.664-2.709 8.992-3.675 13.883-1.823 9.254-2.234 19.105-8.719 26.537-6.829 7.818-17.123 11.516-27.36 10.402-9.975-1.066-18.513-6.293-23.587-15.025-4.925-8.463-3.392-17.609-2.735-26.939 1.389-19.762 3.27-39.758 6.192-59.371-12.089 14.85-25.192 29.174-39.877 41.484-14.109 11.83-29.575 21.992-45.774 30.73-17.149 9.242-35.102 17.119-53.566 23.33-9.348 3.148-18.812 6.141-28.404 8.453-5.058 1.211-10.164 2.201-15.232 3.375-4.327.99-8.861 2.455-13.278 2.855-9.997.92-19.667 3.355-29.801 3.238-11.452-.127-22.864.377-34.199-1.533-11.197-1.885-22.374-4.686-33.069-8.518-11.004-3.939-20.64-9.969-30.428-16.207-40.593-25.826-60.834-71.549-70.445-116.982-9.823-46.438-5.001-96.474 8.566-141.66 13.406-44.637 34.963-86.833 64.863-122.719 29.576-35.5 70.555-62.326 114.073-77.374 22.509-7.783 45.292-13.252 69-15.774 23.642-2.516 48.229-3.326 71.724 1 22.787 4.193 44.552 13.147 60.992 29.873 16.357 16.644 24.508 37.664 23.144 60.994-2.766 47.236-38.221 85.107-76.916 108.369-9.85 5.914-20.185 10.56-30.515 15.518-5.068 2.432-10.216 4.208-15.378 6.361-3.643 1.513-7.629 2.108-11.188 3.734-9.604 4.396-22.684 1.956-31.214-3.711-8.042-5.336-13.472-14.99-13.409-24.712.063-9.901 6.431-18.999 14.648-24.111 4.093-2.55 8.827-4.212 13.432-5.551 4.515-1.319 8.967-3.39 13.315-5.224 20.205-8.529 40.829-18.398 57.149-33.367 16.296-14.952 29.477-35.551 26.492-58.484-2.947-22.633-19.121-39.778-39.184-49.188-22.011-10.324-46.468-10.065-69.908-5.77-22.274 4.084-42.63 12.021-61.583 24.355-39.38 25.61-67.59 65.709-88.496 107.105-21.598 42.759-31.313 91.142-32.962 138.738-1.588 45.832 6.438 96.986 33.967 134.848 6.221 8.562 13.461 16.453 21.872 22.898 9.139 7.002 18.874 11.521 29.825 14.863 10.384 3.156 20.441 4.529 31.229 5.404 9.968.816 19.914-.234 29.886-.662 46.282-1.947 92.29-19.748 129.147-47.52 17.695-13.328 32.547-29.549 44.774-47.938 3.042-4.576 6.736-8.686 9.67-13.352 2.638-4.195 2.744-8.773 3.43-13.641 1.733-12.268 3.485-24.537 5.426-36.781 7.73-48.822 17.555-97.625 29.002-145.713 5.184-21.776 11.643-43.253 17.813-64.767 6.09-21.231 13.469-42.132 24.159-61.51 2.903-5.266 5.973-10.452 9.4-15.405 3.038-4.378 6.705-8.151 9.924-12.369 6.305-8.244 13.935-15.552 22.499-21.535 9.188-6.413 18.823-10.661 30.004-12.247 8.151-1.157 18.292.48 24.71 6.07 15.926 13.885 10.442 39.027 8.819 57.37-3.766 21.729-9.745 43.306-16.598 64.3-3.673 11.246-8.062 22.243-12.245 33.304-2.207 5.819-4.418 11.64-6.709 17.425-1.917 4.835-4.741 9.475-6.263 14.445-1.406 4.604-4.033 9.086-6.39 13.257-2.51 4.439-4.719 9.113-7.041 13.657-5.153 10.089-10.713 19.975-15.88 30.063-5.373 10.499-11.145 20.795-16.092 31.498-2.526 5.461-4.885 10.986-7.288 16.502-2.249 5.143-4.887 10.145-6.462 15.555-8.445 21.553-9.536 45.73-13.627 68.449 7.908-20.105 16.103-39.861 25.997-59.113 5.133-9.975 10.966-19.457 16.476-29.201 5.628-9.952 11.192-19.969 17.89-29.25 13.522-18.726 29.968-34.972 51.83-43.576 17.987-7.082 40.992-9.163 58.906-.713 19.881 9.378 30.55 30.392 31.244 51.602.347 10.539-.765 21.016-3.611 31.187-2.95 10.553-5.873 21.367-10.004 31.527-9.023 22.225-18.532 36.643-27.605 58.836-4.047 9.906-8.281 19.744-11.695 29.898-1.816 5.396-3.965 10.709-5.438 16.215-.345 1.281-3.025 12.221-2.36 12.672.938.658 5.882-2.627 6.846-3.088 3.295-1.551 6.384-3.32 9.416-5.32 6.522-4.318 13.182-9.104 19.011-14.312 12.802-11.426 24.904-23.338 36.861-35.639 6.865-7.053 9.983-10.998 15.978-18.783 3.339-4.338 15.818-21.402 16.156-23.354.457-2.643 1-5.271 1.535-7.902 4.703-23.195 11.085-45.777 17.414-68.56 3.196-9.695 6.4-19.392 9.622-29.076 1.568-4.696 3.146-9.367 4.939-13.986 1.678-4.294 2.917-8.563 5.452-12.502 11.727-18.281 37.532-21.613 54.635-8.855 7.492 5.584 12.538 14.312 13.248 23.668.385 5.021-1.092 8.306-2.936 12.736-1.473 3.555-3.808 8.089-5.541 12.099-2.576 4.928-4.292 10.139-6.446 15.256-2.198 5.222-4.748 10.294-6.944 15.521-4.498 10.731-20.639 54.122-24.007 65.055-1.751 5.676-3.991 11.162-5.464 16.92-1.338 5.256-2.179 10.623-3.611 15.838-3.019 11.049-5.182 22.236-6.048 33.668-.403 5.371-.259 10.744.581 16.059.311 1.979.703 3.873 1.373 5.744.569 1.594.119 2.359 2.267 2.301 1.886-.062 2.983.389 4.991-.133 1.924-.508 3.766-.863 5.586-1.732 4.5-2.15 8.793-4.98 12.793-7.949 8.786-6.51 16.73-13.895 24.575-21.498 8.241-7.988 16.672-16.258 24.025-25.08 6.674-8.006 13.037-16.305 19.552-24.445 3.184-3.975 6.429-8.285 9.963-11.936 1.553-1.586 2.85-3.385 4.209-5.146 1.334-1.734.679-4.699.648-6.859-.162-10.521.101-9.699.922-20.186.418-5.355.383-10.572 1.125-15.932.745-5.375 1.033-10.795 1.506-16.191 1.036-11.813 2.581-23.66 4.284-35.39 3.505-24.091 8.424-48.085 14.578-71.644 6.101-23.364 12.907-47.124 22.242-69.428 9.053-21.635 17.967-43.155 30.766-62.922 6.075-9.367 12.711-18.342 20.307-26.534 7.376-7.946 15.452-14.519 24.06-21.006 8.494-6.417 20.453-10.815 30.946-12.356 8.534-1.261 18.933.132 26.519 4.28 21.396 11.687 12.925 41.499 8.126 59.934-2.683 10.253-6.845 20.494-10.827 30.288-4.285 10.549-7.906 21.367-12.285 31.891-8.779 21.082-17.657 42.155-26.998 62.992-10.01 22.342-20.349 44.566-31.198 66.515-10.354 20.931-22.16 41.137-32.452 62.053-2.376 4.826-5.409 9.264-7.967 13.984-1.259 2.32-.894 4.908-1.267 7.443-.385 2.617-.67 5.18-.69 7.836-.081 11.24-2.1 22.398-2.422 33.641-.632 21.896-2.021 33.961 4.129 55.178 1.351 4.666 3.2 8.848 5.237 13.217 1.853 3.996 5.933 3.209 9.814 2.889 9.839-.801 18.891-6.234 26.602-12.031 9.487-7.154 17.78-14.752 25.405-23.912 7.522-9.025 14.555-18.26 20.964-28.107 3.055-4.697 6.173-9.322 9.204-14.031 2.694-4.191 4.698-8.701 7.368-12.902 2.694-4.248 2.142 2.998 2.18-1.877.055-5.326.436-10.629.674-15.957.985-21.869 4.084-43.678 7.22-65.351 7.005-48.394 19.834-96.004 37.051-141.744 4.146-11.016 9.573-21.451 13.897-32.383 2.127-5.372 5.364-10.165 7.585-15.484 2.209-5.281 5.249-10.237 8.196-15.123 12.054-19.941 26.399-37.452 44.268-52.442 8.207-6.886 18.207-11.928 28.353-15.243 5.511-1.802 11.045-3.055 16.86-2.902 3.869.098 7.099.544 10.839 1.218 10.33 1.863 18.643 8.165 22.043 18.319 3.792 11.33.984 22.766-1.765 33.904-5.271 21.305-14.117 41.602-22.595 61.809-8.719 20.755-18.123 41.319-27.631 61.726-10.407 22.313-21.293 44.415-32.439 66.362-5.488 10.792-11.109 21.511-17.036 32.057-5.71 10.148-10.856 20.755-17.151 30.541-3.175 4.945-5.36 10.408-8.525 15.352-2.36 3.691-6.064 7.896-6.559 12.365-1.191 11.045-1.988 22.121-3.391 33.168-2.812 22.207-2.611 40.803-1.042 63.049.664 9.34 4.036 15.896 7.837 18.508 3.802 2.609 10.261 2.346 13.034 1.836 4.516-.838 8.827-2.568 12.917-4.637 20.524-10.42 36.305-28.494 50.114-46.463 6.703-8.734 12.775-18.02 18.888-27.166 1.716-2.59 2.967-5.402 4.541-8.076.686-1.033 1.359-2.055 2.036-3.08-.036-1.455-.065-2.902-.079-4.35-.079-5.791-.008-.199.213-5.986.922-24.254 3.52-48.681 7.352-72.643 7.125-44.657 19.924-87.679 36.39-129.734 8.635-22.042 19.252-43.528 31.196-63.958 11.325-19.374 25.687-37.466 42.561-52.303 15.438-13.566 36.336-25.836 57.49-25.242 8.599.238 18.184 3.029 24.287 9.554 6.907 7.384 9.673 17.83 7.97 27.896-3.523 20.816-11.264 40.49-19.62 59.775-8.435 19.457-17.975 38.415-26.771 57.71 55.78 4.396 111.535 9.223 167.253 14.485 12.547 1.194 25.092 2.391 37.635 3.621 3.518.343 7.03.69 10.543 1.039 2.402.237 5.158.126 7.39 1.18 3.722 1.766 5.567 6.393 3.472 10.105-2.932 5.207-10.284 3.879-15.137 3.682-6.073-.246-12.132-.486-18.202-.727-12.635-.494-25.274-.972-37.918-1.415-50.557-1.801-101.12-3.24-151.702-4.288-3.539-.076-7.083-.145-10.622-.215-2.375-.045-5.466-1.017-6.652 1.114-2.689 4.817-4.772 9.937-7.212 14.87-5.465 11.044-11.538 21.807-17.32 32.695-11.38 21.441-23.465 42.481-35.745 63.408-5.646 9.63-11.639 19.041-17.391 28.591-1.322 2.195-2.799 4.354-3.9 6.666-.46.945-1.187 2.947-2.1 3.445-.686.369-.868 5.162-.952 6.07-.235 2.734-.42 5.473-.65 8.219-1.914 23.527-2.363 40.131.965 63.557 1.546 10.828 4.726 21.529 10.763 30.746 5.561 8.492 14.305 11.693 23.993 12.09 10.374-.492 20.298-5.58 28.352-11.842 8.492-6.598 16.317-13.906 23.228-22.172 7.003-8.375 13.594-16.971 19.316-26.285 5.348-8.705 11.283-17.289 15.681-26.525 9.33-19.613 19.126-35.152 31.712-53.186 6.735-9.664 14.991-18.171 23.172-26.602 7.359-7.573 15.999-15.145 24.909-20.839 18.104-11.562 38.478-23.229 60.091-26.312 11.427-1.633 22.354-3.424 33.805-1.041 11.629 2.406 21.884 5.408 31.666 12.462 18.29 13.199 28.055 38.132 27.279 60.557-.777 22.809-9.356 45.121-23.841 62.795-7.117 8.678-15.011 16.887-24.275 23.291-4.354 3.016-9.051 5.486-13.611 8.168-2.839 1.678-6.696 3.156-9.954 3.615-4.997.729-9.898 2.557-14.918 3.387-5.737.947-11.532 1.506-17.338 1.787-11.279.545-22.344-.357-33.272-3.232-5.157-1.359-10.103-3.666-14.851-6.068-4.139-2.1-8.925-4.303-12.423-7.41-3.417-3.045-7.204-5.857-10.061-9.451-1.586-1.988-3.196-3.982-4.67-6.066-.761-1.088-1.509-2.191-2.315-3.248-.622-.811-1.006-2.189-1.664-2.898-1.316 20.666-.018 38.879 11.972 56.615 5.514 8.156 12.816 14.201 22.187 17.367 9.446 3.182 18.646 5.693 28.618 6.59 10.781.965 21.442 1.201 32.269.408 11.544-.855 23.119-3.961 34.068-7.602 20.975-6.979 41.003-16.932 60.092-27.988 6.77-3.922 13.628-7.729 19.893-12.443 6.629-4.988 12.863-10.514 18.892-16.201 12.518-11.82 24.88-20.764 34.511-35.094-.395-.246-.783-.51-1.178-.764-17.341-11.156-33.965-23.832-40.957-44.125-3.665-10.691-3.083-22.113.49-32.745 3.267-9.717 9.446-15.541 17.798-21.011 9.286-6.079 20.862-7.736 31.732-6.731 10.031.922 19.016 2.554 27.511 8.321 7.764 5.275 12.324 16.607 11.576 25.809-.388 4.696-.393 9.296-1.79 13.875-1.218 4.031-2.296 8.047-3.632 12.068 11.877 1.107 19.788 5.688 31.723 5.188 11.854-.484 23.865-1.281 35.605-3.037 11.35-1.688 22.526-3.969 33.827-5.941 9.751-1.709 21.103-3.152 30.55.479 8.807 3.387 16.596 10.512 19.646 19.562 3.235 9.604 1.226 20.104-5.301 27.828-3.397 4.045-7.702 6.514-12.094 9.311-4.557 2.904-8.933 6.15-12.865 9.854-16.095 15.154-29.75 34.678-38.31 55.047-8.198 19.514-15.873 40.135-15.124 61.686.177 5.053 1.993 20.922 10.243 19.311 4.803-.945 9.605-1.641 14.156-3.752 4.835-2.246 9.759-4.992 14.162-7.992 16.822-11.445 31.715-25.432 45.304-40.498 7.767-8.613 15.577-17.084 22.717-26.227 3.883-4.982 8.05-9.789 11.666-14.975 2.613-3.773 6.633-7.307 11.571-4.48l.007.006h.004c7.902 4.499-.166 12.072-3.73 16.599zm-1707.192-155.646c9.962 6.61 22.631 10.408 34.752 10.408 7.987 0 15.472-1.57 22.048-4.588.758-.292 1.548-.481 2.332-.703 2.253-.644 5.059-1.442 8.204-2.756 1.63-.68 3.251-1.313 4.876-1.949 3.558-1.39 7.596-2.973 11.783-4.981l5.252-2.507c8.948-4.239 18.193-8.626 27.458-14.192 21.517-12.928 39.648-28.184 53.873-44.997-9.275 41.267-17.132 82.151-23.419 121.861-2.03 12.816-3.826 25.414-5.489 37.227-.143 1.027-.526 4.146-.595 4.67-.818 1.154-1.798 2.426-2.813 3.764-1.695 2.203-3.611 4.703-5.503 7.547-10.898 16.391-23.894 30.326-38.63 41.426-33.893 25.527-74.47 40.514-114.271 42.191-2.649.105-5.301.266-7.95.42-4.55.266-8.854.508-12.895.508-2.128 0-4.015-.062-5.776-.203-10.848-.875-18.513-2.176-25.617-4.346-8.782-2.68-15.382-5.922-21.399-10.527-5.79-4.436-11.354-10.305-16.541-17.434-20.307-27.936-30.572-69.936-28.893-118.287 1.677-48.454 11.813-91.411 30.124-127.67 22.889-45.336 48.817-76.997 79.25-96.794 15.808-10.283 32.775-16.984 51.878-20.492 8.67-1.588 16.419-2.361 23.694-2.361 11.583 0 21.44 1.983 30.119 6.057 6.53 3.061 21.948 11.972 24.108 28.537 1.905 14.652-10.524 28.503-18.095 35.446-13.429 12.321-31.735 20.964-49.528 28.472l-2.707 1.158c-2.895 1.253-5.63 2.431-7.689 3.034-5.583 1.621-12.903 4.06-20.036 8.497-16.665 10.364-27.091 28.19-27.205 46.532-.117 18.573 9.577 36.596 25.3 47.032zm822.898-144.683c-15.945 44.845-27.262 89.904-33.661 134.154-2.999 20.718-6.4 44.202-7.468 67.973-.075 1.562-.336 6.527-.384 7.473-1.093 1.871-2.06 3.658-2.934 5.293-.977 1.812-1.896 3.523-2.704 4.779-1.651 2.576-3.346 5.129-5.026 7.678-1.37 2.074-2.743 4.15-4.104 6.236-5.334 8.209-11.577 16.574-19.087 25.586-5.94 7.121-12.605 13.381-20.972 19.684-.761.57-1.486 1.092-2.16 1.574-2.037-10.004-1.757-17.885-1.301-30.955.077-2.488.177-5.09.249-7.838.124-4.314.589-8.936 1.073-13.836.646-6.471 1.32-13.166 1.365-20.381.008-.998.134-2.283.406-4.158.097-.643.171-1.299.242-1.938.301-.518.608-1.033.911-1.531 1.763-2.947 3.772-6.293 5.628-10.076 5.003-10.168 10.338-20.084 15.986-30.582 5.469-10.175 11.128-20.688 16.44-31.427 10.158-20.549 20.513-42.605 31.632-67.425 9.089-20.287 17.781-40.881 25.869-60.283zm155.828 46.636c-9.812 30.634-16.939 60.256-21.626 89.617-4.158 26.038-6.737 51.541-7.669 75.808l-.045 1.076c-.108 1.035-.167 2.016-.189 2.945l-.667 1.262c-.485.916-1.094 2.064-1.36 2.467l-1.97 2.947c-5.364 8.066-10.438 15.686-15.875 22.768-10.792 14.041-22.688 28.055-36.824 36.588-.884-16.234-.823-31.457 1.444-49.332.888-7.041 1.542-14 2.17-20.721.303-3.213.599-6.422.923-9.625.179-.242.347-.48.505-.711.836-1.191 1.64-2.35 2.365-3.494 2.241-3.498 3.952-6.83 5.463-9.764 1.082-2.121 2.115-4.107 3.025-5.533 4.738-7.373 8.722-14.803 12.572-21.983 1.775-3.316 3.547-6.627 5.383-9.897 5.467-9.723 11.05-20.22 17.555-33.031 12.323-24.229 23.06-46.198 32.85-67.185.651-1.377 1.305-2.778 1.97-4.202zm317.973 36.263l-.624.089c-26.399 3.764-49.562 16.752-70.662 30.229-12.308 7.863-22.929 17.78-29.675 24.728-8.392 8.641-17.905 18.44-25.899 29.913-12.852 18.416-23.529 35.146-33.909 56.969-2.605 5.465-6.203 11.139-10.015 17.152-1.453 2.299-2.908 4.586-4.319 6.887-4.35 7.068-9.767 14.424-17.057 23.146-5.396 6.441-11.654 12.416-19.16 18.246-4.367 3.404-8.864 5.65-12.252 6.164-.863-.096-1.407-.225-1.722-.318-3.146-4.945-5.319-11.533-6.467-19.59-2.963-20.838-2.613-35.203-.786-57.66 0 0 .447-5.791.557-7.027.241-.521.445-.971.604-1.34.2-.406.886-1.504 1.387-2.297l1.334-2.164c2.323-3.873 4.692-7.707 7.06-11.555 3.538-5.732 7.068-11.473 10.487-17.295 10.986-18.725 23.883-41.023 36.3-64.407 1.822-3.442 3.683-6.875 5.544-10.303 4.029-7.442 8.191-15.13 12.105-23.039l.484-.993c49.933 1.042 100.714 2.481 150.945 4.273 1.912.058 3.823.128 5.74.192zM1790.031 336.461v.005-.005zM1505.074 384.385l.001-.008c-1.686 3.777-.634 1.422-.001.008zM553.087 243.553l.171-.88v-.016l-.171.896zM1017.511 245.628c5.873-8.61 11.518-17.342 16.839-26.3 10.479-17.664 20.177-35.848 28.637-54.565 4.355-9.647 8.503-19.397 12.902-29.022 3.666-8.025 7.616-15.877 9.882-24.419 2.444-9.219 5.624-18.645 5.971-28.253.153-4.115.624-9.066-.582-13.043-.342-1.111-2.751-8.005-4.256-8.02-.657-.006.223.939-.79.924-.645.551-.956.37-1.598.914-.949-.01-3.07 1.758-3.827 2.332-2.481 1.893-5.36 4.264-7.1 6.864-2.448 3.674-5.294 7.259-7.294 11.183-1.743 3.406-3.48 6.817-5.215 10.222-1.787 4.188-4.177 8.096-5.9 12.298-1.588 3.859-2.979 7.719-4.715 11.525-3.628 8.01-6.936 16.229-10.075 24.435-7.161 18.692-13.282 37.956-18.77 57.204-5.159 18.059-9.004 36.453-13.841 54.59 4.56-17.105.377-1.39-.015.05-.696 2.618-1.34 5.254-2.001 7.877.901.433 11.033-15.748 11.748-16.796z"/></g></svg>