<svg xmlns="http://www.w3.org/2000/svg" width="2048" height="2048" viewBox="0 0 2048 2048"><g><linearGradient id="a" gradientUnits="userSpaceOnUse" x1="298" y1="623.98" x2="298" y2="2631.02" gradientTransform="matrix(1 0 0 -1 726 2651.5)"><stop offset="0" stop-color="#F47C2A"/><stop offset="1" stop-color="#FCB342"/></linearGradient><path fill="url(#a)" d="M2027.5 972.7c-1.6-31.1-68.4-69.5-73.4-100.2-5-30.7 45-72.4 39.1-112.5-5.2-35.2-82.4-48.3-93.8-88.4-8.6-29.9 27.7-88.9 13.2-116.4s-86-29-109-63c-17.4-25.8 6-87.3-12.6-115.3-17.2-25.9-95.1-16.3-117.6-37.8-22.5-21.5-17.4-95.6-42.1-114.5-24.7-18.9-92.3 8.2-118.9-7.9-26.6-16.1-39.4-90.8-67.9-103.2-36.7-15.9-89.9 27.5-119.3 17.6-29.4-10-50.4-78.5-86.3-87.2-35.2-8.5-80.5 47-111.3 42.8-40-5.5-64.6-66.1-106.6-66.1-37.3 0-67.2 61.7-98.1 65-30.9 3.3-75.5-50.5-119.3-40.6-30.3 6.8-48.3 73.5-77.7 83.4-36.7 12.1-91.4-30.7-129.3-12.7-28.1 13.3-30.9 82.6-57.4 98.9-31.2 19.2-97.8-11.4-122 8.2-37.3 30.2-19.8 93.3-41.7 115.3-25.2 25.2-92.5 6.6-118.2 39-25.8 32.6 1.5 93.6-15.9 119.3-17.5 25.7-89.6 27.6-106.6 60.5-16.6 32 19.4 89.1 11.2 119.2-8.1 29.7-84.7 43.8-89.8 85.3-5.9 48.2 40.2 80 35.1 110.7-5.1 30.7-70.7 64.8-70.7 104.2 0 42.9 57.7 70.1 59.3 101.2 1.6 31.1-56.8 74.1-47.9 114.1 8.9 39.9 71.6 57.3 80.6 87.1 10.4 34.6-36.7 90.6-22.8 118.5 21.7 43.4 83.3 43.9 97.8 71.4 14.5 27.5-16.4 95 6 124.1 29.6 38.4 87.3 20.1 107.3 43.8 20.1 23.8 8.1 100.4 30.8 121.8 32.7 30.8 94.5 1.5 119.2 20.4 24.7 18.9 20.7 93.9 53.6 109.5 48.8 23.3 89.2-15.5 117.4-2.3 28.2 13.1 49.1 87.6 84.1 96.3 37.3 9.3 83-36.8 113.4-30.1 30.3 6.7 61.1 70.5 94.4 75.1 44.6 6.1 79.3-53.7 110.3-53.7 31.1.1 71.2 57.6 107 54 39.6-4 65.2-68.8 95.6-75.4 30.4-6.6 81.6 37.5 116.7 28.9 37.6-9.2 46.1-81.2 74.3-94.2 28.2-13 94.3 21.6 123.1 3.1 31.3-20.1 29-89.1 53.8-107.9 24.8-18.8 97.1-2.1 119.4-23.7 28.9-27.9 7.1-93.1 27.3-116.8 20.1-23.7 96.2-23.2 113.7-49s-12.2-95.9 2.4-123.3c14.6-27.5 88.2-40.1 99.7-69s-32.5-89.8-24.2-119.8c8.4-30 77.6-59.3 82.6-90 5.1-30.7-51.5-80.3-49.8-111.4 1.6-31.3 63.4-75.2 61.8-106.3zm-1003.5 928.2c-483.7 0-875.9-393.1-875.9-878.1s392.2-878.1 875.9-878.1c483.8 0 875.9 393.1 875.9 878.1s-392.2 878.1-875.9 878.1z"/><linearGradient id="b" gradientUnits="userSpaceOnUse" x1="297.979" y1="801.104" x2="297.979" y2="2447.502" gradientTransform="matrix(1 0 0 -1 726 2651.5)"><stop offset="0" stop-color="#F47C2A"/><stop offset="1" stop-color="#FCB342"/></linearGradient><path fill="url(#b)" d="M1024 204c-453.5 0-821.2 368.6-821.2 823.2s367.6 823.2 821.2 823.2c453.5 0 821.2-368.6 821.2-823.2-.1-454.6-367.7-823.2-821.2-823.2zm-512.3 626.7h-74.3c10.9-126.9 117.1-226.5 246.5-226.5s235.6 99.6 246.5 226.5h-72.1c-11.3-85.9-84.5-152.2-173.3-152.2-88.8 0-162.1 66.3-173.3 152.2zm340.5 507.1c-129.4 0-235.6-99.6-246.5-226.5h72.1c11.3 85.9 84.5 152.2 173.3 152.2 88.7 0 162-66.3 173.3-152.2h74.3c-11 126.9-117.2 226.5-246.5 226.5zm667.3-507.1c-11.3-85.9-84.5-152.2-173.3-152.2-88.7 0-162 66.3-173.3 152.2h-74.3c10.9-126.9 117.1-226.5 246.5-226.5s235.6 99.6 246.5 226.5h-72.1z"/></g></svg>