<svg xmlns="http://www.w3.org/2000/svg" width="2048" height="620" viewBox="0 0 2048 620"><g><path fill="#F8963A" d="M2019.413 198.79c-5.982-5.984-13.836-9.337-22.167-9.479l-168.802-5.574c1.792-5.064 3.615-10.074 5.418-14.885 1.987-5.294 3.857-10.867 5.564-16.579.932-2.503 1.601-4.875 2.028-7.189 1.011-2.557 1.786-4.931 2.39-7.335.234-.946.473-1.896.712-2.848.919-2.79 1.794-5.59 2.613-8.369.935-3.194 1.797-6.544 2.576-10.02.739-3.343 1.39-6.687 1.93-9.933.455-2.727.97-5.519 1.548-8.392.61-3.093.93-6.146.952-9.082l.48-2.395v-7.524c0-3.151-.284-6.285-.847-9.326-.964-5.975-2.615-11.799-4.911-17.317l-1.102-2.646-1.672-2.329c-1.981-2.761-3.964-5.336-5.892-7.652l-.731-.878-3.685-3.685c-3.334-3.335-7.426-5.996-12.161-7.907l-.113-.046c-4.159-1.655-7.383-2.729-10.237-3.402-1.477-.402-3.003-.705-4.593-.913-2.05-.534-4.201-.818-6.416-.818h-2.4c-3.768 0-7.37.256-10.784.774-3.437.532-6.817 1.346-10.136 2.447-2.446.821-4.923 1.75-7.439 2.792-1.785.746-3.424 1.416-4.909 2.009l-1.854.74-1.712 1.024c-1.905 1.14-3.788 2.329-5.587 3.529-1.092.728-2.294 1.486-3.573 2.255l-1.295.778-1.191.928c-3.207 2.497-6.207 4.953-8.955 7.332-2.416 2.099-4.916 4.275-7.491 6.525l-.634.553-.595.595c-2.964 2.964-5.658 5.854-8.033 8.618-2.253 2.631-4.528 5.474-6.784 8.479-1.688 2.255-3.462 4.546-5.268 6.805-2.521 3.151-4.862 6.452-6.956 9.804-3.355 5.367-6.621 10.867-9.715 16.361-3.179 5.655-6.203 11.526-8.989 17.451l-.138.296c-4.915 10.815-9.661 21.89-14.109 32.923-3.022 7.503-5.879 15.17-8.535 22.907l-172.721-5.194-2.672-.011c-13.365 0-25.401 5.308-34.833 15.38-9.268 9.928-13.824 22.143-13.178 35.301.638 13.241 6.031 24.956 15.582 33.864 6.453 6.031 14.06 10.114 22.408 12.087-3.917 1.596-7.399 3.101-10.545 4.554l-.098.045c-5.692 2.66-11.209 5.662-16.424 8.939-4.965 3.129-9.888 6.564-14.63 10.212l-.795.637c-1.519 1.27-3.107 2.527-4.729 3.742-2.216 1.663-4.486 3.459-6.747 5.341l-.882.733-.811.811c-1.387 1.388-2.888 2.82-4.508 4.3-2.44 2.24-4.727 4.599-6.808 7.021-3.906 3.963-7.551 8.094-10.854 12.311-3.017 3.855-6.028 7.787-8.947 11.682-3.239 4.319-6.341 8.789-9.216 13.281-2.908 4.544-5.659 9.376-8.181 14.374-8.554 14.993-15.561 30.845-20.866 47.197l-7.959 10.007c-.326-1.212-.669-2.416-1.026-3.61l-3.965-13.222-1.128-1.676-1.697-5.656-.78-3.12-.183-.359-.33-1.146c-.316-1.095-.552-2.191-.702-3.259l-.016-.11c-.318-2.199-.635-4.405-.944-6.611l-.016-.108c-.232-1.605-.408-3.254-.531-4.985-.03-.419-.013-.851.055-1.32l.254-1.769v-1.786c0-1.629.055-3.146.169-4.594.114-1.506.294-3.125.537-4.811l.17-1.508c.093-1.128.429-3.104 1.503-6.108l.491-1.372.328-1.419c.377-1.632.898-3.234 1.555-4.784l4.915-8.604c8.333-14.587 10.517-30.775 6.311-46.834-4.213-16.028-13.936-28.96-28.123-37.407-10.001-6.042-20.663-9.105-31.693-9.105-5.163 0-10.405.688-15.593 2.047-1.999.525-3.949 1.138-5.849 1.837v-3.877l-2.411 4.822c-11.294 4.7-20.651 12.549-27.476 23.089l-1.741 1.738-4.932 9.877v.787c-.656 1.346-1.214 2.725-1.671 4.131l-.315.475-1.146 3.44c-.892 1.451-1.695 3.012-2.408 4.684-2.354 4.985-4.722 9.785-7.032 14.265-2.627 5.085-5.332 10.257-8.041 15.372l-.263.51c-2.409 4.812-4.93 9.625-7.484 14.289-2.84 5.179-5.529 10.021-8.221 14.803l-17.244 30.176-8.27 14.702-1.129 1.127-2.389 4.781c-.582 1.188-1.146 2.455-1.677 3.764l-.17.409c-.274.551-.591 1.111-.938 1.665l-.092.146c-1.538 2.482-2.914 5.215-4.089 8.122l-.055.137c-.701 1.765-1.319 3.349-1.855 4.776-.416 1.109-.896 2.355-1.453 3.737l-.052.127c-.668 1.683-1.249 3.357-1.74 5.021l-.16.225-.737 1.032-.63 1.102c-2.365 4.136-4.883 8.282-7.495 12.343-2.463 3.835-5.121 7.613-7.9 11.228l-.53.715c-2.79 3.909-5.64 7.615-8.452 10.995-2.715 3.256-5.594 6.409-8.56 9.375-.766.767-1.617 1.499-2.596 2.232-2.146 1.608-4.345 3.346-6.538 5.166l-.44.343c-.186-2.232-.433-4.603-.74-7.111-.259-2.057-.453-4.058-.582-6.029-.122-1.772-.182-3.646-.182-5.726v-14.88c0-5.358.074-10.189.228-14.808.142-4.464.358-9.226.645-14.167.325-2.759.579-5.553.761-8.372.124-2.012.315-4.062.578-6.153.444-3.596.669-7.29.669-10.98 0-1.452.071-2.852.211-4.172.287-1.615.49-3.171.612-4.688l3.646-6.485.582-1.099c1.532-3.073 2.99-6.279 4.347-9.562.583-1.416 1.307-2.818 2.151-4.167l.636-1.017.536-1.072c2.677-5.355 5.273-10.716 7.708-15.915 2.405-5.125 4.815-10.1 7.163-14.786l.282-.583c9.707-20.703 19.058-41.865 27.792-62.895 8.729-20.689 17.095-41.852 24.864-62.9l5.758-15.833 5.723-15.261.16-.44c1.858-5.263 3.737-10.656 5.593-16.049 1.795-5.23 3.537-10.691 5.184-16.243l2.278-6.455c1.243-2.836 2.12-5.775 2.617-8.771l.436-1.084.418-1.679c.437-1.753 1.015-3.653 1.711-5.628 1.269-3.588 2.354-7.378 3.239-11.331.728-3.286 1.363-6.47 1.889-9.448.473-2.672.986-5.394 1.528-8.093.81-3.706 1.427-7.538 1.841-11.448.444-4.295.485-8.861.121-13.587-.121-6.035-1.173-11.953-3.134-17.619-1.348-4.379-3.306-8.518-5.825-12.313l-.084-.126c-.744-1.106-1.572-2.3-2.488-3.596l-.115-.161c-1.601-2.227-3.371-4.316-5.264-6.208l-1.265-1.265-1.432-1.071c-4.19-3.137-8.218-5.517-12.312-7.276l-.623-.258c-4.009-1.595-7.636-2.651-11.083-3.211-2.337-.634-4.782-.961-7.283-.961h-8.4c-2.744 0-5.574.315-8.428.938-5.913 1.012-11.529 2.835-16.74 5.432-2.874 1.095-5.587 2.406-8.062 3.895-1.621.969-3.234 1.938-4.801 2.88-2.359 1.411-4.557 2.88-6.463 4.316-1.493 1.118-2.979 2.352-4.438 3.688-2.262 1.564-4.334 3.284-6.185 5.134l-3.601 3.6c-10.502 10.502-19.39 21.603-26.423 33-6.936 10.444-13.253 21.85-18.785 33.913-1.643 3.327-3.109 6.807-4.37 10.372-.603 1.708-1.327 3.416-2.146 5.055-1.438 2.879-2.741 5.916-3.885 9.055.499-1.601.889-3.232 1.167-4.896l.441-1.094.42-1.689c.436-1.75 1.014-3.651 1.707-5.617 1.271-3.595 2.358-7.391 3.239-11.328.729-3.292 1.367-6.483 1.89-9.455.473-2.671.986-5.39 1.527-8.086.811-3.702 1.429-7.537 1.844-11.458.444-4.295.485-8.861.121-13.587-.12-6.035-1.173-11.954-3.135-17.624-1.352-4.383-3.311-8.522-5.83-12.315l-.066-.101c-.746-1.111-1.579-2.31-2.498-3.611l-.118-.165c-1.598-2.223-3.365-4.309-5.254-6.2l-1.271-1.271-1.439-1.077c-4.189-3.135-8.214-5.513-12.305-7.271l-.627-.259c-4.007-1.595-7.633-2.65-11.079-3.21-2.337-.634-4.783-.962-7.285-.962h-8.4c-2.745 0-5.575.315-8.428.938-5.912 1.012-11.53 2.835-16.742 5.431-2.87 1.094-5.582 2.405-8.062 3.895-1.621.969-3.234 1.938-4.809 2.885-2.365 1.416-4.562 2.885-6.456 4.313-1.496 1.119-2.981 2.354-4.438 3.687-2.261 1.563-4.333 3.283-6.183 5.133l-3.603 3.601c-10.503 10.505-19.391 21.606-26.421 33.001-6.938 10.447-13.255 21.851-18.786 33.912-1.644 3.331-3.111 6.811-4.37 10.371-.602 1.708-1.328 3.417-2.142 5.05l-.368.771c-2.9-4.823-6.452-9.327-10.648-13.443-12.939-12.682-29.281-19.385-47.259-19.385-18.392 0-34.878 6.764-47.678 19.562-12.797 12.798-19.562 29.285-19.562 47.677 0 18.394 6.765 34.88 19.562 47.678 12.798 12.798 29.285 19.562 47.677 19.562 9.233 0 18.03-1.781 26.162-5.22-1.956 7.728-3.788 15.441-5.468 23.113-4.922 22.483-9.07 45.461-12.327 68.296l-.073.554c-.955 7.959-1.91 15.756-2.866 23.397-.94 7.522-1.739 15.242-2.378 22.971-1.106 5.494-1.505 10.836-1.188 15.926-.018.521-.053 1.055-.106 1.596-.188 1.855-.303 3.757-.344 5.672-.33 3.111-.497 6.378-.497 9.735 0 1.916-.111 3.909-.332 5.924l-.148 1.354v8.622c-1.464 1.758-2.798 3.58-3.985 5.445-.104.164-.309.438-.688.817l-1.386 1.387-1.153 1.585c-2.375 3.265-5.63 7.502-9.688 12.609-4.392 5.536-7.838 10.018-10.513 13.67-2.333 2.832-4.688 5.504-7.026 7.97-2.927 3.095-5.894 6.308-8.824 9.554-3.443 3.621-6.855 7.103-10.202 10.408.515-2.235 1.139-4.455 1.863-6.624l.378-1.131.269-1.161c.944-4.088 1.888-8.102 2.831-12.031.754-3.142 1.629-6.231 2.603-9.19 1.768-4.648 3.314-9.318 4.605-13.917.843-3.017 1.876-5.993 3.069-8.848l.269-.669c1.758-4.572 3.371-9.144 4.804-13.617 1.051-3.297 2.252-6.566 3.568-9.717l.268-.668c1.694-4.406 3.292-8.697 4.746-12.739 1.328-3.688 2.709-7.251 4.105-10.59l.27-.672c1.411-3.672 2.9-7.218 4.442-10.578 1.962-4.292 3.855-8.8 5.628-13.396l.402-1.121c.437-1.314.941-2.66 1.531-4.071.247-.597.515-1.213.802-1.844l9.019-20.691c4.668-13.913 3.892-28.237-2.302-41.667-6.468-14.011-17.525-24.533-31.992-30.436-14.793-6.022-30.467-5.866-45.062.463-14.166 6.15-24.815 16.907-30.847 31.141-1.116 2.356-1.952 4.66-2.527 6.968l-2.803 7.288-13.344 39.948-.32 1.034c-1.201 4.199-2.446 8.403-3.695 12.473-1.362 4.42-2.705 8.953-3.985 13.449-1.352 4.729-2.619 9.375-3.756 13.771-1.114 4.276-2.188 8.798-3.197 13.453-1.343 4.771-2.543 9.698-3.572 14.666-.526 2.545-1.052 5.064-1.578 7.559l-.772.992c-.999 1.246-1.928 2.361-2.747 3.296-.789.898-1.788 1.953-2.972 3.137l-.991 1.051c-2.818 3.164-6.296 7.316-10.63 12.692-2.288 2.836-4.059 4.924-5.413 6.453 2.396-5.444 4.798-10.936 7.167-16.384 1.758-3.882 3.436-7.86 4.984-11.817 1.299-3.317 2.656-6.533 4.034-9.56l.329-.755c1.818-4.37 3.484-8.812 4.965-13.247 1.345-4.051 2.665-8.172 3.924-12.253.651-1.968 1.305-4.013 2.009-6.288.679-2.213 1.358-4.514 2.061-6.956.941-3.299 1.662-6.669 2.155-10.09.19-1.351.503-2.896.93-4.595l.377-1.501.189-1.537c.376-3.051.666-6.235.865-9.525.188-3.225.282-6.699.282-10.33v-5.041c0-2.992-.258-6.125-.769-9.314-.852-5.798-2.29-11.482-4.28-16.918-.724-2.448-1.678-4.869-2.846-7.216l-.077-.153c-.468-.925-.932-1.854-1.394-2.784-1.874-4.501-4.618-9.009-8.352-13.727-2.87-3.775-6.375-7.512-10.704-11.415l-.316-.279c-3.937-3.431-8.5-6.571-13.566-9.336l-1.337-.729-1.416-.562c-1.56-.619-3.112-1.239-4.665-1.866l-.135-.054c-2.282-.906-4.607-1.653-6.935-2.229-2.937-1.004-5.89-1.679-8.804-2.013l-.134-.015c-.689-.075-1.472-.201-2.329-.374l-.129-.025c-3.295-.647-7.113-.948-12.014-.948h-7.342l-1.521.761c-3.885.414-7.565 1.003-11.001 1.764-2.858.64-5.718 1.273-8.576 1.906l-1.271.281-1.235.412c-2.455.818-4.86 1.713-7.208 2.68l.085-.257c.641-1.458 1.269-2.803 1.87-4.006 1.182-2.364 2.36-4.914 3.501-7.58l.173-.413c3.727-9.154 7.131-17.626 10.406-25.894 3.341-8.428 6.72-17.245 10.041-26.204l.322-.922c5.527-16.909 10.969-35.049 16.176-53.917l.424-1.536.507-3.547.62-1.859 1.929-9.644.114-.929c.28-2.27.58-4.522.903-6.77.331-2.348.669-4.871 1.009-7.567l1.635-16.272v-5.087c0-2.167-.179-4.353-.533-6.528-.065-1.621-.19-3.186-.373-4.679l-.02-.156c-.236-1.827-.558-3.768-.982-5.932l-.026-.133c-1.153-5.712-3.173-11.195-6.002-16.297l-.517-.933-.595-.885c-1.013-1.507-2.055-2.937-3.097-4.248l-.161-.201c-.007-.008-.172-.213-.508-.719l-2.184-3.289-3.092-2.456c-1.941-1.542-4.141-3.194-6.726-5.051l-2.226-1.598-2.518-1.078c-2.8-1.199-5.531-2.247-8.119-3.116l-3.874-1.302h-1.97c-.797-.143-1.603-.253-2.417-.333l-1.882-.627h-4.057c-5.821 0-11.389.725-16.572 2.157-2.013.435-4.016.95-5.951 1.532-2.268.678-4.589 1.489-6.899 2.411l-.978.39-.942.471c-3.377 1.688-6.925 3.761-10.55 6.163-3.427 2.163-6.629 4.497-9.526 6.944-2.101 1.775-4.275 3.626-6.525 5.558-2.694 2.266-5.207 4.739-7.482 7.366l-2.175 2.175c-2.011 2.012-3.786 4.25-5.303 6.681-1.135 1.36-2.267 2.721-3.397 4.08-1.961 2.346-3.966 4.95-6.012 7.814-6.016 8.484-11.58 17.779-16.544 27.636-1.48 2.625-2.824 5.24-4.01 7.808-1.043 2.265-2.101 4.644-3.143 7.07l-.443 1.103c-.792 2.114-1.574 4.106-2.294 5.847-.683 1.636-1.41 3.459-2.208 5.544-1.021-5.514-2.37-10.797-4.039-15.807l-.294-.883-.359-.858c-1.883-4.507-3.962-8.946-6.189-13.218-2.467-4.723-5.375-9.399-8.666-13.937-6.423-8.822-13.637-16.427-21.44-22.604-4.044-3.227-8.18-6.117-12.314-8.601-3.892-2.333-8.049-4.518-12.36-6.493-8.042-3.811-16.541-6.901-25.265-9.186-4.459-1.208-8.905-2.134-13.215-2.75-3.151-.45-6.295-.962-9.409-1.533-4.573-.827-9.229-1.355-13.889-1.574-3.118-.14-6.278-.355-9.395-.641l-1.113-.077c-7.271-.341-14.637-.351-21.918-.026-7.787.026-15.522.567-23.01 1.609-7.496.742-15.042 1.92-22.438 3.505-7.174 1.537-14.45 3.354-21.628 5.401-3.673 1.002-7.228 2.018-10.553 3.017-3.849 1.154-7.781 2.529-11.687 4.087l-1.095.467c-3.313 1.509-6.395 2.862-9.183 4.033-3.382 1.424-6.872 3.028-10.379 4.771-6.971 3.154-13.874 6.703-20.532 10.559-6.759 3.917-13.438 8.249-19.867 12.887-6.271 4.531-12.453 9.389-18.378 14.439-5.905 5.035-11.563 10.252-16.816 15.506-10.346 10.346-20.284 22.158-29.549 35.119-4.834 5.921-9.401 12.185-13.591 18.641-4.07 6.279-8.005 12.695-11.692 19.063-3.74 6.454-7.341 13.056-10.692 19.601-3.312 6.453-6.529 13.138-9.565 19.872-3.361 7.069-6.29 13.949-8.709 20.461-3.022 7.114-5.61 14.337-7.702 21.496-2.765 7.369-5.059 14.858-6.817 22.258-1.558 6.52-3.148 13.36-4.863 20.912l-.135.633c-3.051 15.253-5.28 30.605-6.625 45.622-1.408 15.64-1.41 31.739-.007 47.838.661 7.627 1.507 15.419 2.517 23.154 1.09 8.36 2.746 16.826 4.918 25.154 2.123 8.145 4.715 16.371 7.694 24.421 3.112 8.442 6.932 16.83 11.343 24.912 2.372 4.354 4.974 8.555 7.692 12.427 2.444 3.503 5.078 7.025 7.833 10.478 3.056 4.171 6.291 8.067 9.599 11.567 3.199 3.393 6.689 6.641 10.387 9.669 3.423 3.34 7.054 6.451 10.787 9.249 3.676 2.762 7.606 5.476 11.685 8.07 4.589 2.917 9.375 5.468 14.244 7.589 3.642 1.583 7.143 3.139 10.405 4.625l.758.33c4.556 1.895 9.125 3.546 13.611 4.917 4.09 1.243 8.293 2.406 12.493 3.455l.974.243.99.164c7.962 1.322 15.883 2.345 23.561 3.042 4.851.754 9.682 1.136 14.375 1.136 3.994 0 8.014-.164 11.968-.488 2.412-.036 4.544-.189 6.496-.471h5.394l2.449-.494c.437-.088 1.205-.214 2.461-.317 2.311-.197 4.54-.483 6.647-.853 7.059-.71 14.273-1.743 21.491-3.08 7.291-1.36 14.441-2.911 21.256-4.607 7.259-1.737 14.506-3.747 21.578-5.986 7.066-2.248 14.101-4.764 20.912-7.479 21.623-8.19 41.787-18.717 60.178-31.397l-.133 1.063-.153.455-.258 2.978c-1.129 13.034 2.171 25.628 9.563 36.447 7.705 11.245 18.878 18.766 32.327 21.761 4.273 1.006 8.578 1.516 12.8 1.516 10.047 0 19.597-2.796 28.395-8.316 12.397-7.788 20.769-19.48 24.21-33.813l.691-2.878v-.764l4.151-16.189 2.84-6.628c1.597-3.513 3.066-6.669 4.505-9.682 1.646-3.462 3.32-7.061 4.986-10.719 2.958-6.516 6.101-12.877 9.346-18.917 3.294-6.14 6.811-12.332 10.438-18.38.97-1.613 1.94-3.228 2.887-4.812l8.644-14.406.423-.733c1.094-1.972 2.64-4.334 4.595-7.021l.647-.891.567-.943c.765-1.273 1.523-2.475 2.253-3.569.55-.824 1.252-1.773 2.088-2.819l.536-.67.488-.705c4.962-7.169 10.134-14.041 15.456-20.548-1.596 5.979-3.345 12.104-5.212 18.251l-3.212 12.723c-1.057 4.228-1.956 8.49-2.673 12.684-.854 3.687-1.731 7.329-2.607 10.837-1.147 4.587-2.108 9.389-2.857 14.273l-.034.23c-.313 2.177-.626 4.274-.922 6.225-.338 2.188-.677 4.458-.999 6.739-.407 2.829-.713 5.695-.907 8.444-.207 2.811-.307 5.765-.307 9.03v7.44c0 3.339.214 6.939.635 10.702l.183 1.313c.764 4.599 1.529 8.398 2.328 11.568 1.467 5.868 3.694 11.565 6.62 16.936l.521.957.603.908c.647.976 1.294 1.948 1.949 2.924.869 1.305 1.912 2.77 3.189 4.475l.796 1.008c2.534 3.046 5.382 5.896 8.464 8.472l1.054.881 1.144.76c.749.497 1.556 1.061 2.463 1.708 2.143 1.524 4.45 2.911 6.921 4.154 2.328 1.162 4.477 2.069 6.57 2.772l.16.054c1.304.428 2.715.842 4.205 1.232 6.103 1.922 9.111 3.091 18.956 2.896l26.44-5.218.584-.217c3.286-1.232 6.657-2.705 10.02-4.376l1.325-.709c1.986-1.141 3.953-2.233 5.846-3.248l.091-.05c3.285-1.778 6.452-3.897 9.424-6.304 4.167-3.077 8.188-6.447 11.996-10.06 3.585-3.416 6.711-6.46 9.555-9.306l.458-.472c4.245-4.475 8.297-9.084 12.11-13.769l.377 1.004c1.404 4.381 3.344 8.735 5.78 12.978 2.354 4.829 5.728 9.641 10.271 14.655 3.93 4.403 8.744 8.521 14.369 12.278 3.909 2.595 8.095 4.592 12.487 5.95 1.908.586 3.594 1.124 5.146 1.642 6.16 2.189 12.791 3.3 19.713 3.3 2.709 0 5.179-.158 7.463-.479h4.276l1.44-.48 2.622-.556c6.125-1.313 11.22-2.944 15.532-4.975 2.591-1.095 5.035-2.35 7.277-3.739l.151-.095c.552-.348 1.106-.66 1.644-.928l1.031-.512.979-.604c5.212-3.219 10.582-7.181 15.96-11.776 2.474-2.072 4.929-4.324 7.304-6.699l1.91-1.911c1.177-1.179 2.285-2.288 3.329-3.328l.078-.077c2.432-2.442 4.734-5.107 6.844-7.92 1.214-1.619 2.473-3.209 3.741-4.726l.164-.197c3.103-3.79 6.184-7.752 9.163-11.781 1.452-1.966 2.903-3.981 4.346-6.036l.07.176c.774 1.948 1.529 3.742 2.307 5.479.479 1.083.99 2.299 1.561 3.711.884 2.219 1.895 4.465 3.004 6.678 1.06 2.134 2.228 4.259 3.571 6.493.777 1.294 1.567 2.678 2.377 4.166 1.655 3.023 3.593 5.932 5.751 8.633 1.837 2.301 3.916 4.615 6.181 6.881l5.611 5.612.883.734c2.837 2.358 5.827 4.509 8.907 6.403 3.457 2.122 7.25 3.961 11.251 5.459 7.91 2.969 16.034 4.475 24.146 4.475h10.323l1.844-.618c1.757-.161 3.507-.46 5.237-.896 5.186-.898 10.01-2.206 14.37-3.897 8.072-2.874 16.167-6.929 24.07-12.055l.257-.169c3.712-2.475 7.217-5.132 10.456-7.935 1.954-1.698 3.958-3.445 6.018-5.241l2.107-1.837.616-.618c2.498-2.504 4.884-4.979 7.089-7.352 2.785-2.996 5.326-6.238 7.567-9.656.409-.519.815-1.038 1.219-1.559.46 1.011.942 2.019 1.445 3.019 1.056 2.123 2.218 4.234 3.549 6.45.775 1.29 1.568 2.678 2.378 4.163 1.655 3.026 3.595 5.937 5.752 8.636 1.84 2.305 3.92 4.621 6.182 6.883l5.608 5.608.885.736c2.839 2.359 5.829 4.511 8.904 6.401 3.454 2.121 7.248 3.961 11.255 5.461 7.91 2.97 16.033 4.475 24.145 4.475h10.322l1.844-.618c1.756-.161 3.504-.459 5.234-.895 5.188-.898 10.017-2.208 14.379-3.9 8.071-2.874 16.165-6.928 24.065-12.053l.257-.169c3.718-2.478 7.223-5.135 10.461-7.938 1.995-1.734 4.042-3.52 6.149-5.356l1.974-1.721.619-.62c.609-.611 1.212-1.221 1.807-1.827l.175.203c2.077 2.557 4.279 4.86 6.552 6.853 1.552 1.36 3.299 2.817 5.174 4.316 4.062 3.251 8.224 6.16 12.373 8.647l.725.419c4.291 2.38 9.118 4.4 14.739 6.168 9.204 3.279 18.761 5.158 28.415 5.585 7.777.373 16.412.002 25.711-1.112l1.526-.231c4.445-.814 9.007-1.928 13.614-3.327 4.693-1.437 9.336-3.189 13.797-5.211l.851-.386.818-.446c4.116-2.249 8.215-4.727 12.215-7.388 4.687-3.129 9.269-6.916 13.638-11.275 6.892-6.892 12.53-14.342 16.791-22.184l13.271-16.587c.175.548.354 1.097.536 1.644 1.221 3.657 2.646 7.324 4.218 10.853 1.759 3.972 3.779 7.783 5.96 11.256 1.836 2.947 3.885 6.022 6.088 9.137 2.417 3.418 5.052 6.762 7.84 9.951 5.773 6.596 12.26 12.45 19.281 17.402l.544.373c3.38 2.253 6.857 4.378 10.378 6.339 3.502 1.943 7.203 3.719 11.016 5.287 7.512 3.642 15.495 6.161 23.76 7.499 7.034 1.562 14.75 2.353 22.951 2.353h8.641c4.759 0 9.414-.543 13.843-1.613 2.342-.521 4.713-.993 7.074-1.409 3.228-.571 6.454-1.256 9.672-2.057 3.476-.876 6.952-1.962 10.355-3.235l7.656-2.87.396-.152c10.162-4.001 20.546-9.256 30.869-15.623 9.26-5.174 18.151-10.931 26.44-17.122 4.395-3.055 8.608-6.157 12.552-9.24 4.004-3.139 7.953-6.464 11.745-9.892 7.821-6.483 15.276-13.347 22.165-20.404 4.273-4.379 8.55-8.872 12.778-13.424.491 1.309 1.023 2.577 1.598 3.804.354.919.649 1.729.891 2.454.636 1.908 1.348 3.85 2.118 5.774 3.028 7.923 6.52 15.263 10.379 21.816l.101.169c4.669 7.786 10.196 15.111 16.432 21.777 3.407 3.805 7.262 7.437 11.468 10.806 4.29 3.433 9.016 6.486 14.062 9.085 4.213 2.472 9.331 4.62 15.961 6.708 3.068 1.008 6.199 1.783 9.389 2.317 1.89.312 3.78.628 5.67.945l.648.101c3.412.481 6.686.726 9.732.726h7.849l2.061-.347c1.209-.204 2.441-.357 3.751-.466 3.187-.274 6.372-.865 9.496-1.763 10.224-1.933 19.791-5.726 28.474-11.29 4.024-2.438 7.772-5.058 11.211-7.841 2.721-2.219 5.514-4.576 8.303-7.007l.66-.574.617-.619c2.701-2.709 5.238-5.334 7.571-7.835 2.685-2.89 5.276-5.999 7.677-9.207 2.117-2.819 4.183-5.692 6.141-8.544 1.961-2.857 3.854-5.74 5.622-8.568l9.83-17.927 8.118-17.86.414-1.242c.901-2.701 1.823-5.392 2.735-7.977.908-2.57 1.824-5.09 2.723-7.489l.304-.858c.898-2.694 1.82-5.384 2.734-7.975 1.27-3.594 2.354-7.385 3.225-11.27l.131-.621c.233-1.185.402-1.815.465-2.031l.03-.105c.393-1.394.761-2.888 1.116-4.535.681-2.258 1.154-4.347 1.435-6.342l.696-3.299c1.921-8.388.849-16.706-3.115-24.101l-.052-.096c-3.812-7.038-9.745-12.44-17.157-15.624l-1.101-.441c-3.989-1.493-8.131-2.251-12.31-2.251-4.841 0-9.602 1.009-14.176 3.01-8.111 3.557-14.414 9.853-17.921 17.848l-1.484 2.228-1.182 4.734-.507 1.35c-.597 1.234-1.163 2.475-1.697 3.719-.269.63-.622 1.383-1.048 2.236l-10.785 21.568c-.783 1.562-1.772 3.301-2.938 5.168l-.499.834c-1.117 1.954-2.275 3.909-3.433 5.793-.974 1.582-2.107 3.282-3.351 5.023-1.682 2.349-3.268 4.611-4.809 6.832-.975 1.412-2.051 2.828-3.164 4.165-1.366 1.634-2.817 3.292-4.274 4.887-1.559 1.697-3.005 3.214-4.302 4.51-1.29 1.29-2.702 2.635-4.196 3.995-.824.75-1.672 1.416-2.521 1.98l-2.083 1.383-1.284 1.285c-1.219.591-2.087.962-2.629 1.178l-.375.153c-1.241.52-2.12.788-2.669.926l-.77-.123-.179-.241c-2.354-3.853-4.438-8.724-6.201-14.499-1.596-7.371-2.821-15.563-3.646-24.368l-.015-.156c-.874-8.736-1.316-18.074-1.316-27.753v-13.88h1.44v-19.579l4.55-9.099c1.852-3.05 3.555-6.219 5.078-9.453 1.152-2.453 2.354-4.933 3.573-7.369 2.657-5.315 5.254-10.676 7.714-15.926l.276-.59c2.27-4.839 4.607-9.825 7.025-14.958 5.25-10.521 10.249-21.274 14.863-31.976 4.209-9.772 8.608-20.065 13.449-31.463 2.275-5.21 4.518-10.526 6.673-15.822.428-1.054.853-2.114 1.274-3.181l199.504-6.249 1.622-.267c6.568-1.077 12.663-3.984 17.561-8.349 6.83-6.045 10.592-14.568 10.592-24.001 0-8.861-3.369-17.1-9.481-23.211zm-1626.686 17.29c4.728-4.137 9.146-8.646 13.134-13.407 8.157-9.425 14.584-20.033 19.109-31.537l.28-.748c.741-2.076 1.391-4.168 1.949-6.27-.234 1.578-.533 3.156-.894 4.72l-.25 1.221c-1.178 6.577-3.006 12.374-5.433 17.228l-.66 1.431c-2.751 6.497-5.813 12.053-9.103 16.515l-.354.493c-3.689 5.269-7.92 10.37-12.563 15.149-4.812 4.948-9.892 9.542-15.023 13.597-10.217 8.01-21.588 14.885-33.812 20.441-3.049 1.388-6.021 2.633-8.875 3.716-3.614 1.379-7.332 2.927-11.061 4.605-.377.135-.926.307-1.689.498-2.533.633-4.972 1.387-7.268 2.245-.966.208-1.94.451-2.939.735l-3.947.658-2.591 1.037c-.193.017-.378.025-.555.025-.704 0-1.542-.112-2.894-.923-1.27-.762-1.763-1.323-2.183-3.141l-.289-1.132c-.444-1.583-.283-2.051.334-3.096.76-1.288 1.518-2.11 2.571-2.713l5.146-1.716 6.065-1.348 2.241-1.121c2.041-.543 4.141-1.244 6.384-2.129l16.829-6.119 1.275-.636c2.315-1.154 4.634-2.277 6.84-3.311 2.544-1.186 5.258-2.499 8.033-3.887 2.931-1.46 5.776-2.979 8.436-4.499 2.511-1.432 5.228-3.062 8.075-4.843l.263-.167c5.497-3.535 10.686-7.429 15.419-11.571zm-253.434 309.866c-2.483-1.082-4.963-2.407-7.368-3.936-2.984-1.897-5.837-3.867-8.507-5.873-2.229-1.67-4.393-3.55-6.431-5.589l-.987-.986-1.092-.872c-2.271-1.812-4.387-3.756-6.312-5.798-1.984-2.099-3.953-4.49-5.852-7.107l-.74-.97c-2.193-2.73-4.276-5.508-6.233-8.313-1.678-2.391-3.275-4.973-4.757-7.693-3.255-5.964-6.057-12.11-8.338-18.298-2.417-6.531-4.507-13.163-6.216-19.717-1.648-6.315-2.899-12.708-3.72-19.002-.917-7.025-1.685-14.092-2.285-21.016-1.149-13.184-1.151-26.314-.005-39.039 1.177-13.135 3.125-26.58 5.791-39.969 1.646-7.242 3.172-13.807 4.671-20.08 1.342-5.643 3.116-11.372 5.275-17.028l.385-1.008.296-1.038c1.623-5.679 3.688-11.458 6.14-17.18l.484-1.216c1.962-5.333 4.407-11.079 7.265-17.075l.229-.494c2.72-6.042 5.602-12.033 8.577-17.83 2.968-5.798 6.15-11.631 9.462-17.346 3.274-5.655 6.767-11.35 10.376-16.918 3.321-5.119 6.957-10.083 10.805-14.754l.566-.687.516-.726c1.31-1.843 2.634-3.656 3.97-5.438-1.205 1.982-2.401 3.983-3.585 5.997-6.92 11.426-13.077 23.4-18.304 35.595-5.024 11.728-9.609 23.616-13.628 35.335l-2.947 8.839c-1.124 3.372-2.088 6.914-2.872 10.552-.937 2.878-1.791 5.713-2.534 8.404-.872 3.128-1.672 6.308-2.378 9.459-1.724 6.588-3.136 13.16-4.2 19.545-.955 5.731-1.932 11.75-2.902 17.893-1.059 6.375-1.865 12.926-2.396 19.477-.509 6.29-.911 12.134-1.227 17.852-1.029 12.915-1.028 25.848.002 38.453.716 12.622 2.333 24.931 4.808 36.587l.114.508c1.33 5.678 2.795 11.368 4.354 16.904 1.658 5.896 3.625 11.71 5.848 17.279 4.541 11.701 10.321 22.485 17.183 32.061 5.933 8.667 13.332 16.625 22.045 23.718-1.106-.485-2.221-.973-3.346-1.462zm268.23-151.654c-3.358 15.257-6.637 30.903-9.764 46.585-.867 1.166-1.765 2.316-2.697 3.453-1.503 1.84-2.928 3.594-4.25 5.251-1.955 2.447-3.308 4.355-4.362 6.176-.845 1.298-1.826 2.595-2.897 3.832-2.042 2.35-4.155 4.779-6.342 7.281-6.823 7.629-14.881 14.988-23.954 21.879-9.048 6.485-18.631 12.269-28.492 17.196-9.804 4.901-20.169 8.947-30.817 12.028-10.667 3.091-21.453 5.224-32.061 6.341-5.727.575-11.389.938-16.858 1.08-5.009.14-10.215-.066-15.536-.603l-1.25-.126h-5.499l-2.381-.48h-2.417l-2.401-.48h-1.094c-.732-.12-1.453-.218-2.165-.292-2.72-.575-5.427-1.087-8.066-1.526-1.923-.321-3.705-.675-5.31-1.055-2.224-.751-4.355-1.508-6.351-2.256-1.742-.653-3.505-1.426-5.241-2.297l-1.199-.602-1.256-.47c-1.294-.483-2.474-1.029-3.507-1.623l-.091-.052c-1.436-.816-2.897-1.754-4.346-2.787-6.271-4.665-11.376-9.862-15.174-15.451l-.394-.562c-4.487-6.229-8.312-13.392-11.369-21.29l-.103-.261c-1.585-3.965-2.993-8.123-4.187-12.37-1.338-4.753-2.597-9.633-3.742-14.507-1.937-9.188-3.202-18.964-3.76-29.062l-.048-.694c-.842-10.105-.84-20.517.005-30.943l.044-.654c.294-5.381.672-10.898 1.155-16.864.422-5.2 1.062-10.392 1.901-15.431l.034-.209c.953-6.03 1.911-11.936 2.846-17.551.837-5.021 1.965-10.232 3.353-15.492l.236-.974c.54-2.437 1.157-4.903 1.851-7.395.651-2.359 1.411-4.844 2.257-7.384l.494-1.482.306-1.532c.431-2.159.969-4.212 1.601-6.106l2.847-8.542c3.609-10.517 7.733-21.202 12.254-31.755 4.332-10.107 9.445-20.041 15.196-29.524l.179-.298c2.964-5.045 6.011-9.997 9.06-14.723 2.917-4.526 6.018-9.03 9.216-13.386l.238-.329c6.417-9.043 13.522-17.93 21.123-26.419 3.732-4.016 7.633-7.987 11.577-11.789 3.878-3.729 8.001-7.497 12.264-11.207 3.692-2.875 7.854-5.818 12.386-8.758 2.249-1.402 4.669-2.867 7.18-4.348 2.187-1.287 4.521-2.624 7.113-4.074 8.812-4.068 18.432-7.192 28.614-9.29 2.41-.479 4.774-.843 6.974-1.076 2.815-.292 5.702-.59 8.66-.889 4.827-.231 9.839-.23 14.949.001 4.528.492 8.846 1.358 12.815 2.567 3.746 1.146 7.497 2.8 11.155 4.917 2.036 1.285 3.933 2.553 5.577 3.725 1.147.824 2.377 1.888 3.606 3.112 2.359 2.364 4.708 5.29 6.981 8.697l.434.63c1.465 2.057 2.423 3.976 2.928 5.867l.25.87c.85 2.775 1.516 6.048 1.98 9.726l.052.392c.307 2.155.307 4.247.001 6.395l-.123.864-.062.87c-.152 2.123-.6 4.244-1.365 6.472-2.485 6.197-5.866 11.708-10.325 16.835l-.333.39c-2.361 2.831-4.994 5.522-7.826 8-2.854 2.498-6.017 4.872-9.403 7.059-2.226 1.391-4.312 2.642-6.223 3.732-1.86 1.063-3.858 2.129-5.974 3.183-2.395 1.198-4.687 2.308-6.865 3.323-2.2 1.031-4.444 2.111-6.69 3.221l-14.524 5.281-.779.298c-.669.269-1.003.368-.999.368l-.1.025c-1.875.472-3.736 1.079-5.564 1.813l-3.177.706-1.694.565h-.487l-3.855 1.288c-13.337 4.454-24.183 13.237-31.363 25.393-7.539 12.756-9.466 27.078-5.586 41.458 3.532 14.677 12.183 26.5 25.046 34.219 8.902 5.341 18.531 8.048 28.619 8.048 4.331 0 8.752-.514 13.141-1.525l1.879-.434 1.679-.672 2.09-.348 1.905-.624c1.735-.362 3.535-.854 5.356-1.468l1.294-.475c.389-.155 1.065-.394 2.08-.646 3.078-.77 5.871-1.666 8.54-2.738l1.016-.435c3.025-1.374 6.018-2.627 8.852-3.708 3.812-1.447 7.785-3.109 11.793-4.934 15.826-7.193 30.617-16.144 44.035-26.665 6.907-5.458 13.617-11.522 19.953-18.037 1.428-1.47 2.828-2.962 4.2-4.476-1.486 5.555-2.938 11.09-4.351 16.592-4.416 17.177-8.942 35.04-13.454 53.094-4.494 17.643-8.756 35.595-12.667 53.357zm125.879-247.2l-4.508 12.506-1.683 5.377-2.196 4.392-.781 4.685c-.477 1.464-.962 2.998-1.461 4.626-.592 1.914-1.176 3.744-1.761 5.506l-.301.971c-.939 3.267-1.657 6.511-2.121 9.573-.108.7-.258 1.334-.458 1.938l-.311 1.007c-1.38 4.827-2.619 9.606-3.684 14.215-.974 4.222-1.962 8.67-2.94 13.223l-2.77 12.466-3.478 13.416-.164.894c-.561 3.062-1.199 6.113-1.884 9.012-.904 3.783-1.726 7.71-2.443 11.672l-14.261 78.728 11.881-11.894-.181.361c-1.938 3.876-3.935 7.953-5.944 12.135-1.875 3.911-3.759 7.912-5.607 11.903-2.549 4.81-4.646 9.57-6.246 14.178l-1.471 3.435-.726 2.178-1.44 2.879-1.887 5.662-.263 1.125c-2.279 9.757-4.435 19.711-6.409 29.583-1.83 9.149-3.874 18.582-6.075 28.034l21.563 7.16-2.351 3.917c-.95 1.589-1.9 3.171-2.866 4.775-4.047 6.75-7.959 13.64-11.622 20.465-3.763 7.005-7.403 14.372-10.81 21.873-1.541 3.385-3.097 6.73-4.605 9.901-1.592 3.333-3.229 6.851-5.003 10.756l-6.559 15.29v2.937l-4.8 18.721v.082c-.349.539-.81.91-1.487 1.335-1.056.663-1.527.663-1.809.663-.374 0-.852-.067-1.383-.195l-.514-.117c-1.345-.294-1.545-.585-1.963-1.195-.663-.972-.977-1.762-1.039-2.754.301-1.688.487-3.448.561-5.303l1.056-7.687c.796-3.415 1.315-6.693 1.542-9.696.026-.324.13-1.258.54-2.907l.308-1.236 2.038-14.267 2.115-11.846c.751-2.785 1.337-5.549 1.746-8.234.296-1.905.591-3.876.881-5.912l22.107-103.129-.975 1.161c3.19-14.076 6.592-28.215 10.144-42.157l.028-.111c4.494-17.982 9.002-35.772 13.4-52.883 4.35-16.94 9.078-34.207 14.055-51.33l4.167-12.501.325-1.053c.616-2.162 1.193-4.107 1.779-6.002.608-1.981 1.217-4.035 1.831-6.158 1.634-4.619 3.139-9.238 4.486-13.777 1.126-3.815 2.432-7.803 3.881-11.854l.277-.776.226-.792c.486-1.707 1.043-3.44 1.672-5.197.781-2.196 1.512-4.427 2.181-6.652.837-1.989 1.644-3.99 2.414-5.99.815-2.129 1.721-4.504 2.696-7.109.876-2.334 1.651-4.309 2.333-5.942.898-2.168 1.817-4.5 2.736-6.938.799-1.85 1.602-3.651 2.38-5.34.664-1.437 1.46-2.97 2.367-4.555l.658-1.23c.918-1.837 1.861-3.645 2.827-5.422-.6 1.777-1.256 3.591-1.961 5.425zm124.093 204.814c0 2.667-.066 5.166-.194 7.367-.104 1.719-.246 3.404-.422 5.027-.658 2.809-1.173 5.521-1.529 8.043-.162 1.128-.41 2.279-.721 3.369-.603 2.097-1.198 4.116-1.778 6.004-.592 1.914-1.176 3.745-1.762 5.508l-.167.521c-1.178 3.823-2.414 7.687-3.659 11.438-1.049 3.142-2.241 6.33-3.544 9.484-1.685 3.72-3.333 7.635-4.907 11.651-1.256 3.212-2.616 6.432-4.041 9.57l-.164.367c-3.074 7.069-6.204 14.212-9.297 21.217-2.983 6.745-6.01 13.698-8.995 20.664l-8.535 19.915c-1.849 4.081-3.464 8.089-4.792 11.887-1.012 2.878-2.1 5.779-3.209 8.562-.905 2.25-1.721 4.58-2.438 6.963-.255.854-.574 1.761-.947 2.697l-.843 2.112-.448 2.229c-.288 1.436-.577 2.791-.859 4.081-.208.924-.415 1.812-.619 2.659-1.289 4.107-1.892 7.675-1.892 11.144v9.987l-.198-.737c-.432-1.713-.896-4.031-1.384-6.898-.171-1.673-.257-3.188-.257-4.512v-7.44c0-2.003.058-3.81.178-5.442.115-1.626.292-3.282.538-4.987.299-2.123.606-4.175.922-6.221.318-2.1.644-4.282.97-6.546.513-3.324 1.161-6.56 1.926-9.62 1.007-4.03 2.012-8.218 2.987-12.445l.302-1.523c.52-3.134 1.19-6.347 1.991-9.551l2.73-10.921c2.29-7.565 4.418-15.11 6.327-22.432l5.727-21.954 6.009-22.032.193-1.068c.555-3.062 1.186-6.079 1.889-9.023.749-3.165 1.442-6.297 2.067-9.328 1.172-3.899 1.723-7.298 1.723-10.585v-40.462l-36.007 18.015c-2.418.926-5.062 1.99-8.061 3.249-4.167 1.757-8.256 3.929-12.167 6.465-1.739.983-3.474 2.012-5.193 3.077.771-1.172 1.574-2.332 2.405-3.475l.436-.618c4.119-6.036 9.198-12.375 15.138-18.885 2.289-2.521 4.948-4.997 7.899-7.356 2.781-2.224 5.936-4.282 9.374-6.12l1.083-.613c2.91-1.747 6.186-3.268 9.752-4.532 2.441-.541 4.875-1.081 7.266-1.616 1.576-.349 3.396-.634 5.422-.849h7.077l.369-.185c1.318.239 2.618.44 3.887.604l1.417.563 2.198.443c.043.009.201.045.483.155 1.078.435 2.156.867 3.237 1.298 1.318.783 2.452 1.576 3.382 2.368 2.5 2.271 3.735 3.754 4.253 4.444l.456.588c.944 1.182 1.383 1.892 1.531 2.148l.33.877.622 1.251c.542 1.092 1.085 2.183 1.632 3.271l.188.746.533 1.387c.92 2.396 1.578 4.941 1.956 7.566l.074.479c.136.831.151 1.311.151 1.477v5.039zm129.632 7.344c-1.354 3.484-2.785 6.879-4.242 10.066-1.917 4.177-3.776 8.592-5.527 13.128-1.668 4.008-3.307 8.242-4.878 12.603-1.301 3.618-2.729 7.457-4.248 11.413-1.816 4.375-3.472 8.897-4.914 13.42-1.103 3.443-2.356 7.003-3.729 10.587-1.919 4.634-3.581 9.445-4.932 14.278-.917 3.265-2.043 6.64-3.347 10.031l-.376 1.048c-1.495 4.473-2.826 9.131-3.96 13.854-.891 3.717-1.782 7.498-2.673 11.343-1.437 4.455-2.624 9.023-3.529 13.574-.859 4.292-1.637 8.523-2.301 12.524-.3 1.789-.551 3.599-.745 5.376v-5.595c.186-5.185.588-10.445 1.197-15.642l3.346-28.572.753-.848 1.381-6.444c.962-4.489 1.924-9.058 2.884-13.7.836-4.037 1.817-8.034 2.917-11.877l.231-.81.177-.823c.907-4.231 1.872-8.315 2.878-12.179 1.042-4.028 2.197-8.265 3.44-12.614 1.19-4.179 2.431-8.366 3.695-12.47 1.299-4.23 2.586-8.567 3.828-12.901l12.61-37.83 1.854-4.819c1.019-2.221 1.806-4.444 2.354-6.643l.211-.518c1.055-2.591 2.311-3.893 4.79-4.968 1.171-.508 2.192-.755 3.121-.755.933 0 1.976.24 3.169.726 2.798 1.142 4.28 2.522 5.462 5.083.502 1.089.778 1.993.685 3.096l-6.029 14.47c-1.091 2.222-2.086 4.418-2.943 6.487-.953 2.285-1.83 4.604-2.61 6.901zm68.418-157.438c-3.643 3.571-7.309 5.094-12.26 5.094-5.19 0-8.875-1.471-12.322-4.918-3.447-3.447-4.917-7.132-4.917-12.322 0-5.19 1.471-8.875 4.917-12.322 3.447-3.447 7.132-4.918 12.322-4.918 4.951 0 8.618 1.523 12.251 5.085 3.543 3.476 4.988 6.997 4.988 12.154s-1.443 8.679-4.979 12.147zm83.188 22.362l-.121.444c-5.459 20.865-10.346 41.844-14.528 62.368-.728 2.65-1.425 5.657-2.122 9.154l-22.28 111.787 8.32-11.446-2.864 5.728-.665 2.649c-.771 3.07-1.184 6.213-1.229 9.353l-.012.061-.168.853-.108.862c-.449 3.562-.676 7.277-.676 11.041 0 1.652-.099 3.288-.284 4.799-.387 3.072-.679 6.188-.865 9.196-.133 2.068-.329 4.164-.583 6.229l-.097.786-.047.791c-.334 5.648-.587 11.127-.75 16.249-.17 5.139-.253 10.513-.253 16.43v14.88c0 3.234.098 6.229.293 9.078.128 1.955.303 3.962.518 5.972-2.297-10.122-3.862-20.07-4.656-29.605l-.07-.71c-.138-1.232-.266-2.47-.387-3.711l-2.043-20.932.667-.916v-22.703c.319-3.331.48-6.659.48-9.913 0-1.841.096-3.538.285-5.045l.195-1.552v-1.563c0-.794.036-1.527.109-2.242l.011-.108c.239-2.427.36-4.866.36-7.249v-1.143l-.104-1.138c-.035-.383-.064-1.503.424-3.621l.414-1.795.146-1.836c.602-7.543 1.371-15.082 2.286-22.404.955-7.63 1.908-15.415 2.862-23.361 3.078-21.534 6.992-43.198 11.633-64.394 4.62-21.097 10.393-42.546 17.156-63.751l.168-.549c1.438-4.894 3.049-9.8 4.789-14.585 1.797-4.942 3.77-10.023 5.861-15.102l.29-.738c1.058-2.819 2.131-5.861 3.19-9.037.583-1.748 1.256-3.391 2.018-4.913 1.744-3.498 3.279-7.118 4.555-10.738.619-1.75 1.343-3.458 2.152-5.077l.379-.792c4.3-9.415 9.158-18.279 14.453-26.375l-.481 1.737c-.325 1.293-.702 2.442-1.14 3.461-1.114 2.604-2.225 5.38-3.302 8.254l-5.344 14.569-.087.242c-3.661 10.31-7.052 20.907-10.08 31.5-2.889 10.108-5.778 20.302-8.668 30.571zm86.523 50.624c-4.92 22.476-9.068 45.454-12.327 68.295l-.073.555c-.955 7.96-1.91 15.757-2.865 23.396-.941 7.525-1.74 15.245-2.379 22.972-1.107 5.496-1.505 10.839-1.187 15.929-.017.51-.05 1.016-.096 1.483-.194 1.885-.312 3.822-.354 5.777-.33 3.104-.496 6.373-.496 9.739 0 1.916-.111 3.911-.332 5.929l-.147 1.352v11.402l-.682 1.261c-.832 1.649-1.614 3.326-2.365 5.073-.16.376-.354.801-.578 1.272-1.714 2.802-3.236 5.529-4.521 8.1-.551 1.098-1.248 2.239-2.072 3.392l-.736 1.03-.629 1.1c-2.37 4.145-4.887 8.29-7.498 12.347-2.458 3.829-5.114 7.605-7.896 11.224l-.526.709c-2.801 3.922-5.652 7.63-8.456 10.999-2.721 3.262-5.6 6.416-8.559 9.374-.767.768-1.621 1.501-2.6 2.235-2.145 1.607-4.345 3.347-6.544 5.171l-.434.338c-.186-2.235-.432-4.607-.741-7.114-.258-2.05-.452-4.051-.582-6.026-.122-1.772-.181-3.646-.181-5.726v-14.88c0-5.358.074-10.189.228-14.806.142-4.478.359-9.24.645-14.168.325-2.757.579-5.551.76-8.367.125-2.021.317-4.072.581-6.163.443-3.595.667-7.288.667-10.977 0-1.452.071-2.853.211-4.172.287-1.616.49-3.172.611-4.688l3.646-6.481.587-1.109c1.536-3.082 2.992-6.285 4.343-9.556.583-1.417 1.307-2.818 2.15-4.165l.637-1.018.537-1.073c2.661-5.325 5.257-10.685 7.708-15.916 2.396-5.104 4.806-10.08 7.164-14.79l.28-.579c9.715-20.724 19.063-41.879 27.786-62.882 8.737-20.708 17.105-41.875 24.871-62.912l5.761-15.843 1.705-4.545c-5.81 19.166-10.851 38.461-15.022 57.502zm29.972-100.943l2.28-6.458c.222-.506.432-1.015.63-1.527l-.017.05c-.82 2.458-1.639 4.786-2.435 6.923l-.576 1.409.118-.397zm44.783 50.32l-.12.442c-5.456 20.852-10.345 41.833-14.531 62.377-.728 2.648-1.423 5.652-2.119 9.141l-22.306 111.801 8.381-11.526-2.895 5.788-.664 2.638c-.775 3.073-1.189 6.223-1.235 9.372l-.011.059-.169.855-.109.866c-.447 3.562-.675 7.276-.675 11.038 0 1.652-.099 3.287-.285 4.802-.388 3.081-.68 6.198-.863 9.19-.133 2.067-.33 4.164-.584 6.234l-.098.786-.046.791c-.336 5.663-.588 11.142-.75 16.247-.171 5.139-.254 10.513-.254 16.43v14.88c0 3.234.098 6.229.294 9.075.128 1.955.303 3.966.518 5.981-1.422-6.271-2.572-12.529-3.425-18.635l-4.991-35.755 1.926-4.496v-19.7c.318-3.332.479-6.659.479-9.911 0-1.849.096-3.543.283-5.036l.196-1.556v-1.568c0-.8.035-1.533.118-2.337.239-2.426.361-4.869.361-7.263v-1.143l-.104-1.138c-.036-.383-.064-1.503.424-3.621l.414-1.795.146-1.836c.602-7.541 1.37-15.079 2.286-22.407.954-7.627 1.907-15.41 2.86-23.354 3.08-21.542 6.994-43.207 11.635-64.397 4.619-21.094 10.392-42.543 17.156-63.752l.168-.55c1.435-4.885 3.046-9.791 4.789-14.584 1.798-4.943 3.77-10.023 5.86-15.099l.29-.737c1.057-2.814 2.13-5.855 3.191-9.04.584-1.75 1.258-3.395 2.015-4.909 1.744-3.498 3.28-7.12 4.558-10.743.62-1.752 1.343-3.458 2.149-5.07l.383-.8c4.302-9.42 9.161-18.288 14.456-26.382l-.482 1.735c-.327 1.301-.706 2.457-1.139 3.464-1.104 2.577-2.215 5.353-3.303 8.251l-5.347 14.581-.087.239c-3.663 10.313-7.054 20.912-10.079 31.5-2.886 10.112-5.776 20.306-8.665 30.577zm155.401 284.433l-.083.532c-.294 2.042-.587 3.935-.874 5.687l-.052.262-.279.698-.271.854c-.566 1.777-1.261 2.787-2.103 3.547-.478.255-.969.496-1.478.727-.347.158-1.134.481-2.508.874l-1.077.308-1.046.403c-1.285.495-2.546.727-3.968.727h-1.569l-1.557.196c-.987.124-1.896.189-2.629.189-.281 0-.491-.009-.636-.02-1.376-.442-2.729-.855-4.052-1.235l-1.862-1.494-.463-.371c-.114-.091-.205-.182-.295-.294l-.083-.104c-.492-.613-.994-1.356-1.523-2.266-.013-.021-.078-.14-.162-.436l-.44-1.551-.636-1.48c-.274-.637-.477-1.292-.616-1.991-.45-2.257-.962-4.567-1.554-7.021-.18-1.586-.319-3.141-.42-4.677-.053-.767-.019-1.645.103-2.607l.195-1.554v-1.564c0-1.009.031-2.069.095-3.171l4.521-12.432c.883-2.241 1.572-4.234 2.12-6.148.006-.02.144-.475.579-1.558l.531-1.448c.2-.602.341-1.004.43-1.252l1.144-2.289 1.02-5.094.238-.951c.742-2.671 1.194-5.316 1.355-7.927l.726-1.597c.294.628.594 1.255.9 1.878.626 1.479 1.328 2.956 2.102 4.421v.271l4.528 9.055.219.459.587 1.747 1 1.862c1.48 2.758 2.804 5.979 3.931 9.575l.481 1.533.673 1.459c1.092 2.366 1.935 5.014 2.506 7.87l.253 1.128c.449 1.809.783 3.396.991 4.718.295 1.962.587 4.083.868 6.305l.052.386c.27 1.901.3 3.583.088 4.861zm46.656-27.794c-1.224-5.914-3.015-11.59-5.333-16.904-1.775-5.412-3.881-10.507-6.274-15.187-.363-.91-.77-1.847-1.227-2.825v-4.993l-4.338-4.335-.12-.3-1.033-1.72c-.332-.554-.506-.932-.594-1.151l-.405-1.021-.493-.981c-1.101-2.19-2.047-4.412-2.836-6.675-1.043-2.963-2.149-6.063-3.318-9.305-.79-2.939-1.502-5.811-2.13-8.595-.715-3.135-1.365-6.313-1.942-9.502-.432-2.354-.705-4.83-.815-7.418-.163-3.63-.396-7.246-.695-10.765v-28.741l.821-1.688 2.302-1.148 3.995-11.992c.822-1.666 1.494-3.383 2.012-5.14l2.738-5.478c1.717-2.826 3.575-4.208 6.671-5.021 1.053-.276 2.002-.41 2.902-.41 1.16 0 3.032.199 5.871 1.921l.217.13c1.675.993 2.884 2.065 3.779 3.416h-3.549v18.631l-.622 1.773-.083.246-.29.438-.687 1.371c-2.569 5.141-4.575 10.555-5.971 16.115-1.953 5.747-3.199 11.346-3.711 16.675-.354 2.554-.623 5.055-.799 7.378-.172 2.172-.275 4.46-.308 6.821-.371 3.399-.434 6.809-.188 10.108.199 2.826.503 5.668.902 8.447.313 2.237.635 4.475.958 6.705.37 2.645.896 5.305 1.567 7.936.24 1.521.598 3.039 1.07 4.548v7.353l3.39 3.395c.697 2.033 1.438 3.854 2.249 5.524l2.134 7.115c.719 2.397 1.339 4.877 1.843 7.372l.247 1.096c1.334 5.348 2.352 10.99 3.022 16.741.3 2.599.535 5.25.705 7.938-.404-2.47-.941-5.066-1.634-7.898zm149.431-59.689l.13-.379c1.139-3.428 2.404-7 3.762-10.62 1.021-2.722 2.228-5.366 3.587-7.86l.195-.366c2.594-4.956 6.16-10.104 10.602-15.309 1.832-2.05 3.835-4.047 5.956-5.936l1.051-.991c.707-.707 2.066-1.852 4.53-3.291l.538-.323c3.715-2.297 7.38-3.655 11.204-4.154l1.225-.19c.537-.097.998-.104 1.529-.02 1.779.349 3.622.633 5.503.849.02 1.169.074 2.3.167 3.407l-.175.888v6.198l-.008.038-.473 2.397v2.101c-.335 1.513-.657 3.052-.959 4.582-.473 2.338-1.052 4.595-1.724 6.723-.321 1.021-.714 1.894-1.198 2.669l-1.781 2.851-.882 2.942-.39.453-.83 1.238c-.523.781-1.109 1.627-1.741 2.515l-1.37 1.37-.162.119c-1.35.833-2.686 1.689-3.989 2.559-.856.57-1.783 1.162-2.765 1.764-2.381 1.174-4.723 2.245-6.991 3.197-2.198.926-4.502 1.753-6.847 2.457l-.334.103c-2.488.785-5.399 1.111-8.71.971-1.042-.217-2.084-.383-3.121-.497l-2-.672h-.557l-.236-.12-2.953-.681-.107-.024.324-.958zm52.863 144.088l-7.464 2.8c-1.651.617-3.343 1.146-4.944 1.551-2.036.506-4.139.951-6.227 1.321-3.164.557-6.369 1.197-9.526 1.904l-.572.136c-.59.146-1.305.221-2.125.221h-8.641c-4.752 0-8.968-.424-12.531-1.26l-.993-.232-1.01-.151c-3.816-.572-7.338-1.684-10.766-3.397l-.927-.463-.962-.386c-2.206-.883-4.319-1.883-6.243-2.949-2.227-1.241-4.463-2.603-6.652-4.052-3.69-2.633-7.128-5.759-10.214-9.284-1.653-1.892-3.219-3.877-4.651-5.902-1.644-2.324-3.147-4.578-4.517-6.775-.956-1.523-1.843-3.202-2.655-5.037-.938-2.105-1.772-4.252-2.48-6.375-1.5-4.498-2.636-9.035-3.377-13.483l-.135-.807-.187-.795c-.889-3.789-1.396-7.613-1.51-11.333-.135-4.67-.064-9.431.207-14.117.113-1.907.273-3.889.49-6.058l1.194-11.952c.154 2.244.37 4.435.647 6.558.546 4.192 1.179 8.259 1.87 12.024.851 4.696 2.039 9.342 3.52 13.761 1.303 3.918 2.73 7.648 4.244 11.097 3.118 7.861 7.236 14.751 12.258 20.512 2.697 3.604 5.525 6.569 8.61 9.036 1.945 1.562 4.061 3.116 6.296 4.631 3.353 2.531 7.096 4.599 11.146 6.152 2.664 1.029 5.553 1.955 8.604 2.76 3.629 1.267 7.459 2.239 11.408 2.898 2.78.464 5.865 1.008 9.268 1.622l2.204.398h2.241c.814 0 1.757.047 2.799.14 1.713.159 3.432.263 5.136.311 5.078.704 10.205.683 15.285-.062 5.351-.271 10.737-.812 16.108-1.618-4.823 2.59-9.582 4.819-14.226 6.655zm59.308-172.002c-.49 2.126-1.026 4.188-1.587 6.104-.771 2.611-1.484 5.199-2.128 7.712-1.546 4.284-3.282 8.485-5.171 12.511-1.696 3.619-3.852 7.223-6.408 10.71l-.681.93-.593.988c-1.815 3.025-4.264 6.088-7.278 9.103l-.911.911-.813 1c-2.29 2.819-4.797 5.009-7.664 6.693l-1.201.706-1.115.834c-1.174.879-2.474 1.78-3.884 2.693h-.472l-2.718 1.358-3.948 1.313-.551.553-.01.004c-2.028.812-4.186 1.503-6.447 2.068 1.19-.742 2.341-1.482 3.438-2.214 1.143-.762 2.329-1.511 3.526-2.227l2.668-1.596.7-.702c.893-.654 1.751-1.363 2.57-2.122 2.157-1.648 3.834-3.428 5.13-5.136 1.311-1.409 2.596-3.004 3.912-4.85.659-.926 1.274-1.81 1.847-2.646 2.98-3.755 5.363-8.007 7.114-12.69 1.959-3.556 3.579-7.348 4.826-11.305 1.21-3.828 2.242-7.85 3.068-11.951l.022-.112c.27-1.37.546-2.674.823-3.909l.033-.147c.521-2.394.852-4.854.985-7.346.369-2.387.549-4.649.549-6.864v-2.367c.427-3.301.426-6.421.002-9.47l-.002-.163c0-2.394-.161-4.69-.48-6.836v-3.004l-.671-2.001c-.182-1.604-.49-3.181-.925-4.722-.759-3.549-2.2-7.078-4.349-10.671l-1.632-2.728-2.128-2.101-.202-.251c-2.308-2.844-5.151-5.295-8.476-7.311.622.104 1.246.217 1.87.334 1.412.271 2.999.803 4.715 1.581l.339.149c4.502 1.961 8.111 4.332 11.032 7.248l1.12 1.052c2.92 2.579 5.354 5.948 7.406 10.231 2.2 4.627 3.77 8.957 4.673 12.883.707 5.199 1.065 10.169 1.065 14.784.003 4.448-.331 8.813-.988 12.989zm66.948-44.449l-.044.376c-1.321 11.855-2.403 23.835-3.215 35.606-.818 11.861-1.4 23.832-1.731 35.618-.162 6.101-.18 12.302-.056 18.541-.884.795-2.063 1.829-3.625 3.155-3.749 3.188-6.59 5.755-8.687 7.852-1.287 1.287-2.697 2.63-4.188 3.986-1.363 1.241-2.643 2.34-3.803 3.265l-1.101.878-.994.995c-.668.668-1.358 1.263-2.07 1.78-2.015 1.467-4.006 2.983-5.915 4.508l-.151.121c-6.052 4.904-12.446 9.608-19.005 13.98-3.445 2.297-6.923 4.522-10.407 6.662 3.75-3.086 7.237-6.545 10.436-10.355 5.218-5.338 9.685-10.991 13.301-16.833 4.185-5.822 7.78-11.921 10.691-18.134 2.739-5.837 5.236-11.941 7.424-18.144l.394-1.116.286-1.149c.552-2.212 1.186-4.532 1.896-6.946.936-3.195 1.797-6.544 2.562-9.954l.266-1.358c1.181-7.086 1.779-14.443 1.779-21.87 0-7.232-.569-14.882-1.69-22.735l-.117-.818-.171-.809c-1.681-7.965-4.575-16.299-8.636-24.841-4.847-10.116-11.189-18.745-18.861-25.662-6.971-6.827-15.321-12.449-24.844-16.726l80.633-2.78c-4.234 20.922-7.712 42.05-10.357 62.907zm118.228-213.021c-2.06 5.15-4.008 10.231-5.774 15.066-1.702 4.633-3.474 9.253-5.266 13.733l-.121.311c-3.408 8.86-6.583 18.04-9.432 27.27-2.76 8.926-5.476 18.063-8.074 27.16l-8.937 31.291.856.015-.292 1.165c-1.617 6.457-3.207 13.237-4.726 20.154-1.338 6.092-2.784 12.264-4.3 18.349-.86 3.049-1.501 5.884-1.954 8.652-.361 2.154-.713 4.44-1.044 6.797l-14.787 105.122.197-.286c-.351 1.682-.535 3.424-.535 5.207l-.001.149h.001c-.286 2.006-.442 4.051-.474 6.224-.322 5.653-.486 11.257-.486 16.666v15.36c0 11.311.524 22.3 1.559 32.664 1.051 11.187 2.665 21.723 4.798 31.319l.187.842.245.827c.359 1.215.731 2.415 1.116 3.598-.442-1.063-.875-2.151-1.298-3.262l-.181-.46c-.423-1.049-.808-2.093-1.147-3.115-.611-1.834-1.32-3.76-2.165-5.887l-.397-.999-.483-.965c-.003-.006-.325-.684-.631-2.374l-.251-1.386-.404-1.35c-1.607-5.355-2.82-10.457-3.605-15.163l-.197-1.051c-1.358-6.436-2.46-12.961-3.275-19.394l-1.307-10.312.104-.13-.453-9.441c-.428-8.895-.529-17.784-.301-26.382.311-11.071.859-22.355 1.631-33.54.76-11.012 1.771-22.223 3.005-33.322 2.758-21.718 6.479-43.754 11.061-65.507.941-3.772 1.884-7.615 2.824-11.541.976-4.067 1.952-8.218 2.929-12.453l3.709-16.08.431.013 5.819-17.771c.455-1.389.858-2.703 1.235-4.017l.031-.111c.189-.673.389-1.323.593-1.93l.152-.469c3.296-10.489 7.029-20.93 11.096-31.025 4.155-10.309 8.591-20.66 13.184-30.772 2.256-4.786 4.699-9.524 7.254-14.07 2.712-4.816 5.583-9.651 8.539-14.38l.38-.598-.638 1.589z"/><path fill="#fff" d="M2001.733 216.466c-1.439-1.44-3.12-2.16-5.04-2.16l-203.516-6.72 2.88-8.16 2.879-7.68 5.76-15.84c1.92-5.438 3.841-10.718 5.761-15.84 1.92-5.115 3.675-10.395 5.279-15.84.638-1.598 1.035-2.955 1.2-4.08.157-1.117.555-2.475 1.2-4.08.638-1.597 1.117-3.037 1.439-4.32.315-1.275.638-2.558.961-3.84.96-2.88 1.837-5.678 2.64-8.4.795-2.715 1.515-5.52 2.16-8.4.638-2.88 1.2-5.76 1.68-8.64.48-2.88 1.035-5.917 1.68-9.12.315-1.598.48-3.12.48-4.56s.157-2.955.479-4.56v-5.04c0-1.755-.165-3.435-.479-5.04-.646-4.155-1.763-8.16-3.36-12-1.604-2.235-3.202-4.32-4.8-6.24l-2.88-2.88c-.96-.96-2.242-1.755-3.84-2.4-3.203-1.275-5.603-2.077-7.2-2.4-.96-.315-2.242-.48-3.84-.48h-.48c0-.315-.165-.48-.479-.48h-2.4c-2.563 0-4.882.165-6.959.48-2.085.323-4.08.803-6 1.44-1.92.645-3.84 1.365-5.76 2.16-1.92.802-3.683 1.522-5.28 2.16-1.604.96-3.12 1.92-4.56 2.88-1.44.96-2.963 1.92-4.561 2.88-2.88 2.243-5.52 4.402-7.92 6.48-2.399 2.085-4.882 4.245-7.439 6.48-2.565 2.565-4.801 4.965-6.721 7.2-1.92 2.242-3.84 4.643-5.76 7.2-1.92 2.565-3.84 5.04-5.759 7.44-1.92 2.4-3.683 4.883-5.28 7.44-3.202 5.122-6.24 10.245-9.12 15.36-2.88 5.123-5.603 10.402-8.16 15.84-4.8 10.56-9.359 21.203-13.68 31.92-4.32 10.725-8.242 21.683-11.76 32.88-.322.96-.646 2.002-.96 3.12-.322 1.125-.646 2.16-.96 3.12l-191.518-5.76h-1.92c-6.397 0-11.916 2.482-16.559 7.44-4.635 4.965-6.795 10.643-6.48 17.04.323 6.72 2.88 12.322 7.681 16.8 4.799 4.485 10.559 6.72 17.278 6.72l180.957-6.24c-.96 4.163-1.92 8.243-2.879 12.24-.96 4.005-1.92 7.92-2.88 11.76-4.8 22.725-8.64 45.442-11.52 68.161-1.283 11.52-2.325 23.039-3.12 34.56s-1.357 23.04-1.681 34.56c-.25 9.429-.134 18.858.319 28.283l-.798.997c-1.282.96-2.88 2.399-4.8 4.319-1.605 1.605-4.005 3.766-7.2 6.48-3.202 2.723-5.603 4.883-7.2 6.48-1.604 1.604-3.285 3.202-5.04 4.8-1.763 1.604-3.442 3.045-5.04 4.319-1.604 1.605-3.285 3.045-5.04 4.32-1.763 1.283-3.442 2.565-5.04 3.84-6.719 5.445-13.679 10.561-20.879 15.36s-14.482 9.285-21.84 13.44c-3.525 1.92-7.125 3.84-10.8 5.76-3.683 1.92-7.44 3.683-11.28 5.279-3.839 1.605-7.679 3.045-11.519 4.32-3.841 1.283-7.681 2.4-11.521 3.36-7.68 1.604-15.36 2.565-23.04 2.88-3.524.645-7.042.645-10.56 0-1.605 0-3.285-.075-5.04-.24-1.763-.157-3.442-.24-5.04-.24-3.524-.637-6.72-1.199-9.6-1.68s-5.603-1.199-8.159-2.16c-2.565-.637-4.883-1.357-6.961-2.16-2.085-.795-3.922-1.837-5.52-3.119-1.92-1.275-3.683-2.558-5.28-3.84-1.604-1.275-3.202-3.038-4.8-5.28-3.525-3.841-6.405-8.64-8.64-14.4-1.283-2.88-2.482-6-3.601-9.36-1.125-3.359-2.002-6.795-2.64-10.319-.646-3.518-1.2-7.118-1.68-10.8-.48-3.676-.721-7.598-.721-11.76v-7.681c.315.323.48.646.48.96 0 .322.157.645.479.96 1.598 2.243 3.195 4.32 4.801 6.24 1.597 1.92 3.194 3.84 4.8 5.76 1.274 1.282 2.399 2.243 3.359 2.88 1.275 1.283 2.235 2.086 2.881 2.4.96.96 1.994 1.845 3.119 2.64 1.118.803 2.318 1.522 3.601 2.16 4.478 2.88 9.6 5.28 15.359 7.2 1.598.645 2.955 1.125 4.08 1.439 1.118.322 2.476.646 4.08.961l8.641 1.439c10.874.96 21.914.165 33.119-2.4 5.438-.959 10.56-2.399 15.359-4.319 1.92-.638 3.195-1.118 3.84-1.44.315 0 .638-.157.96-.48l1.44-.479c1.275-.638 2.077-.96 2.4-.96 3.194-1.92 6.074-3.84 8.639-5.76 5.438-3.195 10.237-7.357 14.4-12.48 4.477-4.477 8.159-9.119 11.039-13.92 3.518-4.8 6.48-9.758 8.881-14.88 2.399-5.114 4.56-10.396 6.479-15.84.638-2.558 1.357-5.197 2.16-7.92.795-2.715 1.515-5.521 2.16-8.399.96-5.761 1.439-11.678 1.439-17.761 0-6.075-.479-12.479-1.439-19.2-1.282-6.074-3.525-12.479-6.72-19.199-3.525-7.357-8.003-13.44-13.44-18.241-5.122-5.115-11.362-9.277-18.72-12.48-3.525-1.597-6.959-2.715-10.319-3.36-3.36-.637-6.645-1.118-9.84-1.44-3.203-.638-6.322-.877-9.36-.72-3.045.165-6 .562-8.88 1.2-2.88.645-5.685 1.283-8.4 1.92-2.722.645-5.362 1.283-7.92 1.92-5.76 2.243-10.725 4.32-14.88 6.24-4.799 2.243-9.358 4.725-13.679 7.44-4.32 2.723-8.565 5.685-12.72 8.88-1.92 1.605-3.84 3.12-5.761 4.561-1.92 1.439-3.84 2.962-5.76 4.56-1.604 1.604-3.359 3.285-5.28 5.04-1.92 1.763-3.682 3.6-5.279 5.52-3.525 3.525-6.721 7.125-9.601 10.801-2.88 3.682-5.76 7.439-8.639 11.279-2.88 3.84-5.603 7.763-8.16 11.76-2.564 4.006-4.965 8.243-7.2 12.721-8.635 15.037-15.447 30.804-20.442 47.296l-48.669 61.185c0-.639.075-2.078.24-4.32.157-2.235.24-3.676.24-4.32 0-7.357-.405-14.475-1.2-21.359-.803-6.878-2.003-13.516-3.6-19.92-.646-3.195-1.44-6.398-2.4-9.601-.96-3.195-1.92-6.397-2.88-9.601-.646-.959-1.282-2.399-1.92-4.319l-1.44-4.8-.479-.48v-.959l-.48-1.92c-.645-1.274-.96-2.399-.96-3.36-.645-2.234-1.125-4.477-1.439-6.72-.323-2.235-.646-4.478-.96-6.72-.323-2.235-.562-4.478-.721-6.721-.165-2.234-.082-4.477.24-6.72 0-2.235.075-4.395.24-6.479.157-2.078.397-4.238.72-6.48.315-3.84 1.275-7.994 2.88-12.48.96-4.154 2.4-8.159 4.32-12 .638-.959 1.117-1.837 1.439-2.639.315-.796.638-1.681.96-2.641.315-.638.556-1.035.721-1.2.157-.157.397-.555.72-1.2.315 0 .48-.314.48-.959h.479v.479c5.115-8.955 6.397-18.315 3.84-28.08-2.564-9.758-8.16-17.198-16.8-22.32-8.963-5.438-18.322-6.877-28.079-4.32-9.765 2.565-17.205 8.325-22.32 17.28l-.479.48-.48.48-.479.96c0 .645-.083 1.042-.24 1.2-.165.165-.24.405-.24.72l-1.439 2.88c-.646.96-1.043 1.92-1.2 2.88-.165.96-.562 1.92-1.2 2.88l-1.439 4.32c-.646.322-1.283 1.283-1.92 2.879-2.565 5.445-5.123 10.643-7.681 15.601-2.564 4.965-5.28 10.163-8.16 15.601-2.564 5.122-5.205 10.162-7.92 15.119-2.723 4.965-5.519 10.006-8.398 15.12l-17.28 30.24-8.64 15.36-.96 1.92-.96.959-.48.961c-.315.645-.638 1.365-.96 2.16-.315.803-.638 1.521-.96 2.16-.638 1.281-1.357 2.564-2.16 3.84-.795 1.282-1.515 2.723-2.16 4.319-.638 1.605-1.2 3.046-1.68 4.32-.48 1.282-1.035 2.723-1.68 4.319-.638 1.605-1.118 3.121-1.44 4.561-.085.386-.183.778-.291 1.176-.902 1.61-1.921 3.22-3.068 4.824-2.564 4.484-5.28 8.963-8.16 13.439-2.88 4.485-5.925 8.806-9.12 12.961-3.201 4.484-6.403 8.64-9.599 12.479-3.202 3.841-6.562 7.522-10.08 11.04-1.604 1.605-3.36 3.12-5.28 4.561-1.92 1.439-3.84 2.962-5.76 4.56-3.202 2.565-6.885 4.965-11.04 7.2-4.484 2.242-8.002 3.525-10.56 3.84-1.283.322-3.045.48-5.28.48h-4.319l-.96-.48c0-.314-.322-.795-.96-1.439-.645-.315-1.124-1.275-1.438-2.881-.646-.637-1.283-2.077-1.92-4.32-.646-1.597-1.2-3.359-1.681-5.279-.479-1.92-1.042-3.998-1.68-6.24-.646-2.234-1.043-4.478-1.2-6.72-.165-2.235-.405-4.636-.72-7.2-.322-2.558-.562-5.04-.72-7.439-.165-2.4-.24-4.875-.24-7.44v-14.88c0-5.438.075-10.635.24-15.6.157-4.958.397-10.156.72-15.601.314-2.558.555-5.115.72-7.681.157-2.557.397-5.114.72-7.68.315-2.557.48-5.197.48-7.92 0-2.715.157-5.354.479-7.92.315-1.598.48-3.037.48-4.32 0-1.274.157-2.557.48-3.84l1.92-3.84 4.318-7.68c1.275-2.558 2.476-5.197 3.601-7.92 1.117-2.715 2.475-5.355 4.08-7.92 2.557-5.115 5.04-10.238 7.439-15.36 2.4-5.114 4.875-10.237 7.44-15.36 9.6-20.475 18.72-41.115 27.359-61.919 8.641-20.475 16.8-41.115 24.479-61.92l5.76-15.84c.96-2.558 1.92-5.115 2.88-7.68.96-2.558 1.92-5.115 2.88-7.68 1.92-5.438 3.758-10.717 5.521-15.84 1.755-5.115 3.435-10.395 5.04-15.84l2.88-8.16c.638-1.275 1.035-2.558 1.2-3.84.157-1.275.555-2.715 1.2-4.32.637-2.558 1.439-5.198 2.399-7.92.96-2.715 1.755-5.52 2.4-8.4.638-2.88 1.2-5.678 1.68-8.4.48-2.715 1.035-5.677 1.68-8.88.638-2.88 1.118-5.835 1.44-8.88.314-3.038.314-6.315 0-9.84 0-3.84-.646-7.515-1.92-11.04-.646-2.235-1.605-4.32-2.88-6.24-.646-.96-1.365-1.995-2.16-3.12-.803-1.117-1.68-2.16-2.64-3.12-2.565-1.92-4.966-3.36-7.2-4.32-3.203-1.275-5.761-1.92-7.681-1.92-.322-.315-.802-.48-1.439-.48h-8.399000000000001c-1.125 0-2.325.165-3.6.48-4.163.645-8.003 1.92-11.52 3.84-1.92.645-3.683 1.44-5.279 2.4-1.605.96-3.203 1.92-4.801 2.88-1.604.96-3.045 1.92-4.319 2.88-1.283.96-2.565 2.085-3.84 3.36-1.605.96-2.963 2.003-4.08 3.12l-3.601 3.6c-9.285 9.285-16.965 18.885-23.04 28.8-6.404 9.6-12.165 20.002-17.278 31.2-1.283 2.565-2.4 5.205-3.36 7.92-.96 2.723-2.085 5.363-3.36 7.92-1.282 2.565-2.399 5.28-3.359 8.16s-1.92 5.603-2.88 8.16c-2.243 5.445-4.32 10.8-6.24 16.08-1.92 5.28-3.683 10.643-5.28 16.08-7.042 22.08-12.96 44.085-17.76 66-4.8 21.923-8.805 44.085-12 66.479-.96 8.003-1.92 15.841-2.88 23.521-.96 7.681-1.763 15.525-2.4 23.521-.96 4.162-1.282 8.002-.96 11.52 0 1.605-.082 3.203-.24 4.801-.165 1.604-.239 3.201-.239 4.799-.323 2.565-.479 5.28-.479 8.16 0 2.881-.165 5.76-.479 8.641v15.84l-1.439 3.359-1.92 3.36c-.646 1.282-1.201 2.482-1.682 3.601-.479 1.125-1.041 2.324-1.68 3.6-1.605 2.564-2.963 4.965-4.08 7.2-1.125 2.242-2.482 4.485-4.08 6.72-2.564 4.484-5.279 8.963-8.16 13.439-2.879 4.485-5.924 8.806-9.119 12.961-3.203 4.484-6.404 8.64-9.6 12.479-3.203 3.841-6.562 7.522-10.08 11.04-1.605 1.605-3.361 3.12-5.281 4.561-1.92 1.439-3.84 2.962-5.76 4.56-3.2 2.565-6.884 4.965-11.038 7.2-4.484 2.242-8.002 3.525-10.561 3.84-1.283.322-3.045.48-5.279.48h-4.317l-.96-.48c0-.314-.323-.795-.96-1.439-.645-.315-1.125-1.275-1.44-2.881-.645-.637-1.282-2.077-1.92-4.32-.645-1.597-1.2-3.359-1.68-5.279s-1.042-3.998-1.68-6.24c-.645-2.234-1.042-4.478-1.2-6.72-.165-2.235-.405-4.636-.72-7.2-.323-2.558-.562-5.04-.72-7.439-.165-2.4-.24-4.875-.24-7.44v-14.88c0-5.438.075-10.635.24-15.6.158-4.958.397-10.156.72-15.601.315-2.558.555-5.115.72-7.681.158-2.557.397-5.114.72-7.68.315-2.557.48-5.197.48-7.92 0-2.715.157-5.354.48-7.92.315-1.598.48-3.037.48-4.32 0-1.274.158-2.557.48-3.84l1.92-3.84 4.32-7.68c1.274-2.558 2.476-5.197 3.601-7.92 1.117-2.715 2.475-5.355 4.08-7.92 2.557-5.115 5.039-10.238 7.439-15.36 2.4-5.114 4.875-10.237 7.439-15.36 9.599-20.475 18.72-41.115 27.358-61.919 8.641-20.475 16.801-41.115 24.48-61.92l5.76-15.84c.961-2.558 1.92-5.115 2.881-7.68.959-2.558 1.92-5.115 2.879-7.68 1.92-5.438 3.758-10.717 5.521-15.84 1.754-5.115 3.434-10.395 5.038-15.84l2.881-8.16c.637-1.275 1.035-2.558 1.199-3.84.158-1.275.555-2.715 1.201-4.32.637-2.558 1.439-5.198 2.398-7.92.961-2.715 1.756-5.52 2.4-8.4.639-2.88 1.201-5.678 1.68-8.4.48-2.715 1.035-5.677 1.68-8.88.639-2.88 1.119-5.835 1.441-8.88.314-3.038.314-6.315 0-9.84 0-3.84-.646-7.515-1.92-11.04-.646-2.235-1.605-4.32-2.881-6.24-.645-.96-1.365-1.995-2.16-3.12-.803-1.117-1.68-2.16-2.639-3.12-2.566-1.92-4.967-3.36-7.2-4.32-3.203-1.275-5.76-1.92-7.68-1.92-.322-.315-.803-.48-1.439-.48h-8.4c-1.125 0-2.326.165-3.6.48-4.164.645-8.004 1.92-11.521 3.84-1.92.645-3.682 1.44-5.279 2.4-1.605.96-3.203 1.92-4.801 2.88-1.604.96-3.045 1.92-4.318 2.88-1.283.96-2.566 2.085-3.84 3.36-1.605.96-2.963 2.003-4.08 3.12l-3.602 3.6c-9.284 9.285-16.964 18.885-23.038 28.8-6.404 9.6-12.166 20.002-17.28 31.2-1.282 2.565-2.4 5.205-3.36 7.92-.96 2.723-2.085 5.363-3.36 7.92-1.283 2.565-2.4 5.28-3.36 8.16s-1.92 5.603-2.879 8.16c-2.243 5.445-4.32 10.8-6.24 16.08-1.92 5.28-3.683 10.643-5.28 16.08-7.042 22.08-12.96 44.085-17.76 66-4.8 21.923-8.805 44.085-12 66.479-.96 8.003-1.92 15.841-2.88 23.521-.96 7.681-1.762 15.525-2.4 23.521-.96 4.162-1.282 8.002-.96 11.52 0 1.605-.083 3.203-.24 4.801-.165 1.604-.24 3.201-.24 4.799-.322 2.565-.48 5.28-.48 8.16 0 2.881-.165 5.76-.48 8.641v15.846l-3.835 5.273c-1.605 1.605-2.962 3.285-4.08 5.041-1.125 1.762-2.482 3.441-4.08 5.039-2.564 3.525-6 8.003-10.319 13.44-4.32 5.445-7.763 9.923-10.32 13.44-2.88 3.524-5.76 6.803-8.64 9.84-2.88 3.045-5.76 6.165-8.64 9.359-6.083 6.405-12 12.322-17.76 17.76-1.605 1.605-3.203 3.046-4.8 4.32-1.605 1.283-3.202 2.565-4.8 3.84-2.564 2.243-5.602 4.485-9.12 6.721-3.525 2.242-6.405 3.84-8.64 4.8-1.92.646-3.202.96-3.84.96-.645.322-1.44.48-2.4.48h-.48c-.323 0-.48-.075-.48-.24 0-.158-.165-.24-.48-.24h-.96c-.645 0-1.042-.075-1.2-.24-.165-.157-.405-.24-.72-.24v-.958c0-.639-.165-1.275-.48-1.92 0-.315-.083-.639-.24-.961-.165-.314-.24-.795-.24-1.439-.323-1.275-.48-2.641-.48-4.08s-.165-2.955-.48-4.561c0-1.598.075-3.277.24-5.039.158-1.756.24-3.601.24-5.521.315-1.598.555-3.36.72-5.28.158-1.92.397-3.84.72-5.76.637-3.84 1.357-7.755 2.16-11.76.795-3.998 1.837-7.92 3.12-11.76.96-4.155 1.92-8.235 2.88-12.24.96-3.998 2.078-7.92 3.36-11.76 1.597-4.155 2.955-8.235 4.08-12.24 1.118-3.998 2.475-7.92 4.08-11.76 1.598-4.155 3.038-8.235 4.32-12.24 1.275-3.998 2.715-7.92 4.319-11.76 1.598-4.155 3.12-8.235 4.56-12.24 1.44-3.998 2.955-7.92 4.56-11.76 1.597-4.155 3.277-8.16 5.04-12 1.755-3.84 3.435-7.838 5.04-12 .637-1.92 1.357-3.84 2.16-5.76.795-1.921 1.68-3.841 2.64-5.761l2.4-5.76 2.4-5.761h.48c0-.637.158-1.117.48-1.439 3.517-8.641 3.36-17.115-.48-25.44-3.84-8.317-10.08-14.235-18.72-17.76-8.64-3.517-17.205-3.435-25.68.24-8.482 3.683-14.482 9.84-18 18.48-.645 1.283-1.042 2.4-1.2 3.36-.165.96-.562 2.085-1.2 3.36l-2.4 6.24-4.32 12.959-8.64 25.92c-1.283 4.486-2.565 8.806-3.84 12.961-1.282 4.162-2.565 8.482-3.84 12.96-1.282 4.485-2.482 8.88-3.6 13.2-1.125 4.319-2.16 8.723-3.119 13.199-1.283 4.485-2.4 9.045-3.36 13.68-.949 4.592-1.899 9.102-2.848 13.532l-.985 1.108-3.36 4.32c-1.282 1.604-2.482 3.045-3.6 4.32-1.125 1.281-2.482 2.722-4.08 4.319-2.565 2.88-5.843 6.803-9.84 11.761-4.005 4.965-7.282 8.722-9.84 11.279-5.123 5.445-10.32 10.8-15.6 16.08-5.28 5.279-10.642 10.162-16.079 14.641-2.565 2.564-5.28 4.965-8.16 7.199-2.88 2.242-5.76 4.32-8.64 6.24-1.282.96-2.565 1.92-3.84 2.88-1.283.96-2.723 1.92-4.32 2.88-2.564 1.92-5.279 3.36-8.159 4.32-2.243 1.282-4.485 2.242-6.72 2.88 0-.96.315-2.399.96-4.32.315-1.274.638-2.64.96-4.079.315-1.44.638-2.955.96-4.561.638-1.598 1.2-3.195 1.68-4.801.48-1.597 1.035-3.194 1.68-4.799 1.275-3.195 2.475-6.398 3.6-9.601 1.117-3.194 2.475-6.555 4.079-10.08l8.64-20.159c2.88-6.721 5.835-13.516 8.88-20.4 3.038-6.878 6.158-13.995 9.36-21.36 1.597-3.518 3.12-7.117 4.56-10.8 1.439-3.676 2.954-7.275 4.559-10.801 1.598-3.84 3.038-7.68 4.32-11.52 1.275-3.84 2.558-7.838 3.84-12 .638-1.92 1.275-3.915 1.92-6 .638-2.077 1.275-4.237 1.92-6.48.638-2.234 1.118-4.477 1.44-6.719.315-2.235.795-4.636 1.44-7.201.315-2.557.555-5.197.72-7.92.158-2.715.24-5.677.24-8.879v-5.041c0-1.754-.165-3.6-.48-5.52-.645-4.478-1.763-8.797-3.36-12.96-.322-1.275-.802-2.558-1.44-3.84-.645-1.275-1.282-2.558-1.92-3.84-.96-2.558-2.723-5.438-5.28-8.64-1.92-2.557-4.485-5.28-7.68-8.16-2.565-2.235-5.603-4.32-9.12-6.24-1.605-.637-3.202-1.275-4.8-1.92-1.605-.637-3.203-1.118-4.8-1.44-1.605-.638-3.12-1.035-4.56-1.2-1.44-.157-2.963-.397-4.56-.72-1.605-.315-4.005-.48-7.2-.48h-1.44l-.96.48h-2.4c-3.525.322-6.72.802-9.6 1.44-2.88.645-5.76 1.283-8.64 1.92-5.759 1.92-11.04 4.32-15.839 7.2-4.8 2.565-9.203 5.445-13.2 8.64-4.005 3.203-7.605 6.562-10.799 10.08-6.72 7.365-12.48 14.565-17.28 21.6-2.565 3.525-4.882 7.125-6.96 10.8-2.085 3.683-4.245 7.282-6.479 10.8l-6.24 10.561c-1.283 1.605-2.4 3.285-3.36 5.04-.96 1.763-1.92 3.442-2.88 5.04-4.163 7.043-8.002 14.002-11.52 20.88-3.525 6.885-7.042 13.845-10.56 20.88-.645 1.92-1.44 3.766-2.4 5.52-.96 1.764-1.762 3.443-2.4 5.041-1.92 3.524-3.525 7.199-4.8 11.039l-3.36 7.681c2.235-9.601 4.32-19.2 6.24-28.8 1.92-9.601 3.998-19.2 6.24-28.801l.96-2.88 1.44-2.88.96-2.88 1.439-3.36c1.275-3.84 3.038-7.837 5.28-12 1.92-4.154 3.84-8.234 5.76-12.24 1.92-3.997 3.84-7.92 5.76-11.76 2.235-4.154 4.395-8.234 6.48-12.24 2.078-3.997 4.238-7.919 6.48-11.759 2.235-4.155 4.395-8.235 6.479-12.24 2.078-3.998 4.238-7.92 6.48-11.76 1.275-2.235 2.475-4.32 3.6-6.24 1.118-1.92 2.16-3.84 3.12-5.76 1.275-2.235 2.4-4.32 3.36-6.24s2.078-3.998 3.36-6.24c.638-.96 1.2-1.995 1.68-3.12.48-1.118 1.035-2.16 1.68-3.12.315-.96.795-2.078 1.44-3.36l.96-1.92.48-1.44c.959-2.235 1.919-4.32 2.879-6.24s1.92-3.998 2.88-6.24c3.518-8.64 6.96-17.198 10.32-25.68 3.36-8.475 6.637-17.04 9.84-25.68 5.438-16.635 10.717-34.237 15.839-52.8l.48-3.36.48-1.92.48-1.44 1.44-7.2c.315-2.558.637-4.958.96-7.2.315-2.235.637-4.635.96-7.2l1.44-14.4v-3.84c0-1.275-.165-2.558-.48-3.84 0-1.598-.083-3.038-.24-4.32-.165-1.275-.405-2.715-.72-4.32-.645-3.195-1.763-6.24-3.36-9.12-.645-.96-1.283-1.837-1.92-2.64-.645-.795-1.282-1.68-1.92-2.64-1.605-1.275-3.525-2.715-5.76-4.32-2.242-.96-4.32-1.755-6.24-2.4-.645 0-1.2-.075-1.68-.24-.48-.158-1.042-.24-1.68-.24h-1.44l-1.44-.48c-3.84 0-7.365.48-10.56 1.44-1.605.323-3.203.72-4.8 1.2-1.605.48-3.202 1.042-4.8 1.68-2.564 1.283-5.279 2.88-8.16 4.8-2.565 1.605-4.882 3.285-6.96 5.04-2.085 1.762-4.245 3.6-6.48 5.52-1.92 1.605-3.682 3.36-5.28 5.28l-2.88 2.88c-.96.96-1.763 2.085-2.4 3.36-1.604 1.92-3.202 3.84-4.799 5.76-1.605 1.92-3.203 4.005-4.8 6.24-5.445 7.68-10.403 16.005-14.88 24.96-1.282 2.242-2.4 4.402-3.36 6.48-.96 2.085-1.92 4.245-2.88 6.48-.96 2.565-1.845 4.8-2.64 6.72-.802 1.92-1.68 4.163-2.64 6.72-.96 2.565-1.845 4.882-2.64 6.96-.803 2.085-1.68 4.245-2.64 6.48-.645 2.243-1.365 4.485-2.16 6.72-.802 2.242-1.522 4.485-2.16 6.72-1.605 4.485-3.045 8.88-4.32 13.2-1.282 4.32-2.722 8.723-4.32 13.2-.645 2.243-1.283 4.403-1.92 6.48-.645 2.085-1.283 4.245-1.92 6.48l-4.32 12.96c-5.122 17.603-9.922 35.122-14.399 52.56-4.485 17.445-8.962 35.123-13.44 53.04-4.485 17.603-8.64 35.123-12.479 52.561-3.707 16.843-7.264 33.906-10.671 51.188l-.364.411c-.323.645-1.125 1.846-2.4 3.6-1.283 1.763-2.64 3.525-4.08 5.28-1.44 1.763-2.805 3.442-4.08 5.04-1.283 1.605-2.085 2.723-2.4 3.36-1.604 2.565-3.442 5.04-5.52 7.44-2.085 2.399-4.245 4.882-6.48 7.439-8.002 8.963-17.28 17.445-27.84 25.439-10.245 7.365-20.962 13.846-32.159 19.44-11.205 5.603-22.883 10.163-35.04 13.681-12.165 3.524-24.322 5.924-36.479 7.199-6.405.645-12.645 1.043-18.72 1.2-6.083.165-12.322-.075-18.72-.72h-4.56s-2.962-.158-4.56-.48h-2.4l-2.4-.48c-.645 0-1.365-.074-2.16-.239-.803-.157-1.522-.24-2.16-.24-2.88-.638-5.76-1.2-8.64-1.68-2.88-.48-5.603-1.035-8.16-1.681-2.88-.959-5.603-1.92-8.16-2.879-2.564-.961-5.122-2.078-7.68-3.361-2.565-.959-4.965-2.076-7.2-3.359-2.243-1.275-4.485-2.715-6.72-4.32-8.64-6.396-15.682-13.598-21.12-21.6-5.76-7.995-10.56-16.957-14.4-26.88-1.92-4.8-3.6-9.758-5.04-14.88-1.44-5.115-2.805-10.396-4.08-15.84-2.242-10.561-3.682-21.601-4.32-33.121-.96-11.52-.96-23.197 0-35.039.315-5.76.72-11.596 1.2-17.521.48-5.917 1.2-11.76 2.16-17.52.96-6.075 1.92-12 2.88-17.76.96-5.76 2.235-11.677 3.84-17.76.638-2.88 1.357-5.76 2.16-8.64.795-2.88 1.68-5.76 2.64-8.64.638-3.195 1.44-6.24 2.4-9.12l2.88-8.64c3.84-11.198 8.16-22.395 12.96-33.6 4.799-11.198 10.395-22.08 16.799-32.64 3.195-5.438 6.397-10.635 9.6-15.6 3.195-4.958 6.555-9.84 10.08-14.64 7.035-9.915 14.715-19.515 23.04-28.8 4.155-4.478 8.4-8.797 12.719-12.96 4.32-4.155 8.88-8.317 13.68-12.48 4.478-3.518 9.435-7.035 14.879-10.56 2.558-1.597 5.198-3.195 7.92-4.8 2.715-1.598 5.52-3.195 8.4-4.8 10.875-5.115 22.56-8.955 35.04-11.52 3.195-.637 6.315-1.117 9.36-1.44 3.037-.315 6.157-.637 9.359-.96 6.075-.315 12.315-.315 18.72 0 6.397.645 12.479 1.845 18.239 3.6 5.76 1.763 11.355 4.245 16.8 7.44 2.557 1.605 4.957 3.203 7.199 4.8 2.235 1.605 4.478 3.525 6.72 5.76 3.518 3.525 6.877 7.68 10.08 12.48 3.195 4.485 5.438 9.12 6.72 13.92 1.275 4.163 2.235 8.805 2.88 13.92.638 4.485.638 8.963 0 13.44-.322 4.485-1.282 8.962-2.88 13.44-3.525 8.962-8.482 17.123-14.88 24.48-3.203 3.84-6.72 7.44-10.56 10.8-3.839 3.36-8.002 6.48-12.479 9.36-2.565 1.605-4.965 3.045-7.2 4.32-2.242 1.282-4.642 2.565-7.2 3.84-2.565 1.283-5.04 2.482-7.439 3.6-2.4 1.125-4.883 2.325-7.44 3.6l-15.84 5.76c-1.605.645-3.045 1.125-4.32 1.44-1.283.323-2.565.803-3.839 1.44l-4.32.96-4.32 1.44h-.48c-7.68 2.565-13.605 7.365-17.76 14.4-4.162 7.042-5.122 14.565-2.88 22.56 1.92 8.325 6.48 14.64 13.68 18.96 7.2 4.32 14.955 5.52 23.279 3.6l2.4-.96 2.88-.48c.96-.315 1.837-.555 2.64-.72.795-.158 1.68-.397 2.64-.72 1.598-.637 3.36-1.2 5.28-1.68 1.92-.48 3.675-1.035 5.28-1.68 3.518-1.598 6.959-3.038 10.319-4.32 3.36-1.275 6.795-2.715 10.32-4.32 14.077-6.397 27.037-14.235 38.879-23.52 6.075-4.8 11.917-10.08 17.52-15.84 5.595-5.76 10.635-11.835 15.12-18.24 4.478-6.075 8.474-13.275 12-21.6 3.517-7.035 6.075-15.038 7.68-24 .96-4.155 1.598-8.318 1.92-12.48.315-4.155.48-8.475.48-12.96-.645-9.278-2.242-17.76-4.8-25.44-1.605-3.84-3.36-7.597-5.28-11.28-1.92-3.675-4.163-7.275-6.72-10.8-5.123-7.035-10.725-12.96-16.8-17.76-3.203-2.558-6.405-4.8-9.6-6.72-3.203-1.92-6.562-3.675-10.08-5.28-6.72-3.195-13.763-5.76-21.12-7.68-3.525-.96-6.959-1.68-10.319-2.16s-6.803-1.035-10.32-1.68c-3.525-.637-7.043-1.035-10.56-1.2-3.525-.158-7.042-.398-10.56-.72-6.72-.315-13.44-.315-20.16 0-7.042 0-13.919.48-20.64 1.44-6.72.645-13.44 1.68-20.159 3.12-6.72 1.44-13.44 3.12-20.16 5.04-3.525.96-6.885 1.92-10.08 2.88-3.203.96-6.405 2.085-9.6 3.36-3.525 1.605-6.802 3.045-9.84 4.32-3.045 1.282-6.165 2.722-9.36 4.32-6.405 2.88-12.645 6.083-18.72 9.6-6.083 3.525-12 7.365-17.759 11.52-5.76 4.163-11.363 8.565-16.8 13.2-5.445 4.643-10.56 9.36-15.359 14.16-9.6 9.6-18.72 20.482-27.36 32.64-4.485 5.445-8.64 11.123-12.479 17.04-3.84 5.925-7.522 11.925-11.04 18-3.525 6.083-6.885 12.24-10.08 18.48-3.202 6.24-6.24 12.562-9.12 18.96-3.203 6.72-5.925 13.125-8.16 19.2-2.88 6.72-5.28 13.44-7.2 20.16-2.565 6.72-4.643 13.44-6.24 20.16-1.605 6.72-3.202 13.605-4.799 20.64-2.88 14.399-4.965 28.725-6.24 42.96-1.282 14.242-1.282 28.725 0 43.439.638 7.365 1.44 14.723 2.4 22.08.96 7.365 2.4 14.723 4.32 22.08 1.92 7.365 4.237 14.723 6.959 22.08 2.715 7.365 6 14.564 9.84 21.6 1.92 3.525 3.998 6.886 6.24 10.08 2.235 3.203 4.635 6.405 7.2 9.601 2.557 3.524 5.197 6.72 7.919 9.6 2.715 2.88 5.677 5.603 8.88 8.16 2.88 2.88 5.917 5.521 9.12 7.92 3.195 2.4 6.555 4.718 10.08 6.96 3.517 2.235 7.117 4.155 10.799 5.76 3.675 1.598 7.275 3.195 10.8 4.801 3.84 1.598 7.598 2.955 11.28 4.08 3.675 1.117 7.44 2.16 11.28 3.119 7.68 1.275 15.195 2.235 22.56 2.881 3.84.637 7.598.959 11.28.959 3.675 0 7.275-.164 10.8-.479 2.558 0 4.32-.165 5.28-.479h5.279999999999999c1.598-.322 3.36-.562 5.28-.721 1.92-.164 3.675-.404 5.28-.72 6.72-.646 13.515-1.604 20.399-2.88 6.877-1.283 13.515-2.723 19.92-4.32 6.72-1.605 13.357-3.442 19.919-5.52 6.555-2.086 13.035-4.402 19.44-6.961 26.235-9.914 49.754-23.354 70.559-40.319 11.198-9.277 20.955-18.72 29.28-28.319 2.097-2.098 4.086-4.304 6-6.584l-1.205 5.623c-.315 2.242-.637 4.402-.96 6.48-.315 2.085-.795 4.244-1.44 6.48l-2.4 13.439-1.919 13.439c-.638 2.565-1.035 4.883-1.2 6.961-.157 2.084-.555 4.402-1.2 6.959l-.96 6.721-.48 3.84c0 1.598-.157 2.88-.48 3.84-.637 7.357 1.125 14.078 5.28 20.16 4.163 6.075 9.922 9.915 17.28 11.52 7.995 1.921 15.435.721 22.32-3.6 6.877-4.32 11.28-10.484 13.2-18.48v-.959l4.8-18.721v-.96l4.32-10.08c1.598-3.517 3.194-6.96 4.799-10.319 1.598-3.36 3.195-6.795 4.8-10.32 3.195-7.035 6.555-13.838 10.08-20.4 3.517-6.555 7.2-13.035 11.04-19.439.96-1.598 1.92-3.195 2.88-4.801.959-1.598 1.919-3.194 2.879-4.799l2.88-4.801 2.88-4.8c1.598-2.88 3.675-6.075 6.24-9.601.96-1.598 1.92-3.119 2.88-4.56s2.078-2.955 3.36-4.56c8.64-12.48 17.76-24 27.36-34.561 1.275-1.598 2.475-3.037 3.6-4.32 1.117-1.274 2.317-2.557 3.6-3.84 1.275-1.274 2.558-2.475 3.84-3.6 1.275-1.117 2.557-2.317 3.84-3.6 2.879-2.559 5.759-4.801 8.64-6.721 2.88-1.92 5.76-3.675 8.64-5.279 2.88-1.92 5.835-3.518 8.88-4.801 3.037-1.274 5.835-2.399 8.399-3.359l.96-.48c0 .96-.323 2.4-.96 4.32-.645 3.202-1.365 6.48-2.16 9.84-.802 3.359-1.522 6.803-2.16 10.32-.96 3.525-1.92 7.042-2.88 10.56-.96 3.525-1.92 7.042-2.88 10.56-1.92 7.365-3.84 14.723-5.76 22.08-1.92 7.365-4.005 14.723-6.24 22.08l-2.88 11.521s-1.763 7.68-2.4 11.521c-.96 4.162-1.92 8.159-2.88 12-.96 3.84-1.762 7.844-2.4 12-.322 2.242-.645 4.402-.96 6.479-.322 2.085-.645 4.245-.959 6.479-.322 2.243-.562 4.485-.72 6.721-.165 2.242-.24 4.643-.24 7.199v7.44s.157 5.04.48 7.92c.638 3.841 1.274 7.042 1.919 9.601.96 3.84 2.4 7.515 4.32 11.039.638.961 1.275 1.92 1.92 2.881.637.959 1.44 2.077 2.4 3.359 1.598 1.92 3.36 3.676 5.28 5.28.96.638 1.995 1.357 3.12 2.16 1.118.795 2.317 1.515 3.6 2.16 1.275.637 2.4 1.117 3.36 1.439.96.315 2.078.638 3.36.96 3.84 1.275 7.837 1.92 12 1.92h1.44v-.479h3.84c.637 0 2.235-.322 4.8-.96 2.88-.646 5.595-1.44 8.16-2.4 2.558-.96 5.115-2.085 7.68-3.359 2.235-1.283 4.395-2.482 6.48-3.601 2.077-1.125 4.08-2.482 6-4.08 3.517-2.565 6.877-5.362 10.08-8.399 3.195-3.045 6.24-6 9.12-8.881 5.76-6.074 11.04-12.314 15.84-18.72 1.275-1.597 2.475-3.194 3.6-4.8 1.118-1.598 2.318-3.195 3.6-4.8 1.92-3.195 4.155-6.397 6.72-9.601 2.234-3.518 4.319-6.877 6.239-10.08 1.92-3.194 3.998-6.555 6.24-10.08 1.815-3.326 4.351-7.452 7.6-12.354-.707 6.038-1.163 12.076-1.366 18.114v14.88c.323 2.564.48 5.205.48 7.92 0 2.723.323 5.52.96 8.4.645 2.564 1.2 5.279 1.68 8.16.48 2.879 1.365 5.924 2.64 9.119.96 3.203 2.4 6.398 4.32 9.601 1.275 2.88 3.518 6.075 6.72 9.6 2.558 2.88 5.76 5.595 9.6 8.16 1.92 1.274 3.915 2.235 6 2.88 2.077.638 4.08 1.275 6 1.92 3.517 1.275 7.357 1.92 11.52 1.92 2.235 0 3.997-.165 5.28-.479h2.4l1.44-.48h1.44c4.478-.96 7.995-2.085 10.56-3.36 1.598-.645 3.038-1.364 4.32-2.159 1.275-.803 2.557-1.522 3.839-2.16 4.155-2.565 8.475-5.761 12.96-9.601 1.92-1.604 3.84-3.359 5.76-5.279s3.675-3.683 5.28-5.28c1.598-1.604 3.12-3.36 4.56-5.28s2.955-3.84 4.56-5.76c2.88-3.518 5.677-7.117 8.4-10.8 2.715-3.675 5.355-7.44 7.92-11.28 2.558-3.84 5.04-7.68 7.44-11.52s4.875-7.68 7.439-11.521c2.235-3.84 5.115-8.798 8.64-14.88 1.981-3.422 3.753-6.531 5.331-9.348.133 1.36.273 2.717.425 4.068.96 11.52 2.88 23.361 5.76 35.52.637 3.202 1.357 6.322 2.16 9.359.795 3.045 1.68 6.166 2.64 9.36.638 1.604 1.275 3.12 1.92 4.56.638 1.44 1.275 2.963 1.92 4.561.638 1.605 1.358 3.203 2.16 4.8.795 1.605 1.68 3.202 2.64 4.8s1.92 3.277 2.88 5.041c.96 1.754 2.078 3.435 3.36 5.039 1.275 1.598 2.715 3.195 4.32 4.801l4.8 4.8c1.92 1.597 3.915 3.037 6 4.319 2.078 1.275 4.395 2.4 6.96 3.36 5.115 1.92 10.237 2.88 15.359 2.88h6.239c.961-.322 1.92-.479 2.881-.479.959 0 1.92-.165 2.879-.48 4.154-.645 7.838-1.604 11.041-2.88 6.396-2.242 12.794-5.445 19.198-9.6 2.881-1.92 5.52-3.923 7.92-6 2.4-2.086 4.875-4.245 7.439-6.48 2.236-2.242 4.396-4.478 6.48-6.72 2.078-2.235 3.916-4.636 5.52-7.2 3.84-4.8 7.357-9.675 10.561-14.641 3.195-4.957 6.24-9.997 9.119-15.119 2.559-5.115 5.115-10.238 7.682-15.36.967-1.934 1.903-3.899 2.825-5.881 1.06 7.588 2.513 15.308 4.373 23.161.638 3.202 1.357 6.322 2.16 9.359.795 3.045 1.68 6.166 2.64 9.36.638 1.604 1.275 3.12 1.92 4.56.638 1.44 1.275 2.963 1.92 4.561.638 1.605 1.357 3.203 2.16 4.8.795 1.605 1.68 3.202 2.64 4.8s1.92 3.277 2.881 5.041c.96 1.754 2.077 3.435 3.359 5.039 1.275 1.598 2.715 3.195 4.32 4.801l4.8 4.8c1.92 1.597 3.915 3.037 6 4.319 2.077 1.275 4.396 2.4 6.96 3.36 5.115 1.92 10.237 2.88 15.359 2.88h6.2379999999999995c.961-.322 1.921-.479 2.881-.479s1.92-.165 2.88-.48c4.154-.645 7.837-1.604 11.04-2.88 6.397-2.242 12.795-5.445 19.199-9.6 2.881-1.92 5.521-3.923 7.921-6 2.399-2.086 4.875-4.245 7.439-6.48 2.235-2.242 4.396-4.478 6.479-6.72 2.077-2.235 3.915-4.636 5.52-7.2 3.84-4.8 7.357-9.675 10.561-14.641.391-.606.772-1.218 1.158-1.826l.28 1.107c.96 3.524 2.085 6.885 3.36 10.08 1.282 3.201 2.88 6.562 4.8 10.079 2.243 3.525 4.485 6.556 6.721 9.12 1.274 1.598 2.557 2.955 3.84 4.08 1.274 1.117 2.715 2.317 4.319 3.6 3.195 2.559 6.397 4.801 9.601 6.721 2.88 1.598 6.397 3.037 10.56 4.32 7.034 2.557 14.234 3.997 21.6 4.319 6.397.315 13.597 0 21.6-.96 3.518-.645 7.117-1.522 10.8-2.641 3.675-1.125 7.275-2.482 10.8-4.079 3.517-1.921 6.959-4.005 10.319-6.24 3.36-2.243 6.638-4.965 9.84-8.16 5.76-5.76 10.237-11.835 13.44-18.239l52.882-66.104c-.232 2.326-.429 4.677-.57 7.063-.315 5.445-.397 10.883-.24 16.32.165 5.445.885 10.883 2.16 16.32.96 5.76 2.399 11.52 4.319 17.279.961 2.881 2.078 5.761 3.36 8.641 1.275 2.88 2.715 5.603 4.32 8.16 1.598 2.564 3.359 5.205 5.28 7.92 1.92 2.715 3.997 5.355 6.239 7.92 4.478 5.115 9.436 9.6 14.88 13.439 2.881 1.92 5.76 3.676 8.64 5.28 2.88 1.598 5.917 3.038 9.12 4.32 5.76 2.88 11.835 4.8 18.239 5.76 5.438 1.275 11.521 1.92 18.24 1.92h8.641c2.88 0 5.594-.322 8.158-.96 2.88-.645 5.678-1.2 8.4-1.68 2.715-.48 5.354-1.043 7.92-1.681 2.558-.645 5.115-1.439 7.68-2.399 2.558-.96 5.115-1.92 7.681-2.88 8.955-3.525 18.074-8.16 27.359-13.921 8.64-4.799 16.8-10.079 24.479-15.84 4.155-2.879 8.077-5.76 11.76-8.64 3.675-2.88 7.275-5.917 10.8-9.12 7.357-6.074 14.235-12.397 20.64-18.96 6.397-6.555 12.637-13.2 18.72-19.92 2.88-3.518 5.76-7.034 8.64-10.56 2.88-3.518 5.761-7.035 8.641-10.561 1.597-1.92 3.84-4.56 6.72-7.92.591-.689 1.14-1.342 1.664-1.971.897 7.082 2.098 14.219 3.615 21.411.96 5.76 2.399 11.843 4.319 18.239.638 3.525 1.598 6.562 2.88 9.121.638 1.604 1.2 3.119 1.681 4.56.479 1.44 1.035 2.962 1.68 4.56 2.558 6.721 5.437 12.803 8.639 18.24 3.841 6.405 8.318 12.314 13.44 17.76 2.558 2.881 5.438 5.596 8.64 8.16 3.195 2.558 6.721 4.801 10.561 6.721 2.558 1.597 6.397 3.194 11.52 4.799 1.92.638 3.84 1.118 5.761 1.44 1.92.315 3.84.638 5.76.96 2.234.315 4.318.48 6.239.48h5.76c1.92-.323 3.84-.562 5.76-.721 1.92-.165 3.84-.562 5.76-1.199 7.681-1.283 14.715-4.006 21.12-8.16 3.195-1.92 6.075-3.923 8.641-6 2.557-2.085 5.114-4.245 7.68-6.48 2.558-2.564 4.875-4.965 6.959-7.199 2.077-2.235 4.08-4.636 6-7.201 1.92-2.557 3.758-5.114 5.52-7.68 1.755-2.557 3.436-5.115 5.04-7.68l8.641-15.84 7.199-15.84c.961-2.881 1.921-5.678 2.881-8.4.96-2.715 1.92-5.355 2.88-7.92.96-2.88 1.92-5.678 2.88-8.4.96-2.715 1.755-5.52 2.399-8.399.315-1.598.638-2.955.96-4.08.315-1.118.638-2.476.961-4.08.637-1.92.96-3.36.96-4.319l.479-1.921.48-2.399c.637-2.558.397-4.875-.721-6.961-1.125-2.077-2.805-3.6-5.04-4.56-2.564-.96-5.122-.878-7.68.24-2.565 1.125-4.32 2.962-5.28 5.521v.479l-.96 1.44-.479 1.92-1.44 3.84c-.645 1.282-1.2 2.482-1.68 3.6-.48 1.125-1.043 2.325-1.68 3.6l-7.2 14.4-3.601 7.2c-1.125 2.242-2.482 4.643-4.08 7.2-1.282 2.242-2.564 4.402-3.84 6.479-1.282 2.085-2.723 4.245-4.318 6.48-1.605 2.242-3.12 4.402-4.561 6.479-1.439 2.086-2.962 4.08-4.56 6-1.605 1.92-3.285 3.84-5.04 5.76-1.763 1.92-3.442 3.684-5.04 5.28-1.605 1.605-3.285 3.202-5.04 4.8-1.763 1.605-3.601 3.045-5.521 4.32-1.604 1.605-3.359 2.88-5.279 3.84-1.92.961-3.683 1.763-5.28 2.4-3.84 1.605-7.365 2.564-10.561 2.88h-4.8c-.645-.315-1.439-.479-2.399-.479s-1.763-.158-2.4-.48c-3.202-.96-5.759-2.234-7.679-3.84-1.92-1.275-4.005-3.518-6.24-6.721-3.84-6.074-7.043-13.439-9.6-22.08-1.92-8.64-3.36-18.074-4.32-28.319-.96-9.601-1.44-19.681-1.44-30.24v-15.36c0-5.114.158-10.395.48-15.84 0-1.274.075-2.475.24-3.6.157-1.117.239-2.317.239-3.6 0-.315.158-.48.48-.48 0-.638.314-1.275.96-1.92l.96-2.4 1.92-3.84 3.84-7.68c1.598-2.558 3.038-5.197 4.32-7.92 1.275-2.715 2.558-5.355 3.84-7.92 2.558-5.115 5.04-10.238 7.44-15.36 2.398-5.114 4.874-10.396 7.438-15.84 5.115-10.237 9.915-20.558 14.4-30.96 4.478-10.395 8.955-20.88 13.439-31.44 2.235-5.115 4.396-10.238 6.48-15.36 2.077-5.115 4.08-10.395 6-15.84.638-1.275.96-2.078.96-2.4l214.556-6.72c1.92-.315 3.601-1.117 5.04-2.4 1.44-1.275 2.16-3.038 2.16-5.28.008-2.238-.712-4.082-2.153-5.522zm-573.83 176.399c1.275-3.84 2.64-7.68 4.08-11.52s3.12-7.516 5.04-11.04c3.518-6.72 8.16-13.44 13.92-20.16 2.558-2.88 5.28-5.595 8.16-8.159 2.558-2.559 5.76-4.958 9.6-7.201 6.721-4.154 13.754-6.72 21.119-7.68 3.518-.637 7.035-.637 10.561 0 1.597.322 3.277.562 5.04.721 1.755.164 3.435.562 5.04 1.199 3.194.961 5.917 2.242 8.159 3.84 1.275.646 2.235 1.365 2.881 2.16.637.803 1.274 1.523 1.92 2.16.96 1.605 1.439 2.88 1.439 3.84.315.646.48 1.365.48 2.16 0 .803.157 1.68.479 2.641 0 .645.075 1.439.24 2.399.157.96.24 2.085.24 3.36 0 1.282.075 2.482.239 3.6.158 1.125.075 2.482-.239 4.08v4.32c0 1.282-.165 2.723-.48 4.32 0 1.604-.165 3.119-.479 4.56-.323 1.44-.646 2.962-.96 4.56-.646 3.203-1.44 6.322-2.4 9.36-.96 3.045-2.242 5.843-3.84 8.399-.96 3.203-2.4 5.926-4.32 8.16-.645.961-1.365 2.003-2.16 3.12-.802 1.125-1.522 2.003-2.159 2.64-.646.646-1.043 1.125-1.2 1.44-.165.323-.562.646-1.2.96l-.48.48-.479.479c-.322.323-.646.562-.96.72-.322.166-.646.405-.96.721-1.605.96-3.12 1.92-4.561 2.88-1.439.96-2.962 1.92-4.56 2.88-3.202 1.605-6.322 3.045-9.36 4.32-3.045 1.282-6.165 2.4-9.358 3.359-6.083 1.92-12.803 2.565-20.16 1.92-.96-.314-1.845-.479-2.641-.479-.802 0-1.68-.157-2.64-.479-.645 0-1.125-.076-1.439-.24-.323-.158-.803-.24-1.44-.24-.646-.314-1.043-.48-1.2-.48-.165 0-.562-.157-1.2-.479-4.162-.96-7.845-2.4-11.04-4.32-3.524-1.92-7.199-4.155-11.04-6.72l-.479-.48c.957-8.318 2.555-15.675 4.797-22.081zm-318.226-119.999c4.155-20.475 8.955-41.115 14.399-61.92 2.881-10.238 5.761-20.4 8.641-30.48s6.075-20.078 9.6-30l5.28-14.4c.96-2.557 1.92-4.957 2.88-7.2.96-2.235 1.755-4.635 2.4-7.2.96-2.557 1.92-4.875 2.88-6.96.96-2.078 1.92-4.395 2.879-6.96l5.76-12.96c1.275-1.92 2.476-3.84 3.601-5.76 1.117-1.92 2.159-3.675 3.119-5.28l1.92-1.92 1.921-1.92c.96-1.598 2.077-2.558 3.359-2.88.638-.638 1.118-.96 1.44-.96l.479-.48h.48l.479-.48h.48v-.48c0-.315.075-.48.24-.48.157 0 .239.165.239.48.638 0 .96.323.96.96.638.645 1.275 2.243 1.92 4.8.638.96.961 2.002.961 3.12 0 1.125.157 2.325.479 3.6v7.2c0 2.565-.165 5.123-.479 7.68-.323 2.565-.803 5.123-1.44 7.68-.322 2.565-.803 5.123-1.44 7.68-.645 2.565-1.282 5.123-1.92 7.68-.322 1.605-.645 2.962-.96 4.08-.322 1.125-.802 2.325-1.439 3.6-.323 1.605-.646 2.962-.96 4.08-.323 1.125-.803 2.325-1.44 3.6-7.365 20.805-15.524 40.965-24.479 60.48-8.963 19.522-19.043 38.88-30.24 58.08-2.242 3.525-4.485 7.2-6.72 11.04-2.243 3.84-4.643 7.522-7.2 11.04.639-3.195 1.275-5.918 1.921-8.16zm-161.277 0c4.154-20.475 8.955-41.115 14.398-61.92 2.881-10.238 5.761-20.4 8.64-30.48 2.881-10.08 6.076-20.078 9.6-30l5.281-14.4c.959-2.557 1.92-4.957 2.879-7.2.961-2.235 1.756-4.635 2.4-7.2.961-2.557 1.92-4.875 2.881-6.96.959-2.078 1.92-4.395 2.879-6.96l5.76-12.96c1.275-1.92 2.477-3.84 3.602-5.76 1.117-1.92 2.158-3.675 3.119-5.28l1.92-1.92 1.92-1.92c.961-1.598 2.078-2.558 3.359-2.88.639-.638 1.119-.96 1.441-.96l.479-.48h.48l.48-.48h.48v-.48c0-.315.074-.48.24-.48.156 0 .238.165.238.48.639 0 .961.323.961.96.637.645 1.275 2.243 1.92 4.8.637.96.961 2.002.961 3.12 0 1.125.156 2.325.479 3.6v7.2c0 2.565-.164 5.123-.479 7.68-.324 2.565-.803 5.123-1.441 7.68-.322 2.565-.803 5.123-1.439 7.68-.645 2.565-1.283 5.123-1.92 7.68-.322 1.605-.645 2.962-.961 4.08-.322 1.125-.801 2.325-1.439 3.6-.322 1.605-.645 2.962-.959 4.08-.324 1.125-.803 2.325-1.441 3.6-7.365 20.805-15.523 40.965-24.479 60.48-8.963 19.522-19.043 38.88-30.239 58.08-2.242 3.525-4.486 7.2-6.721 11.04-2.242 3.84-4.643 7.522-7.199 11.04.637-3.195 1.274-5.918 1.92-8.16zm-421.183-26.16c.795-3.36 1.515-6.795 2.16-10.32l3.36-12.96 2.879-12.96c.96-4.478 1.92-8.798 2.88-12.96.96-4.155 2.077-8.475 3.36-12.96.638-1.92 1.118-3.915 1.44-6 .315-2.078.795-4.238 1.44-6.48.638-1.92 1.275-3.915 1.92-6 .638-2.077 1.275-4.08 1.92-6l.48-2.88 1.44-2.88 1.92-6.24 4.32-12c1.598-4.155 2.955-8.16 4.08-12 1.118-3.84 2.475-7.68 4.08-11.52 1.598-3.518 3.194-7.118 4.799-10.8 1.598-3.675 3.195-7.118 4.8-10.32.96-1.598 1.92-3.12 2.88-4.56s1.92-2.955 2.88-4.56c.96-1.275 1.92-2.4 2.88-3.36l2.4-2.4 2.88-1.44h.48v-1.44h.48c.315.323 1.118 1.283 2.4 2.88.315.645.638 1.365.96 2.16.315.803.48 1.68.48 2.64.315.645.555 1.522.72 2.64.157 1.125.397 2.16.72 3.12.315 1.92.48 3.923.48 6v6c0 4.485-.48 8.805-1.44 12.96-.322.96-.48 2.003-.48 3.12 0 1.125-.165 2.16-.48 3.12l-.48 1.44-.48 1.44-.96 3.36c-2.243 8.325-4.8 16.642-7.68 24.96-2.88 8.325-6.083 16.642-9.6 24.96-7.042 15.682-15.045 31.365-24 47.04l-7.2 11.52-.48 1.44-.96.96c-.323.645-.645 1.125-.96 1.44-.323.322-.645.802-.96 1.44-.645.96-1.92 2.723-3.84 5.28-1.282 1.605-2.564 3.285-3.839 5.04-1.282 1.763-2.565 3.6-3.84 5.52-.645.645-1.042 1.125-1.2 1.44-.165.323-.562.803-1.2 1.44.638-3.518 1.359-6.961 2.161-10.32zm752.857 245.999c-.323 2.243-.646 4.32-.96 6.24-.323 1.92-.803 3.683-1.44 5.28-2.242 7.042-6.24 12.646-12 16.8-1.604.961-3.285 1.846-5.04 2.641-1.763.803-3.765 1.521-6 2.16-4.162 1.604-8.482 2.399-12.96 2.399-5.122.646-9.442.479-12.96-.479-1.92-.638-3.765-1.2-5.52-1.681-1.762-.479-3.442-1.2-5.039-2.159-1.605-1.275-3.203-2.559-4.801-3.841-1.604-1.274-3.045-2.715-4.319-4.319-1.283-1.598-2.482-3.36-3.601-5.28-1.125-1.92-2.002-3.997-2.64-6.24-.96-2.235-1.68-4.56-2.16-6.96-.479-2.4-1.042-4.875-1.68-7.439-.322-2.559-.562-5.041-.72-7.44-.165-2.399-.083-4.875.239-7.44 0-2.801.158-5.656.445-8.556l.036-.084 5.76-15.84c.638-1.598 1.117-2.955 1.439-4.08.315-1.118.795-2.476 1.44-4.08.638-1.92 1.117-3.194 1.439-3.84l.48-2.4.48-1.92c.685-2.331.747-4.395.197-6.196l7.002-15.403c2.557-5.438 5.114-10.636 7.679-15.601 2.558-4.957 5.115-10.154 7.68-15.6l12.96-25.92v4.8c.315 3.524.556 7.125.721 10.8.157 3.683.555 7.283 1.199 10.801.638 3.524 1.357 7.042 2.16 10.56.795 3.524 1.681 7.042 2.641 10.56 1.274 3.525 2.475 6.885 3.6 10.08 1.117 3.203 2.475 6.405 4.08 9.6.638 1.605 1.439 3.203 2.399 4.801l.961 2.4.479.959.48.48v.48l.96 1.92.96 1.92c.637 1.282 1.117 2.4 1.439 3.359 2.235 4.163 4.155 8.805 5.76 13.92 1.921 4.163 3.36 8.641 4.32 13.44.638 2.565 1.117 4.882 1.44 6.96.314 2.085.637 4.402.96 6.96.643 4.484.643 8.638.005 12.478zm470.144-245.039c-2.085 3.36-4.08 6.803-6 10.32-3.203 5.445-6.405 10.725-9.601 15.84-3.201 5.123-6.562 10.245-10.078 15.36.314-2.235.637-4.32.96-6.24.314-1.92.795-3.998 1.439-6.24 1.598-6.397 3.12-12.877 4.561-19.44 1.439-6.555 2.954-13.035 4.559-19.44l20.16-.48c-1.92 3.525-3.923 6.96-6 10.32zm24.24-47.76c-.646 1.282-1.125 2.4-1.44 3.36-.322.96-.803 2.085-1.44 3.36l-27.359-.48c2.558-8.955 5.197-17.835 7.92-26.64 2.715-8.798 5.678-17.355 8.88-25.68 1.92-4.8 3.758-9.6 5.521-14.4 1.755-4.8 3.6-9.6 5.52-14.4l2.88-7.2c.96-2.235 2.077-4.478 3.36-6.72 2.234-5.115 4.319-9.6 6.24-13.44 1.274-2.557 2.399-4.478 3.359-5.76.638-.96 1.2-1.92 1.68-2.88s1.035-1.92 1.681-2.88c2.234-3.195 4.8-5.917 7.679-8.16.638-.638 1.598-1.275 2.88-1.92h.48v-.48h.959l.479-.48v-.48h.96c.96.96 1.598 2.243 1.92 3.84.638 2.565 1.118 4.643 1.44 6.24 0 1.283.075 2.482.24 3.6.157 1.125.24 2.325.24 3.6 0 5.445-.48 10.56-1.44 15.36-.646 2.565-1.2 5.205-1.68 7.92-.48 2.723-1.043 5.363-1.681 7.92-.322 1.283-.645 2.565-.96 3.84-.322 1.282-.645 2.565-.96 3.84-.645 1.283-1.125 2.565-1.439 3.84-.323 1.283-.803 2.565-1.44 3.84-7.041 21.119-15.202 41.602-24.479 61.44zM843.286 211.906c11.52 0 21.435-4.08 29.76-12.24 8.317-8.16 12.48-18.157 12.48-30 0-11.835-4.163-21.84-12.48-30-8.325-8.16-18.24-12.24-29.76-12.24-11.842 0-21.839 4.08-30 12.24-8.16 8.16-12.24 18.165-12.24 30 0 11.843 4.08 21.84 12.24 30s18.157 12.24 30 12.24z"/><path fill="none" d="M-90 47.268h2048v678.068h-2048z"/></g></svg>