<svg xmlns="http://www.w3.org/2000/svg" width="2048" height="620" viewBox="0 0 2048 620"><g><path fill="#F8963A" d="M1988.791 421.355c-1.806-7.215-5.857-13.516-11.717-18.222l-1.799-1.445-2.034-1.092c-5.286-2.836-10.774-4.275-16.313-4.275-9.929 0-19.143 4.713-25.387 12.955l-12.352 15.528c-.326-1.212-.669-2.417-1.027-3.612l-3.964-13.219-1.128-1.676-1.697-5.66-.78-3.116-.181-.358-.331-1.146c-.316-1.098-.553-2.195-.702-3.262l-.016-.108c-.317-2.2-.635-4.407-.944-6.613l-.016-.106c-.231-1.607-.408-3.256-.53-4.983-.031-.422-.014-.855.054-1.325l.254-1.768v-1.786c0-1.629.055-3.146.169-4.592.114-1.508.295-3.128.537-4.813l.17-1.507c.093-1.128.429-3.104 1.504-6.11l.49-1.371.328-1.418c.377-1.634.898-3.236 1.555-4.786l4.914-8.603c8.333-14.586 10.517-30.774 6.311-46.834-4.21-16.018-13.924-28.944-28.097-37.391-10.008-6.053-20.679-9.122-31.719-9.122-5.164 0-10.406.688-15.594 2.048-1.998.525-3.949 1.138-5.848 1.836v-3.877l-2.411 4.821c-11.294 4.7-20.652 12.55-27.478 23.09l-1.74 1.738-4.932 9.876v.787c-.657 1.347-1.215 2.727-1.672 4.134l-.314.474-1.147 3.442c-.892 1.451-1.693 3.012-2.406 4.684-2.357 4.989-4.723 9.788-7.031 14.261-2.622 5.077-5.328 10.249-8.041 15.374l-.261.506c-2.412 4.816-4.934 9.629-7.487 14.292-2.767 5.046-5.53 10.021-8.215 14.79l-17.25 30.188-8.27 14.701-1.128 1.126-2.391 4.785c-.58 1.185-1.144 2.449-1.674 3.757l-.175.418c-.274.553-.59 1.112-.936 1.662l-.088.14c-1.537 2.479-2.914 5.213-4.091 8.123l-.057.143c-.7 1.762-1.316 3.343-1.856 4.778-.415 1.106-.894 2.351-1.45 3.729l-.055.138c-.506 1.273-.962 2.545-1.365 3.808-.718 1.247-1.426 2.45-2.118 3.603-1.589 2.65-3.367 5.385-5.284 8.127l-.501.717-.45.749c-6.799 11.334-14.848 22.581-23.931 33.441-1.87 1.907-3.327 3.536-4.534 5.078-.756.828-1.502 1.701-2.229 2.606l-.106.138-4.841 4.841v-.603c0-1.987.179-3.989.532-5.953.466-2.415.821-5.022 1.063-7.846.097-1.169.224-1.95.33-2.478.371-1.882.737-3.896 1.103-6.072.205-1.243.421-2.453.644-3.608.855-3.122 1.711-6.183 2.566-9.178.95-3.328 1.839-6.505 2.707-9.68 4.493-12.504 9.702-23.868 15.489-33.79l.266-.466c1.145-2.063 2.439-4.122 3.832-6.096 1.603-2.267 3.22-4.497 4.815-6.642 3.05-3.47 6.219-6.63 9.431-9.407 7.872-6.327 13.701-14.475 17.338-24.245 3.732-10.054 4.482-20.601 2.231-31.347l-.064-.297c-3.329-14.983-11.857-27.32-24.675-35.682-9.364-6.103-19.512-9.198-30.157-9.198-4.121 0-8.313.479-12.464 1.424l-11.937 2.595-1.014.312c-4.388 1.352-8.624 2.735-12.62 4.122-3.494 1.217-6.796 2.343-10.065 3.433-3.774.956-7.64 2.009-11.54 3.145-2.842.833-5.73 1.495-8.585 1.969l-1.054.175-1.036.265c-6.575 1.679-13.063 2.937-19.418 3.769-.07-.791-.158-1.574-.265-2.347-.006-.116-.014-.347-.014-.719v-3.111l-.763-3.017c-.065-.258-.113-.512-.143-.755l-.021-.166c-.471-3.64-1.502-7.21-3.068-10.631-.447-1.122-.844-2.154-1.211-3.137-1.311-3.477-3.174-6.842-5.584-10.062-1.263-1.677-2.552-3.288-3.882-4.846-2.123-2.473-4.575-4.762-7.289-6.806l-1.062-.799-1.14-.682c-1.74-1.041-3.212-1.902-4.423-2.602l-.171-.098c-2.093-1.186-4.396-2.281-7.044-3.35l-.126-.05c-3.521-1.399-7-2.328-10.343-2.761l-.167-.021c-.243-.03-.496-.078-.752-.143l-1.321-.296c-3.25-.637-6.235-.947-9.13-.947h-14.766l-2.698.604c-2.744.615-5.488 1.222-8.233 1.83l-.407.09c-5.204 1.166-10.353 3.148-15.302 5.893l-.75.434c-2.309 1.387-4.47 2.832-6.486 4.34-2.086 1.572-4.168 3.377-6.191 5.37-1.357 1.052-2.672 2.208-4.005 3.524l-1.84 1.816-1.43 2.153c-.276.416-.473.691-.59.849l-1.796 1.793-1.588 2.648c-2.411 4.023-4.413 8.203-5.999 12.515-4.188-7.021-9.197-13.175-14.951-18.364-7.179-7.031-15.821-12.784-25.702-17.107-5.237-2.358-10.536-4.061-15.807-5.072-3.668-.696-7.319-1.244-10.87-1.634-3.744-.671-7.496-1.011-11.171-1.011-1.035 0-2.081.027-3.168.084-4.399.238-8.75.828-12.991 1.768-2.966.664-5.854 1.321-8.7 1.989-2.818.667-5.552 1.328-8.2 1.988l-1.544.385-1.482.577c-6.36 2.477-11.69 4.715-16.295 6.842l-.096.045c-5.693 2.66-11.211 5.661-16.427 8.939-4.966 3.129-9.889 6.565-14.631 10.213l-.794.637c-1.519 1.269-3.107 2.526-4.727 3.741-2.216 1.662-4.487 3.459-6.75 5.343l-.881.733-.81.81c-1.394 1.394-2.895 2.826-4.509 4.301-2.439 2.24-4.725 4.597-6.806 7.019-3.907 3.963-7.553 8.096-10.854 12.311-2.998 3.832-6.009 7.764-8.949 11.684-3.242 4.322-6.343 8.792-9.216 13.281-2.908 4.543-5.658 9.375-8.18 14.371-9.598 16.827-17.247 34.771-22.763 53.398l-1.049 1.905c-.832 1.652-1.613 3.327-2.349 5.039-.164.385-.361.82-.591 1.3-1.712 2.8-3.233 5.525-4.517 8.095-.551 1.097-1.247 2.237-2.071 3.39l-.737 1.03-.629 1.101c-2.364 4.134-4.882 8.28-7.495 12.343-2.461 3.834-5.119 7.611-7.901 11.229l-.527.711c-2.794 3.914-5.645 7.62-8.455 10.998-2.714 3.255-5.592 6.408-8.563 9.379-.763.763-1.613 1.494-2.594 2.229-2.146 1.61-4.346 3.348-6.539 5.167l-.438.342c-.186-2.231-.432-4.602-.74-7.11-.259-2.058-.453-4.061-.582-6.031-.122-1.772-.182-3.646-.182-5.726v-14.88c0-5.358.074-10.189.228-14.807.142-4.465.358-9.228.645-14.17.325-2.76.579-5.554.76-8.369.124-2.009.316-4.061.58-6.155.443-3.595.668-7.289.668-10.979 0-1.45.071-2.851.211-4.173.287-1.614.49-3.17.612-4.688l3.646-6.483.583-1.101c1.532-3.073 2.99-6.278 4.346-9.56.584-1.419 1.309-2.822 2.152-4.171l.636-1.016.536-1.071c2.672-5.348 5.269-10.707 7.708-15.916 2.406-5.126 4.815-10.101 7.162-14.786l.283-.584c9.711-20.714 19.06-41.872 27.787-62.887 8.735-20.701 17.103-41.866 24.869-62.908l5.754-15.823 5.728-15.274.158-.436c1.848-5.234 3.728-10.627 5.595-16.051 1.788-5.213 3.53-10.675 5.182-16.243l2.279-6.458c1.242-2.834 2.118-5.771 2.615-8.766l.437-1.085.419-1.682c.437-1.753 1.014-3.652 1.71-5.626 1.27-3.59 2.354-7.381 3.239-11.33.729-3.291 1.365-6.477 1.888-9.446.474-2.676.988-5.399 1.529-8.099.81-3.703 1.427-7.535 1.841-11.445.444-4.295.485-8.861.121-13.586-.12-6.038-1.173-11.958-3.135-17.625-1.349-4.377-3.306-8.514-5.824-12.308l-.081-.121c-.744-1.107-1.574-2.303-2.491-3.601l-.115-.161c-1.601-2.228-3.372-4.316-5.264-6.208l-1.265-1.264-1.432-1.072c-4.19-3.137-8.218-5.517-12.312-7.276l-.621-.257c-4.009-1.596-7.636-2.652-11.084-3.212-2.337-.634-4.781-.961-7.283-.961h-8.4c-2.744 0-5.573.315-8.426.938-5.912 1.012-11.53 2.835-16.741 5.431-2.874 1.096-5.587 2.407-8.062 3.895-1.621.969-3.234 1.939-4.806 2.882-2.358 1.411-4.555 2.88-6.464 4.318-1.492 1.117-2.977 2.351-4.435 3.684-2.262 1.564-4.333 3.284-6.185 5.135l-3.602 3.601c-10.501 10.502-19.388 21.602-26.42 32.997-6.934 10.441-13.251 21.845-18.784 33.908-1.644 3.328-3.111 6.811-4.373 10.378-.603 1.709-1.328 3.417-2.145 5.054-1.436 2.873-2.736 5.902-3.878 9.035.496-1.595.884-3.22 1.16-4.875l.44-1.093.421-1.688c.436-1.752 1.014-3.654 1.707-5.619 1.271-3.595 2.358-7.391 3.238-11.327.73-3.289 1.368-6.48 1.891-9.456.474-2.673.987-5.393 1.527-8.089.811-3.702 1.429-7.536 1.844-11.455.444-4.295.485-8.861.121-13.587-.121-6.036-1.174-11.956-3.135-17.625-1.353-4.384-3.312-8.524-5.831-12.317l-.066-.099c-.746-1.112-1.579-2.311-2.5-3.614l-.113-.158c-1.597-2.224-3.365-4.311-5.257-6.204l-1.27-1.271-1.438-1.076c-4.191-3.136-8.218-5.515-12.311-7.274l-.623-.258c-4.008-1.595-7.635-2.651-11.081-3.21-2.337-.634-4.782-.962-7.284-.962h-8.4c-2.745 0-5.574.315-8.427.938-5.913 1.012-11.531 2.835-16.742 5.432-2.87 1.094-5.582 2.405-8.06 3.894-1.621.969-3.234 1.939-4.811 2.886-2.363 1.414-4.56 2.884-6.455 4.313-1.496 1.119-2.982 2.354-4.44 3.688-2.26 1.563-4.331 3.281-6.182 5.132l-3.603 3.601c-10.502 10.504-19.39 21.604-26.419 32.997-6.933 10.438-13.251 21.845-18.789 33.916-1.644 3.33-3.11 6.81-4.37 10.37-.603 1.709-1.328 3.418-2.141 5.05l-.368.772c-2.901-4.823-6.453-9.327-10.648-13.443-12.939-12.682-29.281-19.385-47.259-19.385-18.392 0-34.878 6.764-47.678 19.562-12.797 12.798-19.562 29.285-19.562 47.677 0 18.394 6.765 34.88 19.562 47.678 12.798 12.798 29.285 19.562 47.677 19.562 9.233 0 18.03-1.781 26.162-5.22-1.956 7.728-3.788 15.441-5.468 23.113-4.922 22.482-9.07 45.46-12.328 68.297l-.073.553c-.955 7.959-1.91 15.756-2.865 23.396-.939 7.519-1.739 15.238-2.378 22.972-1.107 5.495-1.505 10.838-1.187 15.928-.018.515-.052 1.036-.105 1.578-.188 1.859-.304 3.765-.345 5.685-.33 3.11-.497 6.379-.497 9.738 0 1.916-.112 3.909-.332 5.923l-.148 1.355v8.621c-1.464 1.758-2.798 3.58-3.986 5.446-.104.163-.308.438-.687.816l-1.385 1.385-1.153 1.585c-2.384 3.275-5.64 7.514-9.69 12.611-4.392 5.536-7.837 10.017-10.511 13.669-2.333 2.832-4.688 5.505-7.025 7.97-2.927 3.095-5.894 6.307-8.822 9.552-3.446 3.624-6.859 7.105-10.206 10.411.515-2.234 1.139-4.454 1.863-6.623l.378-1.131.269-1.162c.945-4.089 1.889-8.103 2.831-12.031.754-3.143 1.63-6.233 2.604-9.194 1.767-4.646 3.312-9.315 4.604-13.912.844-3.017 1.876-5.994 3.07-8.851l.268-.666c1.758-4.571 3.371-9.143 4.805-13.619 1.052-3.302 2.252-6.569 3.566-9.713l.269-.67c1.697-4.412 3.295-8.704 4.746-12.74 1.328-3.686 2.709-7.248 4.105-10.59l.27-.673c1.411-3.671 2.9-7.217 4.443-10.578 1.962-4.294 3.855-8.801 5.627-13.396l.402-1.122c.435-1.312.939-2.656 1.53-4.07.248-.598.516-1.213.802-1.844l9.019-20.692c4.667-13.912 3.892-28.237-2.302-41.666-6.469-14.012-17.525-24.534-31.991-30.436-14.794-6.022-30.467-5.864-45.062.463-14.166 6.149-24.815 16.906-30.848 31.14-1.117 2.357-1.953 4.663-2.527 6.973l-2.802 7.285-13.344 39.948-.32 1.034c-1.197 4.188-2.443 8.393-3.695 12.472-1.362 4.422-2.706 8.956-3.986 13.45-1.352 4.729-2.618 9.374-3.755 13.771-1.113 4.272-2.188 8.793-3.197 13.449-1.343 4.773-2.543 9.701-3.572 14.667-.526 2.546-1.053 5.066-1.58 7.562l-.766.985c-1.001 1.249-1.932 2.366-2.753 3.304-.787.896-1.786 1.951-2.97 3.135l-.991 1.051c-2.822 3.168-6.3 7.321-10.628 12.69-2.29 2.838-4.061 4.926-5.415 6.455 2.387-5.424 4.789-10.915 7.167-16.385 1.759-3.883 3.437-7.861 4.983-11.814 1.3-3.32 2.658-6.537 4.035-9.562l.329-.755c1.816-4.366 3.482-8.808 4.965-13.247 1.344-4.048 2.664-8.171 3.925-12.258.653-1.973 1.306-4.016 2.007-6.282.68-2.214 1.359-4.515 2.061-6.956.942-3.3 1.664-6.67 2.155-10.091.19-1.351.503-2.896.93-4.595l.377-1.501.189-1.536c.376-3.052.666-6.236.865-9.528.188-3.226.282-6.701.282-10.328v-5.041c0-2.994-.258-6.127-.769-9.314-.852-5.799-2.29-11.483-4.28-16.918-.724-2.448-1.678-4.869-2.846-7.217l-.076-.152c-.464-.917-.924-1.839-1.394-2.783-1.875-4.503-4.62-9.013-8.354-13.731-2.87-3.774-6.375-7.512-10.703-11.413l-.312-.276c-3.936-3.43-8.501-6.572-13.568-9.337l-1.335-.729-1.415-.562c-1.561-.62-3.114-1.24-4.667-1.867l-.136-.054c-2.283-.906-4.607-1.653-6.935-2.229-2.936-1.003-5.888-1.679-8.803-2.013l-.131-.015c-.69-.076-1.476-.201-2.334-.375l-.126-.025c-3.295-.647-7.113-.948-12.014-.948h-7.343l-1.521.761c-3.885.414-7.564 1.003-10.999 1.764-2.859.64-5.718 1.273-8.576 1.905l-1.271.281-1.235.412c-2.455.819-4.86 1.713-7.208 2.681l.086-.259c.642-1.459 1.269-2.802 1.87-4.004 1.18-2.36 2.358-4.91 3.5-7.58l.173-.413c3.722-9.143 7.127-17.616 10.406-25.894 3.344-8.435 6.722-17.251 10.041-26.205l.321-.921c5.529-16.914 10.971-35.055 16.176-53.917l.423-1.535.507-3.548.619-1.857 1.929-9.644.115-.929c.281-2.278.581-4.53.903-6.767.331-2.349.669-4.871 1.009-7.566l1.636-16.277v-5.086c0-2.167-.179-4.351-.533-6.526-.065-1.622-.19-3.189-.374-4.684l-.02-.153c-.236-1.825-.557-3.763-.98-5.927l-.027-.137c-1.153-5.712-3.173-11.195-6.003-16.298l-.517-.932-.595-.885c-1.013-1.507-2.055-2.937-3.097-4.249l-.161-.2c-.007-.008-.172-.213-.509-.721l-2.184-3.288-3.091-2.455c-1.941-1.542-4.141-3.194-6.726-5.051l-2.226-1.598-2.519-1.079c-2.799-1.198-5.53-2.247-8.117-3.116l-3.875-1.302h-1.972c-.797-.143-1.603-.253-2.417-.333l-1.882-.627h-4.058c-5.82 0-11.388.725-16.571 2.156-2.013.435-4.017.95-5.953 1.532-2.269.679-4.591 1.49-6.9 2.411l-.978.39-.942.471c-3.376 1.688-6.92 3.759-10.541 6.157-3.429 2.164-6.633 4.499-9.533 6.948-2.098 1.773-4.271 3.622-6.518 5.552-2.698 2.268-5.213 4.744-7.491 7.373l-2.177 2.177c-2.01 2.012-3.785 4.249-5.301 6.68l-3.037 3.646-.361.434c-1.96 2.346-3.965 4.949-6.011 7.812-6.015 8.483-11.579 17.777-16.542 27.633-1.48 2.625-2.825 5.241-4.012 7.81-1.041 2.259-2.098 4.638-3.143 7.071l-.443 1.103c-.786 2.1-1.569 4.094-2.293 5.845-.684 1.637-1.411 3.461-2.21 5.546-1.021-5.514-2.37-10.796-4.038-15.807l-.294-.883-.359-.858c-1.884-4.507-3.962-8.947-6.189-13.219-2.468-4.722-5.375-9.398-8.667-13.936-6.422-8.82-13.635-16.424-21.437-22.602-4.043-3.228-8.18-6.117-12.317-8.604-3.897-2.336-8.061-4.523-12.377-6.5-8.037-3.807-16.53-6.894-25.248-9.177-4.46-1.209-8.906-2.134-13.215-2.75-3.152-.45-6.296-.962-9.41-1.533-4.574-.826-9.229-1.355-13.889-1.573-3.111-.139-6.272-.354-9.395-.641l-1.112-.077c-7.271-.341-14.64-.35-21.92-.026-7.787.026-15.521.567-23.009 1.609-7.496.742-15.042 1.92-22.436 3.505-7.181 1.538-14.462 3.357-21.646 5.406-3.667 1-7.216 2.015-10.537 3.012-3.85 1.154-7.781 2.529-11.686 4.087l-1.095.467c-3.314 1.509-6.395 2.862-9.181 4.032-3.379 1.423-6.868 3.026-10.377 4.77-6.97 3.153-13.875 6.704-20.536 10.561-6.761 3.917-13.44 8.25-19.867 12.887-6.271 4.531-12.453 9.389-18.378 14.439-5.905 5.034-11.563 10.251-16.817 15.506-10.345 10.346-20.284 22.158-29.55 35.12-4.836 5.923-9.403 12.188-13.59 18.641-4.071 6.281-8.007 12.697-11.691 19.062-3.738 6.45-7.339 13.052-10.693 19.602-3.313 6.457-6.531 13.141-9.564 19.869-3.363 7.072-6.29 13.949-8.708 20.458-3.022 7.115-5.611 14.34-7.703 21.5-2.765 7.367-5.059 14.858-6.818 22.26-1.551 6.492-3.142 13.333-4.862 20.912l-.135.633c-3.051 15.253-5.28 30.605-6.625 45.621-1.408 15.641-1.41 31.74-.007 47.838.66 7.624 1.507 15.415 2.517 23.155 1.09 8.36 2.745 16.825 4.918 25.153 2.123 8.145 4.715 16.371 7.694 24.421 3.111 8.44 6.931 16.828 11.344 24.914 2.373 4.355 4.975 8.556 7.692 12.427 2.447 3.507 5.08 7.028 7.833 10.477 3.056 4.171 6.29 8.067 9.598 11.566 3.198 3.392 6.688 6.641 10.387 9.67 3.425 3.34 7.055 6.452 10.787 9.248 3.672 2.759 7.601 5.473 11.688 8.072 4.59 2.918 9.376 5.468 14.241 7.587 3.707 1.611 7.11 3.125 10.405 4.625l.76.331c4.554 1.896 9.122 3.546 13.612 4.918 4.094 1.244 8.296 2.406 12.492 3.454l.973.243.99.164c7.961 1.322 15.882 2.345 23.561 3.042 4.85.754 9.681 1.136 14.375 1.136 3.996 0 8.016-.164 11.967-.488 2.413-.036 4.545-.189 6.497-.471h5.393l2.447-.494c.438-.088 1.208-.214 2.46-.317 2.311-.197 4.541-.482 6.651-.853 7.058-.71 14.272-1.743 21.489-3.08 7.298-1.362 14.457-2.914 21.279-4.613 7.253-1.736 14.493-3.744 21.556-5.979 7.066-2.249 14.103-4.766 20.918-7.482 21.62-8.189 41.782-18.715 60.172-31.395l-.133 1.065-.153.455-.258 2.976c-1.129 13.033 2.171 25.627 9.563 36.448 7.704 11.242 18.874 18.762 32.318 21.758 4.276 1.007 8.583 1.518 12.809 1.518 10.046 0 19.596-2.796 28.395-8.317 12.396-7.787 20.769-19.479 24.21-33.812l.691-2.877v-.766l4.151-16.188 2.843-6.634c1.581-3.479 3.049-6.634 4.503-9.678 1.649-3.469 3.323-7.067 4.985-10.718 2.958-6.515 6.101-12.876 9.346-18.917 3.292-6.136 6.809-12.328 10.436-18.378.972-1.616 1.943-3.232 2.883-4.807l8.648-14.412.424-.735c1.093-1.971 2.639-4.332 4.594-7.02l.648-.892.567-.943c.764-1.271 1.522-2.473 2.252-3.568.549-.824 1.251-1.771 2.086-2.816l.537-.672.489-.707c4.961-7.167 10.132-14.039 15.456-20.547-1.597 5.983-3.347 12.109-5.212 18.25l-3.213 12.726c-1.059 4.233-1.957 8.496-2.673 12.684-.855 3.69-1.731 7.332-2.607 10.835-1.147 4.587-2.108 9.389-2.857 14.272l-.035.233c-.313 2.177-.626 4.273-.921 6.217-.339 2.191-.678 4.462-1 6.75-.406 2.828-.712 5.692-.906 8.442-.207 2.813-.307 5.767-.307 9.027v7.44c0 3.339.214 6.939.635 10.703l.182 1.308c.762 4.594 1.528 8.396 2.329 11.573 1.467 5.866 3.693 11.563 6.619 16.934l.522.96.604.91c.651.98 1.302 1.959 1.96 2.939.864 1.299 1.903 2.757 3.174 4.454l.797 1.009c2.535 3.047 5.383 5.897 8.467 8.474l1.054.881 1.145.76c.749.498 1.555 1.062 2.461 1.708 2.142 1.523 4.448 2.91 6.921 4.154 2.33 1.163 4.48 2.07 6.572 2.773l.157.052c1.306.429 2.717.842 4.206 1.232 6.101 1.922 7.242 3.007 18.955 2.896l26.44-5.218.585-.217c3.281-1.231 6.651-2.703 10.016-4.375l1.327-.71c1.982-1.138 3.95-2.231 5.936-3.297 3.285-1.779 6.452-3.897 9.424-6.304 4.167-3.078 8.188-6.448 11.997-10.061 3.594-3.425 6.72-6.47 9.555-9.306l.458-.472c4.244-4.476 8.296-9.083 12.109-13.768l.377 1.004c1.404 4.38 3.343 8.733 5.779 12.975 2.355 4.831 5.73 9.645 10.273 14.658 3.93 4.403 8.743 8.521 14.369 12.278 3.91 2.596 8.097 4.593 12.49 5.95 1.903.584 3.59 1.123 5.149 1.644 6.159 2.188 12.787 3.297 19.707 3.297 2.709 0 5.179-.158 7.462-.479h4.277l1.439-.48 2.621-.556c6.126-1.312 11.219-2.943 15.531-4.975 2.592-1.094 5.037-2.351 7.279-3.74l.148-.093c.553-.348 1.108-.661 1.649-.93l1.029-.512.978-.604c5.218-3.223 10.593-7.188 15.977-11.79 2.469-2.069 4.919-4.317 7.286-6.684l1.98-1.982c1.151-1.152 2.236-2.239 3.259-3.258l.078-.077c2.434-2.444 4.737-5.109 6.847-7.923 1.211-1.615 2.469-3.204 3.739-4.724l.163-.197c3.101-3.786 6.182-7.748 9.165-11.782 1.453-1.967 2.904-3.982 4.345-6.035l.069.174c.761 1.915 1.536 3.756 2.305 5.474.483 1.092.997 2.314 1.571 3.735.888 2.229 1.901 4.478 3.011 6.688 1.056 2.126 2.221 4.242 3.557 6.466.777 1.294 1.568 2.679 2.376 4.164 1.654 3.022 3.592 5.932 5.753 8.636 1.837 2.302 3.916 4.616 6.179 6.881l5.611 5.611.881.733c2.836 2.358 5.827 4.51 8.909 6.405 3.456 2.121 7.249 3.961 11.252 5.459 7.91 2.97 16.034 4.475 24.145 4.475h10.326l1.843-.619c1.755-.16 3.503-.459 5.232-.894 5.188-.898 10.015-2.208 14.375-3.899 8.072-2.874 16.167-6.928 24.068-12.054l.26-.17c3.715-2.477 7.219-5.134 10.454-7.934 1.904-1.655 3.855-3.355 5.861-5.104l2.265-1.974.616-.618c2.491-2.498 4.877-4.973 7.094-7.356 2.783-2.995 5.321-6.236 7.561-9.651.41-.519.816-1.038 1.22-1.56.447.981.916 1.961 1.402 2.932 1.068 2.154 2.244 4.293 3.593 6.537.775 1.291 1.568 2.68 2.379 4.167 1.656 3.025 3.594 5.935 5.752 8.633 1.84 2.306 3.92 4.622 6.176 6.878l5.611 5.613.885.735c2.837 2.358 5.827 4.51 8.904 6.402 3.455 2.121 7.248 3.961 11.256 5.461 7.91 2.97 16.034 4.475 24.146 4.475h10.319l1.845-.618c1.756-.16 3.506-.459 5.236-.895 5.188-.898 10.016-2.208 14.377-3.899 8.069-2.873 16.163-6.927 24.065-12.053l.26-.171c3.718-2.478 7.222-5.136 10.46-7.938 2.021-1.757 4.096-3.565 6.231-5.428l1.892-1.649.618-.62c2.493-2.501 4.876-4.972 7.09-7.352.769-.827 1.519-1.674 2.249-2.537 1.091 1.646 2.235 3.315 3.423 4.994 2.418 3.418 5.052 6.763 7.84 9.951 5.773 6.596 12.261 12.451 19.282 17.403l.545.374c3.381 2.253 6.859 4.378 10.377 6.338 3.5 1.941 7.202 3.718 11.017 5.287 7.512 3.641 15.495 6.161 23.757 7.498 7.035 1.562 14.751 2.354 22.953 2.354h8.641c4.761 0 9.417-.543 13.848-1.614 2.346-.521 4.716-.993 7.07-1.408 3.229-.571 6.457-1.257 9.673-2.057 3.478-.876 6.955-1.963 10.353-3.235l7.657-2.871.396-.151c10.161-4 20.543-9.255 30.864-15.62 9.263-5.174 18.155-10.933 26.446-17.125 4.398-3.058 8.612-6.16 12.553-9.241 4.007-3.141 7.958-6.468 11.751-9.896 7.815-6.479 15.269-13.339 22.158-20.398 6.505-6.665 13.02-13.597 19.363-20.604l.81-.939c2.886-3.525 5.771-7.049 8.64-10.562l1.354-1.653c2.406-2.939 4.813-5.879 7.22-8.825 1.425-1.712 3.527-4.189 6.423-7.566 3.546-4.137 6.178-7.506 8.094-10.373.268-.402.453-.648.593-.822.785-.979 1.564-2.022 2.363-3.164l2.51-3.015 2.55-3.822c3.002-4.383 4.853-9.148 5.521-14.007.474-.774.939-1.553 1.397-2.336.696-1.197 1.371-2.432 2.019-3.697 2.178.458 4.388.894 6.626 1.308l.896.149c8.445 1.246 16.863 1.911 25.044 1.979l-.097.719-.063.529c-2.065 18.585-2.588 37.269-1.554 55.533l1.554 14.309.089.711c.244 1.744.432 3.423.548 4.89.275 3.635.938 7.347 1.972 11.041.73 2.913 1.448 5.5 2.191 7.896.594 1.941 1.187 3.953 1.787 6.034l.153.511c2.067 6.628 4.646 12.669 7.669 17.967 1.239 2.361 2.657 4.559 4.229 6.553l1.09 2.166 1.992 2.319c2.562 2.983 5.337 5.787 8.258 8.345 4.799 4.62 10.164 8.037 15.977 10.175 4.399 1.854 9.185 3.26 14.271 4.19 6.346 1.15 12.521 1.166 18.305.049 4.335-.653 8.771-1.939 13.213-3.831 6.494-2.443 12.567-6.043 18.096-10.725 5.08-3.273 9.652-7.272 13.631-11.926.889-.891 1.753-1.754 2.592-2.591l1.18-1.178c1.773-1.773 3.477-3.645 5.074-5.576 1.26-1.313 2.443-2.655 3.547-4.021 2.735 4.281 5.595 8.162 8.508 11.549 2.074 2.554 4.275 4.855 6.548 6.848 1.55 1.358 3.297 2.815 5.175 4.316 4.062 3.253 8.227 6.164 12.375 8.649l.724.417c4.289 2.38 9.115 4.4 14.736 6.168 9.197 3.277 18.744 5.155 28.391 5.585 7.785.377 16.427.005 25.737-1.111l1.527-.231c4.447-.814 9.009-1.929 13.613-3.327 4.694-1.437 9.337-3.19 13.799-5.212l.848-.384.816-.446c4.118-2.248 8.218-4.728 12.218-7.389 4.687-3.128 9.269-6.914 13.639-11.275 6.893-6.893 12.531-14.344 16.791-22.185l71.468-89.337c6.127-7.671 8.284-17.488 5.921-26.951zm-1537.267-205.274c4.731-4.139 9.152-8.652 13.142-13.415 8.153-9.422 14.58-20.03 19.103-31.53l.28-.749c.741-2.076 1.391-4.167 1.949-6.269-.234 1.578-.533 3.156-.894 4.72l-.25 1.22c-1.178 6.577-3.006 12.374-5.433 17.229l-.659 1.429c-2.752 6.498-5.814 12.055-9.103 16.516l-.354.493c-3.689 5.27-7.92 10.371-12.562 15.149-4.813 4.948-9.893 9.542-15.023 13.597-10.217 8.01-21.588 14.885-33.812 20.44-3.049 1.389-6.021 2.633-8.875 3.716-3.618 1.38-7.335 2.928-11.063 4.606-.377.135-.926.308-1.688.498-2.534.633-4.973 1.387-7.268 2.245-.966.208-1.939.451-2.938.735l-3.948.658-2.591 1.037c-.193.017-.378.025-.554.025-.705 0-1.542-.112-2.895-.923-1.27-.762-1.763-1.323-2.183-3.142l-.29-1.133c-.443-1.581-.282-2.05.335-3.094.761-1.288 1.518-2.11 2.572-2.714l5.146-1.715 6.064-1.348 2.241-1.121c2.042-.543 4.146-1.245 6.391-2.131l16.823-6.117 1.275-.636c2.315-1.155 4.634-2.277 6.839-3.311 2.542-1.184 5.255-2.497 8.034-3.887 2.929-1.46 5.775-2.978 8.434-4.499 2.511-1.432 5.229-3.062 8.076-4.844l.263-.167c5.496-3.533 10.685-7.427 15.416-11.568zm-253.432 309.865c-2.482-1.082-4.964-2.407-7.366-3.934-2.988-1.901-5.841-3.871-8.509-5.875-2.229-1.67-4.393-3.551-6.432-5.59l-.987-.986-1.09-.871c-2.272-1.814-4.388-3.757-6.313-5.799-1.984-2.099-3.953-4.49-5.851-7.106l-.742-.972c-2.189-2.727-4.273-5.504-6.233-8.312-1.677-2.39-3.275-4.973-4.757-7.692-3.256-5.966-6.058-12.112-8.338-18.3-2.417-6.531-4.508-13.162-6.216-19.716-1.648-6.316-2.899-12.708-3.72-19.002-.917-7.029-1.686-14.096-2.285-21.017-1.149-13.183-1.151-26.313-.005-39.038 1.177-13.138 3.125-26.584 5.792-39.975 1.652-7.269 3.178-13.83 4.669-20.074 1.342-5.645 3.117-11.374 5.275-17.028l.385-1.008.297-1.038c1.623-5.679 3.688-11.458 6.141-17.179l.484-1.218c1.96-5.329 4.404-11.074 7.265-17.075l.229-.494c2.716-6.036 5.598-12.027 8.575-17.828 2.97-5.801 6.152-11.635 9.463-17.347 3.272-5.652 6.766-11.348 10.376-16.918 3.32-5.116 6.955-10.08 10.804-14.753l.566-.687.516-.726c1.31-1.844 2.634-3.657 3.972-5.439-1.2 1.974-2.392 3.967-3.571 5.972-6.925 11.433-13.088 23.416-18.319 35.621-5.024 11.727-9.609 23.616-13.628 35.335l-2.948 8.843c-1.124 3.372-2.088 6.914-2.872 10.551-.936 2.874-1.79 5.707-2.534 8.404-.873 3.13-1.672 6.31-2.378 9.458-1.724 6.59-3.137 13.163-4.2 19.544-.944 5.666-1.919 11.678-2.898 17.87-1.061 6.383-1.868 12.942-2.399 19.501-.51 6.289-.912 12.133-1.227 17.851-1.029 12.914-1.029 25.849.002 38.452.715 12.624 2.333 24.932 4.808 36.589l.113.507c1.329 5.675 2.794 11.366 4.354 16.906 1.657 5.896 3.623 11.704 5.843 17.269 4.541 11.703 10.322 22.489 17.185 32.067 5.934 8.669 13.333 16.627 22.046 23.72-1.093-.482-2.205-.969-3.342-1.463zm268.23-151.654c-3.359 15.263-6.639 30.909-9.764 46.585-.868 1.168-1.766 2.318-2.696 3.452-1.503 1.84-2.928 3.594-4.252 5.253-1.955 2.447-3.308 4.354-4.361 6.174-.846 1.3-1.827 2.597-2.896 3.833-2.039 2.347-4.15 4.772-6.334 7.272-6.824 7.631-14.884 14.993-23.962 21.888-9.047 6.484-18.63 12.269-28.492 17.196-9.803 4.901-20.168 8.947-30.815 12.028-10.671 3.092-21.461 5.226-32.073 6.342-5.724.575-11.382.938-16.848 1.079-5.005.139-10.215-.066-15.536-.603l-1.25-.126h-5.497l-2.382-.48h-2.418l-2.399-.48h-1.094c-.733-.12-1.455-.218-2.169-.293-2.719-.574-5.425-1.087-8.064-1.525-1.923-.321-3.705-.675-5.31-1.055-2.225-.752-4.355-1.509-6.348-2.255-1.743-.653-3.507-1.427-5.243-2.298l-1.199-.602-1.257-.47c-1.292-.483-2.472-1.029-3.506-1.623l-.09-.052c-1.437-.816-2.899-1.755-4.348-2.788-6.27-4.663-11.374-9.861-15.172-15.451l-.394-.562c-4.488-6.229-8.313-13.393-11.369-21.29l-.103-.261c-1.586-3.964-2.994-8.122-4.188-12.37-1.339-4.757-2.598-9.638-3.743-14.511-1.936-9.187-3.201-18.961-3.759-29.058l-.048-.694c-.842-10.105-.841-20.517.004-30.943l.044-.654c.294-5.381.672-10.898 1.156-16.864.421-5.2 1.062-10.392 1.901-15.431l.034-.209c.962-6.088 1.919-11.994 2.846-17.551.836-5.018 1.964-10.23 3.353-15.492l.236-.975c.539-2.435 1.156-4.902 1.85-7.392.653-2.365 1.413-4.85 2.258-7.387l.494-1.481.306-1.531c.431-2.159.969-4.213 1.601-6.107l2.838-8.515c3.612-10.526 7.738-21.22 12.263-31.782 4.333-10.109 9.445-20.042 15.196-29.524l.178-.299c2.968-5.049 6.014-10 9.061-14.724 2.914-4.522 6.015-9.025 9.216-13.385l.238-.33c6.416-9.043 13.523-17.931 21.124-26.42 3.73-4.015 7.63-7.986 11.575-11.787 3.879-3.73 8.002-7.498 12.262-11.205 3.693-2.876 7.86-5.822 12.395-8.764 2.249-1.402 4.667-2.866 7.172-4.343 2.192-1.29 4.526-2.626 7.112-4.074 8.801-4.064 18.411-7.187 28.579-9.284 2.423-.482 4.8-.849 7.01-1.083 2.815-.292 5.701-.59 8.659-.889 4.828-.23 9.84-.23 14.948.001 4.529.492 8.847 1.358 12.817 2.567 3.748 1.147 7.501 2.801 11.162 4.92 2.037 1.286 3.931 2.552 5.571 3.721 1.147.824 2.377 1.888 3.606 3.112 2.358 2.363 4.707 5.289 6.981 8.697l.434.629c1.466 2.057 2.423 3.976 2.928 5.866l.25.87c.85 2.775 1.517 6.048 1.98 9.726l.053.391c.306 2.156.307 4.249.001 6.396l-.123.863-.062.869c-.153 2.125-.6 4.247-1.367 6.477-2.485 6.195-5.865 11.705-10.323 16.832l-.333.391c-2.361 2.83-4.993 5.521-7.827 8-2.855 2.499-6.02 4.874-9.407 7.062-2.224 1.39-4.308 2.639-6.218 3.729-1.861 1.064-3.86 2.129-5.972 3.182-2.397 1.199-4.69 2.309-6.868 3.324-2.199 1.031-4.444 2.111-6.689 3.22l-14.523 5.281-.779.298c-.668.269-1.003.368-.999.368l-.098.024c-1.875.472-3.737 1.079-5.567 1.814l-3.177.706-1.695.565h-.486l-3.855 1.287c-13.337 4.455-24.184 13.237-31.363 25.393-7.539 12.756-9.466 27.08-5.585 41.46 3.532 14.676 12.183 26.499 25.046 34.217 8.901 5.341 18.53 8.048 28.619 8.048 4.331 0 8.751-.514 13.141-1.525l1.879-.434 1.679-.672 2.09-.348 1.903-.623c1.734-.362 3.534-.855 5.354-1.467l1.299-.477c.388-.156 1.063-.393 2.079-.646 3.078-.77 5.871-1.665 8.54-2.738l1.018-.435c3.021-1.373 6.013-2.625 8.85-3.708 3.812-1.447 7.785-3.108 11.793-4.934 15.827-7.193 30.617-16.144 44.035-26.664 6.907-5.458 13.616-11.522 19.953-18.037 1.428-1.47 2.828-2.962 4.2-4.476-1.486 5.554-2.938 11.09-4.35 16.592-4.408 17.143-8.941 35.033-13.474 53.171-4.488 17.614-8.743 35.539-12.651 53.285zm125.879-247.199l-4.508 12.505-1.684 5.378-2.196 4.393-.78 4.684c-.476 1.46-.96 2.995-1.461 4.626-.591 1.913-1.176 3.743-1.761 5.504l-.302.973c-.94 3.269-1.657 6.514-2.12 9.57-.108.701-.259 1.336-.459 1.941l-.311 1.004c-1.38 4.828-2.619 9.608-3.684 14.215-.97 4.207-1.96 8.659-2.942 13.233l-2.768 12.459-3.477 13.412-.163.893c-.562 3.07-1.201 6.12-1.886 9.015-.903 3.783-1.725 7.709-2.443 11.67l-14.259 78.697 11.906-11.911-.208.411c-1.936 3.87-3.932 7.947-5.943 12.133-1.86 3.881-3.745 7.881-5.605 11.9-2.551 4.812-4.648 9.575-6.249 14.184l-1.472 3.434-.726 2.179-1.439 2.877-1.888 5.663-.263 1.125c-2.277 9.751-4.434 19.705-6.409 29.584-1.829 9.146-3.873 18.578-6.074 28.033l21.563 7.16-2.354 3.923c-.948 1.586-1.896 3.165-2.862 4.771-4.049 6.754-7.961 13.643-11.621 20.464-3.764 7.007-7.404 14.373-10.81 21.873-1.538 3.378-3.094 6.724-4.605 9.901-1.609 3.367-3.246 6.887-5.004 10.76l-6.557 15.286v2.938l-4.8 18.72v.082c-.349.54-.811.91-1.487 1.335-1.056.663-1.527.663-1.809.663-.374 0-.853-.067-1.384-.195l-.513-.117c-1.345-.293-1.545-.585-1.963-1.196-.663-.971-.977-1.761-1.039-2.753.301-1.688.487-3.45.561-5.305l1.056-7.686c.795-3.414 1.315-6.691 1.542-9.695.026-.325.13-1.26.541-2.911l.307-1.234 2.038-14.266 2.116-11.85c.75-2.781 1.335-5.541 1.744-8.223.296-1.908.592-3.882.883-5.921l22.101-103.129-.966 1.15c3.19-14.078 6.592-28.214 10.141-42.144l.028-.112c4.509-18.041 9.017-35.831 13.4-52.883 4.349-16.937 9.077-34.205 14.055-51.328l4.168-12.502.325-1.054c.615-2.156 1.191-4.101 1.779-6.002.608-1.981 1.216-4.034 1.83-6.156 1.633-4.616 3.138-9.236 4.486-13.779 1.125-3.81 2.43-7.798 3.88-11.852l.278-.777.226-.793c.486-1.706 1.043-3.438 1.673-5.198.78-2.194 1.511-4.424 2.179-6.647.836-1.986 1.643-3.988 2.416-5.996.814-2.129 1.721-4.503 2.695-7.106.875-2.332 1.65-4.305 2.335-5.947.903-2.181 1.821-4.51 2.734-6.932.801-1.854 1.604-3.656 2.379-5.339.665-1.438 1.46-2.97 2.367-4.554l.66-1.232c.918-1.836 1.861-3.645 2.826-5.421-.603 1.776-1.258 3.59-1.964 5.425zm124.093 204.813c0 2.665-.067 5.164-.194 7.367-.104 1.719-.246 3.404-.422 5.027-.658 2.809-1.173 5.521-1.529 8.045-.162 1.127-.41 2.277-.721 3.368-.604 2.096-1.198 4.114-1.778 6.004-.592 1.914-1.177 3.745-1.763 5.509l-.166.518c-1.18 3.828-2.416 7.692-3.66 11.438-1.051 3.145-2.242 6.334-3.544 9.485-1.684 3.718-3.333 7.632-4.908 11.653-1.255 3.21-2.614 6.429-4.04 9.567l-.164.368c-3.089 7.105-6.22 14.248-9.297 21.218-2.993 6.768-6.02 13.721-8.994 20.663l-8.53 19.902c-1.85 4.084-3.468 8.097-4.797 11.898-1.014 2.886-2.102 5.786-3.209 8.562-.905 2.25-1.721 4.581-2.437 6.963-.255.854-.574 1.762-.947 2.695l-.843 2.113-.448 2.231c-.292 1.451-.583 2.821-.868 4.124-.204.907-.408 1.78-.609 2.613-1.289 4.108-1.892 7.676-1.892 11.145v9.987l-.198-.738c-.302-1.198-.781-3.348-1.383-6.895-.171-1.675-.258-3.191-.258-4.515v-7.44c0-2 .058-3.808.178-5.44.115-1.627.292-3.285.537-4.989.299-2.121.605-4.171.922-6.222.318-2.099.644-4.279.97-6.541.513-3.325 1.161-6.562 1.927-9.626 1.006-4.025 2.011-8.212 2.986-12.441l.303-1.528c.519-3.127 1.188-6.34 1.99-9.548l2.731-10.924c2.287-7.558 4.415-15.101 6.326-22.428l5.721-21.931 6.016-22.058.193-1.068c.553-3.054 1.185-6.072 1.888-9.019.749-3.165 1.444-6.298 2.069-9.332 1.172-3.9 1.723-7.299 1.723-10.585v-40.462l-36.006 18.015c-2.416.924-5.061 1.99-8.062 3.249-4.168 1.757-8.257 3.93-12.17 6.466-1.739.984-3.473 2.012-5.191 3.076.771-1.172 1.574-2.332 2.405-3.475l.436-.618c4.119-6.036 9.198-12.374 15.138-18.884 2.289-2.521 4.949-4.998 7.9-7.358 2.781-2.223 5.934-4.281 9.373-6.119l1.082-.613c2.911-1.747 6.187-3.269 9.752-4.532 2.441-.541 4.876-1.081 7.269-1.617 1.574-.349 3.393-.633 5.418-.849h7.08l.369-.184c1.317.238 2.616.44 3.885.603l1.418.563 2.2.444c.042.009.196.044.477.153 1.08.436 2.158.868 3.24 1.299 1.321.784 2.456 1.579 3.386 2.372 2.498 2.268 3.731 3.751 4.249 4.44l.457.589c.954 1.194 1.392 1.906 1.535 2.154l.35.92.569 1.146c.552 1.11 1.104 2.221 1.66 3.326l.188.745.533 1.388c.919 2.396 1.577 4.941 1.955 7.566l.074.482c.136.826.15 1.306.15 1.473v5.047zm129.632 7.348c-1.353 3.48-2.784 6.875-4.24 10.062-1.917 4.177-3.776 8.593-5.528 13.13-1.668 4.009-3.307 8.242-4.878 12.603-1.298 3.612-2.727 7.45-4.248 11.411-1.815 4.37-3.47 8.894-4.914 13.419-1.104 3.446-2.358 7.008-3.731 10.593-1.919 4.633-3.579 9.441-4.93 14.273-.917 3.266-2.043 6.641-3.347 10.032l-.375 1.046c-1.494 4.473-2.826 9.131-3.961 13.856-.891 3.718-1.782 7.498-2.672 11.342-1.437 4.454-2.624 9.023-3.529 13.575-.86 4.295-1.637 8.526-2.3 12.522-.301 1.789-.551 3.6-.746 5.377v-5.598c.186-5.181.588-10.439 1.197-15.64l3.345-28.569.754-.849 1.381-6.447c.961-4.487 1.923-9.055 2.883-13.698.836-4.038 1.818-8.035 2.917-11.88l.231-.807.176-.821c.908-4.235 1.874-8.319 2.879-12.18 1.043-4.03 2.198-8.267 3.441-12.615 1.189-4.177 2.43-8.364 3.696-12.472 1.302-4.241 2.589-8.579 3.828-12.902l12.611-37.831 1.853-4.817c1.019-2.222 1.806-4.445 2.354-6.644l.209-.514c1.055-2.592 2.312-3.894 4.791-4.97 1.172-.508 2.193-.755 3.121-.755.933 0 1.976.24 3.169.726 2.798 1.142 4.28 2.522 5.462 5.083.503 1.09.778 1.994.685 3.099l-6.028 14.467c-1.09 2.221-2.085 4.416-2.942 6.486-.958 2.288-1.835 4.608-2.614 6.907zm68.419-157.442c-3.643 3.571-7.309 5.094-12.26 5.094-5.19 0-8.875-1.471-12.322-4.918-3.447-3.447-4.917-7.132-4.917-12.322 0-5.19 1.471-8.875 4.917-12.322 3.447-3.447 7.132-4.918 12.322-4.918 4.951 0 8.618 1.523 12.251 5.085 3.543 3.476 4.988 6.997 4.988 12.154s-1.444 8.679-4.979 12.147zm83.188 22.365l-.119.439c-5.459 20.858-10.347 41.838-14.532 62.376-.729 2.659-1.426 5.663-2.12 9.145l-22.29 111.797 8.333-11.465-2.869 5.736-.665 2.648c-.771 3.07-1.184 6.214-1.229 9.354l-.012.061-.168.854-.108.863c-.448 3.562-.675 7.277-.675 11.039 0 1.652-.098 3.288-.285 4.801-.387 3.074-.679 6.189-.864 9.191-.133 2.071-.33 4.167-.584 6.232l-.097.786-.047.791c-.334 5.637-.586 11.116-.75 16.249-.17 5.133-.253 10.507-.253 16.43v14.88c0 3.237.098 6.232.293 9.079.128 1.956.303 3.963.517 5.969-2.297-10.123-3.862-20.071-4.656-29.604l-.069-.708c-.138-1.236-.266-2.478-.388-3.722l-2.048-20.914.672-.925v-22.704c.318-3.331.48-6.658.48-9.912 0-1.842.096-3.538.285-5.043l.195-1.553v-1.564c0-.794.036-1.527.109-2.241l.011-.107c.239-2.426.36-4.865.36-7.251v-1.144l-.104-1.138c-.035-.383-.064-1.501.425-3.619l.414-1.795.146-1.837c.602-7.548 1.371-15.087 2.286-22.405.955-7.632 1.909-15.419 2.863-23.367 3.079-21.532 6.992-43.194 11.631-64.386 4.622-21.099 10.394-42.548 17.157-63.752l.168-.549c1.437-4.89 3.048-9.797 4.789-14.584 1.798-4.945 3.771-10.026 5.861-15.102l.291-.738c1.058-2.82 2.132-5.862 3.19-9.037.583-1.748 1.257-3.391 2.018-4.913 1.744-3.497 3.278-7.117 4.556-10.739.619-1.75 1.343-3.458 2.151-5.076l.378-.792c4.306-9.425 9.165-18.292 14.456-26.379l-.482 1.74c-.325 1.293-.702 2.442-1.141 3.461-1.112 2.602-2.223 5.378-3.301 8.251l-5.345 14.571-.087.242c-3.661 10.311-7.052 20.908-10.08 31.5-2.888 10.115-5.779 20.309-8.667 30.58zm86.523 50.622c-4.921 22.479-9.069 45.458-12.327 68.295l-.073.555c-.955 7.96-1.91 15.756-2.865 23.396-.939 7.522-1.739 15.241-2.379 22.972-1.106 5.496-1.505 10.84-1.187 15.931-.017.508-.05 1.006-.097 1.481-.193 1.884-.312 3.821-.354 5.777-.33 3.108-.497 6.377-.497 9.739 0 1.916-.112 3.91-.332 5.928l-.147 1.353v11.402l-.682 1.262c-.832 1.649-1.615 3.327-2.367 5.076-.158.373-.352.798-.576 1.269-1.713 2.8-3.235 5.527-4.521 8.101-.551 1.098-1.247 2.238-2.07 3.39l-.737 1.03-.629 1.101c-2.371 4.146-4.888 8.291-7.498 12.347-2.457 3.829-5.114 7.605-7.897 11.225l-.527.711c-2.798 3.919-5.647 7.625-8.452 10.996-2.72 3.262-5.6 6.415-8.559 9.374-.767.768-1.621 1.501-2.6 2.235-2.148 1.61-4.349 3.349-6.543 5.17l-.435.339c-.186-2.236-.433-4.608-.741-7.115-.258-2.045-.452-4.047-.582-6.025-.122-1.77-.181-3.643-.181-5.726v-14.88c0-5.364.074-10.195.227-14.806.143-4.486.36-9.248.645-14.166.324-2.756.579-5.55.76-8.371.125-2.018.317-4.07.58-6.16.443-3.596.667-7.289.667-10.978 0-1.451.071-2.853.212-4.173.287-1.615.489-3.171.611-4.688l3.646-6.481.586-1.106c1.53-3.069 2.987-6.274 4.341-9.552.585-1.421 1.311-2.826 2.156-4.177l.634-1.013.535-1.069c2.659-5.32 5.256-10.682 7.71-15.92 2.398-5.11 4.809-10.086 7.163-14.787l.281-.581c9.713-20.717 19.06-41.869 27.78-62.869 8.734-20.698 17.104-41.869 24.876-62.926l5.754-15.824 1.714-4.568c-5.811 19.169-10.852 38.464-15.023 57.506zm29.972-100.945l2.279-6.458c.22-.5.428-1.004.624-1.511l-.012.035c-.82 2.459-1.639 4.788-2.437 6.927l-.571 1.396.117-.389zm44.782 50.323l-.119.44c-5.457 20.852-10.345 41.832-14.53 62.374-.727 2.648-1.424 5.652-2.12 9.143l-22.312 111.81 8.387-11.535-2.896 5.791-.664 2.64c-.774 3.072-1.188 6.221-1.234 9.366l-.011.056-.17.86-.109.87c-.447 3.563-.674 7.275-.674 11.034 0 1.652-.099 3.287-.285 4.804-.388 3.083-.68 6.199-.863 9.191-.133 2.064-.329 4.161-.585 6.231l-.097.786-.047.791c-.334 5.662-.587 11.141-.749 16.247-.171 5.139-.254 10.513-.254 16.43v14.88c0 3.234.098 6.229.294 9.076.128 1.952.302 3.96.518 5.974-1.422-6.27-2.571-12.525-3.424-18.629l-4.992-35.756 1.926-4.494v-19.701c.318-3.331.479-6.658.479-9.91 0-1.843.096-3.537.284-5.035l.196-1.556v-1.569c0-.802.035-1.535.117-2.335.24-2.425.362-4.869.362-7.265v-1.144l-.104-1.138c-.035-.383-.063-1.501.425-3.619l.414-1.795.146-1.837c.602-7.544 1.371-15.083 2.286-22.407.954-7.629 1.908-15.415 2.861-23.361 3.08-21.536 6.993-43.199 11.633-64.391 4.619-21.09 10.392-42.54 17.156-63.753l.168-.548c1.436-4.886 3.047-9.793 4.789-14.585 1.797-4.94 3.769-10.021 5.86-15.1l.29-.737c1.057-2.815 2.131-5.857 3.191-9.039.584-1.751 1.258-3.395 2.015-4.909 1.744-3.497 3.28-7.118 4.558-10.743.62-1.753 1.344-3.458 2.149-5.069l.382-.799c4.303-9.421 9.162-18.288 14.456-26.38l-.481 1.732c-.327 1.3-.706 2.457-1.139 3.464-1.104 2.579-2.216 5.355-3.303 8.251l-5.347 14.58-.086.239c-3.663 10.312-7.055 20.91-10.08 31.5-2.889 10.113-5.778 20.308-8.667 30.579zm165.259 196.949l.13-.381c1.138-3.424 2.403-6.997 3.762-10.619 1.021-2.722 2.228-5.366 3.587-7.86l.196-.368c2.592-4.954 6.157-10.103 10.6-15.307 1.832-2.05 3.835-4.046 5.956-5.936l1.051-.992c.707-.706 2.066-1.851 4.53-3.29l.538-.323c3.715-2.297 7.381-3.655 11.205-4.154l1.226-.19c.538-.097.999-.104 1.53-.02 1.778.349 3.62.633 5.5.849.02 1.168.074 2.3.167 3.407l-.175.888v6.199l-.008.037-.473 2.397v2.099c-.331 1.495-.648 3.016-.947 4.528-.476 2.356-1.058 4.633-1.735 6.778-.322 1.021-.714 1.895-1.198 2.669l-1.781 2.851-.882 2.942-.388.451-.828 1.235c-.524.781-1.111 1.629-1.746 2.521l-1.368 1.367-.167.123c-1.349.832-2.683 1.688-3.987 2.557-.854.57-1.78 1.161-2.76 1.763-2.381 1.174-4.724 2.245-6.994 3.198-2.198.926-4.501 1.752-6.844 2.455l-.338.104c-2.487.785-5.4 1.111-8.709.971-1.043-.217-2.084-.383-3.12-.497l-2.001-.672h-.558l-.237-.12-2.951-.681-.105-.024.322-.955zm52.866 144.087l-7.471 2.801c-1.648.617-3.338 1.146-4.941 1.55-2.033.505-4.136.951-6.225 1.321-3.158.556-6.362 1.196-9.524 1.904l-.574.136c-.59.146-1.306.221-2.126.221h-8.641c-4.752 0-8.969-.424-12.532-1.26l-.993-.232-1.009-.151c-3.815-.572-7.337-1.684-10.765-3.397l-.926-.463-.962-.385c-2.208-.884-4.322-1.884-6.245-2.951-2.229-1.241-4.467-2.604-6.657-4.054-3.688-2.633-7.125-5.758-10.209-9.281-1.654-1.892-3.218-3.876-4.652-5.905-1.641-2.317-3.145-4.572-4.515-6.771-.957-1.524-1.844-3.204-2.656-5.037-.937-2.105-1.772-4.253-2.479-6.373-1.499-4.5-2.636-9.038-3.377-13.488l-.136-.81-.188-.8c-.106-.454-.192-.91-.283-1.364l-6.47-32.119c.625-1.152 1.351-2.388 2.167-3.691l.635-1.015.535-1.071c.891-1.78 1.648-3.407 2.29-4.913.239-.557.502-1.128.782-1.704l.545-.955c.137 3.432.415 6.761.83 9.941.546 4.191 1.179 8.257 1.87 12.022.85 4.695 2.038 9.341 3.52 13.762 1.304 3.92 2.731 7.65 4.246 11.101 3.116 7.857 7.233 14.745 12.252 20.503 2.72 3.636 5.574 6.623 8.691 9.104 1.924 1.54 4.013 3.074 6.22 4.569 3.353 2.531 7.095 4.598 11.144 6.151 2.662 1.028 5.551 1.954 8.604 2.76 3.629 1.266 7.459 2.239 11.41 2.898 2.78.464 5.865 1.008 9.269 1.622l2.204.398h2.24c.818 0 1.766.048 2.816.142 1.707.157 3.42.261 5.117.309 5.079.702 10.208.682 15.287-.062 5.35-.271 10.736-.812 16.106-1.618-4.824 2.59-9.583 4.818-14.224 6.655zm59.304-172.003c-.491 2.13-1.027 4.191-1.588 6.106-.771 2.613-1.484 5.201-2.127 7.711-1.546 4.281-3.281 8.482-5.171 12.51-1.696 3.619-3.853 7.223-6.407 10.71l-.684.931-.593.991c-1.813 3.023-4.261 6.084-7.275 9.099l-.911.911-.812 1c-2.291 2.819-4.799 5.009-7.665 6.693l-1.198.704-1.113.833c-1.177.881-2.479 1.783-3.89 2.696h-.473l-2.719 1.359-3.939 1.311-.55.552-.017.007c-2.028.811-4.186 1.503-6.446 2.067 1.19-.741 2.34-1.481 3.435-2.212 1.144-.762 2.332-1.513 3.533-2.23l2.669-1.598.698-.7c.891-.653 1.747-1.36 2.564-2.119 2.158-1.647 3.835-3.428 5.131-5.137 1.312-1.409 2.597-3.003 3.91-4.846.66-.928 1.276-1.812 1.849-2.648 2.98-3.755 5.363-8.007 7.114-12.689 1.959-3.556 3.578-7.348 4.825-11.304 1.21-3.829 2.243-7.851 3.07-11.953l.021-.112c.271-1.371.547-2.677.824-3.912l.03-.139c.523-2.396.854-4.859.987-7.353.368-2.386.549-4.648.549-6.863v-2.368c.427-3.302.426-6.423.002-9.471l-.002-.161c0-2.394-.161-4.689-.48-6.834v-3.008l-.672-2.003c-.181-1.603-.489-3.175-.923-4.714-.759-3.55-2.2-7.081-4.35-10.675l-1.631-2.726-2.131-2.104-.203-.253c-2.308-2.843-5.149-5.293-8.473-7.307.622.104 1.246.217 1.869.334 1.415.271 3.001.803 4.715 1.58l.341.151c4.502 1.96 8.109 4.33 11.029 7.245l1.122 1.054c2.92 2.579 5.354 5.948 7.406 10.229 2.199 4.628 3.77 8.957 4.673 12.883.707 5.2 1.065 10.17 1.065 14.786.003 4.445-.33 8.809-.988 12.986zm70.061 34.965c-.629 1.23-1.323 2.498-2.041 3.732-.49.837-.974 1.687-1.45 2.546-.82.766-1.676 1.594-2.576 2.494-.633.633-2.217 2.139-5.717 5.112-3.759 3.196-6.601 5.766-8.683 7.849-1.29 1.29-2.701 2.634-4.188 3.988-1.366 1.242-2.645 2.34-3.802 3.264l-1.102.878-.995.996c-.668.668-1.358 1.263-2.069 1.78-2.014 1.465-4.004 2.981-5.916 4.507l-.15.121c-6.054 4.906-12.449 9.61-19.006 13.981-3.445 2.296-6.923 4.522-10.406 6.661 3.749-3.085 7.236-6.545 10.435-10.354 5.218-5.338 9.685-10.991 13.3-16.833 4.185-5.822 7.78-11.921 10.691-18.134 2.739-5.839 5.237-11.943 7.424-18.144l.394-1.117.287-1.149c.55-2.208 1.184-4.529 1.895-6.942.935-3.189 1.796-6.538 2.562-9.954l.266-1.361.091-.555c4.145 5.623 8.888 10.632 14.151 14.938 2.807 2.537 5.719 4.906 8.704 7.082-.7 1.468-1.401 3.011-2.099 4.614zm38.435-40.64c-1.218-.72-2.434-1.454-3.645-2.202-2.806-1.727-5.562-3.826-8.193-6.243l-.628-.576-.665-.531c-2.222-1.776-4.185-3.852-5.962-6.307l2.062 1.546 1.956.99c.554.28.803.431.814.438 1.462.977 3.013 1.895 4.707 2.788 3.229 2.012 6.688 3.68 10.305 4.967l.253.09-1.004 5.04zm134.647 7.241l-.531.711c-2.04 2.725-4.11 5.572-6.171 8.486-2.387 3.383-4.6 6.895-6.579 10.441-4.852 8.343-9.346 17.387-13.431 27.025.711-3.535 1.502-7.151 2.371-10.839l8.408-35.673-36.28 5.188c-5.516.788-11.107 1.188-16.621 1.188l-1.572.049c-8.319.528-17.065.137-26.018-1.157-7.508-1.403-14.504-3.087-20.802-5.006l-8.2-2.499-1.659-.891c-2.009-1.079-4.026-2.206-6.041-3.376h21.448l12.803 3.183.634-3.183h3.487c15.775 0 32.207-2.113 48.856-6.282 4.472-.785 8.962-1.834 13.33-3.114 3.574-1.04 7.14-2.006 10.596-2.87l.917-.229.898-.298c3.786-1.257 7.589-2.552 11.597-3.947 3.121-1.083 6.456-2.178 9.929-3.259l9.986-2.171.312-.069c.524-.121.991-.183 1.39-.183.355 0 1.189 0 2.848 1.08 1.829 1.194 2.637 2.339 3.139 4.486.342 1.735.109 2.734-.188 3.535-.594 1.597-1.242 2.262-1.854 2.742l-.813.668c-5.406 4.628-10.656 9.873-15.604 15.59l-.585.674zm148.417 113.831l-.082.532c-.296 2.048-.59 3.946-.877 5.703l-.05.245-.28.701-.271.853c-.565 1.777-1.261 2.786-2.102 3.546-.478.255-.969.496-1.477.727-.348.158-1.135.481-2.507.874l-1.079.308-1.048.404c-1.283.495-2.544.726-3.965.726h-1.569l-1.557.196c-.986.124-1.896.189-2.63.189-.28 0-.49-.009-.635-.02-1.378-.443-2.73-.856-4.054-1.236l-1.864-1.495-.463-.371c-.112-.089-.202-.18-.292-.293l-.085-.105c-.491-.612-.991-1.354-1.521-2.264-.013-.021-.078-.141-.162-.438l-.441-1.55-.635-1.479c-.274-.637-.476-1.292-.616-1.991-.451-2.26-.962-4.57-1.554-7.021-.18-1.586-.319-3.142-.42-4.677-.053-.767-.019-1.645.103-2.609l.195-1.552v-1.564c0-3.639.356-7.508 1.06-11.493.659-3.731 1.638-7.236 2.911-10.417l1.207-3.016.189-1.546.698-1.356c.81-1.644 1.489-3.339 2.026-5.058l1.538-4.099 3.128-6.882c.294.63.595 1.257.902 1.883.625 1.478 1.327 2.953 2.1 4.416v.27l4.528 9.057.219.457.588 1.751.999 1.859c1.48 2.758 2.803 5.979 3.931 9.575l.481 1.534.673 1.459c1.092 2.365 1.935 5.013 2.506 7.869l.253 1.127c.449 1.81.783 3.396.99 4.717.296 1.964.588 4.086.869 6.308l.052.386c.271 1.901.302 3.582.09 4.86zm46.657-27.787c-1.224-5.918-3.016-11.597-5.335-16.913-1.775-5.41-3.88-10.504-6.273-15.183-.363-.911-.77-1.849-1.227-2.827v-4.991l-4.337-4.335-.121-.301-1.034-1.721c-.331-.553-.506-.932-.594-1.152l-.404-1.02-.493-.98c-1.101-2.191-2.047-4.413-2.836-6.675-1.043-2.962-2.148-6.062-3.317-9.302-.791-2.946-1.503-5.818-2.13-8.597-.715-3.137-1.366-6.315-1.942-9.505-.432-2.352-.704-4.828-.815-7.416-.163-3.63-.396-7.246-.695-10.765v-28.74l.821-1.688 2.3-1.148 3.997-11.996c.822-1.666 1.493-3.381 2.011-5.138l2.738-5.479c1.718-2.825 3.575-4.208 6.671-5.021 1.053-.276 2.003-.411 2.903-.411 1.161 0 3.032.199 5.87 1.921l.217.13c1.675.993 2.885 2.065 3.779 3.417h-3.549v18.631l-.62 1.771-.085.249-.29.436-.686 1.373c-2.569 5.139-4.575 10.554-5.972 16.116-1.953 5.749-3.199 11.35-3.71 16.678-.354 2.551-.623 5.05-.799 7.374-.172 2.172-.275 4.46-.308 6.822-.37 3.397-.433 6.806-.188 10.109.2 2.849.508 5.713.912 8.515.314 2.24.637 4.481.959 6.716.37 2.616.892 5.249 1.557 7.854.24 1.522.598 3.04 1.07 4.55v7.343l3.386 3.395c.697 2.036 1.438 3.861 2.252 5.533l2.134 7.115c.719 2.396 1.339 4.878 1.843 7.372l.247 1.096c1.333 5.348 2.352 10.99 3.022 16.74.3 2.6.535 5.25.705 7.938-.405-2.466-.943-5.06-1.634-7.89z"/><path fill="#fff" d="M1964.539 427.426c-.48-1.92-1.522-3.518-3.12-4.801-4.163-2.234-7.522-1.597-10.079 1.921l-50.4 63.36c0-.639.075-2.078.24-4.32.157-2.235.24-3.676.24-4.32 0-7.357-.405-14.475-1.2-21.359-.803-6.878-2.003-13.516-3.6-19.92-.646-3.195-1.44-6.398-2.4-9.601-.96-3.195-1.92-6.397-2.88-9.601-.646-.959-1.282-2.399-1.92-4.319l-1.439-4.8-.479-.48v-.959l-.48-1.92c-.645-1.274-.96-2.399-.96-3.36-.645-2.234-1.125-4.477-1.439-6.72-.323-2.235-.646-4.478-.96-6.72-.323-2.235-.562-4.478-.721-6.721-.165-2.234-.082-4.477.24-6.72 0-2.235.075-4.395.24-6.479.157-2.078.397-4.238.72-6.48.315-3.84 1.275-7.994 2.88-12.48.96-4.154 2.399-8.159 4.319-12 .638-.959 1.117-1.837 1.439-2.639.315-.796.638-1.681.96-2.641.315-.638.556-1.035.721-1.2.157-.157.397-.555.72-1.2.315 0 .48-.314.48-.959h.479v.479c5.115-8.955 6.397-18.315 3.84-28.08-2.564-9.758-8.16-17.198-16.799-22.32-8.963-5.438-18.322-6.877-28.08-4.32-9.765 2.565-17.205 8.325-22.32 17.28l-.479.48-.48.48-.479.96c0 .645-.083 1.042-.24 1.2-.165.165-.24.405-.24.72l-1.439 2.88c-.646.96-1.043 1.92-1.2 2.88-.165.96-.562 1.92-1.2 2.88l-1.439 4.32c-.646.322-1.282 1.283-1.919 2.879-2.565 5.445-5.123 10.643-7.681 15.601-2.564 4.965-5.28 10.163-8.16 15.601-2.564 5.122-5.205 10.162-7.92 15.119-2.723 4.965-5.52 10.006-8.399 15.12l-17.28 30.24-8.64 15.36-.96 1.92-.96.959-.48.961c-.315.645-.638 1.365-.96 2.16-.315.803-.638 1.521-.96 2.16-.638 1.281-1.356 2.564-2.159 3.84-.795 1.282-1.515 2.723-2.16 4.319-.638 1.605-1.2 3.046-1.68 4.32-.48 1.282-1.035 2.723-1.68 4.319-.604 1.52-1.062 2.957-1.383 4.327-1.298 2.311-2.597 4.554-3.895 6.714-1.92 3.202-4.005 6.404-6.239 9.6-7.681 12.803-16.643 25.282-26.881 37.439-1.92 1.92-3.202 3.36-3.84 4.32-.645.645-1.282 1.365-1.92 2.16-.645.803-1.282 1.522-1.92 2.16l-8.16 8.16c-2.564 2.564-5.278 4.8-8.159 6.72-2.88 2.565-5.76 4.485-8.64 5.76-1.604.646-3.045 1.282-4.32 1.921-1.282.645-2.564 1.125-3.84 1.439-.645 0-1.2.082-1.68.24-.48.164-1.043.24-1.68.24-.323 0-.646-.076-.96-.24-.323-.158-.646-.24-.96-.24-.323-.314-.562-.48-.721-.48-.165 0-.404-.157-.72-.479-.646-.638-1.125-1.275-1.44-1.92-.645-.638-1.604-2.558-2.88-5.761-1.282-2.879-2.085-5.76-2.399-8.64-.323-1.597-.48-3.194-.48-4.8 0-1.598-.165-3.195-.479-4.8v-10.56c0-3.518.314-7.035.96-10.561.314-1.598.555-3.36.72-5.28.157-1.92.397-3.675.72-5.28.315-1.598.638-3.359.96-5.279.315-1.92.638-3.676.96-5.28.96-3.518 1.92-6.96 2.88-10.319.96-3.361 1.921-6.796 2.881-10.32 5.114-14.4 11.04-27.36 17.76-38.881 1.598-2.879 3.359-5.677 5.28-8.399 1.92-2.715 3.839-5.354 5.759-7.92 4.154-4.8 8.475-9.12 12.96-12.96 4.478-3.518 7.755-8.078 9.84-13.68 2.077-5.596 2.475-11.438 1.2-17.521-1.92-8.64-6.562-15.36-13.92-20.16-7.365-4.8-15.202-6.239-23.52-4.319l-11.04 2.399c-4.162 1.282-8.085 2.565-11.76 3.84-3.683 1.282-7.44 2.565-11.28 3.841-3.84.959-7.68 2.002-11.52 3.119-3.84 1.125-7.68 2.003-11.52 2.641-15.045 3.84-29.603 5.76-43.68 5.76h-9.6c.637-3.195 1.117-5.438 1.439-6.721.315-1.274.48-2.475.48-3.6 0-1.117.157-2.317.479-3.6 0-1.275.075-2.475.24-3.6.157-1.118.24-2.476.24-4.08 0-1.275-.083-2.476-.24-3.601-.165-1.117-.24-2.476-.24-4.08-.322-1.274-.562-2.558-.72-3.84-.165-1.275-.562-2.558-1.2-3.84-.645-1.598-1.2-3.038-1.68-4.32-.48-1.275-1.2-2.557-2.16-3.84-.96-1.275-1.92-2.475-2.88-3.6-.959-1.117-2.084-2.16-3.359-3.12-1.604-.96-2.962-1.755-4.08-2.4-1.125-.637-2.482-1.275-4.08-1.92-1.604-.638-3.045-1.035-4.319-1.2-1.283-.157-2.565-.397-3.84-.72-1.605-.315-3.046-.48-4.32-.48h-11.998999999999999c-2.88.645-5.76 1.282-8.641 1.92-2.88.645-5.76 1.763-8.64 3.36-1.598.96-3.037 1.92-4.32 2.88-1.274.96-2.557 2.085-3.84 3.36-.638.645-1.274 1.2-1.92 1.68-.638.48-1.273 1.043-1.919 1.68-1.274 1.92-2.399 3.36-3.36 4.32-3.84 6.405-6.074 13.282-6.72 20.64-.96 7.043-.479 13.92 1.44 20.641 1.604 6.082 4.484 12.165 8.64 18.24 3.524 5.445 7.679 10.08 12.479 13.92 3.84 3.525 7.845 6.562 12 9.119 4.154 2.565 8.317 4.966 12.479 7.201 0 .322-.165.645-.479.959-1.605 3.84-3.36 7.846-5.28 12l-2.88 5.761c-.96 1.92-1.92 4.005-2.88 6.239-.96 1.92-2.003 3.84-3.12 5.761-1.125 1.92-2.16 3.84-3.12 5.76l-.001.001c-1.282.96-2.879 2.399-4.798 4.318-1.605 1.605-4.005 3.766-7.2 6.48-3.202 2.723-5.603 4.883-7.199 6.48-1.604 1.604-3.285 3.202-5.04 4.8-1.763 1.604-3.442 3.045-5.04 4.319-1.604 1.605-3.285 3.045-5.04 4.32-1.763 1.283-3.442 2.565-5.04 3.84-6.72 5.445-13.68 10.561-20.88 15.36s-14.482 9.285-21.84 13.44c-3.524 1.92-7.124 3.84-10.799 5.76-3.683 1.92-7.44 3.683-11.28 5.279-3.84 1.605-7.68 3.045-11.52 4.32-3.841 1.283-7.681 2.4-11.521 3.36-7.68 1.604-15.36 2.565-23.039 2.88-3.524.645-7.042.645-10.56 0-1.605 0-3.285-.075-5.04-.24-1.763-.157-3.442-.24-5.04-.24-3.525-.637-6.721-1.199-9.601-1.68s-5.603-1.199-8.159-2.16c-2.565-.637-4.883-1.357-6.961-2.16-2.085-.795-3.922-1.837-5.52-3.119-1.92-1.275-3.683-2.558-5.28-3.84-1.604-1.275-3.202-3.038-4.799-5.28-3.525-3.841-6.405-8.64-8.64-14.4-1.283-2.88-2.482-6-3.601-9.36-1.125-3.359-2.002-6.795-2.64-10.319-.646-3.518-1.2-7.118-1.68-10.8-.48-3.676-.721-7.598-.721-11.76v-7.681c.315.323.48.646.48.96 0 .322.157.645.479.96 1.598 2.243 3.195 4.32 4.801 6.24 1.597 1.92 3.194 3.84 4.8 5.76 1.274 1.282 2.399 2.243 3.359 2.88 1.275 1.283 2.235 2.086 2.881 2.4.96.96 1.993 1.845 3.118 2.64 1.118.803 2.318 1.522 3.601 2.16 4.478 2.88 9.6 5.28 15.359 7.2 1.598.645 2.955 1.125 4.08 1.439 1.118.322 2.476.646 4.08.961l8.641 1.439c10.875.96 21.915.165 33.119-2.4 5.438-.959 10.56-2.399 15.359-4.319 1.92-.638 3.195-1.118 3.84-1.44.315 0 .638-.157.96-.48l1.44-.479c1.275-.638 2.077-.96 2.4-.96 3.194-1.92 6.074-3.84 8.64-5.76 5.438-3.195 10.237-7.357 14.4-12.48 4.477-4.477 8.159-9.119 11.038-13.92 3.518-4.8 6.48-9.758 8.881-14.88 2.399-5.114 4.56-10.396 6.479-15.84.638-2.558 1.357-5.197 2.16-7.92.795-2.715 1.515-5.521 2.16-8.399.96-5.761 1.439-11.678 1.439-17.761 0-6.075-.479-12.479-1.439-19.2-1.282-6.074-3.525-12.479-6.72-19.199-3.525-7.357-8.003-13.44-13.44-18.241-5.121-5.115-11.361-9.277-18.719-12.48-3.525-1.597-6.96-2.715-10.32-3.36-3.36-.637-6.645-1.118-9.84-1.44-3.203-.638-6.322-.877-9.36-.72-3.045.165-6 .562-8.88 1.2-2.88.645-5.685 1.283-8.399 1.92-2.722.645-5.362 1.283-7.92 1.92-5.76 2.243-10.725 4.32-14.88 6.24-4.8 2.243-9.359 4.725-13.68 7.44-4.32 2.723-8.565 5.685-12.72 8.88-1.92 1.605-3.84 3.12-5.761 4.561-1.92 1.439-3.84 2.962-5.76 4.56-1.604 1.604-3.358 3.285-5.279 5.04-1.92 1.763-3.682 3.6-5.279 5.52-3.525 3.525-6.721 7.125-9.601 10.801-2.88 3.682-5.76 7.439-8.64 11.279s-5.603 7.763-8.16 11.76c-2.564 4.006-4.965 8.243-7.2 12.721-9.343 16.271-16.53 33.406-21.611 51.381l-1.906 3.339c-.646 1.282-1.2 2.482-1.681 3.601-.479 1.125-1.042 2.324-1.68 3.6-1.605 2.564-2.963 4.965-4.08 7.2-1.125 2.242-2.482 4.485-4.08 6.72-2.564 4.484-5.28 8.963-8.16 13.439-2.88 4.485-5.925 8.806-9.12 12.961-3.202 4.484-6.404 8.64-9.6 12.479-3.202 3.841-6.562 7.522-10.08 11.04-1.604 1.605-3.36 3.12-5.28 4.561-1.92 1.439-3.84 2.962-5.76 4.56-3.201 2.565-6.884 4.965-11.039 7.2-4.484 2.242-8.002 3.525-10.56 3.84-1.283.322-3.045.48-5.28.48h-4.319l-.96-.48c0-.314-.322-.795-.96-1.439-.645-.315-1.125-1.275-1.439-2.881-.646-.637-1.283-2.077-1.92-4.32-.646-1.597-1.2-3.359-1.681-5.279-.479-1.92-1.042-3.998-1.68-6.24-.646-2.234-1.043-4.478-1.2-6.72-.165-2.235-.405-4.636-.72-7.2-.322-2.558-.562-5.04-.72-7.439-.165-2.4-.24-4.875-.24-7.44v-14.88c0-5.438.075-10.635.24-15.6.157-4.958.397-10.156.72-15.601.314-2.558.555-5.115.72-7.681.157-2.557.397-5.114.72-7.68.315-2.557.48-5.197.48-7.92 0-2.715.157-5.354.479-7.92.315-1.598.48-3.037.48-4.32 0-1.274.157-2.557.48-3.84l1.92-3.84 4.319-7.68c1.275-2.558 2.476-5.197 3.601-7.92 1.117-2.715 2.475-5.355 4.08-7.92 2.557-5.115 5.04-10.238 7.439-15.36 2.4-5.114 4.875-10.237 7.44-15.36 9.599-20.475 18.719-41.115 27.358-61.919 8.641-20.475 16.801-41.115 24.48-61.92l5.76-15.84c.96-2.558 1.92-5.115 2.88-7.68.96-2.558 1.92-5.115 2.88-7.68 1.92-5.438 3.758-10.717 5.521-15.84 1.755-5.115 3.434-10.395 5.039-15.84l2.88-8.16c.638-1.275 1.035-2.558 1.2-3.84.157-1.275.555-2.715 1.2-4.32.637-2.558 1.439-5.198 2.399-7.92.96-2.715 1.755-5.52 2.4-8.4.638-2.88 1.2-5.678 1.68-8.4.48-2.715 1.035-5.677 1.68-8.88.638-2.88 1.118-5.835 1.44-8.88.314-3.038.314-6.315 0-9.84 0-3.84-.646-7.515-1.92-11.04-.646-2.235-1.605-4.32-2.88-6.24-.646-.96-1.365-1.995-2.16-3.12-.803-1.117-1.68-2.16-2.64-3.12-2.565-1.92-4.966-3.36-7.2-4.32-3.202-1.275-5.76-1.92-7.68-1.92-.322-.315-.802-.48-1.439-.48h-8.399000000000001c-1.125 0-2.325.165-3.6.48-4.163.645-8.003 1.92-11.521 3.84-1.92.645-3.683 1.44-5.279 2.4-1.605.96-3.203 1.92-4.801 2.88-1.604.96-3.045 1.92-4.319 2.88-1.283.96-2.565 2.085-3.84 3.36-1.605.96-2.963 2.003-4.08 3.12l-3.601 3.6c-9.284 9.285-16.964 18.885-23.039 28.8-6.404 9.6-12.165 20.002-17.279 31.2-1.283 2.565-2.4 5.205-3.36 7.92-.96 2.723-2.085 5.363-3.36 7.92-1.282 2.565-2.399 5.28-3.359 8.16s-1.92 5.603-2.88 8.16c-2.243 5.445-4.32 10.8-6.24 16.08-1.92 5.28-3.683 10.643-5.28 16.08-7.041 22.08-12.959 44.085-17.759 66-4.8 21.923-8.805 44.085-12 66.479-.96 8.003-1.92 15.841-2.88 23.521-.96 7.681-1.763 15.525-2.4 23.521-.96 4.162-1.282 8.002-.96 11.52 0 1.605-.082 3.203-.24 4.801-.165 1.604-.239 3.201-.239 4.799-.323 2.565-.48 5.28-.48 8.16 0 2.881-.165 5.76-.479 8.641v15.84l-1.439 3.359-1.92 3.36c-.646 1.282-1.201 2.482-1.682 3.601-.479 1.125-1.041 2.324-1.68 3.6-1.605 2.564-2.963 4.965-4.08 7.2-1.125 2.242-2.482 4.485-4.08 6.72-2.564 4.484-5.279 8.963-8.16 13.439-2.879 4.485-5.924 8.806-9.119 12.961-3.202 4.484-6.403 8.64-9.599 12.479-3.203 3.841-6.562 7.522-10.08 11.04-1.605 1.605-3.361 3.12-5.281 4.561-1.92 1.439-3.84 2.962-5.76 4.56-3.202 2.565-6.884 4.965-11.04 7.2-4.485 2.242-8.002 3.525-10.56 3.84-1.282.322-3.045.48-5.28.48h-4.32l-.96-.48c0-.314-.323-.795-.96-1.439-.645-.315-1.125-1.275-1.44-2.881-.645-.637-1.282-2.077-1.92-4.32-.645-1.597-1.2-3.359-1.68-5.279s-1.042-3.998-1.68-6.24c-.645-2.234-1.042-4.478-1.2-6.72-.165-2.235-.405-4.636-.72-7.2-.323-2.558-.562-5.04-.72-7.439-.165-2.4-.24-4.875-.24-7.44v-14.88c0-5.438.075-10.635.24-15.6.158-4.958.397-10.156.72-15.601.315-2.558.555-5.115.72-7.681.158-2.557.397-5.114.72-7.68.315-2.557.48-5.197.48-7.92 0-2.715.157-5.354.48-7.92.315-1.598.48-3.037.48-4.32 0-1.274.158-2.557.48-3.84l1.92-3.84 4.32-7.68c1.275-2.558 2.475-5.197 3.6-7.92 1.118-2.715 2.475-5.355 4.08-7.92 2.558-5.115 5.04-10.238 7.439-15.36 2.4-5.114 4.875-10.237 7.44-15.36 9.6-20.475 18.721-41.115 27.359-61.919 8.641-20.475 16.8-41.115 24.479-61.92l5.76-15.84c.961-2.558 1.92-5.115 2.881-7.68.959-2.558 1.92-5.115 2.879-7.68 1.92-5.438 3.758-10.717 5.521-15.84 1.754-5.115 3.434-10.395 5.039-15.84l2.881-8.16c.637-1.275 1.035-2.558 1.199-3.84.158-1.275.555-2.715 1.201-4.32.637-2.558 1.439-5.198 2.398-7.92.961-2.715 1.756-5.52 2.4-8.4.639-2.88 1.201-5.678 1.68-8.4.48-2.715 1.035-5.677 1.68-8.88.639-2.88 1.119-5.835 1.441-8.88.314-3.038.314-6.315 0-9.84 0-3.84-.646-7.515-1.92-11.04-.646-2.235-1.605-4.32-2.881-6.24-.645-.96-1.365-1.995-2.16-3.12-.803-1.117-1.68-2.16-2.639-3.12-2.566-1.92-4.967-3.36-7.201-4.32-3.203-1.275-5.76-1.92-7.68-1.92-.322-.315-.803-.48-1.439-.48h-8.4c-1.125 0-2.326.165-3.6.48-4.164.645-8.004 1.92-11.521 3.84-1.92.645-3.682 1.44-5.279 2.4-1.605.96-3.203 1.92-4.801 2.88-1.604.96-3.045 1.92-4.318 2.88-1.283.96-2.566 2.085-3.84 3.36-1.605.96-2.963 2.003-4.08 3.12l-3.602 3.6c-9.284 9.285-16.964 18.885-23.039 28.8-6.405 9.6-12.165 20.002-17.28 31.2-1.282 2.565-2.4 5.205-3.36 7.92-.96 2.723-2.085 5.363-3.36 7.92-1.283 2.565-2.4 5.28-3.36 8.16s-1.92 5.603-2.879 8.16c-2.243 5.445-4.32 10.8-6.24 16.08-1.92 5.28-3.683 10.643-5.28 16.08-7.042 22.08-12.96 44.085-17.76 66-4.8 21.923-8.805 44.085-12 66.479-.96 8.003-1.92 15.841-2.88 23.521-.96 7.681-1.762 15.525-2.4 23.521-.96 4.162-1.282 8.002-.96 11.52 0 1.605-.083 3.203-.24 4.801-.165 1.604-.24 3.201-.24 4.799-.322 2.565-.48 5.28-.48 8.16 0 2.881-.165 5.76-.48 8.641v15.846l-3.835 5.273c-1.605 1.605-2.962 3.285-4.08 5.041-1.125 1.762-2.482 3.441-4.08 5.039-2.565 3.525-6 8.003-10.319 13.44-4.32 5.445-7.763 9.923-10.32 13.44-2.88 3.524-5.76 6.803-8.64 9.84-2.88 3.045-5.76 6.165-8.64 9.359-6.083 6.405-12 12.322-17.76 17.76-1.605 1.605-3.203 3.046-4.8 4.32-1.605 1.283-3.202 2.565-4.8 3.84-2.564 2.243-5.602 4.485-9.12 6.721-3.525 2.242-6.405 3.84-8.64 4.8-1.92.646-3.202.96-3.84.96-.645.322-1.44.48-2.4.48h-.48c-.323 0-.48-.075-.48-.24 0-.158-.165-.24-.48-.24h-.96c-.645 0-1.042-.075-1.2-.24-.165-.157-.405-.24-.72-.24v-.958c0-.639-.165-1.275-.48-1.92 0-.315-.083-.639-.24-.961-.165-.314-.24-.795-.24-1.439-.323-1.275-.48-2.641-.48-4.08s-.165-2.955-.48-4.561c0-1.598.075-3.277.24-5.039.158-1.756.24-3.601.24-5.521.315-1.598.555-3.36.72-5.28.158-1.92.397-3.84.72-5.76.637-3.84 1.357-7.755 2.16-11.76.795-3.998 1.837-7.92 3.12-11.76.96-4.155 1.92-8.235 2.88-12.24.96-3.998 2.078-7.92 3.36-11.76 1.597-4.155 2.955-8.235 4.08-12.24 1.118-3.998 2.475-7.92 4.08-11.76 1.598-4.155 3.038-8.235 4.32-12.24 1.275-3.998 2.714-7.92 4.319-11.76 1.598-4.155 3.12-8.235 4.56-12.24 1.44-3.998 2.955-7.92 4.56-11.76 1.597-4.155 3.277-8.16 5.04-12 1.755-3.84 3.435-7.838 5.04-12 .637-1.92 1.357-3.84 2.16-5.76.795-1.921 1.68-3.841 2.64-5.761l2.4-5.76 2.4-5.761h.48c0-.637.158-1.117.48-1.439 3.517-8.641 3.36-17.115-.48-25.44-3.84-8.317-10.08-14.235-18.72-17.76-8.64-3.517-17.205-3.435-25.68.24-8.482 3.683-14.482 9.84-18 18.48-.645 1.283-1.042 2.4-1.199 3.36-.165.96-.562 2.085-1.2 3.36l-2.4 6.24-4.32 12.959-8.64 25.92c-1.283 4.486-2.565 8.806-3.84 12.961-1.282 4.162-2.565 8.482-3.84 12.96-1.282 4.485-2.482 8.88-3.6 13.2-1.125 4.319-2.16 8.723-3.12 13.199-1.282 4.485-2.4 9.045-3.36 13.68-.95 4.592-1.899 9.102-2.848 13.532l-.985 1.108-3.36 4.32c-1.282 1.604-2.482 3.045-3.6 4.32-1.125 1.281-2.482 2.722-4.08 4.319-2.565 2.88-5.843 6.803-9.84 11.761-4.005 4.965-7.282 8.722-9.84 11.279-5.123 5.445-10.32 10.8-15.6 16.08-5.28 5.279-10.642 10.162-16.079 14.641-2.565 2.564-5.28 4.965-8.16 7.199-2.88 2.242-5.76 4.32-8.64 6.24-1.282.96-2.565 1.92-3.84 2.88-1.283.96-2.723 1.92-4.32 2.88-2.564 1.92-5.279 3.36-8.159 4.32-2.243 1.282-4.485 2.242-6.72 2.88 0-.96.315-2.399.96-4.32.315-1.274.638-2.64.96-4.079.315-1.44.638-2.955.96-4.561.638-1.598 1.2-3.195 1.68-4.801.48-1.597 1.035-3.194 1.68-4.799 1.275-3.195 2.475-6.398 3.6-9.601 1.117-3.194 2.475-6.555 4.079-10.08l8.64-20.159c2.88-6.721 5.835-13.516 8.88-20.4 3.038-6.878 6.158-13.995 9.36-21.36 1.597-3.518 3.12-7.117 4.56-10.8 1.44-3.676 2.955-7.275 4.56-10.801 1.598-3.84 3.038-7.68 4.32-11.52 1.275-3.84 2.558-7.838 3.84-12 .638-1.92 1.275-3.915 1.92-6 .638-2.077 1.275-4.237 1.92-6.48.638-2.234 1.118-4.477 1.44-6.719.315-2.235.795-4.636 1.44-7.201.315-2.557.555-5.197.72-7.92.158-2.715.24-5.677.24-8.879v-5.041c0-1.754-.165-3.6-.48-5.52-.645-4.478-1.763-8.797-3.36-12.96-.322-1.275-.802-2.558-1.44-3.84-.645-1.275-1.282-2.558-1.92-3.84-.96-2.558-2.723-5.438-5.28-8.64-1.92-2.557-4.485-5.28-7.68-8.16-2.564-2.235-5.602-4.32-9.12-6.24-1.605-.637-3.202-1.275-4.8-1.92-1.605-.637-3.203-1.118-4.8-1.44-1.605-.638-3.12-1.035-4.56-1.2-1.44-.157-2.963-.397-4.56-.72-1.605-.315-4.005-.48-7.2-.48h-1.44l-.96.48h-2.4c-3.525.322-6.72.802-9.6 1.44-2.88.645-5.76 1.283-8.64 1.92-5.76 1.92-11.04 4.32-15.839 7.2-4.8 2.565-9.203 5.445-13.2 8.64-4.005 3.203-7.605 6.562-10.799 10.08-6.72 7.365-12.48 14.565-17.28 21.6-2.565 3.525-4.882 7.125-6.96 10.8-2.085 3.683-4.245 7.282-6.479 10.8l-6.24 10.561c-1.283 1.605-2.4 3.285-3.36 5.04-.96 1.763-1.92 3.442-2.88 5.04-4.163 7.043-8.002 14.002-11.52 20.88-3.525 6.885-7.042 13.845-10.56 20.88-.645 1.92-1.44 3.766-2.4 5.52-.96 1.764-1.762 3.443-2.4 5.041-1.92 3.524-3.525 7.199-4.8 11.039l-3.36 7.681c2.235-9.601 4.32-19.2 6.24-28.8 1.92-9.601 3.998-19.2 6.24-28.801l.96-2.88 1.44-2.88.959-2.88 1.44-3.36c1.275-3.84 3.038-7.837 5.28-12 1.92-4.154 3.84-8.234 5.76-12.24 1.92-3.997 3.84-7.92 5.76-11.76 2.235-4.154 4.395-8.234 6.48-12.24 2.078-3.997 4.238-7.919 6.48-11.759 2.235-4.155 4.395-8.235 6.479-12.24 2.078-3.998 4.238-7.92 6.48-11.76 1.275-2.235 2.475-4.32 3.6-6.24 1.118-1.92 2.16-3.84 3.12-5.76 1.275-2.235 2.4-4.32 3.36-6.24s2.078-3.998 3.36-6.24c.638-.96 1.2-1.995 1.68-3.12.48-1.118 1.035-2.16 1.68-3.12.315-.96.795-2.078 1.44-3.36l.96-1.92.479-1.44c.96-2.235 1.92-4.32 2.88-6.24s1.92-3.998 2.88-6.24c3.518-8.64 6.96-17.198 10.32-25.68 3.36-8.475 6.637-17.04 9.84-25.68 5.438-16.635 10.717-34.237 15.839-52.8l.48-3.36.48-1.92.48-1.44 1.44-7.2c.315-2.558.637-4.958.96-7.2.315-2.235.637-4.635.96-7.2l1.44-14.4v-3.84c0-1.275-.165-2.558-.48-3.84 0-1.598-.083-3.038-.24-4.32-.165-1.275-.405-2.715-.72-4.32-.645-3.195-1.763-6.24-3.36-9.12-.645-.96-1.283-1.837-1.92-2.64-.645-.795-1.282-1.68-1.92-2.64-1.605-1.275-3.525-2.715-5.76-4.32-2.242-.96-4.32-1.755-6.24-2.4-.645 0-1.2-.075-1.68-.24-.48-.158-1.042-.24-1.68-.24h-1.44l-1.44-.48c-3.84 0-7.365.48-10.56 1.44-1.605.323-3.203.72-4.8 1.2-1.605.48-3.202 1.042-4.8 1.68-2.564 1.283-5.279 2.88-8.16 4.8-2.565 1.605-4.882 3.285-6.96 5.04-2.085 1.762-4.245 3.6-6.48 5.52-1.92 1.605-3.682 3.36-5.28 5.28l-2.88 2.88c-.96.96-1.763 2.085-2.4 3.36-1.604 1.92-3.202 3.84-4.799 5.76-1.605 1.92-3.203 4.005-4.8 6.24-5.445 7.68-10.403 16.005-14.88 24.96-1.282 2.242-2.4 4.402-3.36 6.48-.96 2.085-1.92 4.245-2.88 6.48-.96 2.565-1.845 4.8-2.64 6.72-.802 1.92-1.68 4.163-2.64 6.72-.96 2.565-1.845 4.882-2.64 6.96-.803 2.085-1.68 4.245-2.64 6.48-.645 2.243-1.365 4.485-2.16 6.72-.802 2.242-1.522 4.485-2.16 6.72-1.605 4.485-3.045 8.88-4.32 13.2-1.282 4.32-2.722 8.723-4.32 13.2-.645 2.243-1.283 4.403-1.92 6.48-.645 2.085-1.283 4.245-1.92 6.48l-4.32 12.96c-5.122 17.603-9.922 35.122-14.399 52.56-4.485 17.445-8.962 35.123-13.44 53.04-4.485 17.603-8.64 35.123-12.479 52.561-3.707 16.843-7.264 33.906-10.671 51.188l-.364.411c-.323.645-1.125 1.846-2.4 3.6-1.283 1.763-2.64 3.525-4.08 5.28-1.44 1.763-2.805 3.442-4.08 5.04-1.283 1.605-2.085 2.723-2.4 3.36-1.605 2.565-3.442 5.04-5.52 7.44-2.085 2.399-4.245 4.882-6.48 7.439-8.002 8.963-17.28 17.445-27.84 25.439-10.245 7.365-20.962 13.846-32.159 19.44-11.205 5.603-22.883 10.163-35.04 13.681-12.165 3.524-24.322 5.924-36.479 7.199-6.405.645-12.645 1.043-18.72 1.2-6.083.165-12.322-.075-18.72-.72h-4.56s-2.962-.158-4.56-.48h-2.4l-2.4-.48c-.645 0-1.365-.074-2.16-.239-.803-.157-1.522-.24-2.16-.24-2.88-.638-5.76-1.2-8.64-1.68-2.88-.48-5.603-1.035-8.16-1.681-2.88-.959-5.603-1.92-8.16-2.879-2.564-.961-5.122-2.078-7.68-3.361-2.565-.959-4.965-2.076-7.2-3.359-2.243-1.275-4.485-2.715-6.72-4.32-8.64-6.396-15.682-13.598-21.12-21.6-5.76-7.995-10.56-16.957-14.4-26.88-1.92-4.8-3.6-9.758-5.04-14.88-1.44-5.115-2.805-10.396-4.08-15.84-2.242-10.561-3.682-21.601-4.32-33.121-.96-11.52-.96-23.197 0-35.039.315-5.76.72-11.596 1.2-17.521.48-5.917 1.2-11.76 2.16-17.52.96-6.075 1.92-12 2.88-17.76.96-5.76 2.235-11.677 3.84-17.76.638-2.88 1.357-5.76 2.16-8.64.795-2.88 1.68-5.76 2.64-8.64.638-3.195 1.44-6.24 2.4-9.12l2.88-8.64c3.84-11.198 8.16-22.395 12.96-33.6 4.799-11.198 10.395-22.08 16.799-32.64 3.195-5.438 6.397-10.635 9.6-15.6 3.195-4.958 6.555-9.84 10.08-14.64 7.035-9.915 14.715-19.515 23.04-28.8 4.155-4.478 8.399-8.797 12.719-12.96 4.32-4.155 8.88-8.317 13.68-12.48 4.478-3.518 9.435-7.035 14.879-10.56 2.558-1.597 5.198-3.195 7.92-4.8 2.715-1.598 5.52-3.195 8.4-4.8 10.875-5.115 22.56-8.955 35.04-11.52 3.195-.637 6.315-1.117 9.36-1.44 3.037-.315 6.157-.637 9.359-.96 6.075-.315 12.315-.315 18.72 0 6.397.645 12.479 1.845 18.239 3.6 5.76 1.763 11.355 4.245 16.8 7.44 2.557 1.605 4.957 3.203 7.199 4.8 2.235 1.605 4.478 3.525 6.72 5.76 3.518 3.525 6.877 7.68 10.08 12.48 3.195 4.485 5.438 9.12 6.72 13.92 1.275 4.163 2.235 8.805 2.88 13.92.638 4.485.638 8.963 0 13.44-.322 4.485-1.282 8.962-2.88 13.44-3.525 8.962-8.482 17.123-14.88 24.48-3.203 3.84-6.72 7.44-10.56 10.8-3.839 3.36-8.002 6.48-12.479 9.36-2.565 1.605-4.965 3.045-7.2 4.32-2.242 1.282-4.642 2.565-7.2 3.84-2.565 1.283-5.04 2.482-7.44 3.6-2.4 1.125-4.882 2.325-7.439 3.6l-15.84 5.76c-1.605.645-3.045 1.125-4.32 1.44-1.283.323-2.565.803-3.84 1.44l-4.32.96-4.32 1.44h-.48c-7.68 2.565-13.605 7.365-17.76 14.4-4.162 7.042-5.123 14.565-2.88 22.56 1.92 8.325 6.48 14.64 13.68 18.96 7.2 4.32 14.955 5.52 23.279 3.6l2.4-.96 2.88-.48c.96-.315 1.837-.555 2.64-.72.795-.158 1.68-.397 2.64-.72 1.598-.637 3.36-1.2 5.28-1.68 1.92-.48 3.675-1.035 5.28-1.68 3.517-1.598 6.959-3.038 10.319-4.32 3.36-1.275 6.795-2.715 10.32-4.32 14.077-6.397 27.037-14.235 38.879-23.52 6.075-4.8 11.917-10.08 17.52-15.84 5.595-5.76 10.635-11.835 15.12-18.24 4.478-6.075 8.474-13.275 12-21.6 3.517-7.035 6.075-15.038 7.68-24 .96-4.155 1.598-8.318 1.92-12.48.315-4.155.48-8.475.48-12.96-.645-9.278-2.242-17.76-4.8-25.44-1.605-3.84-3.36-7.597-5.28-11.28-1.92-3.675-4.163-7.275-6.72-10.8-5.123-7.035-10.725-12.96-16.8-17.76-3.203-2.558-6.405-4.8-9.6-6.72-3.203-1.92-6.562-3.675-10.08-5.28-6.72-3.195-13.763-5.76-21.12-7.68-3.525-.96-6.959-1.68-10.319-2.16s-6.803-1.035-10.32-1.68c-3.525-.637-7.043-1.035-10.56-1.2-3.525-.158-7.042-.398-10.56-.72-6.72-.315-13.44-.315-20.16 0-7.042 0-13.919.48-20.64 1.44-6.72.645-13.44 1.68-20.159 3.12-6.72 1.44-13.44 3.12-20.16 5.04-3.525.96-6.885 1.92-10.08 2.88-3.203.96-6.405 2.085-9.6 3.36-3.525 1.605-6.802 3.045-9.84 4.32-3.045 1.282-6.165 2.722-9.36 4.32-6.405 2.88-12.645 6.083-18.72 9.6-6.083 3.525-12 7.365-17.759 11.52-5.76 4.163-11.363 8.565-16.8 13.2-5.445 4.643-10.56 9.36-15.359 14.16-9.6 9.6-18.72 20.482-27.36 32.64-4.485 5.445-8.64 11.123-12.479 17.04-3.84 5.925-7.522 11.925-11.04 18-3.525 6.083-6.885 12.24-10.08 18.48-3.202 6.24-6.24 12.562-9.12 18.96-3.203 6.72-5.925 13.125-8.16 19.2-2.88 6.72-5.28 13.44-7.2 20.16-2.565 6.72-4.643 13.44-6.24 20.16-1.605 6.72-3.202 13.605-4.799 20.64-2.88 14.399-4.965 28.725-6.24 42.96-1.282 14.242-1.282 28.725 0 43.439.638 7.365 1.44 14.723 2.4 22.08.96 7.365 2.4 14.723 4.32 22.08 1.919 7.365 4.237 14.723 6.959 22.08 2.715 7.365 6 14.564 9.84 21.6 1.92 3.525 3.998 6.886 6.24 10.08 2.235 3.203 4.635 6.405 7.2 9.601 2.557 3.524 5.197 6.72 7.919 9.6 2.715 2.88 5.677 5.603 8.88 8.16 2.88 2.88 5.917 5.521 9.12 7.92 3.195 2.4 6.555 4.718 10.08 6.96 3.517 2.235 7.117 4.155 10.8 5.76 3.675 1.598 7.275 3.195 10.8 4.801 3.84 1.598 7.598 2.955 11.28 4.08 3.675 1.117 7.44 2.16 11.28 3.119 7.68 1.275 15.195 2.235 22.56 2.881 3.84.637 7.598.959 11.28.959 3.675 0 7.275-.164 10.8-.479 2.558 0 4.32-.165 5.28-.479h5.279999999999999c1.598-.322 3.36-.562 5.28-.721 1.92-.164 3.675-.404 5.28-.72 6.72-.646 13.515-1.604 20.399-2.88 6.877-1.283 13.515-2.723 19.92-4.32 6.72-1.605 13.357-3.442 19.919-5.52 6.555-2.086 13.035-4.402 19.44-6.961 26.235-9.914 49.754-23.354 70.559-40.319 11.198-9.277 20.955-18.72 29.28-28.319 2.097-2.098 4.086-4.304 6-6.584l-1.205 5.623c-.315 2.242-.637 4.402-.96 6.48-.315 2.085-.795 4.244-1.44 6.48l-2.4 13.439-1.92 13.439c-.637 2.565-1.035 4.883-1.2 6.961-.157 2.084-.555 4.402-1.2 6.959l-.96 6.721-.48 3.84c0 1.598-.157 2.88-.48 3.84-.637 7.357 1.125 14.078 5.28 20.16 4.163 6.075 9.922 9.915 17.28 11.52 7.995 1.921 15.435.721 22.32-3.6 6.877-4.32 11.28-10.484 13.2-18.48v-.959l4.8-18.721v-.96l4.32-10.08c1.597-3.517 3.194-6.96 4.799-10.319 1.598-3.36 3.195-6.795 4.8-10.32 3.195-7.035 6.555-13.838 10.08-20.4 3.517-6.555 7.2-13.035 11.04-19.439.96-1.598 1.92-3.195 2.88-4.801.96-1.598 1.92-3.194 2.88-4.799l2.88-4.801 2.88-4.8c1.598-2.88 3.675-6.075 6.24-9.601.96-1.598 1.92-3.119 2.88-4.56s2.078-2.955 3.36-4.56c8.64-12.48 17.76-24 27.36-34.561 1.275-1.598 2.475-3.037 3.6-4.32 1.117-1.274 2.317-2.557 3.6-3.84 1.275-1.274 2.558-2.475 3.84-3.6 1.275-1.117 2.557-2.317 3.839-3.6 2.88-2.559 5.76-4.801 8.64-6.721 2.88-1.92 5.76-3.675 8.64-5.279 2.88-1.92 5.835-3.518 8.88-4.801 3.037-1.274 5.834-2.399 8.399-3.359l.96-.48c0 .96-.323 2.4-.96 4.32-.645 3.202-1.365 6.48-2.16 9.84-.802 3.359-1.522 6.803-2.159 10.32-.96 3.525-1.92 7.042-2.88 10.56-.96 3.525-1.92 7.042-2.88 10.56-1.92 7.365-3.84 14.723-5.76 22.08-1.92 7.365-4.005 14.723-6.24 22.08l-2.88 11.521s-1.763 7.68-2.4 11.521c-.96 4.162-1.92 8.159-2.88 12-.96 3.84-1.762 7.844-2.4 12-.322 2.242-.645 4.402-.96 6.479-.322 2.085-.645 4.245-.96 6.479-.322 2.243-.562 4.485-.72 6.721-.165 2.242-.24 4.643-.24 7.199v7.44s.157 5.04.48 7.92c.637 3.841 1.274 7.042 1.919 9.601.96 3.84 2.4 7.515 4.32 11.039.638.961 1.275 1.92 1.92 2.881.637.959 1.44 2.077 2.4 3.359 1.598 1.92 3.36 3.676 5.28 5.28.96.638 1.995 1.357 3.12 2.16 1.118.795 2.317 1.515 3.6 2.16 1.275.637 2.4 1.117 3.36 1.439.96.315 2.078.638 3.36.96 3.84 1.275 7.837 1.92 12 1.92h1.44v-.479h3.84c.637 0 2.235-.322 4.8-.96 2.88-.646 5.595-1.44 8.16-2.4 2.558-.96 5.114-2.085 7.68-3.359 2.235-1.283 4.395-2.482 6.48-3.601 2.077-1.125 4.08-2.482 6-4.08 3.517-2.565 6.877-5.362 10.08-8.399 3.195-3.045 6.24-6 9.12-8.881 5.76-6.074 11.04-12.314 15.84-18.72 1.275-1.597 2.475-3.194 3.6-4.8 1.118-1.598 2.318-3.195 3.6-4.8 1.92-3.195 4.155-6.397 6.72-9.601 2.235-3.518 4.32-6.877 6.24-10.08 1.92-3.194 3.998-6.555 6.24-10.08 1.815-3.326 4.351-7.452 7.6-12.354-.707 6.038-1.163 12.076-1.366 18.114v14.88c.323 2.564.48 5.205.48 7.92 0 2.723.323 5.52.96 8.4.645 2.564 1.2 5.279 1.68 8.16.48 2.879 1.365 5.924 2.64 9.119.96 3.203 2.4 6.398 4.32 9.601 1.275 2.88 3.517 6.075 6.72 9.6 2.558 2.88 5.76 5.595 9.6 8.16 1.92 1.274 3.915 2.235 6 2.88 2.077.638 4.08 1.275 6 1.92 3.517 1.275 7.357 1.92 11.52 1.92 2.235 0 3.997-.165 5.28-.479h2.4l1.44-.48h1.44c4.478-.96 7.995-2.085 10.56-3.36 1.598-.645 3.038-1.364 4.32-2.159 1.275-.803 2.557-1.522 3.839-2.16 4.155-2.565 8.475-5.761 12.96-9.601 1.92-1.604 3.84-3.359 5.76-5.279s3.675-3.683 5.28-5.28c1.598-1.604 3.12-3.36 4.56-5.28 1.439-1.92 2.955-3.84 4.56-5.76 2.88-3.518 5.677-7.117 8.4-10.8 2.715-3.675 5.355-7.44 7.92-11.28 2.558-3.84 5.04-7.68 7.44-11.52s4.875-7.68 7.439-11.521c2.235-3.84 5.115-8.798 8.64-14.88 1.981-3.422 3.753-6.531 5.331-9.348.133 1.36.273 2.717.425 4.068.96 11.52 2.88 23.361 5.76 35.52.637 3.202 1.357 6.322 2.16 9.359.795 3.045 1.68 6.166 2.64 9.36.638 1.604 1.275 3.12 1.92 4.56.638 1.44 1.275 2.963 1.92 4.561.638 1.605 1.357 3.203 2.16 4.8.795 1.605 1.68 3.202 2.64 4.8s1.92 3.277 2.88 5.041c.96 1.754 2.078 3.435 3.36 5.039 1.275 1.598 2.715 3.195 4.32 4.801l4.8 4.8c1.92 1.597 3.915 3.037 6 4.319 2.078 1.275 4.395 2.4 6.959 3.36 5.115 1.92 10.238 2.88 15.36 2.88h6.24c.96-.322 1.92-.479 2.88-.479s1.92-.165 2.88-.48c4.155-.645 7.837-1.604 11.04-2.88 6.397-2.242 12.796-5.445 19.2-9.6 2.881-1.92 5.52-3.923 7.92-6 2.4-2.086 4.875-4.245 7.439-6.48 2.236-2.242 4.396-4.478 6.48-6.72 2.077-2.235 3.915-4.636 5.519-7.2 3.84-4.8 7.357-9.675 10.561-14.641 3.195-4.957 6.24-9.997 9.119-15.119 2.559-5.115 5.115-10.238 7.682-15.36.967-1.935 1.904-3.9 2.826-5.882 1.06 7.588 2.513 15.309 4.373 23.162.638 3.202 1.357 6.322 2.16 9.359.795 3.045 1.68 6.166 2.64 9.36.638 1.604 1.275 3.12 1.92 4.56.638 1.44 1.275 2.963 1.92 4.561.638 1.605 1.357 3.203 2.16 4.8.795 1.605 1.68 3.202 2.64 4.8s1.92 3.277 2.881 5.041c.96 1.754 2.077 3.435 3.359 5.039 1.275 1.598 2.715 3.195 4.32 4.801l4.799 4.8c1.92 1.597 3.915 3.037 6 4.319 2.077 1.275 4.396 2.4 6.96 3.36 5.115 1.92 10.237 2.88 15.36 2.88h6.2379999999999995c.961-.322 1.921-.479 2.881-.479s1.92-.165 2.88-.48c4.154-.645 7.837-1.604 11.04-2.88 6.397-2.242 12.794-5.445 19.198-9.6 2.881-1.92 5.521-3.923 7.921-6 2.399-2.086 4.875-4.245 7.439-6.48 2.235-2.242 4.396-4.478 6.48-6.72 2.077-2.235 3.915-4.636 5.52-7.2 3.84-4.8 7.357-9.675 10.561-14.641 3.194-4.957 6.239-9.997 9.119-15.119l1.354-2.708c.182.902.354 1.806.566 2.708.96 5.76 2.399 11.52 4.318 17.279.961 2.881 2.078 5.761 3.36 8.641 1.275 2.88 2.715 5.603 4.32 8.16 1.598 2.564 3.359 5.205 5.28 7.92 1.92 2.715 3.997 5.355 6.239 7.92 4.478 5.115 9.436 9.6 14.88 13.439 2.881 1.92 5.761 3.676 8.641 5.28 2.88 1.598 5.917 3.038 9.12 4.32 5.76 2.88 11.834 4.8 18.238 5.76 5.438 1.275 11.521 1.92 18.24 1.92h8.641c2.88 0 5.595-.322 8.159-.96 2.88-.645 5.678-1.2 8.4-1.68 2.715-.48 5.354-1.043 7.92-1.681 2.558-.645 5.115-1.439 7.679-2.399 2.558-.96 5.115-1.92 7.681-2.88 8.955-3.525 18.074-8.16 27.359-13.921 8.641-4.799 16.801-10.079 24.48-15.84 4.154-2.879 8.076-5.76 11.759-8.64 3.675-2.88 7.275-5.917 10.8-9.12 7.357-6.074 14.235-12.397 20.641-18.96 6.397-6.555 12.637-13.2 18.72-19.92 2.88-3.518 5.759-7.034 8.639-10.56 2.88-3.518 5.761-7.035 8.641-10.561 1.597-1.92 3.84-4.56 6.72-7.92 2.88-3.359 4.957-6 6.24-7.92.637-.96 1.274-1.838 1.92-2.64.638-.796 1.274-1.681 1.92-2.64l2.399-2.881.96-1.439.961-1.44c1.542-2.204 1.869-4.337.978-6.394.491-.909.967-1.817 1.421-2.727 1.275-1.92 2.476-3.84 3.601-5.76 1.117-1.92 2.159-3.998 3.119-6.24 2.235-3.195 4.32-7.199 6.24-12 .315-.314.556-.637.72-.96.158-.315.398-.638.721-.96 7.357 2.242 15.358 4.162 23.999 5.76 10.875 1.605 21.435 2.086 31.68 1.44 6.72 0 13.44-.479 20.16-1.44-2.565 10.883-4.485 21.121-5.76 30.721-1.92 17.279-2.4 34.402-1.44 51.359l1.44 12.961c.314 2.242.555 4.402.72 6.479.157 2.085.555 4.245 1.2 6.479.638 2.565 1.274 4.883 1.92 6.961.638 2.084 1.274 4.244 1.92 6.479 1.598 5.122 3.517 9.601 5.759 13.44.638 1.274 1.357 2.399 2.16 3.359.795.96 1.515 2.078 2.16 3.36 1.92 2.235 3.997 4.319 6.24 6.239 2.557 2.559 5.279 4.32 8.159 5.281 2.881 1.274 6.075 2.234 9.601 2.879 3.518.638 6.72.638 9.6 0 2.558-.322 5.28-1.125 8.16-2.399 4.478-1.604 8.64-4.163 12.48-7.681 3.839-2.242 7.198-5.122 10.079-8.64 1.597-1.604 3.119-3.12 4.56-4.56 1.44-1.44 2.798-2.955 4.08-4.561 1.598-1.598 2.955-3.195 4.08-4.8 1.117-1.598 2.317-3.194 3.6-4.8.638-.96 1.275-1.838 1.92-2.641.638-.795 1.275-1.68 1.92-2.64.638-.638 1.2-1.357 1.681-2.159.479-.796 1.035-1.681 1.68-2.641 4.478-6.721 8.798-13.439 12.96-20.16 1.438-2.325 2.877-4.677 4.316-7.041v6.081c.323 3.202.646 6.405.96 9.601.323 3.202.96 6.562 1.92 10.08.96 3.524 2.085 6.885 3.36 10.08 1.282 3.201 2.88 6.562 4.8 10.079 2.243 3.525 4.484 6.556 6.72 9.12 1.274 1.598 2.557 2.955 3.84 4.08 1.274 1.117 2.715 2.317 4.319 3.6 3.195 2.559 6.397 4.801 9.601 6.721 2.88 1.598 6.397 3.037 10.56 4.32 7.035 2.557 14.235 3.997 21.601 4.319 6.397.315 13.596 0 21.599-.96 3.518-.645 7.117-1.522 10.8-2.641 3.675-1.125 7.275-2.482 10.8-4.079 3.518-1.921 6.96-4.005 10.32-6.24 3.36-2.243 6.638-4.965 9.84-8.16 5.76-5.76 10.237-11.835 13.439-18.239l72.959-91.201c1.282-1.593 1.688-3.355 1.208-5.275zm-664.065-34.561c1.275-3.84 2.64-7.68 4.08-11.52s3.12-7.516 5.04-11.04c3.517-6.72 8.159-13.44 13.919-20.16 2.558-2.88 5.28-5.595 8.16-8.159 2.558-2.559 5.76-4.958 9.6-7.201 6.721-4.154 13.755-6.72 21.12-7.68 3.518-.637 7.035-.637 10.561 0 1.597.322 3.277.562 5.039.721 1.755.164 3.435.562 5.04 1.199 3.194.961 5.917 2.242 8.159 3.84 1.275.646 2.235 1.365 2.881 2.16.637.803 1.274 1.523 1.92 2.16.96 1.605 1.439 2.88 1.439 3.84.315.646.48 1.365.48 2.16 0 .803.157 1.68.479 2.641 0 .645.075 1.439.24 2.399.157.96.24 2.085.24 3.36 0 1.282.075 2.482.239 3.6.158 1.125.075 2.482-.239 4.08v4.32c0 1.282-.165 2.723-.48 4.32 0 1.604-.165 3.119-.479 4.56-.323 1.44-.646 2.962-.96 4.56-.646 3.203-1.44 6.322-2.4 9.36-.96 3.045-2.242 5.843-3.84 8.399-.96 3.203-2.4 5.926-4.32 8.16-.645.961-1.365 2.003-2.16 3.12-.802 1.125-1.522 2.003-2.159 2.64-.646.646-1.043 1.125-1.2 1.44-.165.323-.562.646-1.2.96l-.48.48-.479.479c-.322.323-.646.562-.96.72-.322.166-.646.405-.96.721-1.604.96-3.119 1.92-4.56 2.88-1.439.96-2.962 1.92-4.56 2.88-3.202 1.605-6.322 3.045-9.36 4.32-3.045 1.282-6.165 2.4-9.359 3.359-6.083 1.92-12.803 2.565-20.16 1.92-.96-.314-1.845-.479-2.641-.479-.802 0-1.68-.157-2.64-.479-.645 0-1.125-.076-1.439-.24-.323-.158-.803-.24-1.44-.24-.646-.314-1.043-.48-1.2-.48-.165 0-.562-.157-1.2-.479-4.162-.96-7.844-2.4-11.039-4.32-3.524-1.92-7.199-4.155-11.04-6.72l-.479-.48c.957-8.318 2.554-15.675 4.797-22.081zm-131.997-119.999c4.155-20.475 8.955-41.115 14.399-61.92 2.88-10.238 5.76-20.4 8.64-30.48s6.075-20.078 9.6-30l5.28-14.4c.96-2.557 1.92-4.957 2.88-7.2.96-2.235 1.755-4.635 2.4-7.2.96-2.557 1.92-4.875 2.88-6.96.96-2.078 1.92-4.395 2.88-6.96l5.76-12.96c1.275-1.92 2.476-3.84 3.601-5.76 1.117-1.92 2.159-3.675 3.119-5.28l1.92-1.92 1.921-1.92c.96-1.598 2.077-2.558 3.359-2.88.638-.638 1.118-.96 1.44-.96l.479-.48h.48l.479-.48h.48v-.48c0-.315.075-.48.24-.48.157 0 .239.165.239.48.638 0 .96.323.96.96.638.645 1.275 2.243 1.92 4.8.638.96.961 2.002.961 3.12 0 1.125.157 2.325.479 3.6v7.2c0 2.565-.165 5.123-.479 7.68-.323 2.565-.803 5.123-1.44 7.68-.322 2.565-.803 5.123-1.44 7.68-.645 2.565-1.282 5.123-1.92 7.68-.322 1.605-.645 2.962-.96 4.08-.322 1.125-.802 2.325-1.439 3.6-.323 1.605-.646 2.962-.96 4.08-.323 1.125-.803 2.325-1.44 3.6-7.365 20.805-15.524 40.965-24.479 60.48-8.963 19.522-19.043 38.88-30.239 58.08-2.242 3.525-4.485 7.2-6.72 11.04-2.243 3.84-4.643 7.522-7.2 11.04.637-3.195 1.274-5.918 1.92-8.16zm-161.278 0c4.154-20.475 8.955-41.115 14.399-61.92 2.88-10.238 5.761-20.4 8.64-30.48 2.881-10.08 6.076-20.078 9.6-30l5.281-14.4c.959-2.557 1.92-4.957 2.879-7.2.961-2.235 1.756-4.635 2.4-7.2.961-2.557 1.92-4.875 2.881-6.96.959-2.078 1.92-4.395 2.879-6.96l5.759-12.96c1.275-1.92 2.477-3.84 3.602-5.76 1.117-1.92 2.158-3.675 3.119-5.28l1.92-1.92 1.92-1.92c.961-1.598 2.078-2.558 3.359-2.88.639-.638 1.119-.96 1.441-.96l.479-.48h.48l.48-.48h.48v-.48c0-.315.074-.48.24-.48.156 0 .238.165.238.48.639 0 .961.323.961.96.637.645 1.275 2.243 1.92 4.8.637.96.961 2.002.961 3.12 0 1.125.156 2.325.479 3.6v7.2c0 2.565-.164 5.123-.479 7.68-.324 2.565-.803 5.123-1.441 7.68-.322 2.565-.803 5.123-1.439 7.68-.645 2.565-1.283 5.123-1.92 7.68-.322 1.605-.645 2.962-.961 4.08-.322 1.125-.801 2.325-1.439 3.6-.322 1.605-.645 2.962-.959 4.08-.324 1.125-.803 2.325-1.441 3.6-7.365 20.805-15.523 40.965-24.478 60.48-8.963 19.522-19.043 38.88-30.241 58.08-2.243 3.525-4.485 7.2-6.72 11.04-2.243 3.84-4.642 7.522-7.199 11.04.638-3.195 1.275-5.918 1.92-8.16zm-421.183-26.16c.795-3.36 1.515-6.795 2.16-10.32l3.36-12.96 2.879-12.96c.96-4.478 1.92-8.798 2.88-12.96.96-4.155 2.077-8.475 3.36-12.96.638-1.92 1.118-3.915 1.44-6 .315-2.078.795-4.238 1.44-6.48.638-1.92 1.275-3.915 1.92-6 .638-2.077 1.275-4.08 1.92-6l.48-2.88 1.44-2.88 1.92-6.24 4.32-12c1.598-4.155 2.955-8.16 4.08-12 1.118-3.84 2.475-7.68 4.08-11.52 1.597-3.518 3.194-7.118 4.799-10.8 1.598-3.675 3.195-7.118 4.8-10.32.96-1.598 1.92-3.12 2.88-4.56s1.92-2.955 2.88-4.56c.96-1.275 1.92-2.4 2.88-3.36l2.4-2.4 2.88-1.44h.48v-1.44h.48c.315.323 1.118 1.283 2.4 2.88.315.645.638 1.365.96 2.16.315.803.48 1.68.48 2.64.315.645.555 1.522.72 2.64.157 1.125.397 2.16.72 3.12.315 1.92.48 3.923.48 6v6c0 4.485-.48 8.805-1.44 12.96-.322.96-.48 2.003-.48 3.12 0 1.125-.165 2.16-.48 3.12l-.48 1.44-.48 1.44-.96 3.36c-2.243 8.325-4.8 16.642-7.68 24.96-2.88 8.325-6.083 16.642-9.6 24.96-7.042 15.682-15.045 31.365-24 47.04l-7.2 11.52-.48 1.44-.96.96c-.323.645-.645 1.125-.96 1.44-.323.322-.645.802-.96 1.44-.645.96-1.92 2.723-3.84 5.28-1.282 1.605-2.564 3.285-3.839 5.04-1.282 1.763-2.565 3.6-3.84 5.52-.645.645-1.042 1.125-1.2 1.44-.165.323-.562.803-1.2 1.44.639-3.518 1.359-6.961 2.161-10.32zm977.493 78.239c0 1.125-.165 2.16-.479 3.12 0 .96-.083 1.921-.24 2.88-.165.961-.24 2.086-.24 3.36-.322 1.282-.803 3.524-1.439 6.72-2.565-.637-4.966-1.357-7.2-2.16-2.243-.795-4.32-1.837-6.24-3.119-1.282-.638-2.4-1.275-3.36-1.92-.96-.639-2.085-1.275-3.359-1.92l-5.761-4.32c-1.604-1.598-3.045-3.277-4.319-5.04-1.283-1.755-2.243-3.758-2.88-6 0-1.275.157-2.235.479-2.88 0-1.275.48-2.4 1.44-3.36 1.274-1.92 3.675-3.675 7.2-5.28.314 0 .637-.075.96-.24.314-.158.795-.24 1.439-.24.315-.315.638-.48.96-.48h1.439v-.48c.96 0 1.92-.075 2.88-.24.96-.158 1.755-.24 2.399-.24 3.841 0 6.878.645 9.12 1.92.638.322 1.598 1.125 2.88 2.4.96 1.282 1.756 2.565 2.4 3.84 1.275 2.564 1.92 6.082 1.92 10.561l.001 3.118zm288.952 167.76c-.323 2.243-.646 4.32-.96 6.24-.323 1.92-.803 3.683-1.44 5.28-2.242 7.042-6.24 12.646-12 16.8-1.604.961-3.285 1.846-5.04 2.641-1.763.803-3.765 1.521-6 2.16-4.161 1.604-8.481 2.399-12.959 2.399-5.122.646-9.442.479-12.96-.479-1.92-.638-3.765-1.2-5.52-1.681-1.763-.479-3.443-1.2-5.04-2.159-1.605-1.275-3.203-2.559-4.801-3.841-1.604-1.274-3.045-2.715-4.319-4.319-1.283-1.598-2.482-3.36-3.601-5.28-1.125-1.92-2.002-3.997-2.64-6.24-.96-2.235-1.68-4.56-2.16-6.96-.479-2.4-1.042-4.875-1.68-7.439-.322-2.559-.562-5.041-.72-7.44-.165-2.399-.083-4.875.239-7.44 0-5.115.48-10.395 1.44-15.84.96-5.438 2.399-10.56 4.32-15.359.314-2.559 1.274-5.115 2.88-7.681.314-.638.555-1.274.72-1.92.157-.638.397-1.274.72-1.92l1.44-3.84 7.2-15.84c2.557-5.438 5.114-10.636 7.68-15.601 2.558-4.957 5.115-10.154 7.68-15.6l12.96-25.92v4.8c.315 3.524.556 7.125.721 10.8.157 3.683.555 7.283 1.199 10.801.638 3.524 1.357 7.042 2.16 10.56.795 3.524 1.681 7.042 2.64 10.56 1.274 3.525 2.475 6.885 3.6 10.08 1.117 3.203 2.475 6.405 4.08 9.6.638 1.605 1.439 3.203 2.399 4.801l.961 2.4.479.959.48.48v.48l.96 1.92.96 1.92c.637 1.282 1.117 2.4 1.439 3.359 2.235 4.163 4.155 8.805 5.76 13.92 1.921 4.163 3.36 8.641 4.32 13.44.638 2.565 1.117 4.882 1.44 6.96.314 2.085.637 4.402.96 6.96.641 4.485.641 8.639.003 12.479zM902.085 211.906c11.52 0 21.435-4.08 29.76-12.24 8.317-8.16 12.48-18.157 12.48-30 0-11.835-4.163-21.84-12.48-30-8.325-8.16-18.24-12.24-29.76-12.24-11.842 0-21.839 4.08-30 12.24-8.16 8.16-12.24 18.165-12.24 30 0 11.843 4.08 21.84 12.24 30 8.161 8.16 18.158 12.24 30 12.24z"/><path fill="none" d="M0 47.268h2048v678.068h-2048z"/></g></svg>