<svg xmlns="http://www.w3.org/2000/svg" width="2048" height="620" viewBox="0 0 2048 620"><g><path fill="#F8963A" d="M1731.997 421.357c-1.806-7.216-5.857-13.518-11.718-18.225l-1.799-1.444-2.033-1.091c-5.285-2.838-10.774-4.275-16.313-4.275-9.932 0-19.148 4.715-25.393 12.962l-12.346 15.521c-.326-1.213-.669-2.418-1.027-3.612l-3.964-13.218-1.128-1.677-1.696-5.655-.781-3.122-.182-.358-.33-1.146c-.316-1.096-.552-2.193-.702-3.26l-.016-.11c-.317-2.199-.635-4.405-.944-6.611l-.015-.106c-.233-1.61-.41-3.26-.532-4.984-.03-.422-.013-.854.055-1.323l.254-1.77v-1.786c0-1.63.055-3.146.169-4.593.114-1.508.295-3.127.537-4.811l.17-1.51c.093-1.128.429-3.104 1.504-6.108l.49-1.371.328-1.419c.377-1.633.898-3.235 1.555-4.785l4.914-8.604c8.333-14.588 10.517-30.775 6.311-46.834-4.21-16.018-13.923-28.943-28.095-37.391-10.009-6.052-20.681-9.121-31.721-9.121-5.164 0-10.406.688-15.594 2.047-1.998.525-3.949 1.138-5.848 1.836v-3.877l-2.411 4.822c-11.295 4.7-20.653 12.55-27.479 23.091l-1.738 1.737-4.933 9.875v.789c-.656 1.347-1.214 2.726-1.671 4.133l-.315.474-1.147 3.444c-.891 1.448-1.692 3.009-2.404 4.678-2.359 4.993-4.726 9.793-7.033 14.266-2.623 5.077-5.328 10.249-8.042 15.374l-.261.506c-2.41 4.814-4.931 9.627-7.485 14.291-2.786 5.08-5.551 10.058-8.219 14.796l-17.247 30.183-8.27 14.701-1.127 1.126-2.393 4.786c-.581 1.188-1.144 2.452-1.674 3.759l-.171.411c-.273.551-.589 1.11-.938 1.664l-.09.143c-1.536 2.479-2.912 5.211-4.089 8.12l-.059.146c-.699 1.762-1.316 3.343-1.854 4.775-.415 1.107-.895 2.353-1.452 3.732l-.052.13c-.669 1.684-1.25 3.358-1.741 5.021l-.159.226-.737 1.031-.63 1.101c-2.366 4.139-4.884 8.285-7.495 12.344-2.461 3.833-5.119 7.61-7.901 11.229l-.526.711c-2.796 3.914-5.646 7.62-8.457 10.999-2.712 3.253-5.591 6.406-8.561 9.376-.765.765-1.615 1.496-2.595 2.231-2.147 1.61-4.348 3.349-6.543 5.17l-.435.338c-.186-2.228-.432-4.598-.74-7.111-.259-2.056-.453-4.057-.582-6.031-.122-1.773-.182-3.646-.182-5.724v-14.88c0-5.355.074-10.186.228-14.809.142-4.465.358-9.228.645-14.169.325-2.763.579-5.556.761-8.368.123-2.01.315-4.062.578-6.153.444-3.596.669-7.29.669-10.981 0-1.45.071-2.851.211-4.171.287-1.616.49-3.171.612-4.688l3.646-6.484.583-1.101c1.533-3.074 2.99-6.279 4.346-9.561.584-1.418 1.308-2.82 2.151-4.168l.637-1.017.536-1.073c2.676-5.353 5.271-10.713 7.709-15.916 2.4-5.116 4.811-10.091 7.162-14.786l.282-.583c9.706-20.704 19.055-41.86 27.786-62.884 8.735-20.703 17.103-41.868 24.87-62.91l5.756-15.829 5.725-15.265.159-.439c1.841-5.212 3.72-10.605 5.596-16.055 1.796-5.236 3.537-10.696 5.181-16.24l2.278-6.454c1.243-2.836 2.119-5.773 2.616-8.769l.437-1.085.418-1.681c.438-1.753 1.015-3.653 1.711-5.627 1.269-3.588 2.354-7.378 3.239-11.329.728-3.288 1.364-6.473 1.888-9.448.474-2.675.988-5.399 1.53-8.099.81-3.703 1.426-7.533 1.84-11.445.444-4.294.485-8.86.121-13.584-.12-6.036-1.173-11.956-3.134-17.623-1.349-4.38-3.307-8.519-5.826-12.314l-.082-.122c-.743-1.106-1.571-2.3-2.487-3.596l-.117-.165c-1.601-2.227-3.371-4.315-5.264-6.208l-1.265-1.264-1.432-1.072c-4.19-3.137-8.219-5.518-12.313-7.277l-.621-.257c-4.009-1.596-7.636-2.652-11.083-3.211-2.337-.634-4.781-.961-7.283-.961h-8.4c-2.744 0-5.573.315-8.426.938-5.913 1.012-11.531 2.835-16.742 5.432-2.874 1.095-5.587 2.407-8.062 3.895-1.621.969-3.234 1.938-4.807 2.883-2.358 1.412-4.554 2.88-6.458 4.314-1.493 1.117-2.979 2.351-4.438 3.687-2.262 1.564-4.334 3.284-6.185 5.135l-3.602 3.601c-10.501 10.502-19.389 21.603-26.42 32.998-6.937 10.446-13.256 21.853-18.788 33.917-1.643 3.325-3.109 6.806-4.369 10.369-.603 1.709-1.327 3.416-2.146 5.056-1.43 2.86-2.724 5.874-3.861 8.99.495-1.594.879-3.211 1.15-4.847l.437-1.085.418-1.681c.438-1.753 1.015-3.653 1.711-5.629 1.27-3.589 2.354-7.379 3.239-11.327.728-3.288 1.364-6.473 1.888-9.448.474-2.675.987-5.397 1.529-8.097.811-3.705 1.427-7.537 1.841-11.447.444-4.294.485-8.86.121-13.584-.12-6.036-1.173-11.956-3.134-17.623-1.349-4.38-3.307-8.519-5.826-12.314l-.082-.122c-.743-1.106-1.571-2.3-2.487-3.596l-.117-.165c-1.601-2.227-3.371-4.315-5.264-6.208l-1.265-1.264-1.432-1.072c-4.19-3.137-8.219-5.518-12.313-7.277l-.623-.258c-4.009-1.595-7.636-2.65-11.082-3.21-2.336-.634-4.781-.962-7.283-.962h-8.4c-2.745 0-5.574.315-8.429.938-5.911 1.013-11.528 2.835-16.738 5.431-2.874 1.095-5.587 2.406-8.062 3.895-1.621.969-3.234 1.938-4.807 2.883-2.358 1.412-4.554 2.88-6.458 4.314-1.493 1.117-2.979 2.351-4.438 3.687-2.262 1.564-4.334 3.284-6.185 5.135l-3.601 3.6c-10.502 10.502-19.389 21.601-26.421 32.997-6.937 10.446-13.255 21.853-18.786 33.915-1.644 3.327-3.111 6.809-4.371 10.373-.603 1.709-1.327 3.416-2.146 5.056l-.365.766c-2.9-4.823-6.452-9.326-10.647-13.442-12.938-12.683-29.28-19.386-47.259-19.386-18.395 0-34.881 6.765-47.678 19.562s-19.562 29.284-19.562 47.678c0 18.395 6.765 34.881 19.561 47.677 12.797 12.798 29.284 19.563 47.679 19.563 9.233 0 18.029-1.781 26.161-5.22-1.956 7.729-3.789 15.442-5.469 23.113-4.921 22.477-9.068 45.455-12.327 68.295l-.073.555c-.955 7.96-1.909 15.757-2.864 23.396-.94 7.522-1.74 15.241-2.38 22.971-1.106 5.496-1.505 10.841-1.187 15.933-.017.507-.05 1.006-.097 1.48-.193 1.884-.312 3.82-.354 5.777-.33 3.107-.497 6.376-.497 9.739 0 1.914-.111 3.912-.332 5.937l-.146 1.348v8.614c-1.467 1.761-2.801 3.584-3.986 5.448-.104.162-.308.436-.688.815l-1.387 1.387-1.153 1.585c-2.366 3.254-5.622 7.492-9.687 12.608-4.387 5.529-7.834 10.011-10.514 13.671-2.335 2.835-4.688 5.506-7.026 7.97-2.927 3.095-5.894 6.308-8.822 9.552-3.441 3.62-6.854 7.102-10.203 10.409.516-2.236 1.139-4.454 1.862-6.618l.379-1.134.269-1.165c.944-4.086 1.889-8.1 2.831-12.029.755-3.145 1.63-6.234 2.603-9.194 1.767-4.645 3.312-9.312 4.604-13.909.845-3.021 1.878-5.999 3.071-8.854l.268-.666c1.763-4.585 3.376-9.157 4.804-13.619 1.05-3.292 2.25-6.561 3.568-9.716l.267-.665c1.689-4.394 3.288-8.684 4.749-12.745 1.322-3.674 2.703-7.236 4.104-10.589l.268-.666c1.409-3.667 2.899-7.217 4.442-10.581 1.965-4.3 3.858-8.808 5.628-13.398l.399-1.112c.438-1.321.943-2.667 1.534-4.081.247-.597.515-1.212.801-1.84l9.02-20.69c4.668-13.913 3.893-28.238-2.302-41.669-6.469-14.01-17.523-24.532-31.991-30.436-14.795-6.022-30.471-5.864-45.062.463-14.164 6.149-24.812 16.904-30.846 31.136-1.117 2.357-1.954 4.663-2.529 6.974l-2.803 7.286-13.343 39.949-.32 1.036c-1.2 4.196-2.445 8.4-3.694 12.471-1.358 4.41-2.702 8.942-3.985 13.448-1.352 4.73-2.62 9.378-3.755 13.771-1.114 4.275-2.188 8.796-3.197 13.448-1.342 4.768-2.542 9.695-3.573 14.671-.526 2.545-1.052 5.063-1.578 7.558l-.763.98c-1.006 1.256-1.938 2.375-2.756 3.308-.788.898-1.789 1.954-2.974 3.139l-.99 1.049c-2.819 3.165-6.297 7.318-10.629 12.691-2.289 2.837-4.06 4.925-5.414 6.454 2.395-5.442 4.796-10.932 7.165-16.379 1.761-3.888 3.439-7.867 4.985-11.819 1.299-3.317 2.657-6.535 4.035-9.562l.328-.753c1.819-4.371 3.484-8.813 4.965-13.247 1.343-4.046 2.663-8.168 3.924-12.255.652-1.968 1.305-4.013 2.008-6.284.68-2.215 1.36-4.518 2.061-6.957.941-3.299 1.663-6.67 2.156-10.092.19-1.351.503-2.896.93-4.594l.377-1.502.189-1.537c.376-3.052.667-6.236.866-9.525.187-3.225.282-6.701.282-10.33v-5.041c0-2.996-.259-6.132-.77-9.322-.852-5.795-2.289-11.477-4.279-16.91-.724-2.448-1.678-4.87-2.847-7.22l-.075-.149c-.465-.919-.925-1.842-1.394-2.783-1.875-4.503-4.621-9.014-8.356-13.734-2.869-3.772-6.373-7.508-10.7-11.409l-.314-.278c-3.936-3.43-8.5-6.572-13.566-9.337l-1.338-.73-1.417-.562c-1.56-.619-3.111-1.238-4.663-1.865l-.134-.054c-2.283-.907-4.608-1.653-6.936-2.229-2.937-1.003-5.889-1.679-8.804-2.013l-.132-.015c-.69-.075-1.474-.201-2.329-.374l-.133-.026c-3.295-.646-7.112-.947-12.011-.947h-7.341l-1.521.761c-3.887.414-7.567 1.003-11 1.764-2.859.64-5.719 1.273-8.578 1.906l-1.27.281-1.234.411c-2.456.818-4.861 1.713-7.209 2.681l.085-.255c.642-1.461 1.27-2.806 1.871-4.008 1.182-2.364 2.36-4.915 3.501-7.581l.172-.413c3.726-9.152 7.13-17.624 10.406-25.893 3.345-8.437 6.723-17.253 10.041-26.206l.321-.922c5.531-16.923 10.974-35.063 16.176-53.917l.423-1.535.507-3.548.62-1.859 1.929-9.644.114-.929c.279-2.267.58-4.52.903-6.767.331-2.35.67-4.872 1.009-7.568l1.635-16.275v-5.086c0-2.167-.179-4.351-.533-6.526-.065-1.623-.19-3.191-.374-4.686l-.019-.149c-.236-1.828-.557-3.769-.982-5.934l-.027-.133c-1.153-5.711-3.172-11.194-6.002-16.297l-.518-.934-.596-.887c-1.014-1.508-2.055-2.937-3.095-4.246l-.161-.2c-.007-.009-.172-.213-.512-.724l-2.183-3.286-3.089-2.454c-1.942-1.543-4.143-3.195-6.727-5.051l-2.226-1.599-2.52-1.078c-2.8-1.199-5.531-2.247-8.117-3.115l-3.874-1.302h-1.97c-.797-.143-1.604-.253-2.418-.333l-1.881-.627h-4.057c-5.821 0-11.389.725-16.572 2.157-2.015.435-4.018.951-5.951 1.531-2.269.679-4.59 1.49-6.9 2.411l-.978.391-.942.471c-3.376 1.688-6.922 3.76-10.546 6.16-3.427 2.163-6.629 4.497-9.529 6.946-2.097 1.773-4.269 3.621-6.515 5.549-2.698 2.268-5.214 4.744-7.494 7.375l-2.175 2.175c-2.01 2.011-3.785 4.248-5.301 6.678l-2.875 3.453-.522.627c-1.963 2.348-3.969 4.953-6.013 7.815-6.016 8.484-11.58 17.778-16.544 27.634-1.48 2.625-2.824 5.241-4.011 7.81-1.043 2.266-2.101 4.644-3.142 7.068l-.444 1.106c-.784 2.096-1.566 4.087-2.295 5.849-.684 1.637-1.41 3.459-2.207 5.54-1.021-5.514-2.37-10.797-4.039-15.807l-.294-.883-.359-.858c-1.883-4.505-3.961-8.945-6.189-13.218-2.468-4.723-5.375-9.4-8.667-13.938-6.43-8.831-13.65-16.441-21.461-22.621-4.035-3.219-8.163-6.103-12.292-8.584-3.897-2.336-8.061-4.523-12.379-6.501-8.033-3.805-16.522-6.892-25.236-9.174-4.463-1.21-8.912-2.136-13.226-2.752-3.15-.45-6.294-.961-9.407-1.532-4.575-.827-9.231-1.355-13.89-1.574-3.113-.139-6.274-.355-9.396-.641l-1.11-.077c-7.271-.34-14.638-.349-21.92-.026-7.786.026-15.518.566-23.005 1.608-7.497.742-15.044 1.92-22.442 3.505-7.181 1.539-14.462 3.357-21.644 5.405-3.662.999-7.212 2.014-10.539 3.013-3.848 1.154-7.779 2.528-11.684 4.086l-1.096.468c-3.312 1.508-6.393 2.861-9.183 4.033-3.385 1.425-6.874 3.029-10.379 4.771-6.968 3.152-13.871 6.702-20.533 10.559-6.761 3.918-13.439 8.25-19.867 12.888-6.27 4.531-12.452 9.388-18.378 14.439-5.906 5.036-11.563 10.253-16.816 15.506-10.344 10.344-20.282 22.156-29.548 35.118-4.835 5.922-9.403 12.187-13.592 18.642-4.068 6.277-8.004 12.693-11.692 19.063-3.74 6.454-7.341 13.056-10.692 19.601-3.312 6.454-6.528 13.135-9.562 19.863-3.363 7.073-6.292 13.954-8.712 20.467-3.022 7.115-5.609 14.337-7.701 21.495-2.765 7.368-5.059 14.859-6.819 22.262-1.566 6.559-3.157 13.4-4.863 20.912l-.135.633c-3.05 15.253-5.28 30.605-6.625 45.621-1.408 15.64-1.41 31.739-.007 47.837.66 7.623 1.507 15.415 2.517 23.155 1.089 8.359 2.745 16.825 4.918 25.153 2.123 8.145 4.715 16.372 7.694 24.422 3.111 8.44 6.931 16.828 11.343 24.912 2.372 4.354 4.973 8.555 7.692 12.427 2.444 3.503 5.077 7.024 7.831 10.475 3.056 4.172 6.291 8.069 9.599 11.568 3.197 3.392 6.686 6.64 10.387 9.67 3.426 3.342 7.057 6.454 10.788 9.248 3.676 2.762 7.605 5.477 11.687 8.072 4.588 2.917 9.374 5.467 14.242 7.588 3.708 1.612 7.112 3.125 10.405 4.625l.761.332c4.556 1.895 9.124 3.546 13.609 4.916 4.094 1.244 8.297 2.407 12.495 3.455l.973.243.989.164c7.962 1.322 15.884 2.345 23.562 3.042 4.85.754 9.68 1.136 14.373 1.136 3.995 0 8.016-.164 11.968-.488 2.413-.036 4.545-.189 6.497-.471h5.391l2.447-.493c.438-.089 1.208-.215 2.465-.318 2.31-.197 4.54-.483 6.648-.853 7.058-.71 14.272-1.743 21.489-3.08 7.296-1.362 14.45-2.913 21.265-4.61 7.255-1.736 14.5-3.745 21.568-5.982 7.066-2.249 14.102-4.765 20.916-7.481 21.622-8.19 41.783-18.714 60.174-31.396l-.133 1.064-.153.455-.258 2.977c-1.129 13.033 2.171 25.627 9.563 36.448 7.705 11.244 18.878 18.765 32.326 21.759 4.273 1.007 8.579 1.517 12.801 1.517 10.046 0 19.596-2.796 28.395-8.316 12.397-7.788 20.769-19.479 24.21-33.813l.691-2.878v-.764l4.151-16.188 2.843-6.634c1.584-3.484 3.052-6.64 4.504-9.679 1.653-3.477 3.327-7.075 4.985-10.717 2.959-6.518 6.102-12.879 9.346-18.917 3.292-6.137 6.809-12.328 10.436-18.378.971-1.615 1.94-3.229 2.883-4.807l8.648-14.414.423-.732c1.094-1.972 2.64-4.334 4.595-7.021l.647-.89.566-.942c.765-1.272 1.523-2.475 2.255-3.573.548-.822 1.249-1.769 2.084-2.813l.537-.671.489-.707c4.962-7.167 10.133-14.041 15.456-20.547-1.596 5.977-3.345 12.103-5.212 18.25l-3.213 12.723c-1.058 4.233-1.956 8.496-2.673 12.686-.856 3.695-1.732 7.337-2.607 10.835-1.146 4.586-2.108 9.388-2.857 14.271l-.035.235c-.313 2.177-.626 4.273-.921 6.217-.338 2.191-.678 4.461-1 6.743-.406 2.826-.713 5.691-.907 8.446-.206 2.81-.306 5.763-.306 9.029v7.44c0 3.343.213 6.944.635 10.704l.183 1.311c.763 4.599 1.529 8.399 2.328 11.568 1.466 5.866 3.694 11.564 6.62 16.936l.521.957.603.908c.653.984 1.306 1.966 1.967 2.95.865 1.3 1.903 2.755 3.171 4.449l.796 1.008c2.534 3.045 5.381 5.895 8.464 8.472l1.055.881 1.145.761c.749.497 1.555 1.061 2.464 1.709 2.141 1.522 4.447 2.908 6.918 4.152 2.331 1.164 4.481 2.071 6.575 2.774l.15.05c1.304.429 2.716.843 4.207 1.233 6.103 1.923 11.627 3.285 18.958 2.896s25.252-2.445 37.042-9.81l1.325-.709c1.99-1.143 3.958-2.236 5.849-3.25l.089-.048c3.287-1.78 6.454-3.899 9.427-6.306 4.166-3.076 8.185-6.445 11.995-10.06 3.581-3.412 6.706-6.455 9.553-9.304l.46-.473c4.244-4.476 8.297-9.084 12.109-13.769l.375 1c1.404 4.381 3.344 8.737 5.782 12.981 2.355 4.829 5.728 9.64 10.269 14.653 3.929 4.402 8.743 8.521 14.368 12.278 3.909 2.596 8.096 4.594 12.494 5.953 1.908.586 3.598 1.125 5.156 1.646 6.157 2.186 12.782 3.294 19.698 3.294 2.71 0 5.18-.158 7.464-.479h4.278l1.439-.48 2.62-.556c6.127-1.313 11.221-2.944 15.533-4.976 2.593-1.095 5.037-2.351 7.279-3.74l.149-.094c.548-.346 1.104-.659 1.65-.931l1.024-.51.974-.601c5.212-3.218 10.585-7.182 15.971-11.784 2.472-2.072 4.926-4.323 7.294-6.691l1.932-1.934c1.168-1.17 2.268-2.271 3.305-3.303l.081-.082c2.435-2.444 4.738-5.109 6.843-7.917 1.218-1.624 2.477-3.214 3.74-4.725l.167-.201c3.111-3.802 6.193-7.764 9.159-11.778 1.452-1.964 2.904-3.979 4.35-6.038l.067.17c.759 1.909 1.534 3.751 2.306 5.478.485 1.097.998 2.315 1.565 3.722.886 2.222 1.894 4.462 2.997 6.662 1.063 2.142 2.233 4.27 3.575 6.504.777 1.293 1.57 2.681 2.381 4.169 1.655 3.024 3.593 5.932 5.752 8.634 1.841 2.306 3.92 4.62 6.18 6.88l5.607 5.608.885.735c2.837 2.359 5.827 4.51 8.903 6.401 3.455 2.121 7.248 3.962 11.258 5.463 7.91 2.969 16.033 4.474 24.144 4.474h10.319l1.844-.618c1.758-.16 3.508-.46 5.24-.896 5.186-.897 10.012-2.207 14.372-3.898 8.072-2.874 16.168-6.928 24.069-12.054l.259-.17c3.718-2.478 7.222-5.136 10.459-7.937 1.968-1.711 3.986-3.47 6.062-5.28l2.061-1.796.618-.621c2.493-2.5 4.878-4.974 7.09-7.354 2.781-2.993 5.319-6.232 7.56-9.647.41-.52.817-1.04 1.222-1.562.452.994.927 1.985 1.42 2.968 1.062 2.139 2.231 4.265 3.573 6.5.777 1.293 1.57 2.681 2.381 4.169 1.654 3.022 3.592 5.93 5.752 8.634 1.837 2.301 3.914 4.613 6.179 6.88l5.607 5.608.885.735c2.837 2.359 5.827 4.51 8.903 6.401 3.455 2.121 7.248 3.962 11.258 5.463 7.91 2.969 16.033 4.474 24.145 4.474h10.32l1.844-.618c1.758-.161 3.508-.46 5.239-.896 5.186-.897 10.012-2.207 14.371-3.898 8.072-2.873 16.167-6.928 24.069-12.054l.259-.17c3.718-2.478 7.222-5.136 10.459-7.937 1.968-1.711 3.986-3.47 6.062-5.28l2.061-1.796.618-.621c.609-.61 1.213-1.22 1.808-1.827l.176.204c2.075 2.556 4.277 4.858 6.552 6.853 1.548 1.356 3.295 2.813 5.172 4.314 4.062 3.252 8.227 6.162 12.376 8.649l.724.418c4.291 2.38 9.117 4.4 14.739 6.168 9.189 3.274 18.731 5.152 28.369 5.583 7.788.379 16.437.007 25.756-1.11l1.528-.231c4.446-.814 9.008-1.929 13.612-3.327 4.693-1.437 9.336-3.189 13.798-5.211l.849-.385.817-.446c4.118-2.249 8.218-4.728 12.218-7.389 4.687-3.129 9.269-6.916 13.638-11.275 6.893-6.893 12.531-14.345 16.792-22.186l71.468-89.338c6.126-7.666 8.282-17.483 5.919-26.942zm-1023.677-205.277c4.728-4.137 9.145-8.646 13.132-13.405 8.157-9.425 14.585-20.035 19.11-31.539l.281-.748c.741-2.076 1.391-4.167 1.949-6.27-.234 1.579-.533 3.156-.894 4.72l-.25 1.22c-1.178 6.578-3.006 12.374-5.433 17.228l-.353.705-.307.726c-2.751 6.497-5.813 12.053-9.103 16.515l-.354.493c-3.69 5.269-7.921 10.37-12.563 15.149-4.813 4.948-9.893 9.543-15.024 13.597-10.216 8.01-21.587 14.885-33.812 20.441-3.048 1.388-6.02 2.632-8.876 3.716-3.62 1.382-7.337 2.93-11.059 4.605-.378.135-.927.308-1.69.499-2.533.633-4.972 1.387-7.267 2.245-.966.208-1.94.451-2.938.735l-3.949.658-2.59 1.037c-.193.017-.378.025-.554.025-.704 0-1.542-.112-2.894-.923-1.27-.762-1.764-1.323-2.183-3.142l-.29-1.134c-.443-1.581-.282-2.05.335-3.094.76-1.288 1.518-2.11 2.571-2.713l5.147-1.716 6.061-1.347 2.242-1.121c2.042-.543 4.145-1.245 6.39-2.13l16.827-6.119 1.276-.636c2.313-1.154 4.632-2.276 6.834-3.309 2.573-1.198 5.212-2.475 8.04-3.889 2.929-1.46 5.774-2.978 8.432-4.498 2.51-1.432 5.227-3.062 8.076-4.844l.262-.167c5.495-3.533 10.683-7.426 15.418-11.57zm-253.433 309.866c-2.484-1.082-4.965-2.407-7.369-3.936-2.984-1.898-5.837-3.867-8.507-5.873-2.228-1.669-4.392-3.55-6.433-5.591l-.986-.985-1.089-.87c-2.273-1.815-4.39-3.759-6.315-5.802-1.984-2.099-3.953-4.489-5.849-7.104l-.742-.972c-2.192-2.73-4.275-5.508-6.233-8.313-1.679-2.392-3.276-4.974-4.757-7.692-3.256-5.966-6.058-12.112-8.338-18.3-2.417-6.531-4.508-13.162-6.216-19.716-1.648-6.316-2.899-12.708-3.72-19.002-.917-7.03-1.685-14.097-2.284-21.016-1.149-13.184-1.151-26.314-.006-39.039 1.177-13.136 3.125-26.582 5.792-39.973 1.637-7.205 3.163-13.767 4.669-20.075 1.342-5.645 3.117-11.374 5.275-17.029l.385-1.008.296-1.038c1.622-5.678 3.688-11.458 6.141-17.18l.484-1.216c1.961-5.332 4.406-11.077 7.265-17.076l.229-.494c2.719-6.038 5.6-12.029 8.576-17.829 2.968-5.798 6.15-11.631 9.462-17.346 3.275-5.657 6.769-11.352 10.376-16.918 3.321-5.118 6.956-10.082 10.805-14.754l.566-.688.516-.726c1.31-1.843 2.634-3.656 3.971-5.438-1.201 1.975-2.394 3.97-3.574 5.977-6.924 11.433-13.085 23.412-18.315 35.614-5.024 11.729-9.609 23.617-13.628 35.335l-2.948 8.841c-1.124 3.372-2.088 6.915-2.872 10.552-.936 2.875-1.79 5.708-2.534 8.404-.873 3.13-1.671 6.309-2.377 9.457-1.724 6.589-3.136 13.162-4.2 19.546-.957 5.738-1.932 11.75-2.898 17.869-1.061 6.383-1.868 12.941-2.4 19.502-.509 6.289-.911 12.135-1.227 17.856-1.029 12.913-1.028 25.845.003 38.448.715 12.62 2.332 24.929 4.807 36.586l.114.511c1.33 5.678 2.795 11.367 4.354 16.903 1.659 5.9 3.626 11.715 5.849 17.283 4.541 11.697 10.318 22.479 17.178 32.052 5.935 8.669 13.333 16.627 22.047 23.722-1.094-.478-2.207-.965-3.343-1.459zm268.229-151.654c-3.36 15.265-6.639 30.911-9.764 46.585-.867 1.167-1.765 2.317-2.698 3.454-1.503 1.84-2.928 3.593-4.249 5.249-1.956 2.448-3.31 4.356-4.363 6.178-.846 1.3-1.827 2.596-2.896 3.831-2.04 2.348-4.153 4.776-6.338 7.277-6.823 7.628-14.879 14.987-23.952 21.878-9.051 6.487-18.635 12.272-28.498 17.201-9.804 4.901-20.169 8.948-30.816 12.028-10.673 3.093-21.466 5.227-32.079 6.343-5.725.574-11.38.938-16.843 1.078-5.007.14-10.214-.066-15.535-.603l-1.25-.126h-5.498l-2.382-.48h-2.418l-2.4-.48h-1.093c-.734-.12-1.456-.218-2.169-.293-2.718-.574-5.423-1.086-8.062-1.525-1.924-.321-3.707-.676-5.313-1.056-2.223-.75-4.353-1.507-6.35-2.256-1.738-.651-3.501-1.424-5.24-2.296l-1.2-.602-1.257-.47c-1.292-.483-2.472-1.029-3.506-1.623l-.087-.05c-1.439-.819-2.903-1.758-4.353-2.792-6.269-4.663-11.372-9.86-15.169-15.448l-.394-.562c-4.487-6.229-8.312-13.392-11.369-21.29l-.103-.262c-1.585-3.962-2.993-8.121-4.187-12.368-1.337-4.752-2.596-9.63-3.742-14.505-1.937-9.19-3.202-18.967-3.76-29.064l-.048-.694c-.842-10.105-.841-20.517.004-30.943l.045-.654c.294-5.383.672-10.9 1.156-16.864.421-5.202 1.062-10.394 1.901-15.431l.034-.21c.95-6.015 1.907-11.92 2.846-17.55.837-5.02 1.965-10.232 3.353-15.492l.236-.974c.539-2.434 1.156-4.901 1.851-7.394.652-2.364 1.412-4.848 2.257-7.385l.494-1.481.306-1.531c.431-2.16.97-4.214 1.601-6.108l2.845-8.536c3.61-10.518 7.734-21.205 12.256-31.762 4.332-10.107 9.445-20.04 15.196-29.524l.178-.298c2.967-5.049 6.014-10 9.061-14.725 2.917-4.524 6.017-9.028 9.216-13.385l.238-.33c6.418-9.046 13.526-17.936 21.127-26.424 3.732-4.016 7.63-7.985 11.573-11.784 3.878-3.73 8-7.497 12.26-11.204 3.694-2.876 7.856-5.82 12.382-8.757 2.249-1.402 4.671-2.869 7.184-4.351 2.194-1.291 4.529-2.628 7.116-4.076 8.808-4.067 18.426-7.19 28.604-9.289 2.414-.479 4.782-.844 6.981-1.077 2.816-.292 5.704-.59 8.663-.889 4.827-.231 9.839-.23 14.947.001 4.53.493 8.847 1.358 12.816 2.567 3.746 1.146 7.498 2.8 11.155 4.917 2.043 1.29 3.939 2.558 5.578 3.724 1.147.824 2.377 1.888 3.607 3.113 2.358 2.363 4.707 5.289 6.98 8.697l.434.629c1.465 2.058 2.423 3.976 2.928 5.866l.25.871c.85 2.775 1.517 6.048 1.98 9.726l.052.389c.307 2.158.307 4.251.001 6.401l-.123.862-.062.869c-.153 2.124-.6 4.246-1.366 6.476-2.486 6.195-5.866 11.706-10.323 16.833l-.333.391c-2.36 2.83-4.993 5.521-7.825 8-2.861 2.503-6.03 4.882-9.423 7.071-2.22 1.387-4.299 2.634-6.202 3.72-1.861 1.063-3.861 2.13-5.974 3.183-2.402 1.201-4.694 2.31-6.868 3.323-2.201 1.031-4.444 2.112-6.688 3.22l-14.524 5.281-.779.298c-.669.269-1.004.368-.999.368h.001l-.1.024c-1.874.472-3.735 1.079-5.565 1.813l-3.178.707-1.694.565h-.486l-3.855 1.288c-13.337 4.454-24.184 13.237-31.362 25.392-7.541 12.758-9.467 27.084-5.585 41.467 3.533 14.673 12.183 26.493 25.044 34.21 8.901 5.341 18.53 8.048 28.619 8.048 4.331 0 8.751-.514 13.141-1.525l1.879-.434 1.679-.672 2.09-.348 1.905-.624c1.737-.362 3.538-.855 5.359-1.468l1.288-.474c.39-.155 1.068-.395 2.083-.647 3.078-.77 5.872-1.665 8.54-2.737l1.018-.436c3.018-1.371 6.01-2.624 8.851-3.708 3.813-1.447 7.786-3.109 11.792-4.934 15.828-7.193 30.618-16.145 44.035-26.664 6.906-5.457 13.616-11.521 19.953-18.037 1.428-1.47 2.828-2.962 4.2-4.476-1.486 5.553-2.938 11.089-4.351 16.592-4.411 17.157-8.941 35.037-13.466 53.142-4.489 17.621-8.747 35.554-12.657 53.311zm125.88-247.2l-4.508 12.506-1.684 5.378-2.196 4.391-.78 4.683c-.476 1.461-.961 2.996-1.462 4.628-.592 1.914-1.176 3.744-1.762 5.506l-.301.971c-.94 3.268-1.657 6.513-2.12 9.571-.108.701-.259 1.335-.459 1.94l-.31 1.003c-1.381 4.828-2.62 9.608-3.684 14.216-.973 4.218-1.962 8.667-2.94 13.227l-2.769 12.461-3.479 13.417-.164.894c-.561 3.064-1.199 6.114-1.885 9.015-.904 3.786-1.726 7.712-2.442 11.668l-14.26 78.712 11.895-11.902-.195.387c-1.944 3.887-3.941 7.965-5.943 12.133-1.867 3.895-3.751 7.896-5.607 11.904-2.549 4.81-4.646 9.57-6.247 14.179l-1.471 3.433-.727 2.18-1.44 2.88-1.887 5.662-.263 1.124c-2.278 9.756-4.435 19.71-6.409 29.583-1.83 9.151-3.874 18.584-6.074 28.033l21.563 7.16-2.352 3.919c-.95 1.588-1.899 3.169-2.865 4.775-4.049 6.754-7.961 13.643-11.622 20.464-3.762 7.003-7.402 14.369-10.81 21.872-1.534 3.371-3.091 6.717-4.605 9.902-1.605 3.36-3.243 6.88-5.004 10.759l-6.558 15.286v2.938l-4.8 18.721v.082c-.349.54-.811.91-1.487 1.335-1.056.663-1.527.663-1.809.663-.374 0-.853-.067-1.383-.195l-.514-.117c-1.345-.294-1.545-.585-1.963-1.195-.663-.971-.977-1.762-1.04-2.753.302-1.688.488-3.45.561-5.304l1.056-7.688c.795-3.414 1.315-6.692 1.542-9.7.025-.324.129-1.256.539-2.903l.307-1.235 2.039-14.268 2.115-11.846c.754-2.797 1.343-5.573 1.752-8.272.294-1.894.587-3.852.875-5.874l22.098-103.122-.965 1.15c3.191-14.081 6.592-28.218 10.143-42.151l.028-.112c4.502-18.018 9.01-35.808 13.4-52.883 4.352-16.946 9.08-34.212 14.054-51.327l4.168-12.504.325-1.052c.618-2.167 1.194-4.112 1.778-6.002.608-1.981 1.216-4.034 1.831-6.157 1.634-4.619 3.139-9.24 4.487-13.78 1.125-3.812 2.431-7.8 3.881-11.853l.277-.775.226-.792c.487-1.708 1.044-3.442 1.673-5.2.78-2.195 1.511-4.424 2.178-6.647.838-1.991 1.646-3.993 2.416-5.994.815-2.129 1.721-4.504 2.696-7.108.875-2.331 1.65-4.307 2.333-5.944.904-2.185 1.824-4.516 2.736-6.937.799-1.848 1.602-3.65 2.379-5.338.664-1.437 1.46-2.971 2.369-4.558l.658-1.229c.918-1.837 1.861-3.646 2.826-5.422-.599 1.78-1.254 3.594-1.959 5.428zm124.092 204.814c0 2.666-.066 5.166-.194 7.367-.104 1.719-.246 3.404-.422 5.027-.658 2.809-1.173 5.521-1.529 8.044-.162 1.127-.41 2.277-.722 3.372-.602 2.094-1.196 4.111-1.776 6-.592 1.914-1.177 3.745-1.762 5.507l-.167.521c-1.179 3.828-2.416 7.692-3.66 11.439-1.049 3.141-2.241 6.329-3.544 9.484-1.685 3.721-3.333 7.634-4.907 11.653-1.254 3.207-2.613 6.427-4.039 9.567l-.164.367c-3.183 7.32-6.284 14.394-9.297 21.217-2.98 6.738-6.006 13.691-8.995 20.664l-8.535 19.914c-1.848 4.077-3.463 8.086-4.792 11.887-1.013 2.882-2.101 5.783-3.209 8.563-.904 2.249-1.721 4.579-2.437 6.962-.256.854-.575 1.762-.948 2.697l-.843 2.113-.448 2.231c-.286 1.426-.573 2.773-.853 4.056-.209.932-.418 1.828-.624 2.682-1.288 4.107-1.892 7.675-1.892 11.143v9.987l-.198-.74c-.432-1.712-.896-4.028-1.383-6.895-.171-1.671-.257-3.187-.257-4.513v-7.44c0-2.005.058-3.812.177-5.439.115-1.629.293-3.286.538-4.99.299-2.121.605-4.172.922-6.224.318-2.097.644-4.276.969-6.536.514-3.327 1.162-6.564 1.927-9.627 1.005-4.021 2.01-8.207 2.987-12.443l.303-1.528c.519-3.129 1.188-6.341 1.99-9.548l2.729-10.919c2.29-7.566 4.418-15.112 6.327-22.434l5.726-21.948 6.011-22.038.193-1.067c.556-3.067 1.187-6.085 1.888-9.021.749-3.163 1.443-6.296 2.069-9.331 1.172-3.9 1.723-7.299 1.723-10.586v-40.468l-36.006 18.021c-2.417.924-5.062 1.99-8.062 3.25-4.168 1.756-8.257 3.929-12.169 6.465-1.739.983-3.474 2.012-5.192 3.076.771-1.172 1.573-2.332 2.404-3.474l.437-.62c4.118-6.035 9.198-12.373 15.137-18.883 2.29-2.521 4.949-4.998 7.9-7.357 2.782-2.224 5.936-4.283 9.374-6.119l1.083-.614c2.91-1.747 6.186-3.268 9.751-4.531 2.441-.54 4.876-1.081 7.269-1.616 1.574-.349 3.393-.633 5.419-.849h7.077l.369-.185c1.317.239 2.616.44 3.885.603l1.418.564 2.202.444c.042.008.195.043.474.152 1.08.436 2.16.869 3.243 1.3 1.319.783 2.453 1.577 3.382 2.369 2.5 2.271 3.735 3.754 4.253 4.444l.455.587c.952 1.192 1.391 1.904 1.535 2.154l.346.911.57 1.146c.553 1.113 1.106 2.225 1.664 3.334l.188.744.534 1.391c.919 2.396 1.578 4.941 1.956 7.566l.074.482c.136.826.15 1.306.15 1.473v5.043zm129.633 7.343c-1.352 3.479-2.783 6.875-4.246 10.077-1.917 4.18-3.773 8.59-5.521 13.113-1.674 4.023-3.313 8.26-4.878 12.605-1.306 3.63-2.735 7.469-4.25 11.413-1.818 4.381-3.474 8.904-4.915 13.426-1.099 3.432-2.353 6.99-3.729 10.584-1.917 4.631-3.578 9.44-4.931 14.277-.917 3.266-2.043 6.641-3.347 10.028l-.378 1.054c-1.492 4.47-2.823 9.127-3.958 13.851-.891 3.717-1.781 7.497-2.672 11.341-1.436 4.451-2.624 9.021-3.529 13.574-.855 4.27-1.633 8.502-2.303 12.534-.299 1.784-.549 3.585-.744 5.379v-5.611c.185-5.17.587-10.428 1.196-15.636l3.347-28.576.752-.847 1.38-6.437c.964-4.489 1.926-9.061 2.886-13.704.838-4.044 1.818-8.038 2.916-11.873l.231-.811.177-.824c.907-4.231 1.872-8.315 2.879-12.182 1.042-4.027 2.197-8.263 3.44-12.612 1.193-4.188 2.434-8.376 3.695-12.472 1.299-4.232 2.586-8.57 3.828-12.902l12.609-37.832 1.853-4.816c1.019-2.22 1.806-4.441 2.353-6.639l.212-.52c1.056-2.592 2.312-3.894 4.792-4.971 1.171-.508 2.191-.755 3.12-.755.933 0 1.976.24 3.167.725 2.799 1.143 4.28 2.522 5.463 5.085.504 1.09.778 1.994.686 3.099l-6.027 14.463c-1.091 2.222-2.087 4.419-2.942 6.486-.953 2.283-1.831 4.602-2.612 6.906zm68.417-157.436c-3.642 3.57-7.308 5.093-12.258 5.093-5.19 0-8.875-1.471-12.323-4.918-3.445-3.446-4.916-7.131-4.916-12.322s1.471-8.876 4.918-12.323c3.445-3.447 7.131-4.917 12.321-4.917 4.95 0 8.616 1.523 12.251 5.085 3.542 3.476 4.987 6.997 4.987 12.154 0 5.158-1.445 8.679-4.98 12.148zm83.189 22.361l-.12.442c-5.456 20.85-10.344 41.831-14.53 62.374-.728 2.649-1.424 5.653-2.12 9.144l-22.307 111.803 8.381-11.527-2.895 5.79-.665 2.64c-.773 3.071-1.188 6.22-1.233 9.366l-.011.057-.17.858-.108.868c-.447 3.562-.675 7.276-.675 11.036 0 1.651-.099 3.287-.285 4.804-.388 3.083-.68 6.199-.863 9.191-.133 2.062-.329 4.159-.585 6.233l-.143 1.574c-.335 5.659-.588 11.139-.75 16.248-.171 5.143-.254 10.518-.254 16.43v14.88c0 3.232.098 6.228.294 9.075.128 1.956.303 3.968.519 5.982-2.299-10.128-3.864-20.078-4.659-29.613l-.068-.706c-.139-1.235-.267-2.475-.389-3.718l-2.045-20.923.67-.921v-22.71c.317-3.334.479-6.66.479-9.907 0-1.844.096-3.538.284-5.033l.196-1.558v-1.569c0-.802.035-1.535.117-2.336.24-2.425.362-4.869.362-7.264v-1.143l-.104-1.139c-.035-.382-.063-1.501.425-3.619l.414-1.795.146-1.836c.602-7.544 1.371-15.083 2.286-22.408.954-7.629 1.908-15.415 2.861-23.361 3.08-21.538 6.994-43.202 11.633-64.391 4.62-21.092 10.393-42.542 17.156-63.752l.168-.548c1.437-4.886 3.048-9.793 4.79-14.585 1.798-4.944 3.77-10.024 5.86-15.099l.291-.74c1.058-2.818 2.131-5.858 3.19-9.037.584-1.75 1.258-3.396 2.014-4.908 1.744-3.497 3.28-7.118 4.56-10.745.619-1.752 1.342-3.458 2.148-5.069l.383-.8c4.301-9.419 9.16-18.287 14.456-26.382l-.482 1.737c-.327 1.299-.706 2.455-1.14 3.463-1.102 2.574-2.212 5.35-3.302 8.25l-5.347 14.581-.086.238c-3.663 10.312-7.055 20.91-10.08 31.5-2.888 10.114-5.777 20.308-8.667 30.578zm86.523 50.625c-4.922 22.48-9.069 45.458-12.327 68.295l-.073.554c-.955 7.96-1.91 15.758-2.864 23.397-.94 7.523-1.74 15.243-2.38 22.971-1.106 5.496-1.505 10.841-1.187 15.933-.017.507-.05 1.006-.097 1.48-.193 1.885-.312 3.822-.354 5.778-.33 3.107-.497 6.376-.497 9.738 0 1.916-.111 3.91-.332 5.927l-.147 1.354v11.402l-.689 1.277c-.831 1.65-1.612 3.323-2.349 5.038-.163.384-.36.817-.589 1.296-1.712 2.798-3.232 5.523-4.519 8.096-.551 1.098-1.247 2.238-2.071 3.391l-.736 1.03-.629 1.099c-2.364 4.136-4.882 8.282-7.495 12.343-2.462 3.835-5.12 7.613-7.901 11.229l-.529.714c-2.791 3.91-5.64 7.615-8.453 10.996-2.712 3.253-5.591 6.406-8.561 9.376-.765.765-1.615 1.496-2.595 2.231-2.147 1.61-4.348 3.349-6.543 5.17l-.435.338c-.186-2.228-.432-4.598-.74-7.111-.259-2.056-.453-4.057-.582-6.029-.122-1.775-.182-3.648-.182-5.726v-14.88c0-5.279.076-10.248.228-14.807.142-4.468.358-9.232.646-14.171.324-2.763.578-5.556.76-8.368.123-2.01.315-4.062.578-6.153.444-3.596.669-7.29.669-10.981 0-1.45.071-2.851.211-4.171.287-1.616.49-3.172.612-4.69l3.646-6.484.581-1.098c1.533-3.073 2.991-6.279 4.348-9.563.583-1.416 1.307-2.818 2.151-4.167l.636-1.017.536-1.072c2.674-5.35 5.27-10.71 7.709-15.916 2.401-5.116 4.811-10.091 7.162-14.786l.282-.582c9.704-20.699 19.053-41.855 27.787-62.885 8.731-20.692 17.098-41.857 24.869-62.91l5.757-15.832 1.707-4.55c-5.809 19.167-10.849 38.46-15.019 57.496zm29.973-100.945l2.277-6.454c.218-.496.424-.995.618-1.496l-.005.016c-.821 2.461-1.64 4.79-2.437 6.927l-.568 1.39.115-.383zm44.781 50.323l-.119.44c-5.456 20.848-10.343 41.827-14.531 62.374-.726 2.646-1.422 5.65-2.119 9.142l-22.317 111.819 8.39-11.54-2.894 5.788-.665 2.64c-.773 3.071-1.188 6.22-1.233 9.366l-.011.057-.17.858-.108.868c-.447 3.562-.675 7.276-.675 11.036 0 1.651-.099 3.287-.285 4.804-.388 3.083-.68 6.199-.863 9.191-.133 2.062-.329 4.159-.585 6.233l-.143 1.574c-.336 5.662-.588 11.142-.75 16.247-.171 5.142-.254 10.516-.254 16.431v14.88c0 3.234.098 6.229.294 9.073.128 1.953.302 3.962.517 5.975-1.421-6.269-2.57-12.523-3.423-18.626l-4.993-35.756 1.927-4.496v-19.699c.318-3.332.479-6.659.479-9.911 0-1.843.096-3.537.284-5.035l.196-1.557v-1.568c0-.801.035-1.533.118-2.336.239-2.425.361-4.869.361-7.264v-1.143l-.104-1.139c-.035-.382-.063-1.501.425-3.619l.414-1.796.146-1.836c.602-7.542 1.37-15.081 2.286-22.407.954-7.631 1.908-15.418 2.862-23.366 3.079-21.533 6.993-43.195 11.632-64.386 4.619-21.089 10.392-42.539 17.156-63.753l.167-.547c1.437-4.886 3.048-9.793 4.79-14.585 1.798-4.944 3.77-10.024 5.86-15.099l.29-.738c1.057-2.813 2.13-5.854 3.191-9.039.584-1.75 1.258-3.396 2.014-4.908 1.744-3.497 3.28-7.118 4.56-10.745.619-1.752 1.342-3.457 2.147-5.067l.384-.801c4.301-9.418 9.16-18.285 14.455-26.38l-.481 1.734c-.327 1.299-.706 2.455-1.14 3.463-1.102 2.574-2.212 5.35-3.302 8.25l-5.347 14.581-.086.238c-3.663 10.312-7.055 20.91-10.08 31.5-2.889 10.114-5.778 20.309-8.667 30.58zm155.401 284.432l-.082.53c-.294 2.042-.588 3.935-.874 5.686l-.054.265-.278.699-.272.852c-.565 1.777-1.26 2.787-2.102 3.547-.478.255-.969.496-1.478.727-.347.158-1.133.481-2.506.874l-1.08.309-1.047.403c-1.284.495-2.544.726-3.965.726h-1.568l-1.557.196c-.987.124-1.896.189-2.63.189-.281 0-.491-.009-.636-.02-1.375-.442-2.729-.855-4.054-1.236l-1.935-1.552-.394-.315c-.111-.089-.202-.179-.292-.292l-.083-.104c-.492-.612-.992-1.354-1.522-2.265-.013-.021-.079-.142-.163-.438l-.44-1.548-.635-1.48c-.274-.637-.476-1.292-.616-1.99-.45-2.256-.961-4.565-1.553-7.021-.18-1.585-.32-3.141-.421-4.678-.053-.767-.019-1.645.103-2.609l.195-1.552v-1.564c0-1.01.031-2.069.095-3.171l4.521-12.434c.885-2.243 1.573-4.236 2.119-6.144.006-.02.144-.476.579-1.559l.534-1.455c.198-.599.339-.999.428-1.246l1.144-2.291 1.019-5.09.24-.959c.742-2.668 1.193-5.312 1.354-7.92l.726-1.598c.295.63.596 1.258.902 1.883.626 1.478 1.327 2.953 2.1 4.415v.27l4.529 9.059.218.456.587 1.749.999 1.86c1.481 2.758 2.804 5.979 3.933 9.576l.48 1.533.673 1.458c1.092 2.366 1.935 5.014 2.506 7.87l.253 1.128c.453 1.821.787 3.418.995 4.745.295 1.96.585 4.071.864 6.277l.052.386c.271 1.901.301 3.584.089 4.863zm46.658-27.787c-1.224-5.918-3.017-11.598-5.336-16.915-1.775-5.411-3.88-10.505-6.273-15.184-.363-.91-.771-1.848-1.227-2.825v-4.988l-4.336-4.336-.122-.304-1.033-1.721c-.333-.553-.507-.933-.595-1.154l-.405-1.018-.491-.979c-1.102-2.191-2.048-4.414-2.837-6.675-1.042-2.962-2.148-6.062-3.316-9.302-.79-2.941-1.503-5.814-2.131-8.599-.716-3.138-1.366-6.316-1.942-9.503-.432-2.353-.704-4.83-.815-7.416-.163-3.633-.396-7.249-.695-10.767v-28.739l.824-1.693 2.3-1.15 3.994-11.988c.822-1.666 1.493-3.381 2.011-5.138l2.735-5.474c1.718-2.829 3.576-4.213 6.674-5.026 1.054-.276 2.003-.41 2.903-.41 1.161 0 3.032.199 5.871 1.921l.216.129c1.675.994 2.885 2.066 3.779 3.417h-3.549v18.631l-.621 1.772-.083.245-.291.438-.688 1.375c-2.568 5.139-4.573 10.553-5.969 16.113-1.954 5.75-3.2 11.352-3.712 16.682-.353 2.549-.622 5.047-.798 7.371-.172 2.172-.274 4.459-.308 6.82-.37 3.398-.433 6.808-.189 10.11.2 2.829.505 5.678.906 8.467.316 2.255.64 4.51.965 6.759.37 2.619.893 5.254 1.558 7.861.24 1.521.598 3.039 1.07 4.549v7.348l3.388 3.394c.696 2.035 1.438 3.858 2.25 5.529l2.134 7.114c.719 2.396 1.339 4.877 1.843 7.372l.247 1.098c1.333 5.346 2.352 10.988 3.022 16.739.3 2.6.535 5.25.705 7.938-.405-2.466-.942-5.059-1.633-7.888z"/><path fill="#fff" d="M1707.745 427.426c-.48-1.92-1.522-3.518-3.12-4.801-4.163-2.234-7.522-1.597-10.079 1.921l-50.4 63.36c0-.639.075-2.078.24-4.32.157-2.235.24-3.676.24-4.32 0-7.357-.405-14.475-1.2-21.359-.803-6.878-2.003-13.516-3.6-19.92-.646-3.195-1.44-6.398-2.4-9.601-.96-3.195-1.92-6.397-2.88-9.601-.646-.959-1.282-2.399-1.92-4.319l-1.439-4.8-.479-.48v-.959l-.48-1.92c-.645-1.274-.96-2.399-.96-3.36-.645-2.234-1.125-4.477-1.439-6.72-.323-2.235-.646-4.478-.96-6.72-.323-2.235-.562-4.478-.721-6.721-.165-2.234-.082-4.477.24-6.72 0-2.235.075-4.395.24-6.479.157-2.078.397-4.238.72-6.48.315-3.84 1.275-7.994 2.88-12.48.96-4.154 2.399-8.159 4.319-12 .638-.959 1.117-1.837 1.439-2.639.315-.796.638-1.681.96-2.641.315-.638.556-1.035.721-1.2.157-.157.397-.555.72-1.2.315 0 .48-.314.48-.959h.479v.479c5.115-8.955 6.397-18.315 3.84-28.08-2.564-9.758-8.16-17.198-16.799-22.32-8.963-5.438-18.322-6.877-28.08-4.32-9.765 2.565-17.205 8.325-22.32 17.28l-.479.48-.48.48-.479.96c0 .645-.083 1.042-.24 1.2-.165.165-.24.405-.24.72l-1.439 2.88c-.646.96-1.043 1.92-1.2 2.88-.165.96-.562 1.92-1.2 2.88l-1.439 4.32c-.645.322-1.282 1.283-1.919 2.879-2.565 5.445-5.123 10.643-7.681 15.601-2.564 4.965-5.28 10.163-8.16 15.601-2.564 5.122-5.205 10.162-7.92 15.119-2.723 4.965-5.52 10.006-8.399 15.12l-17.28 30.24-8.64 15.36-.96 1.92-.96.959-.48.961c-.315.645-.638 1.365-.96 2.16-.315.803-.638 1.521-.959 2.16-.638 1.281-1.357 2.564-2.16 3.84-.795 1.282-1.515 2.723-2.16 4.319-.638 1.605-1.2 3.046-1.68 4.32-.48 1.282-1.035 2.723-1.68 4.319-.638 1.605-1.118 3.121-1.44 4.561-.085.386-.183.778-.291 1.176-.902 1.61-1.921 3.22-3.068 4.824-2.564 4.484-5.28 8.963-8.16 13.439-2.88 4.485-5.925 8.806-9.12 12.961-3.202 4.484-6.404 8.64-9.6 12.479-3.202 3.841-6.562 7.522-10.08 11.04-1.604 1.605-3.36 3.12-5.28 4.561-1.92 1.439-3.84 2.962-5.76 4.56-3.202 2.565-6.884 4.965-11.039 7.2-4.484 2.242-8.002 3.525-10.56 3.84-1.283.322-3.045.48-5.28.48h-4.319l-.96-.48c0-.314-.322-.795-.96-1.439-.645-.315-1.125-1.275-1.439-2.881-.646-.637-1.283-2.077-1.92-4.32-.646-1.597-1.2-3.359-1.681-5.279-.479-1.92-1.042-3.998-1.68-6.24-.646-2.234-1.043-4.478-1.2-6.72-.165-2.235-.405-4.636-.72-7.2-.322-2.558-.562-5.04-.72-7.439-.165-2.4-.24-4.875-.24-7.44v-14.88c0-5.438.075-10.635.24-15.6.157-4.958.397-10.156.72-15.601.314-2.558.555-5.115.72-7.681.157-2.557.397-5.114.72-7.68.315-2.557.48-5.197.48-7.92 0-2.715.157-5.354.479-7.92.315-1.598.48-3.037.48-4.32 0-1.274.157-2.557.48-3.84l1.92-3.84 4.319-7.68c1.275-2.558 2.476-5.197 3.601-7.92 1.117-2.715 2.475-5.355 4.08-7.92 2.557-5.115 5.04-10.238 7.439-15.36 2.4-5.114 4.875-10.237 7.44-15.36 9.599-20.475 18.719-41.115 27.358-61.919 8.641-20.475 16.801-41.115 24.48-61.92l5.76-15.84c.96-2.558 1.92-5.115 2.88-7.68.96-2.558 1.92-5.115 2.88-7.68 1.92-5.438 3.758-10.717 5.521-15.84 1.754-5.115 3.434-10.395 5.039-15.84l2.88-8.16c.638-1.275 1.035-2.558 1.2-3.84.157-1.275.555-2.715 1.2-4.32.637-2.558 1.439-5.198 2.399-7.92.96-2.715 1.755-5.52 2.4-8.4.638-2.88 1.2-5.678 1.68-8.4.48-2.715 1.035-5.677 1.68-8.88.638-2.88 1.118-5.835 1.44-8.88.314-3.038.314-6.315 0-9.84 0-3.84-.646-7.515-1.92-11.04-.646-2.235-1.605-4.32-2.88-6.24-.646-.96-1.365-1.995-2.16-3.12-.803-1.117-1.68-2.16-2.64-3.12-2.565-1.92-4.966-3.36-7.2-4.32-3.202-1.275-5.76-1.92-7.68-1.92-.322-.315-.802-.48-1.439-.48h-8.399000000000001c-1.125 0-2.325.165-3.6.48-4.163.645-8.003 1.92-11.521 3.84-1.92.645-3.683 1.44-5.279 2.4-1.605.96-3.203 1.92-4.801 2.88-1.604.96-3.045 1.92-4.319 2.88-1.283.96-2.565 2.085-3.84 3.36-1.605.96-2.963 2.003-4.08 3.12l-3.601 3.6c-9.284 9.285-16.964 18.885-23.039 28.8-6.404 9.6-12.165 20.002-17.279 31.2-1.283 2.565-2.4 5.205-3.36 7.92-.96 2.723-2.085 5.363-3.36 7.92-1.282 2.565-2.399 5.28-3.359 8.16s-1.92 5.603-2.88 8.16c-2.243 5.445-4.32 10.8-6.24 16.08-1.92 5.28-3.683 10.643-5.28 16.08-7.041 22.08-12.959 44.085-17.759 66-4.8 21.923-8.805 44.085-12 66.479-.96 8.003-1.92 15.841-2.88 23.521-.96 7.681-1.763 15.525-2.4 23.521-.96 4.162-1.282 8.002-.96 11.52 0 1.605-.082 3.203-.24 4.801-.165 1.604-.239 3.201-.239 4.799-.323 2.565-.48 5.28-.48 8.16 0 2.881-.165 5.76-.479 8.641v15.84l-1.439 3.359-1.92 3.36c-.646 1.282-1.2 2.482-1.681 3.601-.479 1.125-1.042 2.324-1.68 3.6-1.605 2.564-2.963 4.965-4.08 7.2-1.125 2.242-2.482 4.485-4.08 6.72-2.564 4.484-5.28 8.963-8.16 13.439-2.88 4.485-5.925 8.806-9.12 12.961-3.201 4.484-6.403 8.64-9.599 12.479-3.202 3.841-6.562 7.522-10.08 11.04-1.604 1.605-3.36 3.12-5.28 4.561-1.92 1.439-3.84 2.962-5.76 4.56-3.202 2.565-6.885 4.965-11.04 7.2-4.484 2.242-8.002 3.525-10.56 3.84-1.283.322-3.045.48-5.28.48h-4.319l-.96-.48c0-.314-.322-.795-.96-1.439-.645-.315-1.124-1.275-1.438-2.881-.646-.637-1.283-2.077-1.92-4.32-.646-1.597-1.2-3.359-1.681-5.279-.479-1.92-1.042-3.998-1.68-6.24-.646-2.234-1.043-4.478-1.2-6.72-.165-2.235-.405-4.636-.72-7.2-.322-2.558-.562-5.04-.72-7.439-.165-2.4-.24-4.875-.24-7.44v-14.88c0-5.438.075-10.635.24-15.6.157-4.958.397-10.156.72-15.601.314-2.558.555-5.115.72-7.681.157-2.557.397-5.114.72-7.68.315-2.557.48-5.197.48-7.92 0-2.715.157-5.354.479-7.92.315-1.598.48-3.037.48-4.32 0-1.274.157-2.557.48-3.84l1.92-3.84 4.318-7.68c1.275-2.558 2.476-5.197 3.601-7.92 1.117-2.715 2.475-5.355 4.08-7.92 2.557-5.115 5.04-10.238 7.439-15.36 2.4-5.114 4.875-10.237 7.44-15.36 9.6-20.475 18.72-41.115 27.359-61.919 8.641-20.475 16.8-41.115 24.479-61.92l5.76-15.84c.96-2.558 1.92-5.115 2.88-7.68.96-2.558 1.92-5.115 2.88-7.68 1.92-5.438 3.758-10.717 5.521-15.84 1.755-5.115 3.435-10.395 5.04-15.84l2.88-8.16c.638-1.275 1.035-2.558 1.2-3.84.157-1.275.555-2.715 1.2-4.32.637-2.558 1.439-5.198 2.399-7.92.96-2.715 1.755-5.52 2.4-8.4.638-2.88 1.2-5.678 1.68-8.4.48-2.715 1.035-5.677 1.68-8.88.638-2.88 1.118-5.835 1.44-8.88.314-3.038.314-6.315 0-9.84 0-3.84-.646-7.515-1.92-11.04-.646-2.235-1.605-4.32-2.88-6.24-.646-.96-1.365-1.995-2.16-3.12-.803-1.117-1.68-2.16-2.64-3.12-2.565-1.92-4.966-3.36-7.2-4.32-3.203-1.275-5.761-1.92-7.681-1.92-.322-.315-.802-.48-1.439-.48h-8.399000000000001c-1.125 0-2.325.165-3.6.48-4.163.645-8.003 1.92-11.52 3.84-1.92.645-3.683 1.44-5.279 2.4-1.605.96-3.203 1.92-4.801 2.88-1.604.96-3.045 1.92-4.319 2.88-1.283.96-2.565 2.085-3.84 3.36-1.605.96-2.963 2.003-4.08 3.12l-3.601 3.6c-9.285 9.285-16.965 18.885-23.04 28.8-6.404 9.6-12.165 20.002-17.278 31.2-1.283 2.565-2.4 5.205-3.36 7.92-.96 2.723-2.085 5.363-3.36 7.92-1.282 2.565-2.399 5.28-3.359 8.16s-1.92 5.603-2.88 8.16c-2.243 5.445-4.32 10.8-6.24 16.08-1.92 5.28-3.683 10.643-5.28 16.08-7.042 22.08-12.96 44.085-17.76 66-4.8 21.923-8.805 44.085-12 66.479-.96 8.003-1.92 15.841-2.88 23.521-.96 7.681-1.763 15.525-2.4 23.521-.96 4.162-1.282 8.002-.96 11.52 0 1.605-.082 3.203-.24 4.801-.165 1.604-.239 3.201-.239 4.799-.323 2.565-.48 5.28-.48 8.16 0 2.881-.165 5.76-.479 8.641v15.846l-3.836 5.273c-1.604 1.605-2.963 3.285-4.08 5.041-1.125 1.762-2.482 3.441-4.08 5.039-2.564 3.525-6 8.003-10.319 13.44-4.32 5.445-7.763 9.923-10.32 13.44-2.88 3.524-5.76 6.803-8.641 9.84-2.88 3.045-5.76 6.165-8.64 9.359-6.082 6.405-12 12.322-17.759 17.76-1.605 1.605-3.202 3.046-4.8 4.32-1.605 1.283-3.203 2.565-4.801 3.84-2.564 2.243-5.602 4.485-9.119 6.721-3.525 2.242-6.405 3.84-8.641 4.8-1.92.646-3.202.96-3.84.96-.645.322-1.439.48-2.4.48h-.479c-.322 0-.48-.075-.48-.24 0-.158-.165-.24-.479-.24h-.96c-.646 0-1.043-.075-1.2-.24-.165-.157-.405-.24-.72-.24v-.958c0-.639-.165-1.275-.48-1.92 0-.315-.082-.639-.239-.961-.165-.314-.24-.795-.24-1.439-.322-1.275-.48-2.641-.48-4.08s-.165-2.955-.479-4.561c0-1.598.075-3.277.239-5.039.158-1.756.24-3.601.24-5.521.315-1.598.556-3.36.721-5.28.157-1.92.397-3.84.72-5.76.638-3.84 1.357-7.755 2.16-11.76.795-3.998 1.837-7.92 3.12-11.76.96-4.155 1.92-8.235 2.88-12.24.96-3.998 2.077-7.92 3.359-11.76 1.598-4.155 2.955-8.235 4.08-12.24 1.118-3.998 2.476-7.92 4.08-11.76 1.598-4.155 3.038-8.235 4.32-12.24 1.274-3.998 2.715-7.92 4.319-11.76 1.598-4.155 3.12-8.235 4.561-12.24 1.439-3.998 2.955-7.92 4.56-11.76 1.598-4.155 3.278-8.16 5.039-12 1.755-3.84 3.436-7.838 5.04-12 .638-1.92 1.357-3.84 2.16-5.76.795-1.921 1.68-3.841 2.64-5.761l2.4-5.76 2.4-5.761h.479c0-.637.157-1.117.48-1.439 3.518-8.641 3.359-17.115-.48-25.44-3.84-8.317-10.08-14.235-18.719-17.76-8.64-3.517-17.205-3.435-25.68.24-8.482 3.683-14.482 9.84-18 18.48-.646 1.283-1.043 2.4-1.2 3.36-.165.96-.562 2.085-1.2 3.36l-2.4 6.24-4.319 12.959-8.64 25.92c-1.282 4.486-2.564 8.806-3.84 12.961-1.282 4.162-2.564 8.482-3.84 12.96-1.282 4.485-2.482 8.88-3.6 13.2-1.125 4.319-2.16 8.723-3.12 13.199-1.283 4.485-2.4 9.045-3.36 13.68-.949 4.592-1.898 9.102-2.849 13.531l-.985 1.109-3.36 4.32c-1.282 1.604-2.482 3.045-3.6 4.32-1.125 1.281-2.482 2.722-4.08 4.319-2.565 2.88-5.843 6.803-9.84 11.761-4.005 4.965-7.282 8.722-9.84 11.279-5.123 5.445-10.32 10.8-15.6 16.08-5.28 5.279-10.642 10.162-16.079 14.641-2.565 2.564-5.28 4.965-8.16 7.199-2.88 2.242-5.76 4.32-8.64 6.24-1.282.96-2.565 1.92-3.84 2.88-1.283.96-2.723 1.92-4.32 2.88-2.565 1.92-5.279 3.36-8.159 4.32-2.243 1.282-4.485 2.242-6.72 2.88 0-.96.315-2.399.96-4.32.315-1.274.638-2.64.96-4.079.315-1.44.638-2.955.96-4.561.638-1.598 1.2-3.195 1.68-4.801.48-1.597 1.035-3.194 1.68-4.799 1.275-3.195 2.475-6.398 3.6-9.601 1.117-3.194 2.474-6.555 4.079-10.08l8.64-20.159c2.88-6.721 5.835-13.516 8.88-20.4 3.038-6.878 6.158-13.995 9.36-21.36 1.597-3.518 3.12-7.117 4.56-10.8 1.44-3.676 2.955-7.275 4.56-10.801 1.598-3.84 3.038-7.68 4.32-11.52 1.275-3.84 2.558-7.838 3.84-12 .638-1.92 1.275-3.915 1.92-6 .638-2.077 1.275-4.237 1.92-6.48.638-2.234 1.118-4.477 1.44-6.719.315-2.235.795-4.636 1.44-7.201.315-2.557.555-5.197.72-7.92.158-2.715.24-5.677.24-8.879v-5.041c0-1.754-.165-3.6-.48-5.52-.645-4.478-1.763-8.797-3.36-12.96-.322-1.275-.802-2.558-1.44-3.84-.645-1.275-1.282-2.558-1.92-3.84-.96-2.558-2.723-5.438-5.28-8.64-1.92-2.557-4.485-5.28-7.68-8.16-2.564-2.235-5.602-4.32-9.12-6.24-1.605-.637-3.202-1.275-4.8-1.92-1.605-.637-3.203-1.118-4.8-1.44-1.605-.638-3.12-1.035-4.56-1.2-1.44-.157-2.963-.397-4.56-.72-1.605-.315-4.005-.48-7.2-.48h-1.44l-.96.48h-2.4c-3.525.322-6.72.802-9.6 1.44-2.88.645-5.76 1.283-8.64 1.92-5.76 1.92-11.04 4.32-15.839 7.2-4.8 2.565-9.203 5.445-13.2 8.64-4.005 3.203-7.605 6.562-10.799 10.08-6.72 7.365-12.48 14.565-17.28 21.6-2.565 3.525-4.882 7.125-6.96 10.8-2.085 3.683-4.245 7.282-6.48 10.8l-6.239 10.561c-1.283 1.605-2.4 3.285-3.36 5.04-.96 1.763-1.92 3.442-2.88 5.04-4.163 7.043-8.002 14.002-11.52 20.88-3.525 6.885-7.042 13.845-10.56 20.88-.645 1.92-1.44 3.766-2.4 5.52-.96 1.764-1.762 3.443-2.4 5.041-1.92 3.524-3.525 7.199-4.8 11.039l-3.36 7.681c2.235-9.601 4.32-19.2 6.24-28.8 1.92-9.601 3.998-19.2 6.24-28.801l.96-2.88 1.44-2.88.96-2.88 1.44-3.36c1.275-3.84 3.038-7.837 5.28-12 1.92-4.154 3.84-8.234 5.76-12.24 1.92-3.997 3.84-7.92 5.76-11.76 2.235-4.154 4.395-8.234 6.48-12.24 2.078-3.997 4.238-7.919 6.479-11.759 2.235-4.155 4.395-8.235 6.48-12.24 2.078-3.998 4.238-7.92 6.48-11.76 1.275-2.235 2.475-4.32 3.6-6.24 1.118-1.92 2.16-3.84 3.12-5.76 1.275-2.235 2.4-4.32 3.36-6.24s2.078-3.998 3.36-6.24c.638-.96 1.2-1.995 1.68-3.12.48-1.118 1.035-2.16 1.68-3.12.315-.96.795-2.078 1.44-3.36l.959-1.92.48-1.44c.96-2.235 1.92-4.32 2.88-6.24s1.92-3.998 2.88-6.24c3.518-8.64 6.96-17.198 10.32-25.68 3.36-8.475 6.637-17.04 9.84-25.68 5.437-16.635 10.717-34.237 15.839-52.8l.48-3.36.48-1.92.48-1.44 1.44-7.2c.315-2.558.637-4.958.96-7.2.315-2.235.637-4.635.96-7.2l1.44-14.4v-3.84c0-1.275-.165-2.558-.48-3.84 0-1.598-.083-3.038-.24-4.32-.165-1.275-.405-2.715-.72-4.32-.645-3.195-1.763-6.24-3.36-9.12-.645-.96-1.283-1.837-1.92-2.64-.645-.795-1.282-1.68-1.92-2.64-1.605-1.275-3.525-2.715-5.76-4.32-2.243-.96-4.32-1.755-6.24-2.4-.645 0-1.2-.075-1.68-.24-.48-.158-1.042-.24-1.68-.24h-1.44l-1.44-.48c-3.84 0-7.365.48-10.56 1.44-1.605.323-3.203.72-4.8 1.2-1.605.48-3.202 1.042-4.8 1.68-2.564 1.283-5.279 2.88-8.16 4.8-2.565 1.605-4.882 3.285-6.96 5.04-2.085 1.762-4.245 3.6-6.48 5.52-1.92 1.605-3.682 3.36-5.28 5.28l-2.88 2.88c-.96.96-1.763 2.085-2.4 3.36-1.605 1.92-3.202 3.84-4.799 5.76-1.605 1.92-3.203 4.005-4.8 6.24-5.445 7.68-10.403 16.005-14.88 24.96-1.282 2.242-2.4 4.402-3.36 6.48-.96 2.085-1.92 4.245-2.88 6.48-.96 2.565-1.845 4.8-2.64 6.72-.802 1.92-1.68 4.163-2.64 6.72-.96 2.565-1.845 4.882-2.64 6.96-.803 2.085-1.68 4.245-2.64 6.48-.645 2.243-1.365 4.485-2.16 6.72-.802 2.242-1.522 4.485-2.16 6.72-1.605 4.485-3.045 8.88-4.32 13.2-1.282 4.32-2.722 8.723-4.32 13.2-.645 2.243-1.283 4.403-1.92 6.48-.645 2.085-1.283 4.245-1.92 6.48l-4.32 12.96c-5.122 17.603-9.922 35.122-14.399 52.56-4.485 17.445-8.962 35.123-13.44 53.04-4.485 17.603-8.64 35.123-12.479 52.561-3.707 16.843-7.264 33.906-10.671 51.188l-.364.411c-.323.645-1.125 1.846-2.4 3.6-1.283 1.763-2.64 3.525-4.08 5.28-1.44 1.763-2.805 3.442-4.08 5.04-1.283 1.605-2.085 2.723-2.4 3.36-1.605 2.565-3.442 5.04-5.52 7.44-2.085 2.399-4.245 4.882-6.48 7.439-8.002 8.963-17.28 17.445-27.84 25.439-10.245 7.365-20.962 13.846-32.159 19.44-11.205 5.603-22.883 10.163-35.04 13.681-12.165 3.524-24.322 5.924-36.479 7.199-6.405.645-12.645 1.043-18.72 1.2-6.082.165-12.322-.075-18.719-.72h-4.56s-2.962-.158-4.56-.48h-2.4l-2.4-.48c-.645 0-1.364-.074-2.159-.239-.803-.157-1.522-.24-2.16-.24-2.88-.638-5.76-1.2-8.64-1.68-2.88-.48-5.603-1.035-8.16-1.681-2.88-.959-5.603-1.92-8.16-2.879-2.565-.961-5.122-2.078-7.68-3.361-2.565-.959-4.965-2.076-7.2-3.359-2.243-1.275-4.485-2.715-6.72-4.32-8.64-6.396-15.682-13.598-21.12-21.6-5.76-7.995-10.56-16.957-14.4-26.88-1.92-4.8-3.6-9.758-5.04-14.88-1.44-5.115-2.805-10.396-4.08-15.84-2.242-10.561-3.682-21.601-4.319-33.121-.96-11.52-.96-23.197 0-35.039.315-5.76.72-11.596 1.2-17.521.48-5.917 1.2-11.76 2.16-17.52.959-6.075 1.92-12 2.88-17.76.96-5.76 2.235-11.677 3.84-17.76.638-2.88 1.357-5.76 2.16-8.64.795-2.88 1.68-5.76 2.64-8.64.638-3.195 1.44-6.24 2.4-9.12l2.88-8.64c3.84-11.198 8.16-22.395 12.96-33.6 4.799-11.198 10.395-22.08 16.799-32.64 3.195-5.438 6.397-10.635 9.6-15.6 3.195-4.958 6.555-9.84 10.08-14.64 7.035-9.915 14.715-19.515 23.04-28.8 4.155-4.478 8.399-8.797 12.719-12.96 4.32-4.155 8.88-8.317 13.68-12.48 4.478-3.518 9.435-7.035 14.879-10.56 2.558-1.597 5.198-3.195 7.92-4.8 2.715-1.598 5.52-3.195 8.4-4.8 10.875-5.115 22.56-8.955 35.04-11.52 3.195-.637 6.315-1.117 9.36-1.44 3.037-.315 6.157-.637 9.359-.96 6.075-.315 12.315-.315 18.72 0 6.397.645 12.479 1.845 18.239 3.6 5.76 1.763 11.355 4.245 16.8 7.44 2.557 1.605 4.957 3.203 7.199 4.8 2.235 1.605 4.478 3.525 6.72 5.76 3.518 3.525 6.877 7.68 10.08 12.48 3.195 4.485 5.438 9.12 6.72 13.92 1.275 4.163 2.235 8.805 2.88 13.92.637 4.485.637 8.963 0 13.44-.322 4.485-1.282 8.962-2.88 13.44-3.525 8.962-8.482 17.123-14.88 24.48-3.203 3.84-6.72 7.44-10.56 10.8-3.839 3.36-8.002 6.48-12.479 9.36-2.565 1.605-4.965 3.045-7.2 4.32-2.242 1.282-4.642 2.565-7.2 3.84-2.565 1.283-5.04 2.482-7.44 3.6-2.4 1.125-4.882 2.325-7.439 3.6l-15.84 5.76c-1.605.645-3.045 1.125-4.32 1.44-1.283.323-2.565.803-3.84 1.44l-4.32.96-4.32 1.44h-.48c-7.68 2.565-13.605 7.365-17.76 14.4-4.162 7.042-5.123 14.565-2.88 22.56 1.92 8.325 6.48 14.64 13.68 18.96 7.2 4.32 14.955 5.52 23.279 3.6l2.4-.96 2.88-.48c.96-.315 1.837-.555 2.64-.72.795-.158 1.68-.397 2.64-.72 1.598-.637 3.36-1.2 5.28-1.68 1.92-.48 3.675-1.035 5.28-1.68 3.517-1.598 6.959-3.038 10.319-4.32 3.36-1.275 6.795-2.715 10.32-4.32 14.077-6.397 27.037-14.235 38.879-23.52 6.075-4.8 11.917-10.08 17.52-15.84 5.595-5.76 10.635-11.835 15.12-18.24 4.478-6.075 8.474-13.275 12-21.6 3.517-7.035 6.075-15.038 7.68-24 .96-4.155 1.598-8.318 1.92-12.48.315-4.155.48-8.475.48-12.96-.645-9.278-2.242-17.76-4.8-25.44-1.605-3.84-3.36-7.597-5.28-11.28-1.92-3.675-4.163-7.275-6.72-10.8-5.123-7.035-10.725-12.96-16.8-17.76-3.203-2.558-6.405-4.8-9.6-6.72-3.203-1.92-6.562-3.675-10.08-5.28-6.72-3.195-13.763-5.76-21.12-7.68-3.525-.96-6.959-1.68-10.319-2.16s-6.803-1.035-10.32-1.68c-3.525-.637-7.043-1.035-10.56-1.2-3.525-.158-7.042-.398-10.56-.72-6.72-.315-13.44-.315-20.16 0-7.042 0-13.919.48-20.64 1.44-6.72.645-13.44 1.68-20.159 3.12-6.72 1.44-13.44 3.12-20.16 5.04-3.525.96-6.885 1.92-10.08 2.88-3.202.96-6.404 2.085-9.6 3.36-3.525 1.605-6.802 3.045-9.84 4.32-3.045 1.282-6.165 2.722-9.36 4.32-6.405 2.88-12.645 6.083-18.72 9.6-6.083 3.525-12 7.365-17.759 11.52-5.76 4.163-11.363 8.565-16.8 13.2-5.445 4.643-10.56 9.36-15.359 14.16-9.6 9.6-18.72 20.482-27.36 32.64-4.485 5.445-8.64 11.123-12.479 17.04-3.84 5.925-7.522 11.925-11.04 18-3.525 6.083-6.885 12.24-10.08 18.48-3.202 6.24-6.24 12.562-9.12 18.96-3.203 6.72-5.925 13.125-8.16 19.2-2.88 6.72-5.28 13.44-7.2 20.16-2.565 6.72-4.643 13.44-6.24 20.16-1.605 6.72-3.202 13.605-4.799 20.64-2.88 14.399-4.965 28.725-6.24 42.96-1.282 14.242-1.282 28.725 0 43.439.638 7.365 1.44 14.723 2.4 22.08.96 7.365 2.4 14.723 4.32 22.08 1.919 7.365 4.237 14.723 6.959 22.08 2.715 7.365 6 14.564 9.84 21.6 1.92 3.525 3.998 6.886 6.24 10.08 2.235 3.203 4.635 6.405 7.2 9.601 2.557 3.524 5.197 6.72 7.919 9.6 2.715 2.88 5.677 5.603 8.88 8.16 2.88 2.88 5.917 5.521 9.12 7.92 3.195 2.4 6.555 4.718 10.08 6.96 3.517 2.235 7.117 4.155 10.8 5.76 3.675 1.598 7.275 3.195 10.8 4.801 3.84 1.598 7.598 2.955 11.28 4.08 3.675 1.117 7.44 2.16 11.28 3.119 7.68 1.275 15.195 2.235 22.56 2.881 3.84.637 7.598.959 11.28.959 3.675 0 7.275-.164 10.8-.479 2.558 0 4.32-.165 5.28-.479h5.279999999999999c1.598-.322 3.36-.562 5.28-.721 1.92-.164 3.675-.404 5.28-.72 6.72-.646 13.515-1.604 20.399-2.88 6.877-1.283 13.515-2.723 19.92-4.32 6.72-1.605 13.357-3.442 19.919-5.52 6.555-2.086 13.035-4.402 19.44-6.961 26.235-9.914 49.754-23.354 70.559-40.319 11.198-9.277 20.955-18.72 29.28-28.319 2.097-2.098 4.086-4.304 6-6.584l-1.205 5.623c-.315 2.242-.637 4.402-.96 6.48-.315 2.085-.795 4.244-1.44 6.48l-2.4 13.439-1.92 13.439c-.638 2.565-1.035 4.883-1.2 6.961-.157 2.084-.555 4.402-1.2 6.959l-.96 6.721-.48 3.84c0 1.598-.157 2.88-.48 3.84-.637 7.357 1.125 14.078 5.28 20.16 4.163 6.075 9.922 9.915 17.28 11.52 7.995 1.921 15.435.721 22.32-3.6 6.877-4.32 11.28-10.484 13.2-18.48v-.959l4.8-18.721v-.96l4.32-10.08c1.597-3.517 3.194-6.96 4.799-10.319 1.598-3.36 3.195-6.795 4.8-10.32 3.195-7.035 6.555-13.838 10.08-20.4 3.517-6.555 7.2-13.035 11.04-19.439.96-1.598 1.92-3.195 2.88-4.801.96-1.598 1.92-3.194 2.88-4.799l2.88-4.801 2.88-4.8c1.598-2.88 3.675-6.075 6.24-9.601.96-1.598 1.92-3.119 2.88-4.56s2.078-2.955 3.36-4.56c8.64-12.48 17.76-24 27.36-34.561 1.275-1.598 2.475-3.037 3.6-4.32 1.117-1.274 2.317-2.557 3.6-3.84 1.275-1.274 2.558-2.475 3.84-3.6 1.275-1.117 2.557-2.317 3.839-3.6 2.88-2.559 5.76-4.801 8.64-6.721 2.88-1.92 5.76-3.675 8.64-5.279 2.88-1.92 5.835-3.518 8.88-4.801 3.037-1.274 5.834-2.399 8.399-3.359l.96-.48c0 .96-.323 2.4-.96 4.32-.645 3.202-1.365 6.48-2.16 9.84-.802 3.359-1.522 6.803-2.159 10.32-.96 3.525-1.92 7.042-2.88 10.56-.96 3.525-1.92 7.042-2.88 10.56-1.92 7.365-3.84 14.723-5.76 22.08-1.92 7.365-4.005 14.723-6.24 22.08l-2.88 11.521s-1.763 7.68-2.4 11.521c-.96 4.162-1.92 8.159-2.88 12-.96 3.84-1.762 7.844-2.4 12-.322 2.242-.645 4.402-.96 6.479-.322 2.085-.645 4.245-.96 6.479-.322 2.243-.562 4.485-.72 6.721-.165 2.242-.239 4.643-.239 7.199v7.44s.157 5.04.479 7.92c.638 3.841 1.275 7.042 1.92 9.601.96 3.84 2.4 7.515 4.32 11.039.638.961 1.275 1.92 1.92 2.881.637.959 1.44 2.077 2.4 3.359 1.598 1.92 3.36 3.676 5.28 5.28.96.638 1.995 1.357 3.12 2.16 1.118.795 2.317 1.515 3.6 2.16 1.275.637 2.4 1.117 3.36 1.439.96.315 2.078.638 3.36.96 3.84 1.275 7.837 1.92 12 1.92h1.44v-.479h3.84c.637 0 2.235-.322 4.8-.96 2.88-.646 5.595-1.44 8.16-2.4 2.558-.96 5.114-2.085 7.68-3.359 2.235-1.283 4.395-2.482 6.48-3.601 2.077-1.125 4.08-2.482 6-4.08 3.517-2.565 6.877-5.362 10.08-8.399 3.195-3.045 6.24-6 9.12-8.881 5.76-6.074 11.04-12.314 15.84-18.72 1.275-1.597 2.475-3.194 3.6-4.8 1.118-1.598 2.318-3.195 3.6-4.8 1.92-3.195 4.155-6.397 6.72-9.601 2.235-3.518 4.32-6.877 6.24-10.08 1.92-3.194 3.998-6.555 6.24-10.08 1.815-3.326 4.351-7.452 7.6-12.354-.707 6.038-1.164 12.076-1.366 18.114v14.88c.322 2.564.48 5.205.48 7.92 0 2.723.322 5.52.96 8.4.645 2.564 1.2 5.279 1.68 8.16.48 2.879 1.365 5.924 2.64 9.119.96 3.203 2.4 6.398 4.32 9.601 1.275 2.88 3.518 6.075 6.72 9.6 2.558 2.88 5.761 5.595 9.601 8.16 1.919 1.274 3.914 2.235 5.999 2.88 2.077.638 4.08 1.275 6 1.92 3.518 1.275 7.357 1.92 11.52 1.92 2.235 0 3.998-.165 5.28-.479h2.4l1.439-.48h1.44c4.478-.96 7.995-2.085 10.56-3.36 1.598-.645 3.038-1.364 4.32-2.159 1.274-.803 2.558-1.522 3.84-2.16 4.155-2.565 8.475-5.761 12.96-9.601 1.919-1.604 3.839-3.359 5.759-5.279s3.675-3.683 5.28-5.28c1.598-1.604 3.12-3.36 4.56-5.28 1.44-1.92 2.955-3.84 4.561-5.76 2.88-3.518 5.678-7.117 8.399-10.8 2.716-3.675 5.355-7.44 7.921-11.28 2.557-3.84 5.04-7.68 7.439-11.52 2.4-3.84 4.875-7.68 7.44-11.521 2.234-3.84 5.114-8.798 8.64-14.88 1.981-3.422 3.753-6.531 5.33-9.348.133 1.36.273 2.717.425 4.068.96 11.52 2.88 23.361 5.76 35.52.638 3.202 1.357 6.322 2.16 9.359.795 3.045 1.68 6.166 2.64 9.36.638 1.604 1.275 3.12 1.92 4.56.638 1.44 1.275 2.963 1.92 4.561.638 1.605 1.357 3.203 2.16 4.8.795 1.605 1.68 3.202 2.64 4.8s1.92 3.277 2.881 5.041c.96 1.754 2.077 3.435 3.359 5.039 1.275 1.598 2.715 3.195 4.32 4.801l4.8 4.8c1.92 1.597 3.915 3.037 6 4.319 2.077 1.275 4.396 2.4 6.96 3.36 5.115 1.92 10.237 2.88 15.359 2.88h6.2379999999999995c.961-.322 1.921-.479 2.881-.479s1.92-.165 2.88-.48c4.154-.645 7.837-1.604 11.04-2.88 6.397-2.242 12.795-5.445 19.199-9.6 2.881-1.92 5.521-3.923 7.921-6 2.399-2.086 4.875-4.245 7.439-6.48 2.235-2.242 4.396-4.478 6.479-6.72 2.077-2.235 3.915-4.636 5.52-7.2 3.84-4.8 7.357-9.675 10.561-14.641 3.194-4.957 6.239-9.997 9.119-15.119 2.558-5.115 5.115-10.238 7.681-15.36.967-1.934 1.904-3.899 2.826-5.881 1.06 7.588 2.513 15.308 4.373 23.161.638 3.202 1.357 6.322 2.16 9.359.795 3.045 1.68 6.166 2.64 9.36.638 1.604 1.275 3.12 1.92 4.56.638 1.44 1.275 2.963 1.92 4.561.638 1.605 1.357 3.203 2.16 4.8.795 1.605 1.68 3.202 2.64 4.8s1.92 3.277 2.881 5.041c.96 1.754 2.077 3.435 3.359 5.039 1.275 1.598 2.715 3.195 4.319 4.801l4.8 4.8c1.92 1.597 3.915 3.037 6 4.319 2.077 1.275 4.396 2.4 6.96 3.36 5.115 1.92 10.237 2.88 15.36 2.88h6.2379999999999995c.961-.322 1.921-.479 2.881-.479s1.92-.165 2.88-.48c4.154-.645 7.837-1.604 11.04-2.88 6.397-2.242 12.794-5.445 19.198-9.6 2.881-1.92 5.521-3.923 7.921-6 2.399-2.086 4.875-4.245 7.439-6.48 2.235-2.242 4.396-4.478 6.48-6.72 2.077-2.235 3.915-4.636 5.52-7.2 3.84-4.8 7.357-9.675 10.561-14.641.391-.606.772-1.218 1.158-1.826l.28 1.107c.96 3.524 2.085 6.885 3.36 10.08 1.282 3.201 2.88 6.562 4.8 10.079 2.243 3.525 4.484 6.556 6.72 9.12 1.274 1.598 2.557 2.955 3.84 4.08 1.274 1.117 2.715 2.317 4.319 3.6 3.195 2.559 6.397 4.801 9.601 6.721 2.88 1.598 6.397 3.037 10.56 4.32 7.035 2.557 14.235 3.997 21.601 4.319 6.397.315 13.596 0 21.599-.96 3.518-.645 7.117-1.522 10.8-2.641 3.675-1.125 7.275-2.482 10.8-4.079 3.518-1.921 6.96-4.005 10.32-6.24 3.36-2.243 6.638-4.965 9.84-8.16 5.76-5.76 10.237-11.835 13.439-18.239l72.959-91.201c1.267-1.6 1.673-3.362 1.193-5.282zm-282.474-154.56c4.155-20.475 8.955-41.115 14.399-61.92 2.88-10.238 5.76-20.4 8.64-30.48s6.075-20.078 9.6-30l5.28-14.4c.96-2.557 1.92-4.957 2.88-7.2.96-2.235 1.755-4.635 2.4-7.2.96-2.557 1.92-4.875 2.88-6.96.96-2.078 1.92-4.395 2.88-6.96l5.76-12.96c1.275-1.92 2.476-3.84 3.601-5.76 1.117-1.92 2.159-3.675 3.119-5.28l1.92-1.92 1.921-1.92c.96-1.598 2.077-2.558 3.359-2.88.638-.638 1.118-.96 1.44-.96l.479-.48h.48l.479-.48h.48v-.48c0-.315.075-.48.24-.48.157 0 .239.165.239.48.638 0 .96.323.96.96.638.645 1.275 2.243 1.92 4.8.638.96.961 2.002.961 3.12 0 1.125.157 2.325.479 3.6v7.2c0 2.565-.165 5.123-.479 7.68-.323 2.565-.803 5.123-1.44 7.68-.322 2.565-.803 5.123-1.44 7.68-.645 2.565-1.282 5.123-1.92 7.68-.322 1.605-.645 2.962-.96 4.08-.322 1.125-.802 2.325-1.439 3.6-.323 1.605-.646 2.962-.96 4.08-.323 1.125-.803 2.325-1.44 3.6-7.365 20.805-15.524 40.965-24.479 60.48-8.963 19.522-19.043 38.88-30.239 58.08-2.242 3.525-4.485 7.2-6.72 11.04-2.243 3.84-4.643 7.522-7.2 11.04.637-3.195 1.274-5.918 1.92-8.16zm-161.278 0c4.155-20.475 8.955-41.115 14.399-61.92 2.881-10.238 5.761-20.4 8.641-30.48s6.075-20.078 9.6-30l5.28-14.4c.96-2.557 1.92-4.957 2.88-7.2.96-2.235 1.755-4.635 2.4-7.2.96-2.557 1.92-4.875 2.88-6.96.96-2.078 1.92-4.395 2.879-6.96l5.76-12.96c1.275-1.92 2.476-3.84 3.601-5.76 1.117-1.92 2.159-3.675 3.119-5.28l1.92-1.92 1.921-1.92c.96-1.598 2.077-2.558 3.359-2.88.638-.638 1.118-.96 1.44-.96l.479-.48h.48l.479-.48h.48v-.48c0-.315.075-.48.24-.48.157 0 .239.165.239.48.638 0 .96.323.96.96.638.645 1.275 2.243 1.92 4.8.638.96.961 2.002.961 3.12 0 1.125.157 2.325.479 3.6v7.2c0 2.565-.165 5.123-.479 7.68-.323 2.565-.803 5.123-1.44 7.68-.322 2.565-.803 5.123-1.44 7.68-.645 2.565-1.282 5.123-1.92 7.68-.322 1.605-.645 2.962-.96 4.08-.322 1.125-.802 2.325-1.439 3.6-.323 1.605-.646 2.962-.96 4.08-.323 1.125-.803 2.325-1.44 3.6-7.365 20.805-15.524 40.965-24.479 60.48-8.963 19.522-19.043 38.88-30.24 58.08-2.242 3.525-4.485 7.2-6.72 11.04-2.243 3.84-4.643 7.522-7.2 11.04.639-3.195 1.276-5.918 1.921-8.16zm-421.183-26.16c.795-3.36 1.515-6.795 2.16-10.32l3.36-12.96 2.879-12.96c.96-4.478 1.92-8.798 2.88-12.96.96-4.155 2.077-8.475 3.36-12.96.638-1.92 1.118-3.915 1.44-6 .315-2.078.795-4.238 1.44-6.48.638-1.92 1.275-3.915 1.92-6 .638-2.077 1.275-4.08 1.92-6l.48-2.88 1.44-2.88 1.92-6.24 4.32-12c1.598-4.155 2.955-8.16 4.08-12 1.118-3.84 2.475-7.68 4.08-11.52 1.597-3.518 3.194-7.118 4.799-10.8 1.598-3.675 3.195-7.118 4.8-10.32.96-1.598 1.92-3.12 2.88-4.56s1.92-2.955 2.88-4.56c.96-1.275 1.92-2.4 2.88-3.36l2.4-2.4 2.88-1.44h.48v-1.44h.48c.315.323 1.118 1.283 2.4 2.88.315.645.638 1.365.96 2.16.315.803.48 1.68.48 2.64.315.645.555 1.522.72 2.64.157 1.125.397 2.16.72 3.12.315 1.92.48 3.923.48 6v6c0 4.485-.48 8.805-1.44 12.96-.322.96-.48 2.003-.48 3.12 0 1.125-.165 2.16-.48 3.12l-.48 1.44-.48 1.44-.96 3.36c-2.243 8.325-4.8 16.642-7.68 24.96-2.88 8.325-6.083 16.642-9.6 24.96-7.042 15.682-15.045 31.365-24 47.04l-7.2 11.52-.48 1.44-.96.96c-.323.645-.645 1.125-.96 1.44-.323.322-.645.802-.96 1.44-.645.96-1.92 2.723-3.84 5.28-1.282 1.605-2.564 3.285-3.839 5.04-1.282 1.763-2.565 3.6-3.84 5.52-.645.645-1.042 1.125-1.2 1.44-.165.323-.562.803-1.2 1.44.639-3.518 1.359-6.961 2.161-10.32zm752.857 245.999c-.323 2.243-.646 4.32-.96 6.24-.323 1.92-.803 3.683-1.44 5.28-2.242 7.042-6.24 12.646-12 16.8-1.604.961-3.285 1.846-5.04 2.641-1.763.803-3.765 1.521-6 2.16-4.161 1.604-8.481 2.399-12.959 2.399-5.122.646-9.442.479-12.96-.479-1.92-.638-3.765-1.2-5.52-1.681-1.763-.479-3.443-1.2-5.04-2.159-1.605-1.275-3.203-2.559-4.801-3.841-1.604-1.274-3.045-2.715-4.319-4.319-1.283-1.598-2.482-3.36-3.601-5.28-1.125-1.92-2.002-3.997-2.64-6.24-.96-2.235-1.68-4.56-2.16-6.96-.479-2.4-1.042-4.875-1.68-7.439-.322-2.559-.562-5.041-.72-7.44-.165-2.399-.083-4.875.239-7.44 0-2.801.158-5.656.446-8.556l.035-.084 5.76-15.84c.638-1.598 1.117-2.955 1.439-4.08.315-1.118.795-2.476 1.44-4.08.638-1.92 1.117-3.194 1.439-3.84l.48-2.4.48-1.92c.685-2.331.747-4.395.198-6.196l7.001-15.403c2.557-5.438 5.114-10.636 7.68-15.601 2.558-4.957 5.115-10.154 7.68-15.6l12.96-25.92v4.8c.315 3.524.556 7.125.721 10.8.157 3.683.555 7.283 1.199 10.801.638 3.524 1.357 7.042 2.16 10.56.795 3.524 1.681 7.042 2.641 10.56 1.273 3.525 2.474 6.885 3.599 10.08 1.117 3.203 2.475 6.405 4.08 9.6.638 1.605 1.439 3.203 2.399 4.801l.961 2.4.479.959.48.48v.48l.96 1.92.96 1.92c.637 1.282 1.117 2.4 1.439 3.359 2.235 4.163 4.155 8.805 5.76 13.92 1.921 4.163 3.36 8.641 4.32 13.44.638 2.565 1.117 4.882 1.44 6.96.314 2.085.637 4.402.96 6.96.643 4.484.643 8.638.005 12.478zM1158.88 211.906c11.52 0 21.435-4.08 29.759-12.24 8.317-8.16 12.479-18.157 12.479-30 0-11.835-4.162-21.84-12.479-30-8.324-8.16-18.239-12.24-29.759-12.24-11.843 0-21.841 4.08-30 12.24-8.16 8.16-12.239 18.165-12.239 30 0 11.843 4.079 21.84 12.239 30 8.159 8.16 18.157 12.24 30 12.24z"/><path fill="none" d="M0 47.268h2048v678.068h-2048z"/></g></svg>