<svg xmlns="http://www.w3.org/2000/svg" width="2048" height="620" viewBox="0 0 2048 620"><g><path fill="#F8963A" d="M2013.297 389.96l-.429-.175c-3.585-1.421-7.346-2.143-11.178-2.143-5.235 0-10.308 1.322-15.035 3.909-6.908 3.763-12.047 9.477-14.86 16.523l-.564 1.413-1.058 2.115-1.084 3.794c-.784 1.853-1.396 3.68-1.843 5.513l-.017.039c-1.147 2.681-2.131 5.096-2.986 7.333-.714 1.853-1.479 3.733-2.293 5.624-1.449 3.386-2.373 5.878-2.972 7.996l-.069.236c-.878 1.532-1.851 3.373-3.057 5.786l-.622 1.343c-1.651 3.855-3.4 7.566-5.191 11.012-1.761 3.381-3.621 6.77-5.537 10.084-2.146 3.217-4.43 6.683-7.157 10.856-1.806 2.773-3.713 5.564-5.683 8.319-1.732 1.816-3.252 3.572-4.59 5.298-.351.448-.992 1.207-2.054 2.269-1.279 1.279-2.443 2.385-3.521 3.339-.26.23-.521.425-.799.592l-.872.523-1.022-.407-.317-.138-.06-.036c-1.086-.674-2.279-1.407-3.577-2.194-3.186-2.429-6.138-5.574-8.785-9.361l-.766-1.037c-3.597-4.618-7.319-10.332-11.068-16.988-1.739-3.494-3.381-6.926-4.896-10.241-1.502-3.271-2.957-6.73-4.327-10.286-1.363-3.799-2.63-7.293-3.852-10.62l96.271-89.029 5.136-5.109.936-1.195c9.721-12.418 14.002-27.267 12.381-42.943-1.657-16.017-9.243-29.735-21.944-39.678-10.786-8.437-22.988-12.714-36.267-12.714-2.132 0-4.31.115-6.472.343-15.776 1.661-29.35 9.188-39.266 21.776l-39.445 48.922-.271-1.803-.016-.104c-.298-1.922-.584-3.997-.851-6.17l-.309-2.513-.087-.261c-.08-1.057-.206-2.106-.379-3.145v-6.597l-.733-1.452c-.063-.509-.14-1.018-.227-1.526v-1.244l-.7-2.895c-3.734-15.451-12.588-28.066-25.621-36.491-9.621-6.21-20.192-9.359-31.42-9.359-4.151 0-8.406.445-12.64 1.321-15.82 3.271-28.719 12.027-37.296 25.312-8.505 13.161-11.286 28.402-8.043 44.076l.441 2.133v1.104l1.655 5.791c.233 1.117.51 2.344.834 3.7.351 14.63-.774 27.008-3.35 36.82-2.977 11.342-5.979 20.51-8.925 27.255-1.504 3.225-2.945 6.068-4.304 8.489 1.197-5.356 2.28-10.853 3.242-16.457 1.08-6.126 1.901-12.427 2.44-18.723.557-6.482.668-13.165.33-19.872-.023-3.802-.233-7.55-.634-11.214-.399-3.565-.994-7.337-1.777-11.276-.87-4.312-2.062-8.648-3.563-12.953-1.684-4.786-3.938-9.55-6.715-14.181-2.479-4.124-5.377-8.27-8.612-12.322l-.88-1.101-.997-.996c-4.473-4.462-9.283-8.346-14.3-11.543l-.581-.359c-4.629-2.776-9.843-5.188-15.941-7.374l-.793-.285-.812-.23c-3.754-1.067-7.433-1.759-11.023-2.067-1.214-.1-2.447-.254-3.666-.459l-2.057-.345h-2.085c-2.434 0-4.814.059-7.137.178-3.725-3.328-7.877-6.235-12.438-8.703-9.732-5.248-20.418-7.723-31.8-7.315h-.945c-1.923 0-3.707.174-5.358.48h-2.877l-10.642 2.128-.994.286c-1.718.494-3.466.947-5.182 1.343-3.465.798-6.853 1.958-10.094 3.453-9.641 3.587-18.376 8.224-25.99 13.797-7.188 5.05-13.512 10.251-18.812 15.471-2.729 2.407-5.354 4.868-7.809 7.324-2.937 2.937-5.711 6.12-8.253 9.468-4.406 5.438-8.466 10.805-12.068 15.952-3.847 5.494-7.466 11.414-10.761 17.598-1.979 3.445-3.872 6.895-5.675 10.336-.054-.602-.116-1.195-.188-1.775l-.016-.121c-.002-.015-.036-.348-.036-1.14v-1.259l-.126-1.252c-.799-7.908-2.227-15.406-4.245-22.287l-.272-.869c-1.233-3.699-2.799-7.629-4.787-12.014l-.597-1.318-.746-1.24c-.948-1.579-1.897-3.158-2.876-4.796-1.492-2.483-3.247-4.999-5.217-7.478l-.521-.657-.565-.621c-4.18-4.591-8.162-8.345-12.17-11.475-2.945-2.328-6.155-4.366-9.535-6.055l-7.363-3.682-1.7-.564c-5.034-1.672-10.167-2.953-15.254-3.808l-.037-.006c-2.118-.517-4.329-.791-6.616-.817-2.822-.482-5.187-.482-6.61-.482-2.184 0-4.324.221-6.398.66l-.518.075c-2.308.332-4.53.664-6.745.999-3.438.532-6.822 1.346-10.057 2.42l-.546.188c-2.135.764-4.104 1.538-5.933 2.332l1.771-3.1.874-2.622.762-1.269 2.896-6.373 4.604-9.667c6.59-13.193 13.101-27.557 19.356-42.697l.175-.433c2.881-7.36 5.717-14.951 8.438-22.585 2.641-7.435 4.992-15.015 6.997-22.551 1.533-4.172 2.725-8.751 3.552-13.653l1.429-5.71.64-3.843c.267-1.089.469-2.203.606-3.34.263-1.363.45-2.69.563-3.996l.614-1.828v-4.087l.011-.8.469-1.867v-3.093c0-1.311.055-2.666.169-4.114.207-2.729.312-5.383.312-7.886v-13.794l-.256-1.774c-.241-1.674-.421-3.287-.534-4.793l-.008-.101c-.286-3.597-.948-7.281-1.969-10.958-.812-3.182-1.738-6.24-2.751-9.096l-.034-.097c-1.396-3.886-3.383-7.91-5.954-12.04-3.122-4.975-7.283-9.516-12.721-13.882l-1.736-1.394-1.956-1.065c-5.327-2.903-10.85-4.974-16.438-6.166-5.661-1.599-11.702-1.993-17.92-1.153-4.559.201-9.109 1.017-13.565 2.432-6.952 1.943-13.834 5.123-20.476 9.462-4.888 2.91-9.902 6.532-14.914 10.775l-.791.669-.732.732c-1.269 1.268-2.569 2.504-3.815 3.627-1.887 1.692-3.835 3.542-5.789 5.498l-.887.886-.793.971c-3.234 3.959-6.229 7.864-8.904 11.607-2.359 3.304-4.8 6.688-7.314 10.147l-.874 1.285c-2.525 3.97-4.911 8.007-7.101 12.02l-6.802 12.469-.699 2.08c-.285.847-.644 1.704-1.066 2.55-1.487 2.974-2.747 6.005-3.748 9.011-.329.977-.656 1.955-.978 2.932l-.52 1.552c-.124.284-.244.567-.359.851l-.35.349-2.992 8.224c-.921 2.53-1.841 5.058-2.746 7.556l-1.171 3.218c-.896 2.459-1.79 4.916-2.68 7.372l-.104.292c-2.521 7.234-5.045 14.256-7.5 20.857-2.598 6.974-5.244 14.334-7.866 21.877l-.255.774c-4.239 13.61-8.574 27.72-13.254 43.139-4.389 14.471-8.585 29.198-12.472 43.773l-.036.136c-2.012 7.715-3.868 15.481-5.515 23.062-1.549 7.109-3.135 14.555-4.714 22.143-1.133 4.35-2.06 8.923-2.766 13.652l-.295.59-.766 4.592c-.396 1.396-.69 2.829-.883 4.296l-1.024 3.588-.198.984c-.415 2.071-.727 3.846-.951 5.42-.031.202-.102.593-.249 1.19l-.351 1.421-.182 1.452c-.316 2.52-.635 4.951-.932 7.219-.2 1.489-.511 3.082-.923 4.733l-.334 1.344-.185 1.372c-.667 4.965-1.268 10.2-1.786 15.559-.441 4.56-.973 9.189-1.579 13.762l-.107.952c-.382 4.072-.697 8.258-.942 12.5-.777 1.558-1.511 3.137-2.204 4.75-.163.384-.361.818-.591 1.299-1.712 2.8-3.232 5.525-4.517 8.095-.552 1.099-1.248 2.239-2.07 3.39l-.738 1.031-.629 1.101c-2.361 4.129-4.879 8.276-7.494 12.343-2.462 3.834-5.12 7.611-7.9 11.228l-.528.713c-2.794 3.911-5.644 7.618-8.455 10.997-2.715 3.257-5.594 6.409-8.562 9.377-.754.755-1.63 1.507-2.594 2.23-2.144 1.607-4.342 3.344-6.536 5.164l-.442.345c-.186-2.226-.432-4.595-.74-7.111-.259-2.057-.453-4.058-.582-6.029-.122-1.775-.182-3.648-.182-5.726v-14.88c0-5.277.076-10.246.228-14.808.142-4.464.358-9.227.645-14.169.325-2.765.58-5.559.761-8.37.123-2.008.315-4.06.578-6.15.444-3.596.669-7.291.669-10.983 0-1.451.071-2.851.211-4.172.287-1.615.49-3.17.612-4.688l3.646-6.483.583-1.101c1.532-3.073 2.99-6.279 4.347-9.562.583-1.416 1.307-2.818 2.151-4.167l.637-1.019.537-1.074c2.68-5.364 5.275-10.724 7.706-15.912 2.4-5.114 4.81-10.089 7.162-14.785l.282-.583c9.709-20.709 19.06-41.871 27.792-62.895 8.736-20.707 17.103-41.87 24.864-62.901l5.758-15.833 5.724-15.263.158-.437c1.842-5.217 3.722-10.609 5.594-16.05 1.795-5.23 3.537-10.691 5.184-16.243l2.279-6.458c1.242-2.835 2.118-5.772 2.615-8.767l.436-1.084.419-1.681c.438-1.755 1.015-3.655 1.711-5.628 1.27-3.59 2.354-7.381 3.238-11.328.729-3.287 1.365-6.473 1.889-9.447.473-2.668.985-5.384 1.524-8.076.812-3.711 1.432-7.55 1.846-11.468.444-4.295.485-8.861.121-13.587-.121-6.036-1.174-11.955-3.134-17.622-1.35-4.38-3.308-8.519-5.826-12.313l-.08-.119c-.745-1.108-1.574-2.303-2.491-3.601l-.115-.161c-1.601-2.227-3.371-4.316-5.264-6.208l-1.265-1.265-1.432-1.071c-4.189-3.137-8.218-5.517-12.312-7.276l-.624-.258c-4.008-1.595-7.635-2.651-11.081-3.21-2.337-.634-4.782-.962-7.284-.962h-8.4c-2.746 0-5.577.315-8.432.938-5.909 1.012-11.524 2.835-16.734 5.43-2.874 1.096-5.588 2.407-8.062 3.895-1.562.934-3.115 1.867-4.67 2.801l-.136.082c-2.356 1.41-4.553 2.878-6.462 4.317-1.493 1.117-2.979 2.351-4.437 3.686-2.262 1.564-4.333 3.283-6.185 5.134l-3.601 3.6c-10.501 10.501-19.389 21.601-26.421 32.997-6.936 10.445-13.255 21.853-18.787 33.917-1.643 3.326-3.109 6.806-4.37 10.371-.603 1.708-1.327 3.416-2.145 5.055-1.429 2.857-2.723 5.869-3.859 8.982.494-1.591.878-3.208 1.149-4.842l.437-1.087.417-1.677c.437-1.751 1.013-3.648 1.714-5.632 1.267-3.587 2.351-7.375 3.236-11.329.727-3.283 1.361-6.464 1.887-9.44.473-2.671.986-5.391 1.527-8.086.811-3.709 1.428-7.545 1.842-11.456.444-4.295.485-8.862.121-13.588-.12-6.04-1.173-11.958-3.134-17.624-1.347-4.372-3.302-8.507-5.819-12.303l-.089-.133c-.743-1.105-1.57-2.297-2.484-3.592l-.118-.165c-1.604-2.231-3.378-4.324-5.273-6.217l-1.26-1.259-1.425-1.067c-4.19-3.138-8.219-5.518-12.314-7.278l-.624-.258c-4.008-1.595-7.636-2.651-11.083-3.211-2.336-.634-4.781-.961-7.283-.961h-8.4c-2.743 0-5.572.315-8.424.937-5.913 1.013-11.531 2.835-16.742 5.432-2.873 1.095-5.586 2.406-8.065 3.896-1.501.897-2.994 1.795-4.488 2.692l-.311.187c-2.355 1.409-4.551 2.876-6.467 4.319-1.492 1.117-2.977 2.351-4.435 3.685-2.261 1.563-4.333 3.282-6.185 5.134l-3.6 3.6c-10.503 10.503-19.391 21.604-26.423 33-6.932 10.438-13.25 21.843-18.785 33.91-1.644 3.33-3.111 6.812-4.371 10.374-.603 1.708-1.328 3.417-2.143 5.05l-.368.771c-2.901-4.823-6.452-9.326-10.647-13.442-12.939-12.682-29.281-19.386-47.26-19.386-18.392 0-34.878 6.764-47.678 19.562-12.797 12.798-19.562 29.285-19.562 47.677 0 18.394 6.765 34.88 19.562 47.678 12.798 12.798 29.285 19.562 47.677 19.562 9.233 0 18.03-1.781 26.162-5.22-1.956 7.728-3.788 15.441-5.469 23.113-4.922 22.48-9.069 45.458-12.328 68.296l-.073.554c-.955 7.96-1.91 15.756-2.865 23.396-.939 7.518-1.739 15.237-2.378 22.972-1.107 5.494-1.505 10.837-1.188 15.926-.018.517-.053 1.047-.105 1.584-.188 1.857-.304 3.763-.345 5.685-.33 3.11-.497 6.377-.497 9.734 0 1.916-.111 3.909-.332 5.924l-.148 1.354v8.622c-1.464 1.759-2.798 3.581-3.985 5.445-.104.164-.309.438-.689.819l-1.384 1.385-1.152 1.583c-2.378 3.268-5.634 7.506-9.69 12.611-4.395 5.54-7.841 10.021-10.512 13.669-2.335 2.835-4.69 5.508-7.024 7.97-2.93 3.098-5.898 6.311-8.826 9.555-3.444 3.621-6.855 7.102-10.202 10.408.515-2.235 1.139-4.454 1.863-6.622l.379-1.134.269-1.164c.943-4.086 1.887-8.099 2.829-12.027.754-3.142 1.629-6.231 2.603-9.19 1.768-4.648 3.314-9.318 4.605-13.917.843-3.017 1.876-5.993 3.069-8.848l.269-.671c1.759-4.576 3.372-9.146 4.804-13.615 1.052-3.3 2.252-6.568 3.567-9.714l.269-.669c1.692-4.402 3.292-8.693 4.747-12.743 1.326-3.682 2.707-7.244 4.104-10.588l.271-.675c1.41-3.668 2.898-7.213 4.441-10.575 1.96-4.289 3.854-8.797 5.628-13.396l.402-1.121c.436-1.312.94-2.657 1.531-4.071.247-.597.515-1.213.802-1.844l9.019-20.691c4.667-13.912 3.892-28.239-2.302-41.667-6.468-14.011-17.524-24.533-31.991-30.436-14.793-6.022-30.466-5.866-45.063.463-14.163 6.149-24.811 16.903-30.844 31.135-1.118 2.358-1.955 4.665-2.53 6.977l-2.802 7.284-13.344 39.948-.32 1.034c-1.193 4.175-2.439 8.381-3.694 12.473-1.365 4.429-2.708 8.962-3.985 13.449-1.349 4.717-2.615 9.363-3.756 13.771-1.113 4.273-2.188 8.795-3.197 13.451-1.342 4.769-2.542 9.696-3.572 14.668-.526 2.545-1.052 5.064-1.579 7.559l-.771.992c-.999 1.246-1.928 2.361-2.747 3.296-.789.898-1.788 1.953-2.972 3.137l-.991 1.051c-2.817 3.163-6.295 7.316-10.628 12.69-2.29 2.838-4.061 4.926-5.415 6.455 2.396-5.444 4.798-10.936 7.167-16.384 1.758-3.882 3.436-7.86 4.983-11.815 1.301-3.32 2.658-6.537 4.035-9.562l.329-.755c1.818-4.37 3.483-8.812 4.964-13.245 1.338-4.03 2.658-8.152 3.924-12.255.651-1.968 1.305-4.013 2.009-6.288.679-2.214 1.359-4.517 2.06-6.953.941-3.299 1.664-6.67 2.156-10.093.19-1.351.503-2.896.93-4.595l.378-1.502.189-1.539c.376-3.055.666-6.238.865-9.524.187-3.226.282-6.7.282-10.328v-5.041c0-2.996-.259-6.131-.77-9.322-.852-5.797-2.29-11.479-4.28-16.913-.724-2.446-1.677-4.867-2.845-7.214l-.077-.153c-.468-.925-.931-1.854-1.394-2.783-1.874-4.501-4.616-9.008-8.347-13.722-2.871-3.777-6.378-7.517-10.709-11.421l-.315-.279c-3.936-3.43-8.5-6.571-13.566-9.336l-1.337-.73-1.416-.562c-1.56-.619-3.112-1.239-4.665-1.866l-.135-.054c-2.282-.906-4.607-1.653-6.935-2.229-2.937-1.004-5.889-1.679-8.803-2.013l-.135-.015c-.688-.075-1.472-.201-2.328-.374l-.128-.025c-3.295-.647-7.114-.948-12.015-.948h-7.341l-1.521.761c-3.885.414-7.565 1.003-11.001 1.764-2.858.64-5.717 1.273-8.576 1.906l-1.271.281-1.235.412c-2.456.818-4.86 1.713-7.208 2.681l.085-.256c.642-1.46 1.27-2.805 1.871-4.008 1.182-2.364 2.36-4.914 3.501-7.58l.172-.413c3.648-8.962 7.15-17.676 10.405-25.894 3.343-8.433 6.722-17.249 10.041-26.205l.321-.921c5.53-16.917 10.972-35.058 16.177-53.917l.423-1.536.507-3.548.62-1.86 1.929-9.643.114-.931c.277-2.25.577-4.502.902-6.764.331-2.35.67-4.873 1.009-7.57l1.635-16.272v-5.087c0-2.167-.179-4.353-.533-6.528-.065-1.623-.19-3.191-.375-4.685l-.018-.144c-.235-1.828-.557-3.771-.982-5.938l-.026-.133c-1.153-5.712-3.173-11.195-6.002-16.297l-.516-.93-.593-.883c-1.015-1.512-2.059-2.944-3.103-4.257l-.158-.196c-.007-.008-.171-.212-.511-.723l-2.184-3.286-3.089-2.454c-1.917-1.523-4.181-3.223-6.728-5.052l-2.226-1.598-2.519-1.078c-2.8-1.199-5.531-2.247-8.117-3.115l-3.874-1.302h-1.97c-.797-.143-1.603-.253-2.417-.333l-1.882-.627h-4.057c-5.82 0-11.388.725-16.57 2.156-2.015.435-4.019.951-5.953 1.532-2.267.678-4.587 1.489-6.897 2.41l-.978.39-.942.471c-3.378 1.688-6.926 3.761-10.552 6.164-3.427 2.163-6.628 4.496-9.525 6.943-2.1 1.774-4.272 3.623-6.52 5.553-2.696 2.267-5.209 4.742-7.486 7.37l-2.179 2.179c-2.009 2.01-3.783 4.247-5.299 6.677-1.136 1.361-2.268 2.723-3.398 4.081-1.962 2.348-3.968 4.952-6.013 7.814-6.017 8.486-11.581 17.781-16.544 27.637-1.48 2.626-2.825 5.242-4.01 7.807-1.04 2.258-2.097 4.637-3.143 7.07l-.442 1.103c-.788 2.104-1.57 4.096-2.295 5.847-.683 1.635-1.41 3.459-2.208 5.543-1.021-5.513-2.37-10.795-4.038-15.805l-.294-.884-.359-.859c-1.882-4.503-3.96-8.943-6.19-13.22-2.469-4.723-5.376-9.4-8.666-13.935-6.424-8.822-13.637-16.428-21.441-22.605-4.041-3.225-8.176-6.115-12.313-8.601-3.901-2.338-8.068-4.527-12.389-6.506-8.021-3.799-16.495-6.88-25.194-9.161-4.474-1.214-8.933-2.143-13.256-2.76-3.152-.45-6.296-.962-9.409-1.533-4.574-.827-9.229-1.355-13.888-1.574-3.119-.14-6.28-.355-9.396-.641l-1.113-.077c-7.271-.341-14.638-.351-21.917-.026-7.787.026-15.523.567-23.012 1.609-7.495.742-15.041 1.92-22.437 3.505-7.186 1.54-14.472 3.36-21.659 5.41-3.664 1-7.208 2.012-10.522 3.008-3.85 1.154-7.781 2.529-11.687 4.087l-1.094.467c-3.314 1.509-6.395 2.862-9.184 4.033-3.378 1.423-6.865 3.025-10.371 4.767-6.973 3.154-13.879 6.705-20.54 10.562-6.759 3.917-13.438 8.249-19.867 12.887-6.271 4.531-12.453 9.389-18.379 14.44-5.904 5.035-11.562 10.251-16.816 15.505-10.348 10.348-20.286 22.161-29.551 35.122-4.834 5.921-9.401 12.184-13.589 18.638-4.07 6.279-8.005 12.695-11.693 19.064-3.74 6.455-7.34 13.056-10.69 19.599-3.313 6.456-6.531 13.139-9.565 19.869-3.363 7.073-6.292 13.953-8.71 20.465-3.021 7.112-5.608 14.334-7.701 21.495-2.764 7.366-5.058 14.856-6.818 22.259-1.562 6.538-3.152 13.378-4.863 20.912l-.135.633c-3.051 15.253-5.28 30.605-6.625 45.622-1.408 15.64-1.41 31.739-.007 47.838.661 7.627 1.507 15.419 2.517 23.154 1.09 8.36 2.746 16.826 4.918 25.154 2.123 8.143 4.715 16.369 7.694 24.421 3.112 8.442 6.932 16.83 11.343 24.913 2.373 4.354 4.974 8.555 7.691 12.426 2.447 3.507 5.081 7.029 7.834 10.479 3.056 4.17 6.29 8.065 9.597 11.563 3.197 3.393 6.687 6.641 10.386 9.67 3.424 3.34 7.055 6.452 10.788 9.249 3.675 2.761 7.604 5.476 11.688 8.072 4.59 2.917 9.375 5.467 14.242 7.587 3.65 1.587 7.151 3.144 10.405 4.625l.759.331c4.555 1.895 9.125 3.546 13.612 4.917 4.091 1.244 8.294 2.406 12.492 3.455l.974.243.99.164c7.962 1.322 15.884 2.345 23.562 3.042 4.851.754 9.682 1.136 14.374 1.136 3.994 0 8.014-.164 11.968-.488 2.412-.036 4.545-.189 6.496-.471h5.394l2.449-.494c.437-.088 1.206-.214 2.462-.317 2.311-.197 4.54-.483 6.646-.853 7.059-.71 14.273-1.743 21.491-3.08 7.29-1.36 14.44-2.911 21.256-4.607 7.26-1.738 14.507-3.747 21.578-5.986 7.067-2.248 14.101-4.765 20.911-7.479 21.622-8.19 41.787-18.717 60.178-31.397l-.133 1.067-.153.455-.258 2.974c-1.129 13.034 2.171 25.628 9.564 36.448 7.706 11.246 18.882 18.767 32.331 21.761 4.271 1.005 8.574 1.515 12.794 1.515 10.047 0 19.597-2.796 28.396-8.317 12.396-7.788 20.768-19.479 24.209-33.812l.691-2.878v-.764l4.151-16.189 2.84-6.628c1.588-3.492 3.057-6.649 4.505-9.682 1.646-3.462 3.32-7.061 4.986-10.72 2.958-6.514 6.1-12.875 9.345-18.916 3.294-6.14 6.811-12.332 10.438-18.38.97-1.613 1.94-3.228 2.883-4.806l.363-.604c.847-1.41 1.695-2.821 2.525-4.208l5.759-9.599.425-.736c1.094-1.972 2.639-4.333 4.593-7.019l.647-.891.567-.943c.765-1.273 1.523-2.475 2.255-3.572.547-.821 1.249-1.769 2.086-2.816l.536-.67.488-.705c4.961-7.167 10.133-14.04 15.456-20.547-1.595 5.976-3.345 12.102-5.212 18.25l-3.212 12.723c-1.058 4.232-1.957 8.496-2.673 12.686-.858 3.7-1.734 7.343-2.607 10.835-1.146 4.585-2.108 9.387-2.857 14.271l-.036.236c-.312 2.175-.626 4.271-.92 6.217-.339 2.19-.678 4.46-1 6.743-.406 2.829-.713 5.695-.907 8.444-.207 2.813-.307 5.768-.307 9.03v7.44c0 3.337.214 6.938.635 10.702l.183 1.313c.763 4.597 1.529 8.396 2.329 11.568 1.467 5.867 3.694 11.564 6.62 16.936l.521.955.601.905c.649.978 1.297 1.953 1.954 2.931.868 1.305 1.911 2.769 3.187 4.473l.792 1.003c2.534 3.046 5.383 5.897 8.468 8.477l1.053.881 1.144.76c.749.497 1.556 1.061 2.463 1.708 2.143 1.524 4.45 2.911 6.921 4.154 2.328 1.162 4.477 2.069 6.57 2.772l.158.053c1.304.429 2.715.842 4.207 1.233 6.102 1.922 6.214 2.841 18.957 2.896l26.44-5.218.584-.217c3.282-1.231 6.653-2.703 10.017-4.375l1.33-.711c1.98-1.137 3.947-2.229 5.844-3.247l.094-.051c3.284-1.779 6.45-3.897 9.421-6.303 4.167-3.077 8.187-6.447 11.995-10.06 3.583-3.414 6.709-6.458 9.555-9.305l.459-.473c4.244-4.475 8.296-9.083 12.109-13.769l.377 1.003c1.403 4.381 3.343 8.736 5.78 12.979 2.355 4.83 5.729 9.643 10.272 14.655 3.929 4.403 8.742 8.521 14.369 12.279 3.908 2.594 8.094 4.591 12.487 5.949 1.907.586 3.593 1.124 5.144 1.642 6.161 2.189 12.792 3.3 19.714 3.3 2.709 0 5.179-.158 7.462-.479h4.276l1.44-.48 2.622-.556c6.126-1.313 11.22-2.944 15.532-4.975 2.591-1.095 5.035-2.35 7.277-3.739l.154-.096c.549-.346 1.102-.658 1.645-.928l1.029-.512.978-.604c5.221-3.224 10.597-7.191 15.984-11.796 2.466-2.068 4.914-4.313 7.278-6.678l1.958-1.96c1.16-1.161 2.252-2.256 3.282-3.281l.078-.077c2.432-2.442 4.734-5.107 6.844-7.92 1.212-1.616 2.471-3.207 3.741-4.726l.162-.196c3.102-3.788 6.184-7.751 9.164-11.782 1.452-1.966 2.903-3.981 4.346-6.036l.068.172c.761 1.916 1.538 3.76 2.308 5.482.479 1.083.99 2.299 1.562 3.713.885 2.222 1.896 4.468 3.006 6.68 1.06 2.135 2.228 4.259 3.569 6.49.777 1.293 1.568 2.678 2.378 4.166 1.655 3.024 3.593 5.933 5.749 8.63 1.837 2.302 3.916 4.617 6.182 6.884l5.611 5.612.883.734c2.838 2.359 5.829 4.511 8.907 6.403 3.457 2.122 7.25 3.961 11.252 5.459 7.91 2.97 16.034 4.475 24.145 4.475h10.327l1.843-.619c1.755-.16 3.502-.459 5.231-.894 5.189-.898 10.016-2.208 14.378-3.9 8.07-2.874 16.165-6.928 24.065-12.053l.261-.172c3.718-2.478 7.222-5.136 10.454-7.933 1.878-1.633 3.802-3.31 5.779-5.033l2.348-2.046.62-.622c2.489-2.497 4.871-4.969 7.083-7.348 2.78-2.99 5.319-6.231 7.562-9.649.41-.52.817-1.04 1.223-1.562.453.996.929 1.99 1.424 2.977 1.06 2.135 2.228 4.258 3.568 6.488.776 1.293 1.569 2.682 2.38 4.169 1.655 3.024 3.594 5.934 5.753 8.635 1.839 2.304 3.918 4.618 6.182 6.883l5.606 5.606.884.735c2.837 2.359 5.828 4.511 8.905 6.402 3.455 2.121 7.249 3.962 11.255 5.461 7.91 2.969 16.033 4.475 24.146 4.475h10.322l1.844-.619c1.756-.16 3.503-.458 5.232-.894 5.189-.898 10.018-2.208 14.381-3.9 8.069-2.874 16.163-6.928 24.064-12.053l.257-.169c3.718-2.478 7.223-5.135 10.461-7.938 2.062-1.794 4.182-3.641 6.364-5.544l1.76-1.533.618-.62c2.492-2.501 4.876-4.973 7.089-7.352 2.339-2.517 4.506-5.208 6.468-8.031 1.976 3.923 4.286 7.688 6.875 11.205 5.086 7.511 11.255 14.283 18.346 20.141 8.349 7.011 17.247 12.198 26.452 15.422l.375.128c8.473 2.817 17.106 4.662 25.661 5.482l1.19.114h15.116c2.891 0 5.876-.31 9.124-.945l.139-.027c.857-.173 1.642-.299 2.331-.374l.131-.015c2.11-.242 4.249-.578 6.539-1.028l2.334-.46 1.651-.666c2.898-.481 5.748-1.321 8.51-2.506 2.489-.837 5.025-1.71 7.583-2.61 4.02-1.423 7.962-3.285 11.735-5.541 5.689-2.896 11.022-5.995 15.872-9.227 5.061-3.375 10.103-7.179 15.021-11.335 4.826-4.093 9.338-8.325 13.409-12.578 3.269-3.414 6.457-7.053 9.511-10.85 8.21-1.912 15.313-4.347 21.626-7.411 2.713-1.155 5.225-2.511 7.477-4.035l.634-.254.917-.459c2.428-1.214 4.76-2.615 6.909-4.149 1.479-1.053 2.909-2.194 4.27-3.409 1.898-1.306 3.745-2.642 5.533-4.006.716 2.918 1.518 5.739 2.403 8.452 1.211 4.343 2.643 8.479 4.235 12.252 1.579 3.771 3.481 7.689 5.812 11.97 4.892 9.289 11.402 17.582 19.365 24.663 3.589 3.188 7.417 6.211 11.393 8.996 4.426 3.095 9.151 5.795 14.045 8.024l.892.386c8.854 3.624 17.904 6.097 26.907 7.352 3.151.498 6.246.751 9.205.751h.161l2.393.48h2.486c2.506 0 4.839-.158 7.051-.48h5.044l2.446-.493c.772-.156 1.545-.272 2.296-.346l.131-.013c2.329-.241 4.697-.596 7.039-1.055l.135-.026c.857-.173 1.641-.299 2.33-.374l.138-.016c3.052-.35 6.144-1.074 9.216-2.157 4.635-1.242 8.642-2.735 12.159-4.531.919-.362 1.778-.69 2.597-.997 1.39-.524 2.961-1.137 4.712-1.831l1.526-.605 1.435-.8c3.217-1.793 6.313-3.616 9.27-5.458 2.535-1.59 5.07-3.174 7.612-4.757l.811-.505.77-.564c5.426-3.984 10.638-8.191 15.491-12.506 5.124-4.554 10.008-9.527 14.518-14.784 7.818-8.901 15.189-18.792 21.912-29.402l.4-.641c4.851-.62 9.509-1.627 13.937-3.017 5.136-1.225 10.264-2.983 15.32-5.251l-15.413 19.059c-5.575 6.782-8.328 15.282-7.751 24.016.577 8.446 3.988 16.031 9.903 21.973 6.579 6.579 15.243 10.202 24.397 10.202 8.425 0 16.278-2.83 22.711-8.185l.49-.407 69.715-64.296c2.599 4.099 5.32 8.1 8.151 11.982 3.179 4.58 6.64 9.189 10.279 13.69 3.705 4.589 7.525 9.03 11.356 13.203l.737.77c2.208 2.208 4.477 4.386 6.708 6.44 2.299 2.124 4.719 4.275 7.193 6.394l1.421 1.217 1.586.991c2.479 1.549 4.698 2.98 6.839 4.413 2.624 1.747 5.328 3.49 8.045 5.189 3.705 2.315 7.613 4.328 11.645 5.994 3.777 1.556 7.857 2.816 12.145 3.754 8.096 2.423 16.491 3.65 24.976 3.65 1.902 0 3.761-.161 5.567-.481 3.573-.028 7.256-.581 10.976-1.646 2.981-.607 5.844-1.453 8.531-2.521l.117-.048c1.558-.628 3.115-1.25 4.68-1.871l1.015-.403.976-.489c4.172-2.096 8.051-4.364 11.61-6.799 3.278-2.26 6.396-4.653 9.285-7.127 5.879-5.042 10.897-10.633 14.938-16.637 1.915-2.389 3.732-4.919 5.398-7.515 1.284-1.992 2.588-3.913 3.874-5.71l.562-.785.499-.824c8.31-13.729 14.757-27.49 19.161-40.895 3.971-12.074 7.667-24.592 10.987-37.205l.08-.314c.579-2.323 1.148-4.457 1.704-6.394l.371-1.3c.509-1.787 1.02-3.578 1.534-5.368l.287-.998.203-1.019c.369-1.852.618-2.743.701-3.021l1.023-2.549.725-5.068.893-3.567.165-.992c2.554-15.353-5.225-29.216-19.814-35.317zm-1604.969-173.88c4.729-4.138 9.146-8.646 13.132-13.406 8.157-9.425 14.586-20.035 19.11-31.539l.28-.748c.741-2.076 1.391-4.168 1.949-6.27-.234 1.579-.533 3.157-.894 4.72l-.25 1.221c-1.178 6.578-3.006 12.374-5.432 17.229l-.659 1.429c-2.751 6.497-5.814 12.054-9.104 16.516l-.354.492c-3.69 5.27-7.921 10.372-12.563 15.15-4.811 4.946-9.891 9.541-15.024 13.597-10.217 8.01-21.588 14.885-33.812 20.441-3.051 1.389-6.022 2.633-8.875 3.716-3.617 1.38-7.334 2.928-11.061 4.605-.377.135-.926.307-1.689.498-2.533.633-4.972 1.387-7.268 2.245-.967.208-1.941.452-2.941.736l-3.944.657-2.591 1.037c-.193.017-.378.025-.555.025-.704 0-1.542-.112-2.894-.922-1.27-.762-1.763-1.323-2.183-3.141l-.29-1.135c-.444-1.581-.283-2.049.334-3.094.761-1.288 1.519-2.111 2.572-2.714l5.146-1.716 6.062-1.347 2.242-1.121c2.041-.543 4.141-1.243 6.383-2.128l16.832-6.12 1.275-.636c2.315-1.154 4.634-2.277 6.838-3.31 2.574-1.199 5.212-2.476 8.037-3.888 2.928-1.459 5.773-2.978 8.433-4.498 2.511-1.432 5.228-3.062 8.076-4.844l.263-.167c5.496-3.533 10.683-7.426 15.419-11.57zm-253.433 309.866c-2.482-1.082-4.964-2.407-7.368-3.936-2.985-1.898-5.838-3.868-8.507-5.873-2.229-1.67-4.394-3.55-6.432-5.589l-.987-.986-1.09-.871c-2.272-1.815-4.389-3.758-6.314-5.801-1.984-2.1-3.953-4.49-5.852-7.106l-.741-.971c-2.19-2.728-4.273-5.505-6.232-8.312-1.678-2.391-3.276-4.973-4.757-7.692-3.255-5.964-6.056-12.11-8.337-18.299-2.417-6.533-4.508-13.164-6.216-19.717-1.648-6.315-2.899-12.708-3.72-19.002-.917-7.025-1.685-14.092-2.285-21.016-1.149-13.184-1.151-26.314-.005-39.039 1.177-13.135 3.125-26.58 5.791-39.969 1.642-7.226 3.169-13.789 4.671-20.079 1.343-5.646 3.117-11.375 5.275-17.028l.385-1.008.296-1.038c1.624-5.682 3.689-11.461 6.14-17.18l.485-1.217c1.96-5.33 4.405-11.075 7.264-17.074l.229-.495c2.718-6.037 5.599-12.028 8.576-17.828 2.968-5.797 6.15-11.631 9.462-17.347 3.274-5.655 6.767-11.35 10.376-16.918 3.321-5.118 6.956-10.081 10.804-14.753l.566-.688.517-.727c1.309-1.842 2.632-3.653 3.968-5.434-1.203 1.979-2.397 3.977-3.58 5.987-6.92 11.427-13.078 23.402-18.308 35.602-5.024 11.728-9.609 23.616-13.628 35.335l-2.947 8.839c-1.123 3.369-2.087 6.912-2.872 10.553-.935 2.874-1.789 5.707-2.533 8.403-.873 3.131-1.672 6.311-2.379 9.461-1.724 6.589-3.136 13.161-4.2 19.542-.953 5.721-1.93 11.74-2.902 17.895-1.059 6.375-1.865 12.926-2.396 19.477-.51 6.294-.912 12.141-1.228 17.862-1.028 12.911-1.027 25.843.003 38.444.716 12.622 2.333 24.93 4.807 36.585l.114.51c1.331 5.679 2.796 11.368 4.354 16.903 1.658 5.897 3.624 11.707 5.844 17.271 4.542 11.704 10.321 22.489 17.185 32.067 5.933 8.668 13.332 16.625 22.046 23.718-1.101-.483-2.216-.971-3.342-1.461zm268.23-151.654c-3.361 15.268-6.64 30.914-9.764 46.585-.869 1.17-1.766 2.319-2.695 3.451-1.505 1.842-2.931 3.597-4.25 5.251-1.956 2.447-3.309 4.355-4.363 6.177-.846 1.299-1.827 2.596-2.898 3.833-2.042 2.35-4.155 4.779-6.342 7.282-6.823 7.628-14.878 14.985-23.947 21.873-9.051 6.487-18.635 12.272-28.499 17.201-9.805 4.901-20.169 8.947-30.817 12.028-10.666 3.091-21.452 5.224-32.061 6.341-5.727.575-11.389.938-16.858 1.08-5.007.14-10.215-.066-15.535-.603l-1.25-.126h-5.499l-2.383-.48h-2.417l-2.4-.48h-1.094c-.733-.12-1.454-.218-2.166-.292-2.719-.575-5.425-1.087-8.065-1.526-1.924-.321-3.706-.675-5.31-1.055-2.224-.751-4.355-1.508-6.352-2.257-1.741-.652-3.504-1.425-5.241-2.296l-1.199-.602-1.256-.47c-1.294-.483-2.474-1.029-3.507-1.623l-.091-.052c-1.437-.817-2.899-1.755-4.348-2.789-6.271-4.664-11.374-9.861-15.171-15.449l-.394-.562c-4.487-6.229-8.312-13.392-11.369-21.289l-.103-.262c-1.585-3.963-2.993-8.122-4.188-12.37-1.337-4.752-2.596-9.632-3.743-14.51-1.936-9.187-3.201-18.962-3.76-29.059l-.048-.694c-.842-10.105-.84-20.517.004-30.943l.045-.654c.294-5.381.672-10.898 1.155-16.864.422-5.2 1.062-10.392 1.901-15.431l.034-.209c.955-6.041 1.912-11.947 2.846-17.551.836-5.018 1.964-10.23 3.353-15.492l.237-.976c.539-2.434 1.155-4.9 1.849-7.39.653-2.365 1.413-4.851 2.258-7.387l.493-1.481.306-1.53c.432-2.164.97-4.218 1.601-6.109l2.85-8.551c3.609-10.514 7.731-21.195 12.25-31.745 4.334-10.11 9.447-20.043 15.198-29.526l.178-.298c2.964-5.045 6.011-9.997 9.06-14.723 2.918-4.528 6.019-9.031 9.216-13.384l.239-.332c6.419-9.047 13.526-17.937 21.127-26.425 3.729-4.012 7.627-7.981 11.572-11.783 3.879-3.73 8.002-7.498 12.263-11.207 3.693-2.875 7.855-5.819 12.383-8.756 2.244-1.399 4.666-2.866 7.186-4.352 2.183-1.285 4.516-2.621 7.11-4.072 8.811-4.069 18.432-7.193 28.614-9.291 2.41-.479 4.774-.843 6.972-1.076 2.816-.292 5.703-.59 8.662-.889 4.827-.231 9.84-.23 14.949.001 4.529.492 8.846 1.358 12.815 2.567 3.746 1.146 7.497 2.8 11.155 4.916 2.042 1.289 3.938 2.557 5.577 3.724 1.148.825 2.378 1.889 3.606 3.112 2.359 2.364 4.708 5.291 6.981 8.697l.434.63c1.465 2.057 2.423 3.976 2.928 5.867l.25.87c.85 2.775 1.516 6.048 1.98 9.726l.052.39c.306 2.157.307 4.25 0 6.398l-.123.863-.062.87c-.152 2.123-.6 4.244-1.365 6.472-2.485 6.196-5.865 11.707-10.325 16.836l-.333.392c-2.359 2.829-4.991 5.519-7.823 7.997-2.856 2.499-6.02 4.874-9.405 7.061-2.226 1.391-4.311 2.642-6.223 3.732-1.862 1.065-3.861 2.13-5.971 3.182-2.401 1.201-4.693 2.311-6.867 3.323-2.199 1.031-4.444 2.111-6.689 3.22l-14.524 5.281-.779.298c-.668.269-1.003.368-.999.368l-.102.025c-1.874.471-3.734 1.078-5.563 1.813l-3.178.706-1.695.565h-.487l-3.855 1.288c-13.336 4.454-24.183 13.237-31.362 25.393-7.541 12.76-9.467 27.088-5.583 41.473 3.534 14.669 12.183 26.487 25.043 34.205 8.901 5.341 18.53 8.048 28.619 8.048 4.33 0 8.752-.514 13.141-1.525l1.878-.434 1.681-.672 2.088-.348 1.905-.624c1.735-.362 3.535-.854 5.356-1.468l1.294-.475c.389-.155 1.065-.394 2.08-.646 3.078-.77 5.871-1.666 8.54-2.738l1.016-.435c3.022-1.373 6.015-2.626 8.853-3.708 3.811-1.446 7.783-3.108 11.793-4.934 15.827-7.193 30.617-16.144 44.035-26.664 6.909-5.459 13.619-11.524 19.955-18.038 1.427-1.469 2.827-2.961 4.198-4.474-1.486 5.553-2.937 11.088-4.35 16.592-4.395 17.093-8.925 34.972-13.466 53.144-4.487 17.632-8.746 35.567-12.652 53.309zm125.878-247.198l-4.508 12.503-1.683 5.378-2.196 4.392-.781 4.685c-.477 1.464-.962 2.998-1.461 4.626-.592 1.915-1.177 3.747-1.762 5.51l-.299.967c-.94 3.269-1.657 6.514-2.12 9.569-.109.703-.259 1.339-.46 1.945l-.31 1.002c-1.38 4.826-2.619 9.605-3.684 14.216-.971 4.21-1.962 8.667-2.945 13.248l-2.765 12.443-3.478 13.414-.163.894c-.561 3.064-1.199 6.113-1.886 9.014-.903 3.782-1.725 7.708-2.442 11.667l-14.264 78.705 11.91-11.916-.207.409c-1.938 3.876-3.935 7.953-5.944 12.137-1.868 3.897-3.751 7.896-5.603 11.896-2.55 4.812-4.649 9.575-6.25 14.185l-1.47 3.432-.727 2.18-1.44 2.879-1.887 5.662-.263 1.125c-2.279 9.757-4.435 19.711-6.409 29.583-1.83 9.149-3.874 18.582-6.075 28.034l21.564 7.16c-.653 1.091-1.307 2.179-1.961 3.267l-.391.65c-.95 1.589-1.9 3.171-2.865 4.775-4.047 6.75-7.959 13.64-11.622 20.465-3.764 7.007-7.404 14.374-10.809 21.873-1.541 3.385-3.097 6.73-4.606 9.903-1.602 3.354-3.238 6.871-5.002 10.754l-6.559 15.29v2.937l-4.8 18.721v.082c-.349.54-.81.91-1.487 1.335-1.056.663-1.528.663-1.81.663-.374 0-.852-.067-1.383-.195l-.514-.117c-1.345-.293-1.544-.585-1.963-1.196-.664-.971-.977-1.762-1.039-2.753.301-1.688.487-3.449.561-5.303l1.056-7.687c.796-3.416 1.315-6.694 1.542-9.696.026-.324.13-1.258.54-2.907l.308-1.236 2.038-14.268 2.115-11.846c.748-2.774 1.333-5.527 1.741-8.204.298-1.916.595-3.897.887-5.944l22.103-103.155-.962 1.147c3.187-14.06 6.585-28.184 10.135-42.114l.028-.111c4.519-18.082 9.026-35.873 13.399-52.883 4.354-16.955 9.082-34.222 14.056-51.33l4.167-12.501.326-1.053c.619-2.17 1.194-4.115 1.778-6.002.608-1.981 1.217-4.035 1.831-6.158 1.634-4.62 3.139-9.24 4.485-13.777 1.126-3.815 2.432-7.803 3.881-11.854l.277-.776.226-.792c.486-1.707 1.043-3.44 1.672-5.197.78-2.193 1.511-4.424 2.18-6.651.837-1.988 1.644-3.989 2.415-5.992.815-2.129 1.721-4.504 2.696-7.109.876-2.334 1.651-4.309 2.333-5.942.901-2.177 1.821-4.508 2.737-6.937.801-1.855 1.604-3.657 2.38-5.341.663-1.435 1.459-2.968 2.367-4.555l.66-1.232c.917-1.835 1.859-3.643 2.824-5.418-.602 1.777-1.258 3.591-1.963 5.426zm124.093 204.812c0 2.666-.067 5.166-.194 7.367-.104 1.717-.246 3.402-.422 5.028-.658 2.808-1.173 5.521-1.529 8.042-.162 1.128-.41 2.278-.722 3.372-.603 2.096-1.197 4.114-1.776 6.001-.592 1.914-1.176 3.745-1.762 5.508l-.167.521c-1.185 3.845-2.421 7.708-3.659 11.438-1.049 3.141-2.241 6.329-3.544 9.483-1.684 3.719-3.333 7.633-4.907 11.652-1.256 3.212-2.616 6.432-4.041 9.57l-.164.367c-3.074 7.069-6.204 14.212-9.297 21.217-2.987 6.754-6.014 13.707-8.995 20.664l-8.535 19.914c-1.849 4.079-3.464 8.088-4.793 11.888-1.012 2.878-2.1 5.779-3.208 8.558-.904 2.248-1.721 4.579-2.439 6.967-.255.854-.573 1.76-.946 2.693l-.845 2.116-.448 2.233c-.288 1.434-.576 2.788-.858 4.077-.208.924-.415 1.812-.619 2.659-1.288 4.107-1.892 7.674-1.892 11.143v9.986l-.197-.736c-.432-1.715-.897-4.032-1.384-6.898-.171-1.674-.258-3.189-.258-4.512v-7.44c0-2.001.058-3.807.178-5.442.114-1.626.292-3.282.537-4.987.299-2.121.605-4.172.922-6.221.319-2.106.646-4.295.973-6.565.513-3.317 1.16-6.547 1.923-9.601 1.003-4.014 2.008-8.201 2.987-12.443l.303-1.527c.519-3.129 1.189-6.342 1.991-9.551l2.729-10.919c2.29-7.568 4.418-15.113 6.326-22.431l5.729-21.96 6.007-22.026.193-1.067c.555-3.062 1.187-6.081 1.889-9.021.749-3.166 1.444-6.3 2.069-9.333 1.172-3.899 1.723-7.298 1.723-10.584v-40.462l-36.006 18.015c-2.417.924-5.062 1.99-8.062 3.249-4.167 1.756-8.256 3.929-12.168 6.465-1.739.983-3.474 2.011-5.192 3.076.771-1.172 1.574-2.333 2.405-3.475l.435-.617c4.118-6.036 9.198-12.374 15.135-18.882 2.292-2.523 4.953-5.001 7.904-7.361 2.779-2.222 5.933-4.28 9.372-6.118l1.083-.613c2.91-1.747 6.185-3.268 9.751-4.531 2.441-.541 4.875-1.081 7.267-1.616 1.576-.349 3.396-.634 5.422-.849h7.077l.37-.185c1.318.239 2.617.44 3.886.604l1.417.563 2.198.443c.043.009.201.045.483.155 1.079.436 2.157.867 3.237 1.298 1.321.784 2.455 1.578 3.385 2.371 2.498 2.269 3.731 3.751 4.25 4.441l.456.589c.943 1.182 1.383 1.891 1.53 2.146l.329.876.569 1.144c.56 1.128 1.121 2.255 1.686 3.378l.189.746.533 1.39c.919 2.396 1.578 4.94 1.956 7.567l.073.477c.136.83.151 1.31.151 1.477v5.039zm129.633 7.345c-1.354 3.485-2.786 6.881-4.241 10.065-1.917 4.178-3.775 8.591-5.524 13.122-1.671 4.015-3.312 8.252-4.88 12.608-1.302 3.621-2.73 7.458-4.247 11.408-1.815 4.373-3.472 8.896-4.916 13.425-1.101 3.438-2.355 7-3.729 10.589-1.919 4.634-3.58 9.444-4.931 14.276-.917 3.265-2.043 6.64-3.347 10.031l-.376 1.048c-1.495 4.473-2.826 9.131-3.96 13.854-.891 3.717-1.782 7.498-2.673 11.343-1.437 4.454-2.624 9.023-3.529 13.574-.858 4.283-1.635 8.514-2.301 12.528-.301 1.792-.551 3.602-.745 5.376v-5.599c.186-5.185.588-10.445 1.197-15.642l3.346-28.572.754-.848 1.38-6.446c.961-4.488 1.924-9.057 2.883-13.698.837-4.041 1.818-8.037 2.916-11.876l.231-.81.177-.822c.908-4.234 1.873-8.319 2.878-12.179 1.045-4.041 2.201-8.277 3.441-12.616 1.188-4.17 2.428-8.357 3.697-12.475 1.304-4.252 2.591-8.589 3.826-12.896l12.61-37.83 1.854-4.82c1.019-2.221 1.806-4.443 2.353-6.641l.211-.518c1.055-2.592 2.312-3.894 4.79-4.969 1.171-.508 2.192-.755 3.121-.755.933 0 1.976.24 3.169.726 2.799 1.142 4.28 2.522 5.463 5.084.502 1.089.777 1.992.685 3.095l-6.027 14.467c-1.091 2.224-2.087 4.42-2.944 6.49-.957 2.289-1.834 4.607-2.612 6.903zm68.417-157.439c-3.642 3.57-7.309 5.094-12.259 5.094-5.19 0-8.875-1.471-12.322-4.918-3.447-3.447-4.917-7.132-4.917-12.322 0-5.19 1.471-8.875 4.917-12.322 3.447-3.447 7.132-4.918 12.322-4.918 4.951 0 8.618 1.523 12.251 5.085 3.543 3.476 4.988 6.997 4.988 12.154s-1.444 8.679-4.98 12.147zm83.189 22.364l-.12.441c-5.458 20.858-10.346 41.838-14.531 62.375-.729 2.655-1.425 5.66-2.12 9.145l-22.296 111.81 8.336-11.468-2.865 5.729-.665 2.648c-.771 3.07-1.184 6.213-1.229 9.353l-.012.061-.168.854-.108.863c-.448 3.562-.675 7.276-.675 11.038 0 1.65-.098 3.288-.284 4.799-.387 3.072-.679 6.188-.864 9.196-.133 2.068-.33 4.164-.584 6.229l-.097.785-.047.791c-.334 5.633-.587 11.111-.75 16.25-.17 5.132-.253 10.507-.253 16.43v14.88c0 3.238.098 6.232.293 9.081.129 1.959.304 3.968.518 5.974-2.297-10.124-3.863-20.074-4.657-29.61l-.069-.71c-.139-1.232-.267-2.47-.388-3.711l-2.043-20.933.667-.916v-22.702c.319-3.331.48-6.659.48-9.913 0-1.841.096-3.538.285-5.045l.195-1.552v-1.563c0-.795.036-1.527.109-2.237l.012-.113c.239-2.427.359-4.866.359-7.249v-1.144l-.104-1.139c-.035-.383-.063-1.5.425-3.619l.414-1.795.146-1.836c.602-7.55 1.371-15.089 2.286-22.404.955-7.632 1.909-15.419 2.862-23.368 3.079-21.533 6.993-43.196 11.632-64.387 4.622-21.102 10.394-42.551 17.156-63.751l.168-.549c1.438-4.894 3.049-9.8 4.789-14.585 1.797-4.942 3.77-10.023 5.861-15.102l.289-.735c1.057-2.814 2.13-5.855 3.191-9.04.583-1.749 1.257-3.392 2.017-4.911 1.744-3.498 3.28-7.119 4.558-10.743.619-1.751 1.342-3.458 2.149-5.072l.379-.793c4.306-9.425 9.165-18.292 14.457-26.381l-.482 1.737c-.326 1.297-.705 2.451-1.137 3.458-1.105 2.58-2.216 5.357-3.303 8.254l-5.346 14.578-.086.237c-3.66 10.303-7.052 20.902-10.08 31.5-2.891 10.114-5.781 20.309-8.67 30.58zm86.521 50.623c-4.92 22.472-9.067 45.45-12.326 68.295l-.073.555c-.955 7.961-1.909 15.758-2.864 23.396-.94 7.525-1.74 15.245-2.379 22.972-1.107 5.495-1.505 10.839-1.187 15.929-.017.51-.05 1.016-.096 1.483-.194 1.885-.312 3.821-.354 5.777-.33 3.107-.497 6.376-.497 9.739 0 1.916-.111 3.91-.332 5.926l-.147 1.354v11.403l-.697 1.292c-.828 1.646-1.605 3.313-2.334 5.01-.166.389-.366.828-.598 1.313-1.711 2.799-3.231 5.523-4.515 8.091-.551 1.098-1.248 2.239-2.072 3.392l-.736 1.03-.629 1.1c-2.357 4.121-4.875 8.269-7.495 12.342-2.462 3.834-5.121 7.612-7.902 11.23l-.526.709c-2.794 3.913-5.646 7.621-8.456 10.998-2.717 3.258-5.596 6.412-8.559 9.375-.769.769-1.621 1.501-2.596 2.233-2.146 1.608-4.344 3.345-6.537 5.164l-.442.345c-.186-2.236-.432-4.607-.741-7.117-.258-2.043-.452-4.045-.582-6.023-.122-1.77-.181-3.643-.181-5.726v-14.88c0-5.364.074-10.195.227-14.805.143-4.491.36-9.255.646-14.17.324-2.756.579-5.551.76-8.366.125-2.021.317-4.072.581-6.166.443-3.597.667-7.289.667-10.974 0-1.452.071-2.853.212-4.174.287-1.615.489-3.17.611-4.688l3.646-6.48.586-1.106c1.53-3.07 2.986-6.274 4.341-9.554.584-1.419 1.309-2.824 2.155-4.174l.634-1.014.535-1.07c2.661-5.323 5.258-10.684 7.71-15.918 2.403-5.12 4.812-10.096 7.163-14.788l.282-.581c9.705-20.699 19.055-41.859 27.791-62.893 8.736-20.708 17.103-41.872 24.866-62.901l5.761-15.843 1.699-4.532c-5.81 19.162-10.85 38.451-15.02 57.49zm29.975-100.944l2.277-6.453c.216-.494.422-.99.615-1.49l-.002.008c-.82 2.458-1.639 4.786-2.435 6.922l-.565 1.383.11-.37zm44.78 50.319l-.12.443c-5.456 20.848-10.344 41.83-14.531 62.377-.727 2.646-1.423 5.649-2.119 9.138l-22.318 111.809 8.409-11.564-2.911 5.822-.665 2.641c-.773 3.072-1.188 6.22-1.233 9.366l-.011.055-.17.859-.108.87c-.448 3.562-.675 7.275-.675 11.035 0 1.651-.099 3.286-.286 4.805-.387 3.086-.679 6.201-.862 9.19-.133 2.06-.329 4.157-.585 6.235l-.097.784-.046.789c-.336 5.663-.588 11.142-.75 16.247-.171 5.145-.254 10.52-.254 16.43v14.88c0 3.231.098 6.227.294 9.075.128 1.952.302 3.961.518 5.974-1.422-6.271-2.572-12.525-3.424-18.626l-4.992-35.759 1.926-4.493v-19.7c.318-3.331.479-6.658.479-9.911 0-1.844.096-3.538.284-5.036l.196-1.556v-1.568c0-.8.035-1.533.118-2.337.239-2.426.361-4.869.361-7.263v-1.144l-.104-1.139c-.035-.383-.063-1.5.425-3.619l.414-1.795.146-1.836c.602-7.541 1.37-15.079 2.286-22.407.954-7.631 1.908-15.416 2.861-23.363 3.081-21.543 6.994-43.205 11.632-64.389 4.62-21.095 10.394-42.544 17.157-63.752l.168-.55c1.435-4.883 3.046-9.791 4.788-14.583 1.799-4.946 3.771-10.026 5.861-15.1l.29-.737c1.057-2.814 2.13-5.855 3.191-9.04.584-1.75 1.258-3.395 2.015-4.909 1.744-3.498 3.28-7.12 4.558-10.743.62-1.752 1.343-3.458 2.149-5.07l.382-.798c4.303-9.42 9.162-18.288 14.457-26.383l-.482 1.735c-.327 1.3-.706 2.457-1.139 3.464-1.104 2.577-2.214 5.353-3.303 8.251l-5.347 14.581-.087.239c-3.662 10.312-7.054 20.91-10.079 31.5-2.887 10.112-5.777 20.306-8.667 30.576zm185.009 295.934l-1.183.237h-9.566c-.912-2.352-1.605-5.239-2.066-8.617l-.18-1.127c-.429-2.34-.701-4.883-.813-7.611-.124-2.896-.194-5.921-.212-9.204 1.087 2.816 2.339 5.568 3.735 8.212 1.681 3.205 3.397 6.38 5.101 9.437l.484.87.552.828c1.57 2.355 3.216 4.657 4.93 6.898l-.782.077zm14.413-380.926c-.798 2.529-1.749 5.318-2.904 8.516-1.131 2.893-1.999 5.849-2.566 8.728-.011.051-.045.197-.147.453l-1.514 4.408-3.147 3.149v8.085l-4.205 18.921-.022.102c-1.556 7.138-3.068 14.304-4.626 21.913-1.347 6.586-2.832 13.625-4.415 20.924-1.657 6.635-3.159 13.242-4.459 19.612-1.208 5.88-2.583 11.915-4.087 17.937l-21.862 87.549 15.446-15.451c-2.891 5.273-5.729 10.445-8.517 15.515l-.453.864c-1.117 2.233-2.281 4.487-3.531 6.841-1.405 2.631-2.806 5.344-4.161 8.063l-1.211 2.43-.432 1.717-3.384 3.393v8.104l-.647 2.159-2.118 9.529-.714 3.541-2.812 4.019-.981 5.368c-.541 2.959-1.212 5.979-1.999 8.99-1.121 4.304-2.065 8.559-2.807 12.645l-.147.905c-.649 4.521-1.258 8.556-1.855 12.298-.652 4.051-1.303 8.359-1.983 13.136-.717 4.982-1.262 9.799-1.614 14.277-.372 4.617-.561 9.409-.561 14.244 0 4.681.086 8.958.262 13.022.196 4.801.695 9.493 1.485 13.956 1.324 9.339 3.812 17.763 7.368 24.991-.673-1.003-1.287-2.058-1.836-3.154-1.259-2.517-2.434-4.999-3.492-7.381-2.006-4.773-3.502-9.117-4.467-12.993-.566-2.247-1.139-4.68-1.765-7.507-.464-2.074-.808-4.007-1.021-5.744l-.19-1.546-.381-1.512c-.244-.97-.403-2.035-.475-3.167l-2.676-42.718 1.108-2.593.192-4.574c.219-5.225.56-10.376 1.016-15.32.656-4.995 1.233-10.05 1.716-15.034.416-4.297.889-8.485 1.408-12.47.685-2.936 1.225-5.86 1.616-8.769.267-2.033.539-4.121.812-6.27.333-1.503.606-2.974.814-4.391l.021-.145c.038-.268.121-.807.294-1.719l.668-2.335.751-2.946.212-.424.211-1.264.269-1.074v-.538l.759-1.522.511-4.349c.495-4.229 1.237-8.203 2.202-11.814l.325-1.369c1.592-7.658 3.19-15.169 4.754-22.344 1.501-6.911 3.19-13.98 5.023-21.014 3.737-14.009 7.771-28.166 11.988-42.071 4.598-15.15 8.859-29.023 13.024-42.397 2.458-7.063 4.934-13.944 7.364-20.469 2.562-6.892 5.188-14.19 7.804-21.698.864-2.385 1.732-4.77 2.602-7.158l1.188-3.263c.642-1.769 1.284-3.539 1.929-5.309l3.887-3.882v-5.827l.96-2.876v-.016l.613-1.832.062-.188c.294-.896.596-1.793.897-2.689l.035-.106c.254-.765.602-1.59 1.031-2.451 1.089-2.177 2.065-4.412 2.916-6.671l4.827-8.852.251-.457-.437 1.359zm42.999 365.206l-1.358-.664v-5.378h1.358v6.042zm12.602-162.479l-1.264 1.264-1.183 1.579c-.908 1.215-1.817 2.43-2.767 3.689-.741.99-1.686 2.203-2.888 3.709l-1.043 1.307-.859 1.434c-2.21 3.686-4.309 7.428-6.219 11.085-1.96 3.738-3.864 7.638-5.66 11.591l-.344.793c-7.091 17.162-11.263 34.51-12.399 51.563l-.056.83v6.112c0 2.874.171 5.368.535 7.648.058 1.505.162 2.994.311 4.452.238 2.405.604 4.842 1.088 7.242l.25 1.108c2.321 9.305 5.497 16.893 9.711 23.198l.105.158v10.393h-5.733c-1.261-1.574-2.468-3.205-3.616-4.884-1.332-2.408-2.675-4.902-4.025-7.476-.839-1.589-1.492-3.178-1.996-4.858l-.46-1.387c-2.045-5.607-3.439-10.484-4.147-14.497l-.224-1.117c-.338-1.51-.544-3.054-.634-4.777-.163-3.004-.393-6.093-.683-9.2v-7.443c0-1.067.117-2.109.357-3.183l.303-1.354.151-1.379c.313-2.86.634-5.724.96-8.644.195-1.781.488-3.591.872-5.385l3.852-14.123 2.474-6.597c.649-1.73 1.427-3.507 2.313-5.28l.463-.928.386-.963c1.501-3.752 3.445-7.76 5.78-11.913l.569-1.072c1.834-3.668 3.884-6.984 6.094-9.856l.793-1.03.682-1.107c1.847-3 4.43-6.422 7.679-10.168l.076-.089c1.719-2.001 3.464-3.964 5.153-5.8 1.327-1.436 2.938-2.984 4.788-4.602.792-.685 1.604-1.352 2.438-2.004-.624.61-1.284 1.261-1.983 1.961zm204.563 176.36c-4.746 2.354-9.392 3.839-14.161 4.525-1.453.069-2.913.213-4.363.432h-4.89c-1.247-.221-2.518-.365-3.812-.434-.692-.211-1.234-.401-1.647-.562l-.086-.158c-.459-1.45-.573-2.239-.6-2.482l-.122-1.107-.219-1.093c-.532-2.655-.987-7.492-.135-15.462l.081-.906c.242-3.44.677-6.801 1.295-10.013.694-3.624 1.476-7.472 2.386-11.741l.14-.502v2.3h11.936c7.557 10.774 16.516 20.556 26.708 29.151l.378.318c-4.114 2.817-8.429 5.406-12.889 7.734zm42.204-178.076c-1.142 1.398-2.328 3.039-3.687 5.087l-.85 1.28-.687 1.373c-.646 1.295-1.258 2.665-1.816 4.071l-.162.368-.33.695c-2.551 5.605-4.187 11.241-4.87 16.772-.596 3.237-1.15 6.139-1.682 8.807-.744 3.688-1.319 7.562-1.716 11.534-.373 2.119-.658 4.354-.85 6.668-.152 1.785-.252 3.538-.299 5.233-.404 3.105-.461 6.278-.165 9.466.09 1.021.136 2.108.136 3.236v2.431l.469 2.387.012.224c0 3.348.425 6.727 1.266 10.083.178 1.342.434 2.703.768 4.095.081.852.204 1.692.366 2.517v2.283l1.616 3.31c.228.762.488 1.521.783 2.276 2.512 8.239 6.263 16.603 11.163 24.886l.029.049c-6.924-6.308-12.906-13.447-17.817-21.271l-.015-3.477-2.958-2.889-3.537-10.623h-2.278c-1.387-3.88-2.469-7.755-3.226-11.558l-.059-.286c-.916-4.34-1.381-9.386-1.381-14.996v-66.114l-42.678 42.678c-1.386 1.386-2.614 2.884-3.673 4.476l-.193.261c-6.139 8.304-11.635 17.085-16.341 26.107-9.482 17.262-16.963 35.81-22.234 55.135l-.327 1.346c-1.049 4.902-1.948 9.314-2.743 13.465-.963 4.999-1.647 10.202-2.036 15.473-1.144 10.989-.924 20.535.673 29.131.597 4.558 1.786 9.245 3.624 14.287l.124.34c-1.011-1.952-1.866-3.762-2.562-5.425-.84-1.988-1.604-4.237-2.27-6.686l-.406-1.342c-1.42-4.259-2.52-9.193-3.265-14.666l-.256-1.519c-.315-1.583-.476-3.085-.476-4.466 0-3.444-.16-6.973-.478-10.507.034-5.791.325-11.618.866-17.338l2.16-22.857 1.542-1.403 1.8-7.455c.965-3.997 2.021-7.952 3.143-11.759 2.936-9.696 6.529-19.72 10.682-29.796l.05-.123c3.705-9.129 8.368-18.591 13.858-28.123l.431-.78c2.39-4.512 4.995-8.791 7.748-12.724 3.001-4.289 6.433-8.813 10.2-13.449l.589-.754c1.213-1.616 2.533-3.141 3.926-4.533 1.853-1.854 3.864-3.729 5.977-5.576l.631-.551.593-.594c3.428-3.428 7.796-7.007 12.982-10.64l.492-.353c4.103-3.023 9.065-5.595 14.753-7.642l1.392-.5 1.322-.661c.153-.077.283-.125.445-.162 2.238-.517 4.495-1.093 6.722-1.717l3.81-.762h1.363c1.793 0 3.557-.177 5.27-.522 2.172.004 3.92.426 5.631 1.349 2.225 1.204 3.839 2.657 5.08 4.571l8.45 13.038c-1.651 1.772-3.193 3.712-4.614 5.811zm201.633 103.112c-.435-1.295-.902-2.58-1.389-3.819l-.1-.25c-.064-.16-.2-.51-.381-1.058l-.379-1.071c-3.415-8.986-6.73-18.066-9.861-27.003-3.082-8.777-6.054-17.769-8.831-26.725l-.622-2.006-.312-.617c-.458-1.254-.964-2.369-1.445-3.354l-8.858-18.109c.066-4.231.021-8.585-.135-13.058l-.093-2.664-.652-2.584c-.664-2.631-.989-4.131-1.145-4.927l-.204-1.042-.63-2.204-.14-.88v-4.173l-1.289-2.577c-.013-1.79.516-3.037 1.37-4.359 1.139-1.764 2.34-2.84 5.424-3.478.912-.189 1.758-.285 2.512-.285 1.553 0 2.8.396 4.29 1.358 1.661 1.074 2.906 2.317 3.761 4.871.062.438.131.875.209 1.309.055 1.314.179 2.783.441 4.356v4.381l.574 1.754c.131 1.789.395 3.551.79 5.273.265 2.054.547 4.045.84 5.938.305 2.024.619 4.12.925 6.241.677 4.758 1.451 9.579 2.295 14.284.745 4.204 1.429 8.458 2.032 12.645l.081.521c.737 4.447 1.682 8.987 2.809 13.495.782 3.128 1.455 6.357 2 9.6l7.405 44.059-1.292-3.842zm4.833 12.472l1.728-2.144 2.829 7.941c1.475 4.138 2.955 8.217 4.397 12.117l-8.954-17.914zm33.757-41.868l73.332-90.952.224-.282c1.785-2.28 3.169-2.808 5.252-3.028.431-.045.847-.068 1.237-.068 1.443 0 3.104.254 5.454 2.091 2.025 1.586 2.76 2.909 3.022 5.446.252 2.436-.117 4.176-1.346 6.047l-1.678 1.678-85.497 79.068z"/><path fill="#fff" d="M2003.653 413.025c-1.605-.637-3.285-.479-5.04.48-1.763.96-2.963 2.242-3.601 3.84v.48l-1.439 2.879-.96 3.36c-.646 1.282-1.043 2.4-1.2 3.36-.165.96-.562 2.085-1.2 3.359-.96 2.243-1.845 4.402-2.64 6.48-.803 2.085-1.68 4.245-2.641 6.48-.96 2.242-1.604 3.922-1.92 5.039-.322 1.125-.645 2.086-.96 2.881-.322.803-.802 1.762-1.439 2.88-.646 1.125-1.44 2.64-2.4 4.56-1.92 4.485-3.922 8.723-6 12.721-2.085 4.004-4.245 7.92-6.479 11.76-2.565 3.84-5.04 7.604-7.44 11.279-2.399 3.684-4.883 7.283-7.438 10.801-1.605 1.604-2.963 3.119-4.08 4.56-1.125 1.44-2.482 2.962-4.08 4.56-1.605 1.605-3.12 3.045-4.561 4.32-1.439 1.283-2.962 2.4-4.56 3.36-2.565 1.92-5.28 3.36-8.16 4.319-.645 0-1.2.083-1.68.24-.48.165-1.043.24-1.681.24h-2.398c-.322-.314-.646-.48-.96-.48-2.88 0-5.925-.795-9.12-2.399-1.605-.638-3.045-1.357-4.32-2.16-1.282-.795-2.723-1.68-4.32-2.64-5.76-4.155-10.882-9.436-15.358-15.84-4.485-5.76-8.963-12.638-13.44-20.641-1.92-3.84-3.765-7.68-5.52-11.52-1.763-3.84-3.442-7.838-5.04-12-1.605-4.478-3.203-8.881-4.8-13.2-1.605-4.32-3.203-8.715-4.801-13.2l108.479-100.32 3.36-3.359c5.76-7.357 8.159-15.676 7.199-24.96-.96-9.278-5.122-16.8-12.479-22.56-7.364-5.76-15.6-8.16-24.719-7.2-9.12.96-16.561 5.123-22.32 12.48l-73.919 91.68c-.646-3.84-1.44-7.68-2.4-11.52s-1.763-7.68-2.399-11.52c-.646-4.479-1.365-8.955-2.16-13.44-.803-4.478-1.522-8.955-2.16-13.44-.322-2.234-.646-4.395-.96-6.479-.322-2.077-.646-4.396-.96-6.96-.322-.961-.48-1.995-.48-3.12 0-1.118-.165-2.16-.479-3.12v-3.36c-.322-.638-.48-1.755-.48-3.36 0-.637-.082-1.275-.239-1.92-.165-.637-.24-1.275-.24-1.92-2.242-9.277-7.199-16.395-14.879-21.36-7.681-4.958-16.163-6.48-25.44-4.56-9.285 1.92-16.402 6.72-21.36 14.4-4.964 7.68-6.479 16.163-4.559 25.439l.48.961c0 .645.074 1.282.239 1.92.158.645.24 1.282.24 1.92l.96 3.359c.314 1.605.794 3.684 1.439 6.24.637 18.24-.721 33.766-4.079 46.561-3.36 12.803-6.803 23.205-10.32 31.199-2.472 5.321-4.826 9.803-7.069 13.486l-.845.914c-1.763 1.92-3.6 3.683-5.52 5.28-1.921 1.604-3.766 3.202-5.521 4.8-1.763 1.605-3.6 3.203-5.52 4.8-3.841 2.88-7.763 5.603-11.761 8.16-4.005 2.565-8.085 4.8-12.239 6.72-2.243.961-4.402 1.846-6.479 2.641-2.085.803-4.08 1.521-6 2.16-1.604.645-3.202 1.042-4.8 1.199-1.605.165-3.203.405-4.8.721.637-1.92 1.357-3.758 2.159-5.521.796-1.755 1.516-3.601 2.16-5.521 2.235-5.114 4.155-10.154 5.761-15.119 1.597-4.958 3.194-10.155 4.8-15.6 2.88-9.916 5.278-20.476 7.199-31.681.96-5.438 1.68-10.958 2.159-16.56.48-5.596.556-11.28.24-17.041 0-3.194-.165-6.239-.479-9.119-.323-2.881-.803-5.918-1.44-9.12-.645-3.195-1.522-6.397-2.64-9.601-1.124-3.194-2.64-6.396-4.56-9.6-1.92-3.195-4.162-6.397-6.72-9.6-3.202-3.195-6.562-5.917-10.08-8.16-3.202-1.92-7.042-3.675-11.52-5.28-2.243-.637-4.32-1.035-6.24-1.2-1.92-.158-3.84-.398-5.76-.72-6.405 0-12.165.48-17.28 1.44-3.524-5.438-8.241-9.757-14.159-12.96-5.925-3.195-12.405-4.635-19.44-4.32h-1.439c-.646 0-1.043.083-1.2.24-.165.165-.405.24-.72.24h-3.84l-7.2 1.44c-2.242.645-4.402 1.2-6.48 1.68-2.085.48-4.08 1.2-6 2.16-8.001 2.88-15.044 6.562-21.119 11.04-6.404 4.485-11.842 8.962-16.319 13.44-2.565 2.243-4.965 4.485-7.2 6.72-2.242 2.242-4.32 4.643-6.24 7.199-4.162 5.123-7.92 10.08-11.279 14.881-3.36 4.8-6.48 9.922-9.359 15.359-6.083 10.561-11.205 20.963-15.36 31.2-4.484 10.883-8.325 21.601-11.52 32.16-1.269 4.303-2.43 8.654-3.491 13.051-.293.267-.57.552-.824.869h-.479c-.646 1.282-1.283 2.085-1.921 2.4-.322.645-1.125 1.604-2.399 2.88-.646.645-1.365 1.439-2.16 2.4-.803.959-1.522 1.762-2.16 2.399-1.604 1.604-3.285 3.12-5.04 4.56-1.763 1.44-3.442 2.963-5.04 4.561-7.365 6.082-14.563 11.205-21.599 15.359-.96.961-2.723 2.086-5.28 3.36l-5.76 2.88c-.646.322-1.2.562-1.68.721-.48.164-1.043.404-1.681.72 3.518-7.035 6.721-13.92 9.601-20.64.96-2.559 1.995-4.875 3.12-6.961 1.117-2.077 1.994-4.395 2.64-6.959 2.235-4.801 3.997-9.277 5.28-13.44 1.597-4.8 3.119-9.601 4.559-14.399 1.44-4.801 2.64-9.601 3.6-14.4 1.275-5.115 2.318-10.155 3.12-15.12.795-4.958 1.357-10.155 1.681-15.601.314-1.598.479-3.037.479-4.319v-3.841c0-1.597-.082-3.037-.24-4.319-.165-1.274-.239-2.715-.239-4.32-.646-6.397-1.763-12.315-3.36-17.76-.96-2.88-2.242-6.075-3.84-9.601-.96-1.597-1.92-3.194-2.879-4.799-.96-1.598-2.085-3.195-3.36-4.8-3.202-3.517-6.24-6.397-9.12-8.64-1.604-1.275-3.359-2.4-5.28-3.36l-5.76-2.88c-3.84-1.275-7.68-2.235-11.52-2.88-.646 0-1.125-.075-1.44-.24-.322-.157-.803-.24-1.439-.24h-2.879c-.323-.315-1.44-.48-3.36-.48-.646 0-1.2.083-1.68.24-.48.165-1.043.24-1.681.24-2.242.322-4.402.645-6.479.96-2.085.322-4.08.802-6 1.44-4.484 1.605-7.845 3.203-10.079 4.8-5.76 3.203-11.04 6.885-15.84 11.04-2.565 2.243-4.801 4.403-6.721 6.48-1.92 2.085-3.84 4.245-5.76 6.48-4.162 4.8-7.522 9.285-10.08 13.44-3.202 4.162-6.082 8.805-8.64 13.92-2.88 5.123-5.28 10.08-7.2 14.88-1.282 2.565-2.4 5.122-3.359 7.681-.96 2.564-1.92 5.122-2.88 7.68l-4.319 15.84c-.646 2.88-1.125 5.76-1.44 8.64-.322 2.88-.645 5.761-.96 8.64-.645 2.881-.96 5.761-.96 8.641v8.64c.315 3.202.555 6.323.72 9.36.158 3.045.556 6 1.2 8.88.96 5.444 2.715 11.685 5.28 18.72.96 3.203 2.234 6.322 3.84 9.36 1.597 3.045 3.194 6 4.799 8.88 3.84 5.76 8.16 11.04 12.96 15.84l.96.96h.48v.48h.479c.315.322.556.645.721.96.157.322.555.645 1.199.96.638.646 1.92 1.604 3.84 2.88.961.96 2.4 2.085 4.32 3.359.638.323 1.035.48 1.2.48.157 0 .555.165 1.2.48-1.605 1.282-3.12 2.399-4.561 3.359-1.439.961-2.962 1.92-4.56 2.881-6.405 4.162-13.282 7.521-20.64 10.08-3.84 1.604-7.364 2.564-10.56 2.879-1.604.322-3.36.562-5.28.721-1.92.164-3.683.24-5.279.24h-6.239v-.48h-2.88c-1.605-.638-2.963-1.035-4.08-1.2-1.125-.157-2.16-.555-3.12-1.2-.96-.637-1.845-1.274-2.64-1.92-.803-.637-1.522-1.275-2.16-1.92-1.605-1.275-3.045-3.195-4.32-5.76-2.564-5.115-4.32-11.197-5.28-18.24-.645-3.518-1.042-7.199-1.199-11.04-.165-3.84-.24-7.837-.24-12 0-4.155.157-8.235.479-12.239.315-3.998.795-8.235 1.44-12.721.638-4.478 1.274-8.715 1.92-12.72.638-3.997 1.275-8.235 1.92-12.72.638-3.518 1.44-7.117 2.4-10.801.96-3.675 1.755-7.274 2.399-10.8 2.235-3.194 3.518-6.397 3.84-9.6l.48-2.4 1.92-8.64 1.44-4.801v-1.439l.479-.48v-.959c.638-.961 1.275-2.715 1.92-5.28 1.275-2.558 2.558-5.04 3.84-7.44 1.275-2.4 2.558-4.875 3.84-7.439 3.518-6.398 7.118-12.961 10.801-19.68 3.675-6.721 7.274-13.275 10.8-19.681 3.517-6.72 7.116-13.357 10.799-19.92 3.675-6.555 7.275-13.035 10.8-19.44.96-1.598 1.92-3.277 2.88-5.04.96-1.755 1.756-3.435 2.4-5.04l5.76-10.08.96-2.88 1.44-2.4 2.399-5.28 4.801-10.08c6.397-12.795 12.637-26.557 18.72-41.28 2.88-7.357 5.594-14.64 8.159-21.84 2.558-7.2 4.8-14.475 6.72-21.84 1.275-3.195 2.235-6.877 2.88-11.04l1.44-5.76.479-2.88c0-.638.075-1.118.24-1.44.157-.315.24-.795.24-1.44.314-1.275.479-2.4.479-3.36s.158-1.92.48-2.88c0-2.558.157-4.478.479-5.76 0-1.92.075-3.915.24-6 .157-2.078.24-4.08.24-6v-12c-.322-2.235-.562-4.395-.72-6.48-.165-2.077-.562-4.237-1.2-6.48-.646-2.557-1.365-4.958-2.16-7.2-.803-2.235-2.003-4.635-3.6-7.2-1.605-2.558-4.006-5.115-7.2-7.68-3.524-1.92-7.042-3.195-10.56-3.84-2.88-.96-6.082-1.117-9.6-.48-2.88 0-5.76.48-8.64 1.44-4.801 1.283-9.601 3.525-14.4 6.72-3.84 2.243-7.845 5.123-12 8.64-1.605 1.605-3.202 3.12-4.8 4.56-1.605 1.44-3.203 2.962-4.8 4.56-2.88 3.525-5.52 6.96-7.92 10.32-2.399 3.36-4.882 6.802-7.439 10.32-2.242 3.525-4.32 7.042-6.24 10.56-1.92 3.525-3.84 7.042-5.76 10.56-.646 1.92-1.44 3.84-2.4 5.76s-1.763 3.84-2.399 5.76c-.323.96-.646 1.92-.96 2.88-.323.96-.646 1.92-.96 2.88-.646 1.283-.96 2.243-.96 2.88l-.48 1.44c-.322.322-.479.645-.479.96l-.48.48c-1.282 3.525-2.565 7.042-3.84 10.56-1.282 3.525-2.565 7.042-3.84 10.56-2.565 7.365-5.123 14.482-7.681 21.36-2.564 6.885-5.122 14.002-7.68 21.36-4.485 14.4-8.879 28.725-13.199 42.96-4.319 14.243-8.399 28.56-12.24 42.96-1.92 7.365-3.682 14.723-5.279 22.081-1.605 7.365-3.203 14.879-4.8 22.56-1.283 4.8-2.243 9.923-2.881 15.36l-.479.959-.48 2.881c-.322.645-.479 1.439-.479 2.4l-.48 1.92-.96 3.359c-.322 1.605-.562 2.963-.72 4.08-.165 1.125-.405 2.325-.72 3.6-.322 2.565-.646 5.041-.96 7.44-.323 2.399-.803 4.882-1.44 7.44-.645 4.8-1.2 9.682-1.68 14.64-.48 4.965-1.043 9.84-1.68 14.64-.539 5.746-.91 11.434-1.146 17.075l-.293.685-1.92 3.36c-.646 1.282-1.2 2.482-1.681 3.601-.479 1.125-1.042 2.324-1.68 3.6-1.605 2.564-2.963 4.965-4.08 7.2-1.125 2.242-2.482 4.485-4.08 6.72-2.564 4.484-5.28 8.963-8.159 13.439-2.88 4.485-5.925 8.806-9.12 12.961-3.202 4.484-6.404 8.64-9.6 12.479-3.202 3.841-6.562 7.522-10.08 11.04-1.604 1.605-3.36 3.12-5.28 4.561-1.92 1.439-3.84 2.962-5.76 4.56-3.202 2.565-6.885 4.965-11.04 7.2-4.484 2.242-8.002 3.525-10.56 3.84-1.283.322-3.044.48-5.279.48h-4.319l-.96-.48c0-.314-.322-.795-.96-1.439-.645-.315-1.125-1.275-1.439-2.881-.646-.637-1.283-2.077-1.92-4.32-.646-1.597-1.2-3.359-1.681-5.279-.479-1.92-1.042-3.998-1.68-6.24-.646-2.234-1.043-4.478-1.2-6.72-.165-2.235-.405-4.636-.72-7.2-.322-2.558-.562-5.04-.72-7.439-.165-2.4-.24-4.875-.24-7.44v-14.88c0-5.438.075-10.635.24-15.6.157-4.958.397-10.156.72-15.601.314-2.558.555-5.115.72-7.681.157-2.557.397-5.114.72-7.68.315-2.557.48-5.197.48-7.92 0-2.715.157-5.354.479-7.92.315-1.598.48-3.037.48-4.32 0-1.274.157-2.557.48-3.84l1.92-3.84 4.319-7.68c1.275-2.558 2.476-5.197 3.601-7.92 1.117-2.715 2.475-5.355 4.08-7.92 2.556-5.115 5.039-10.238 7.438-15.36 2.4-5.114 4.875-10.237 7.44-15.36 9.6-20.475 18.72-41.115 27.359-61.919 8.641-20.475 16.801-41.115 24.479-61.92l5.76-15.84c.96-2.558 1.92-5.115 2.88-7.68.96-2.558 1.92-5.115 2.88-7.68 1.92-5.438 3.758-10.717 5.521-15.84 1.755-5.115 3.435-10.395 5.04-15.84l2.88-8.16c.638-1.275 1.035-2.558 1.2-3.84.157-1.275.555-2.715 1.2-4.32.637-2.558 1.439-5.198 2.399-7.92.96-2.715 1.755-5.52 2.4-8.4.638-2.88 1.2-5.678 1.68-8.4.48-2.715 1.035-5.677 1.68-8.88.638-2.88 1.118-5.835 1.44-8.88.314-3.038.314-6.315 0-9.84 0-3.84-.646-7.515-1.92-11.04-.646-2.235-1.605-4.32-2.88-6.24-.646-.96-1.365-1.995-2.16-3.12-.803-1.117-1.68-2.16-2.64-3.12-2.565-1.92-4.966-3.36-7.2-4.32-3.203-1.275-5.761-1.92-7.681-1.92-.322-.315-.802-.48-1.439-.48h-8.399000000000001c-1.125 0-2.325.165-3.6.48-4.162.645-8.002 1.92-11.52 3.84-1.92.645-3.683 1.44-5.279 2.4-1.605.96-3.203 1.92-4.801 2.88-1.604.96-3.045 1.92-4.319 2.88-1.283.96-2.565 2.085-3.84 3.36-1.605.96-2.963 2.003-4.08 3.12l-3.601 3.6c-9.285 9.285-16.965 18.885-23.04 28.8-6.403 9.6-12.164 20.002-17.278 31.2-1.283 2.565-2.4 5.205-3.36 7.92-.96 2.723-2.085 5.363-3.36 7.92-1.282 2.565-2.399 5.28-3.359 8.16s-1.92 5.603-2.88 8.16c-2.243 5.445-4.32 10.8-6.24 16.08-1.92 5.28-3.683 10.643-5.28 16.08-7.042 22.08-12.96 44.085-17.76 66-4.8 21.923-8.804 44.085-11.999 66.479-.96 8.003-1.92 15.841-2.88 23.521-.96 7.681-1.763 15.525-2.4 23.521-.96 4.162-1.282 8.002-.96 11.52 0 1.605-.082 3.203-.24 4.801-.165 1.604-.239 3.201-.239 4.799-.323 2.565-.48 5.28-.48 8.16 0 2.881-.165 5.76-.479 8.641v15.84l-1.439 3.359-1.92 3.36c-.645 1.282-1.199 2.482-1.68 3.601-.48 1.125-1.043 2.324-1.68 3.6-1.605 2.564-2.963 4.965-4.08 7.2-1.125 2.242-2.482 4.485-4.08 6.72-2.564 4.484-5.281 8.963-8.16 13.439-2.88 4.485-5.925 8.806-9.12 12.961-3.203 4.484-6.405 8.64-9.6 12.479-3.203 3.841-6.562 7.522-10.08 11.04-1.605 1.605-3.36 3.12-5.28 4.561-1.92 1.439-3.84 2.962-5.76 4.56-3.202 2.565-6.884 4.965-11.04 7.2-4.485 2.242-8.002 3.525-10.56 3.84-1.282.322-3.045.48-5.28.48h-4.32l-.96-.48c0-.314-.323-.795-.96-1.439-.645-.315-1.125-1.275-1.44-2.881-.645-.637-1.282-2.077-1.92-4.32-.645-1.597-1.2-3.359-1.68-5.279-.479-1.92-1.042-3.998-1.68-6.24-.645-2.234-1.042-4.478-1.2-6.72-.165-2.235-.405-4.636-.72-7.2-.323-2.558-.562-5.04-.72-7.439-.165-2.4-.24-4.875-.24-7.44v-14.88c0-5.438.075-10.635.24-15.6.158-4.958.397-10.156.72-15.601.315-2.558.555-5.115.72-7.681.158-2.557.397-5.114.72-7.68.315-2.557.48-5.197.48-7.92 0-2.715.157-5.354.48-7.92.315-1.598.48-3.037.48-4.32 0-1.274.158-2.557.48-3.84l1.919-3.84 4.32-7.68c1.275-2.558 2.475-5.197 3.6-7.92 1.118-2.715 2.475-5.355 4.08-7.92 2.558-5.115 5.04-10.238 7.44-15.36 2.4-5.114 4.875-10.237 7.44-15.36 9.6-20.475 18.72-41.115 27.36-61.919 8.639-20.475 16.799-41.115 24.48-61.92l5.76-15.84c.959-2.558 1.92-5.115 2.879-7.68.961-2.558 1.92-5.115 2.881-7.68 1.92-5.438 3.758-10.717 5.52-15.84 1.756-5.115 3.436-10.395 5.041-15.84l2.879-8.16c.639-1.275 1.035-2.558 1.201-3.84.156-1.275.555-2.715 1.199-4.32.637-2.558 1.439-5.198 2.4-7.92.959-2.715 1.754-5.52 2.399-8.4.637-2.88 1.199-5.678 1.68-8.4.48-2.715 1.035-5.677 1.68-8.88.637-2.88 1.117-5.835 1.439-8.88.314-3.038.314-6.315 0-9.84 0-3.84-.645-7.515-1.92-11.04-.645-2.235-1.605-4.32-2.879-6.24-.646-.96-1.364-1.995-2.159-3.12-.803-1.117-1.68-2.16-2.641-3.12-2.564-1.92-4.965-3.36-7.199-4.32-3.203-1.275-5.762-1.92-7.682-1.92-.322-.315-.801-.48-1.439-.48h-8.399000000000001c-1.125 0-2.324.165-3.599.48-4.163.645-8.002 1.92-11.52 3.84-1.92.645-3.683 1.44-5.28 2.4-1.605.96-3.202 1.92-4.8 2.88-1.605.96-3.045 1.92-4.32 2.88-1.283.96-2.565 2.085-3.84 3.36-1.605.96-2.962 2.003-4.08 3.12l-3.6 3.6c-9.285 9.285-16.965 18.885-23.04 28.8-6.405 9.6-12.165 20.002-17.28 31.2-1.282 2.565-2.399 5.205-3.359 7.92-.96 2.723-2.085 5.363-3.36 7.92-1.283 2.565-2.4 5.28-3.36 8.16s-1.92 5.603-2.88 8.16c-2.243 5.445-4.32 10.8-6.24 16.08-1.92 5.28-3.683 10.643-5.28 16.08-7.042 22.08-12.959 44.085-17.759 66-4.8 21.923-8.805 44.085-12 66.479-.96 8.003-1.92 15.841-2.88 23.521-.96 7.681-1.762 15.525-2.4 23.521-.96 4.162-1.282 8.002-.96 11.52 0 1.605-.083 3.203-.24 4.801-.165 1.604-.24 3.201-.24 4.799-.322 2.565-.48 5.28-.48 8.16 0 2.881-.165 5.76-.48 8.641v15.846l-3.835 5.273c-1.605 1.605-2.962 3.285-4.08 5.041-1.125 1.762-2.482 3.441-4.08 5.039-2.565 3.525-6 8.003-10.32 13.44-4.32 5.445-7.763 9.923-10.32 13.44-2.88 3.524-5.76 6.803-8.64 9.84-2.88 3.045-5.76 6.165-8.64 9.359-6.083 6.405-12 12.322-17.76 17.76-1.604 1.605-3.202 3.046-4.8 4.32-1.605 1.283-3.202 2.565-4.8 3.84-2.565 2.243-5.603 4.485-9.12 6.721-3.525 2.242-6.405 3.84-8.64 4.8-1.92.646-3.202.96-3.84.96-.645.322-1.439.48-2.399.48h-.48c-.323 0-.48-.075-.48-.24 0-.158-.165-.24-.48-.24h-.96c-.645 0-1.042-.075-1.2-.24-.165-.157-.405-.24-.72-.24v-.958c0-.639-.165-1.275-.48-1.92 0-.315-.083-.639-.24-.961-.165-.314-.24-.795-.24-1.439-.323-1.275-.48-2.641-.48-4.08s-.165-2.955-.48-4.561c0-1.598.075-3.277.24-5.039.158-1.756.24-3.601.24-5.521.315-1.598.555-3.36.72-5.28.158-1.92.397-3.84.72-5.76.637-3.84 1.357-7.755 2.16-11.76.795-3.998 1.837-7.92 3.12-11.76.959-4.155 1.919-8.235 2.879-12.24.96-3.998 2.078-7.92 3.36-11.76 1.597-4.155 2.955-8.235 4.08-12.24 1.118-3.998 2.475-7.92 4.08-11.76 1.598-4.155 3.038-8.235 4.32-12.24 1.275-3.998 2.715-7.92 4.32-11.76 1.598-4.155 3.12-8.235 4.56-12.24 1.44-3.998 2.955-7.92 4.56-11.76 1.597-4.155 3.277-8.16 5.04-12 1.755-3.84 3.435-7.838 5.04-12 .637-1.92 1.357-3.84 2.16-5.76.795-1.921 1.68-3.841 2.64-5.761l2.4-5.76 2.4-5.761h.48c0-.637.158-1.117.48-1.439 3.518-8.641 3.36-17.115-.48-25.44-3.84-8.317-10.08-14.235-18.72-17.76-8.64-3.517-17.205-3.435-25.68.24-8.482 3.683-14.482 9.84-18 18.48-.645 1.283-1.042 2.4-1.2 3.36-.165.96-.562 2.085-1.2 3.36l-2.4 6.24-4.32 12.959-8.64 25.92c-1.283 4.486-2.565 8.806-3.84 12.961-1.282 4.162-2.565 8.482-3.84 12.96-1.282 4.485-2.482 8.88-3.6 13.2-1.125 4.319-2.16 8.723-3.12 13.199-1.283 4.485-2.4 9.045-3.36 13.68-.949 4.592-1.899 9.102-2.848 13.532l-.985 1.108-3.36 4.32c-1.282 1.604-2.482 3.045-3.6 4.32-1.125 1.281-2.482 2.722-4.08 4.319-2.565 2.88-5.842 6.803-9.839 11.761-4.005 4.965-7.283 8.722-9.84 11.279-5.123 5.445-10.32 10.8-15.6 16.08-5.28 5.279-10.642 10.162-16.08 14.641-2.565 2.564-5.28 4.965-8.16 7.199-2.88 2.242-5.76 4.32-8.64 6.24-1.282.96-2.565 1.92-3.84 2.88-1.283.96-2.723 1.92-4.32 2.88-2.565 1.92-5.28 3.36-8.16 4.32-2.243 1.282-4.485 2.242-6.72 2.88 0-.96.315-2.399.96-4.32.315-1.274.638-2.64.96-4.079.315-1.44.638-2.955.96-4.561.638-1.598 1.2-3.195 1.68-4.801.48-1.597 1.035-3.194 1.68-4.799 1.275-3.195 2.475-6.398 3.6-9.601 1.117-3.194 2.475-6.555 4.08-10.08l8.64-20.159c2.879-6.721 5.834-13.516 8.879-20.4 3.038-6.878 6.158-13.995 9.36-21.36 1.597-3.518 3.12-7.117 4.56-10.8 1.44-3.676 2.955-7.275 4.56-10.801 1.598-3.84 3.038-7.68 4.32-11.52 1.275-3.84 2.557-7.838 3.839-12 .638-1.92 1.275-3.915 1.92-6 .638-2.077 1.275-4.237 1.92-6.48.638-2.234 1.118-4.477 1.44-6.719.315-2.235.795-4.636 1.44-7.201.315-2.557.555-5.197.72-7.92.158-2.715.24-5.677.24-8.879v-5.041c0-1.754-.165-3.6-.48-5.52-.645-4.478-1.763-8.797-3.36-12.96-.322-1.275-.802-2.558-1.44-3.84-.645-1.275-1.282-2.558-1.92-3.84-.96-2.558-2.722-5.438-5.279-8.64-1.92-2.557-4.485-5.28-7.68-8.16-2.565-2.235-5.603-4.32-9.12-6.24-1.605-.637-3.202-1.275-4.8-1.92-1.605-.637-3.203-1.118-4.8-1.44-1.605-.638-3.119-1.035-4.559-1.2-1.44-.157-2.963-.397-4.56-.72-1.605-.315-4.005-.48-7.2-.48h-1.44l-.96.48h-2.4c-3.525.322-6.72.802-9.6 1.44-2.88.645-5.76 1.283-8.64 1.92-5.76 1.92-11.04 4.32-15.84 7.2-4.8 2.565-9.203 5.445-13.2 8.64-4.005 3.203-7.605 6.562-10.8 10.08-6.72 7.365-12.48 14.565-17.28 21.6-2.564 3.525-4.882 7.125-6.959 10.8-2.085 3.683-4.245 7.282-6.48 10.8l-6.24 10.561c-1.283 1.605-2.4 3.285-3.36 5.04-.96 1.763-1.92 3.442-2.88 5.04-4.163 7.043-8.002 14.002-11.52 20.88-3.525 6.885-7.042 13.845-10.56 20.88-.645 1.92-1.44 3.766-2.4 5.52-.96 1.764-1.762 3.443-2.4 5.041-1.92 3.524-3.525 7.199-4.8 11.039l-3.36 7.681c2.235-9.601 4.32-19.2 6.24-28.8 1.92-9.601 3.998-19.2 6.24-28.801l.96-2.88 1.44-2.88.96-2.88 1.44-3.36c1.275-3.84 3.038-7.837 5.28-12 1.92-4.154 3.84-8.234 5.76-12.24 1.92-3.997 3.84-7.92 5.76-11.76 2.235-4.154 4.395-8.234 6.48-12.24 2.078-3.997 4.238-7.919 6.48-11.759 2.235-4.155 4.395-8.235 6.48-12.24 2.078-3.998 4.238-7.92 6.479-11.76 1.275-2.235 2.475-4.32 3.6-6.24 1.118-1.92 2.16-3.84 3.12-5.76 1.275-2.235 2.4-4.32 3.36-6.24s2.078-3.998 3.36-6.24c.638-.96 1.2-1.995 1.68-3.12.48-1.118 1.035-2.16 1.68-3.12.315-.96.795-2.078 1.44-3.36l.96-1.92.48-1.44c.96-2.235 1.92-4.32 2.88-6.24s1.92-3.998 2.88-6.24c3.518-8.64 6.96-17.198 10.32-25.68 3.36-8.475 6.637-17.04 9.84-25.68 5.438-16.635 10.718-34.237 15.84-52.8l.48-3.36.48-1.92.479-1.44 1.44-7.2c.315-2.558.637-4.958.96-7.2.315-2.235.637-4.635.96-7.2l1.44-14.4v-3.84c0-1.275-.165-2.558-.48-3.84 0-1.598-.083-3.038-.24-4.32-.165-1.275-.405-2.715-.72-4.32-.645-3.195-1.763-6.24-3.36-9.12-.645-.96-1.282-1.837-1.92-2.64-.645-.795-1.282-1.68-1.92-2.64-1.605-1.275-3.525-2.715-5.76-4.32-2.243-.96-4.32-1.755-6.24-2.4-.645 0-1.2-.075-1.68-.24-.48-.158-1.042-.24-1.68-.24h-1.44l-1.44-.48c-3.84 0-7.365.48-10.56 1.44-1.605.323-3.203.72-4.8 1.2-1.605.48-3.202 1.042-4.8 1.68-2.565 1.283-5.28 2.88-8.16 4.8-2.565 1.605-4.882 3.285-6.96 5.04-2.085 1.762-4.245 3.6-6.48 5.52-1.919 1.605-3.682 3.36-5.279 5.28l-2.88 2.88c-.96.96-1.763 2.085-2.4 3.36-1.605 1.92-3.202 3.84-4.8 5.76-1.605 1.92-3.203 4.005-4.8 6.24-5.445 7.68-10.403 16.005-14.88 24.96-1.282 2.242-2.4 4.402-3.36 6.48-.96 2.085-1.92 4.245-2.88 6.48-.96 2.565-1.845 4.8-2.64 6.72-.802 1.92-1.68 4.163-2.64 6.72-.96 2.565-1.845 4.882-2.64 6.96-.803 2.085-1.68 4.245-2.64 6.48-.645 2.243-1.365 4.485-2.16 6.72-.802 2.242-1.522 4.485-2.16 6.72-1.605 4.485-3.045 8.88-4.32 13.2-1.282 4.32-2.722 8.723-4.319 13.2-.645 2.243-1.283 4.403-1.92 6.48-.645 2.085-1.283 4.245-1.92 6.48l-4.32 12.96c-5.123 17.603-9.922 35.122-14.4 52.56-4.485 17.445-8.962 35.123-13.439 53.04-4.485 17.603-8.64 35.123-12.48 52.561-3.707 16.843-7.264 33.906-10.671 51.188l-.364.411c-.323.645-1.125 1.846-2.4 3.6-1.283 1.763-2.64 3.525-4.08 5.28-1.44 1.763-2.805 3.442-4.08 5.04-1.283 1.605-2.085 2.723-2.4 3.36-1.605 2.565-3.443 5.04-5.52 7.44-2.085 2.399-4.245 4.882-6.48 7.439-8.002 8.963-17.28 17.445-27.84 25.439-10.245 7.365-20.962 13.846-32.159 19.44-11.205 5.603-22.882 10.163-35.04 13.681-12.165 3.524-24.322 5.924-36.479 7.199-6.405.645-12.645 1.043-18.72 1.2-6.083.165-12.322-.075-18.72-.72h-4.56s-2.962-.158-4.56-.48h-2.4l-2.4-.48c-.645 0-1.365-.074-2.16-.239-.803-.157-1.522-.24-2.16-.24-2.88-.638-5.76-1.2-8.64-1.68-2.88-.48-5.603-1.035-8.159-1.681-2.88-.959-5.603-1.92-8.16-2.879-2.565-.961-5.123-2.078-7.68-3.361-2.565-.959-4.965-2.076-7.2-3.359-2.243-1.275-4.485-2.715-6.72-4.32-8.64-6.396-15.682-13.598-21.12-21.6-5.76-7.995-10.56-16.957-14.399-26.88-1.92-4.8-3.6-9.758-5.04-14.88-1.44-5.115-2.805-10.396-4.08-15.84-2.242-10.561-3.682-21.601-4.32-33.121-.96-11.52-.96-23.197 0-35.039.315-5.76.72-11.596 1.2-17.521.48-5.917 1.2-11.76 2.16-17.52.96-6.075 1.92-12 2.88-17.76.96-5.76 2.235-11.677 3.84-17.76.638-2.88 1.357-5.76 2.16-8.64.795-2.88 1.68-5.76 2.64-8.64.638-3.195 1.439-6.24 2.4-9.12l2.88-8.64c3.84-11.198 8.16-22.395 12.96-33.6 4.8-11.198 10.395-22.08 16.799-32.64 3.195-5.438 6.397-10.635 9.6-15.6 3.195-4.958 6.555-9.84 10.08-14.64 7.035-9.915 14.714-19.515 23.04-28.8 4.155-4.478 8.4-8.797 12.72-12.96 4.32-4.155 8.88-8.317 13.68-12.48 4.478-3.518 9.435-7.035 14.88-10.56 2.558-1.597 5.198-3.195 7.92-4.8 2.715-1.598 5.52-3.195 8.4-4.8 10.875-5.115 22.56-8.955 35.04-11.52 3.195-.637 6.315-1.117 9.36-1.44 3.038-.315 6.157-.637 9.36-.96 6.075-.315 12.314-.315 18.72 0 6.397.645 12.48 1.845 18.239 3.6 5.76 1.763 11.355 4.245 16.8 7.44 2.557 1.605 4.958 3.203 7.2 4.8 2.235 1.605 4.478 3.525 6.72 5.76 3.517 3.525 6.877 7.68 10.08 12.48 3.195 4.485 5.438 9.12 6.72 13.92 1.275 4.163 2.235 8.805 2.88 13.92.638 4.485.638 8.963 0 13.44-.322 4.485-1.282 8.962-2.88 13.44-3.525 8.962-8.482 17.123-14.88 24.48-3.202 3.84-6.72 7.44-10.56 10.8s-8.002 6.48-12.48 9.36c-2.565 1.605-4.965 3.045-7.2 4.32-2.242 1.282-4.642 2.565-7.199 3.84-2.565 1.283-5.04 2.482-7.44 3.6-2.4 1.125-4.883 2.325-7.44 3.6l-15.84 5.76c-1.605.645-3.045 1.125-4.32 1.44-1.283.323-2.565.803-3.84 1.44l-4.32.96-4.32 1.44h-.48c-7.68 2.565-13.604 7.365-17.76 14.4-4.162 7.042-5.123 14.565-2.88 22.56 1.92 8.325 6.48 14.64 13.68 18.96 7.2 4.32 14.955 5.52 23.28 3.6l2.4-.96 2.88-.48c.96-.315 1.837-.555 2.64-.72.795-.158 1.68-.397 2.64-.72 1.598-.637 3.36-1.2 5.28-1.68 1.92-.48 3.675-1.035 5.28-1.68 3.518-1.598 6.96-3.038 10.32-4.32 3.36-1.275 6.794-2.715 10.32-4.32 14.077-6.397 27.037-14.235 38.879-23.52 6.075-4.8 11.917-10.08 17.52-15.84 5.594-5.76 10.634-11.835 15.12-18.24 4.478-6.075 8.475-13.275 12-21.6 3.517-7.035 6.074-15.038 7.679-24 .96-4.155 1.598-8.318 1.92-12.48.315-4.155.48-8.475.48-12.96-.645-9.278-2.242-17.76-4.799-25.44-1.605-3.84-3.36-7.597-5.28-11.28-1.92-3.675-4.163-7.275-6.72-10.8-5.123-7.035-10.725-12.96-16.8-17.76-3.202-2.558-6.405-4.8-9.6-6.72-3.203-1.92-6.562-3.675-10.08-5.28-6.72-3.195-13.763-5.76-21.12-7.68-3.525-.96-6.96-1.68-10.32-2.16s-6.803-1.035-10.32-1.68c-3.525-.637-7.042-1.035-10.56-1.2-3.525-.158-7.042-.398-10.56-.72-6.72-.315-13.44-.315-20.16 0-7.042 0-13.92.48-20.64 1.44-6.72.645-13.439 1.68-20.159 3.12-6.72 1.44-13.44 3.12-20.16 5.04-3.525.96-6.885 1.92-10.08 2.88-3.203.96-6.405 2.085-9.6 3.36-3.525 1.605-6.802 3.045-9.84 4.32-3.044 1.282-6.165 2.722-9.359 4.32-6.405 2.88-12.645 6.083-18.72 9.6-6.082 3.525-12 7.365-17.759 11.52-5.76 4.163-11.363 8.565-16.8 13.2-5.444 4.643-10.56 9.36-15.359 14.16-9.6 9.6-18.72 20.482-27.359 32.64-4.485 5.445-8.64 11.123-12.48 17.04-3.84 5.925-7.522 11.925-11.04 18-3.524 6.083-6.885 12.24-10.08 18.48-3.203 6.24-6.24 12.562-9.12 18.96-3.203 6.72-5.925 13.125-8.16 19.2-2.88 6.72-5.28 13.44-7.2 20.16-2.565 6.72-4.643 13.44-6.24 20.16-1.605 6.72-3.202 13.605-4.8 20.64-2.88 14.399-4.965 28.725-6.24 42.96-1.282 14.242-1.282 28.725 0 43.439.638 7.365 1.44 14.723 2.4 22.08.96 7.365 2.4 14.723 4.32 22.08 1.92 7.365 4.237 14.723 6.96 22.08 2.715 7.365 6 14.564 9.839 21.6 1.92 3.525 3.998 6.886 6.24 10.08 2.235 3.203 4.635 6.405 7.2 9.601 2.557 3.524 5.197 6.72 7.92 9.6 2.715 2.88 5.677 5.603 8.879 8.16 2.88 2.88 5.917 5.521 9.12 7.92 3.195 2.4 6.555 4.718 10.08 6.96 3.517 2.235 7.117 4.155 10.799 5.76 3.675 1.598 7.275 3.195 10.8 4.801 3.84 1.598 7.598 2.955 11.28 4.08 3.675 1.117 7.44 2.16 11.279 3.119 7.68 1.275 15.195 2.235 22.56 2.881 3.84.637 7.598.959 11.28.959 3.675 0 7.275-.164 10.8-.479 2.558 0 4.32-.165 5.28-.479h5.279999999999999c1.598-.322 3.36-.562 5.28-.721 1.919-.164 3.675-.404 5.28-.72 6.72-.646 13.515-1.604 20.4-2.88 6.877-1.283 13.515-2.723 19.919-4.32 6.72-1.605 13.357-3.442 19.92-5.52 6.555-2.086 13.035-4.402 19.439-6.961 26.235-9.914 49.754-23.354 70.559-40.319 11.197-9.277 20.955-18.72 29.28-28.319 2.097-2.098 4.086-4.304 6-6.585l-1.205 5.624c-.315 2.242-.637 4.402-.96 6.48-.315 2.085-.795 4.244-1.44 6.48l-2.4 13.439-1.92 13.439c-.638 2.565-1.035 4.883-1.2 6.961-.157 2.084-.555 4.402-1.2 6.959l-.96 6.721-.48 3.84c0 1.598-.157 2.88-.48 3.84-.637 7.357 1.125 14.078 5.28 20.16 4.163 6.075 9.922 9.915 17.279 11.52 7.995 1.921 15.435.721 22.32-3.6 6.877-4.32 11.279-10.484 13.199-18.48v-.959l4.8-18.721v-.96l4.32-10.08c1.598-3.517 3.195-6.96 4.8-10.319 1.598-3.36 3.195-6.795 4.8-10.32 3.194-7.035 6.554-13.838 10.08-20.4 3.517-6.555 7.2-13.035 11.04-19.439.96-1.598 1.92-3.195 2.88-4.801.96-1.598 1.92-3.194 2.88-4.799l2.88-4.801 2.88-4.8c1.598-2.88 3.675-6.075 6.24-9.601.96-1.598 1.92-3.119 2.88-4.56s2.078-2.955 3.36-4.56c8.64-12.48 17.76-24 27.36-34.561 1.275-1.598 2.475-3.037 3.6-4.32 1.117-1.274 2.317-2.557 3.6-3.84 1.275-1.274 2.558-2.475 3.84-3.6 1.275-1.117 2.557-2.317 3.84-3.6 2.88-2.559 5.76-4.801 8.64-6.721 2.879-1.92 5.759-3.675 8.639-5.279 2.88-1.92 5.835-3.518 8.88-4.801 3.037-1.274 5.835-2.399 8.4-3.359l.96-.48c0 .96-.323 2.4-.96 4.32-.645 3.202-1.365 6.48-2.16 9.84-.802 3.359-1.522 6.803-2.16 10.32-.96 3.525-1.92 7.042-2.88 10.56-.96 3.525-1.92 7.042-2.88 10.56-1.92 7.365-3.84 14.723-5.76 22.08-1.92 7.365-4.005 14.723-6.24 22.08l-2.879 11.521s-1.763 7.68-2.4 11.521c-.96 4.162-1.92 8.159-2.88 12-.96 3.84-1.762 7.844-2.4 12-.322 2.242-.645 4.402-.96 6.479-.322 2.085-.645 4.245-.96 6.479-.322 2.243-.562 4.485-.72 6.721-.165 2.242-.24 4.643-.24 7.199v7.44s.157 5.04.48 7.92c.638 3.841 1.275 7.042 1.92 9.601.96 3.84 2.4 7.515 4.32 11.039.638.961 1.275 1.92 1.92 2.881.637.959 1.44 2.077 2.4 3.359 1.597 1.92 3.359 3.676 5.279 5.28.96.638 1.995 1.357 3.12 2.16 1.118.795 2.317 1.515 3.6 2.16 1.275.637 2.4 1.117 3.36 1.439.96.315 2.078.638 3.36.96 3.84 1.275 7.838 1.92 12 1.92h1.44v-.479h3.839c.637 0 2.235-.322 4.8-.96 2.88-.646 5.595-1.44 8.16-2.4 2.558-.96 5.115-2.085 7.68-3.359 2.235-1.283 4.395-2.482 6.48-3.601 2.077-1.125 4.079-2.482 6-4.08 3.517-2.565 6.877-5.362 10.08-8.399 3.195-3.045 6.24-6 9.12-8.881 5.76-6.074 11.04-12.314 15.84-18.72 1.275-1.597 2.475-3.194 3.6-4.8 1.118-1.598 2.318-3.195 3.6-4.8 1.92-3.195 4.155-6.397 6.72-9.601 2.235-3.518 4.32-6.877 6.24-10.08 1.92-3.194 3.998-6.555 6.24-10.08 1.815-3.326 4.351-7.452 7.6-12.354-.707 6.038-1.163 12.076-1.366 18.114v14.88c.323 2.564.48 5.205.48 7.92 0 2.723.323 5.52.96 8.4.645 2.564 1.2 5.279 1.68 8.16.48 2.879 1.365 5.924 2.64 9.119.96 3.203 2.4 6.398 4.32 9.601 1.275 2.88 3.518 6.075 6.72 9.6 2.558 2.88 5.76 5.595 9.6 8.16 1.92 1.274 3.915 2.235 6 2.88 2.077.638 4.08 1.275 6 1.92 3.517 1.275 7.357 1.92 11.52 1.92 2.235 0 3.997-.165 5.28-.479h2.399l1.44-.48h1.44c4.478-.96 7.995-2.085 10.56-3.36 1.598-.645 3.038-1.364 4.32-2.159 1.275-.803 2.557-1.522 3.84-2.16 4.155-2.565 8.475-5.761 12.959-9.601 1.92-1.604 3.84-3.359 5.76-5.279s3.675-3.683 5.28-5.28c1.598-1.604 3.12-3.36 4.56-5.28s2.955-3.84 4.56-5.76c2.88-3.518 5.677-7.117 8.399-10.8 2.715-3.675 5.355-7.44 7.92-11.28 2.558-3.84 5.04-7.68 7.44-11.52s4.875-7.68 7.44-11.521c2.235-3.84 5.115-8.798 8.64-14.88 1.981-3.422 3.753-6.531 5.33-9.348.133 1.36.273 2.717.425 4.068.96 11.52 2.88 23.361 5.76 35.52.637 3.202 1.357 6.322 2.16 9.359.795 3.045 1.68 6.166 2.64 9.36.638 1.604 1.275 3.12 1.92 4.56.638 1.44 1.275 2.963 1.92 4.561.638 1.605 1.358 3.203 2.16 4.8.795 1.605 1.68 3.202 2.64 4.8s1.92 3.277 2.88 5.041c.96 1.754 2.078 3.435 3.36 5.039 1.275 1.598 2.715 3.195 4.32 4.801l4.8 4.8c1.92 1.597 3.915 3.037 6 4.319 2.078 1.275 4.395 2.4 6.96 3.36 5.115 1.92 10.238 2.88 15.359 2.88h6.24c.96-.322 1.92-.479 2.88-.479s1.92-.165 2.88-.48c4.155-.645 7.838-1.604 11.04-2.88 6.397-2.242 12.795-5.445 19.2-9.6 2.88-1.92 5.52-3.923 7.92-6 2.4-2.086 4.875-4.245 7.44-6.48 2.235-2.242 4.395-4.478 6.479-6.72 2.078-2.235 3.915-4.636 5.52-7.2 3.84-4.8 7.358-9.675 10.561-14.641 3.193-4.957 6.238-9.997 9.119-15.119 2.557-5.115 5.115-10.238 7.68-15.36.968-1.934 1.904-3.899 2.826-5.88 1.06 7.588 2.513 15.307 4.373 23.16.638 3.202 1.357 6.322 2.16 9.359.795 3.045 1.679 6.166 2.639 9.36.638 1.604 1.275 3.12 1.92 4.56.638 1.44 1.275 2.963 1.92 4.561.638 1.605 1.357 3.203 2.16 4.8.795 1.605 1.68 3.202 2.64 4.8s1.92 3.277 2.881 5.041c.96 1.754 2.077 3.435 3.359 5.039 1.275 1.598 2.715 3.195 4.32 4.801l4.8 4.8c1.92 1.597 3.915 3.037 6 4.319 2.077 1.275 4.396 2.4 6.96 3.36 5.115 1.92 10.237 2.88 15.36 2.88h6.2379999999999995c.961-.322 1.921-.479 2.881-.479s1.919-.165 2.879-.48c4.154-.645 7.837-1.604 11.04-2.88 6.397-2.242 12.795-5.445 19.199-9.6 2.881-1.92 5.521-3.923 7.921-6 2.399-2.086 4.875-4.245 7.439-6.48 2.235-2.242 4.396-4.478 6.48-6.72 2.077-2.235 3.915-4.636 5.52-7.2 3.84-4.8 7.356-9.675 10.56-14.641 3.194-4.957 6.239-9.997 9.119-15.119 2.482-4.966 4.967-9.939 7.456-14.912.166 2.649.556 5.22 1.184 7.712.315 2.565.795 5.28 1.44 8.16.637 2.88 1.274 5.603 1.92 8.159 1.274 5.123 3.194 10.726 5.76 16.801 1.275 2.88 2.64 5.76 4.08 8.64 1.439 2.88 3.12 5.603 5.04 8.16 3.84 5.761 8.475 10.875 13.92 15.36 6.075 5.115 12.313 8.797 18.719 11.04 6.72 2.234 13.44 3.675 20.16 4.319h13.918000000000001c1.275 0 2.715-.165 4.32-.479 1.598-.322 3.12-.562 4.56-.72 1.44-.165 2.955-.405 4.561-.721 1.598-.645 3.037-1.042 4.319-1.2 1.275-.164 2.557-.562 3.84-1.199 2.88-.96 5.677-1.921 8.399-2.88 2.715-.961 5.355-2.243 7.92-3.84 5.115-2.565 9.84-5.281 14.16-8.16 4.32-2.881 8.558-6.083 12.72-9.601 4.155-3.524 7.995-7.117 11.521-10.8 3.518-3.675 6.877-7.598 10.079-11.76.638-.638 1.357-1.44 2.16-2.4.795-.96 1.515-1.755 2.159-2.4 1.275 0 3.195-.314 5.761-.959 7.357-1.598 13.597-3.676 18.72-6.24 1.598-.638 2.955-1.357 4.08-2.16 1.117-.795 2.475-1.516 4.08-2.16 1.274-.638 2.475-1.357 3.6-2.16 1.117-.795 2.16-1.68 3.12-2.64 4.8-3.195 9.12-6.556 12.96-10.08.96-.638 1.92-1.44 2.88-2.399l2.879-2.881c.96-.637 1.92-1.439 2.88-2.4l2.881-2.879c3.517-3.518 6.877-7.201 10.079-11.041 2.851-3.426 5.574-6.852 8.175-10.277-.646 6.84-.979 13.784-.979 20.838.323 3.203.48 6.322.48 9.359 0 3.045.322 6.166.96 9.36.96 7.043 2.399 13.44 4.32 19.2.96 3.525 2.077 6.803 3.359 9.84 1.275 3.045 2.88 6.322 4.8 9.84 3.518 6.721 8.16 12.638 13.92 17.76 2.881 2.559 5.918 4.958 9.12 7.201 3.194 2.234 6.555 4.154 10.079 5.76 7.035 2.88 14.078 4.8 21.12 5.76 1.92.314 3.758.479 5.521.479 1.755 0 3.435.158 5.04.48 1.92 0 3.518-.165 4.8-.48h4.798c1.598-.322 3.195-.562 4.8-.72 1.598-.165 3.195-.405 4.8-.72 1.598-.322 3.12-.562 4.561-.72 1.438-.165 2.954-.562 4.559-1.2 3.84-.96 6.878-2.085 9.12-3.36 1.598-.645 3.038-1.199 4.32-1.68 1.274-.48 2.715-1.043 4.32-1.68 2.88-1.605 5.595-3.203 8.159-4.801 2.558-1.604 5.115-3.202 7.681-4.8 4.8-3.524 9.359-7.2 13.68-11.04s8.4-7.995 12.24-12.48c7.034-7.994 13.597-16.799 19.679-26.399l7.2-11.521h2.399c7.035 0 13.44-.959 19.2-2.879 5.761-1.275 11.521-3.518 17.279-6.721 2.88-1.598 5.52-3.195 7.92-4.8 2.4-1.598 4.718-3.195 6.96-4.8 4.8-3.518 9.195-7.2 13.2-11.04 3.997-3.841 7.755-7.838 11.28-12 3.518-3.518 6.877-7.681 10.08-12.48 1.597-2.235 3.194-4.395 4.8-6.479 1.598-2.078 3.194-4.238 4.8-6.48 1.359-1.943 1.708-3.889 1.06-5.835.913-1.792 1.837-3.685 2.774-5.685 2.557-5.438 4.957-11.678 7.199-18.721 2.235-7.035 4.155-15.194 5.76-24.479.315.646.48 1.042.48 1.2 0 .164.157.562.479 1.199 2.88 9.285 5.918 18.48 9.12 27.601 3.195 9.12 6.555 18.322 10.08 27.601.315.959.638 1.844.96 2.639.315.803.638 1.681.96 2.641l-89.279 110.4c-1.597 1.92-2.317 4.08-2.159 6.479.164 2.4 1.042 4.396 2.64 6 1.92 1.92 4.162 2.88 6.72 2.88 2.565 0 4.8-.803 6.72-2.4l92.64-85.439 2.88 5.76s1.92 3.683 2.88 5.28c4.8 9.285 10.236 18.083 16.319 26.399 2.88 4.163 6 8.326 9.359 12.48 3.36 4.162 6.795 8.16 10.32 12 1.92 1.92 3.915 3.84 6 5.76 2.077 1.92 4.237 3.84 6.48 5.76 2.557 1.598 5.04 3.195 7.439 4.801 2.4 1.598 4.875 3.195 7.44 4.8 2.558 1.598 5.197 2.955 7.919 4.08 2.715 1.118 5.678 1.995 8.88 2.64 6.075 1.92 12.314 2.881 18.72 2.881.96 0 1.755-.166 2.4-.48h2.879c1.598 0 3.36-.322 5.28-.96 1.92-.323 3.675-.803 5.279-1.44 1.598-.645 3.195-1.282 4.801-1.92 3.194-1.604 6.074-3.285 8.64-5.039 2.558-1.764 4.957-3.601 7.199-5.521 4.478-3.841 8.16-8.003 11.04-12.479 1.597-1.921 3.12-3.998 4.56-6.24 1.44-2.235 2.955-4.479 4.561-6.721 7.357-12.157 12.96-24.074 16.8-35.76 3.84-11.678 7.357-23.595 10.56-35.76.638-2.558 1.275-4.957 1.92-7.2.638-2.235 1.275-4.478 1.92-6.72.638-3.195 1.275-5.596 1.92-7.2l.48-3.36.96-3.84c.637-3.843-.961-6.558-4.801-8.164zm-692.138-173.999c1.273-6.24 2.714-12.555 4.319-18.96 1.597-7.357 3.119-14.557 4.56-21.6 1.44-7.035 2.955-14.235 4.56-21.6l4.801-21.6v-.48l.479-.48v-1.44l.96-2.4 1.44-4.32c.638-1.597 1.117-3.195 1.439-4.8.315-1.598.795-3.195 1.44-4.8 1.274-3.518 2.399-6.795 3.36-9.84.96-3.038 2.077-6.157 3.359-9.36 1.275-3.195 2.476-6.315 3.601-9.36 1.117-3.038 2.317-5.835 3.6-8.4.638-1.597 1.357-3.037 2.16-4.32.795-1.275 1.515-2.558 2.16-3.84.637-1.275 1.357-2.475 2.159-3.6.796-1.118 1.516-2.16 2.16-3.12 1.92-2.558 3.36-4.155 4.32-4.8.638-.315 1.275-.795 1.92-1.44l1.92-.96v-.96h.96c1.598.96 2.88 2.88 3.84 5.76 1.275 2.565 2.235 5.445 2.88 8.64l1.44 10.08v10.56c0 1.605-.082 3.285-.24 5.04-.165 1.763-.404 3.443-.72 5.04 0 .96-.165 1.763-.48 2.4l-.479 2.4c-.322.96-.48 1.92-.48 2.88s-.165 1.763-.479 2.4c-.646 1.605-1.125 3.36-1.44 5.28-.322 1.92-.802 3.682-1.439 5.28-4.485 14.085-9.766 27.36-15.84 39.84-3.525 6.405-6.96 12.803-10.32 19.2-3.36 6.405-6.96 12.802-10.8 19.2-.96 1.605-1.92 3.12-2.88 4.56-.96 1.44-1.92 2.963-2.88 4.56l-3.36 4.8-1.44 2.4-1.439 1.92c-1.92 3.203-3.923 6.24-6 9.12-2.085 2.88-4.244 5.925-6.479 9.12l-.96.96c1.595-6.398 3.035-12.72 4.318-18.96zm-186.238 33.84c4.155-20.475 8.955-41.115 14.399-61.92 2.881-10.238 5.761-20.4 8.641-30.48s6.075-20.078 9.6-30l5.28-14.4c.96-2.557 1.92-4.957 2.88-7.2.96-2.235 1.755-4.635 2.4-7.2.96-2.557 1.92-4.875 2.88-6.96.96-2.078 1.92-4.395 2.88-6.96l5.76-12.96c1.275-1.92 2.476-3.84 3.601-5.76 1.116-1.92 2.158-3.675 3.118-5.28l1.92-1.92 1.921-1.92c.96-1.598 2.077-2.558 3.359-2.88.638-.638 1.118-.96 1.44-.96l.479-.48h.48l.479-.48h.48v-.48c0-.315.075-.48.24-.48.157 0 .239.165.239.48.638 0 .96.323.96.96.638.645 1.275 2.243 1.92 4.8.638.96.961 2.002.961 3.12 0 1.125.157 2.325.479 3.6v7.2c0 2.565-.165 5.123-.479 7.68-.323 2.565-.803 5.123-1.44 7.68-.322 2.565-.803 5.123-1.44 7.68-.645 2.565-1.282 5.123-1.92 7.68-.322 1.605-.645 2.962-.96 4.08-.322 1.125-.802 2.325-1.439 3.6-.323 1.605-.646 2.962-.96 4.08-.323 1.125-.803 2.325-1.44 3.6-7.365 20.805-15.523 40.965-24.479 60.48-8.963 19.522-19.043 38.88-30.24 58.08-2.242 3.525-4.485 7.2-6.72 11.04-2.243 3.84-4.643 7.522-7.2 11.04.639-3.195 1.276-5.918 1.921-8.16zm-161.276 0c4.155-20.475 8.955-41.115 14.399-61.92 2.88-10.238 5.76-20.4 8.64-30.48 2.88-10.08 6.075-20.078 9.6-30l5.28-14.4c.96-2.557 1.92-4.957 2.88-7.2.96-2.235 1.755-4.635 2.4-7.2.96-2.557 1.919-4.875 2.88-6.96.96-2.078 1.92-4.395 2.88-6.96l5.76-12.96c1.275-1.92 2.475-3.84 3.6-5.76 1.118-1.92 2.16-3.675 3.119-5.28l1.92-1.92 1.922-1.92c.959-1.598 2.076-2.558 3.359-2.88.637-.638 1.117-.96 1.439-.96l.48-.48h.48l.479-.48h.48v-.48c0-.315.076-.48.24-.48.158 0 .24.165.24.48.637 0 .959.323.959.96.639.645 1.275 2.243 1.92 4.8.639.96.961 2.002.961 3.12 0 1.125.158 2.325.48 3.6v7.2c0 2.565-.166 5.123-.48 7.68-.322 2.565-.803 5.123-1.439 7.68-.322 2.565-.803 5.123-1.441 7.68-.645 2.565-1.281 5.123-1.92 7.68-.322 1.605-.645 2.962-.959 4.08-.322 1.125-.803 2.325-1.439 3.6-.324 1.605-.646 2.962-.961 4.08-.322 1.125-.803 2.325-1.439 3.6-7.365 20.805-15.525 40.965-24.48 60.48-8.962 19.522-19.042 38.88-30.239 58.08-2.243 3.525-4.485 7.2-6.72 11.04-2.243 3.84-4.643 7.522-7.2 11.04.638-3.195 1.275-5.918 1.92-8.16zm-421.183-26.16c.795-3.36 1.515-6.795 2.16-10.32l3.36-12.96 2.88-12.96c.96-4.478 1.92-8.798 2.88-12.96.96-4.155 2.077-8.475 3.36-12.96.638-1.92 1.118-3.915 1.44-6 .315-2.078.795-4.238 1.44-6.48.637-1.92 1.274-3.915 1.919-6 .638-2.077 1.275-4.08 1.92-6l.48-2.88 1.44-2.88 1.92-6.24 4.32-12c1.598-4.155 2.955-8.16 4.08-12 1.118-3.84 2.475-7.68 4.08-11.52 1.598-3.518 3.195-7.118 4.8-10.8 1.598-3.675 3.195-7.118 4.8-10.32.96-1.598 1.92-3.12 2.879-4.56.96-1.44 1.92-2.955 2.88-4.56.96-1.275 1.92-2.4 2.88-3.36l2.4-2.4 2.88-1.44h.48v-1.44h.48c.315.323 1.118 1.283 2.4 2.88.315.645.638 1.365.96 2.16.315.803.48 1.68.48 2.64.315.645.555 1.522.72 2.64.157 1.125.397 2.16.72 3.12.315 1.92.48 3.923.48 6v6c0 4.485-.48 8.805-1.44 12.96-.322.96-.48 2.003-.48 3.12 0 1.125-.165 2.16-.48 3.12l-.48 1.44-.48 1.44-.96 3.36c-2.243 8.325-4.8 16.642-7.68 24.96-2.88 8.325-6.083 16.642-9.599 24.96-7.042 15.682-15.045 31.365-24 47.04l-7.2 11.52-.48 1.44-.96.96c-.323.645-.645 1.125-.96 1.44-.323.322-.645.802-.96 1.44-.645.96-1.92 2.723-3.84 5.28-1.282 1.605-2.565 3.285-3.84 5.04-1.282 1.763-2.565 3.6-3.84 5.52-.645.645-1.042 1.125-1.2 1.44-.165.323-.562.803-1.2 1.44.639-3.518 1.359-6.961 2.161-10.32zm871.174 122.159c-.165 4.163-.562 8.325-1.199 12.48-.96 8.002-2.723 16.484-5.28 25.439-.646 2.243-1.282 4.402-1.92 6.48-.646 2.085-1.282 4.245-1.92 6.48-.646 1.92-1.365 3.922-2.16 6-.803 2.084-1.68 4.08-2.64 6-2.243 5.444-4.643 10.725-7.2 15.84-2.565 5.122-5.445 10.244-8.641 15.359 0-.314-.082-.479-.239-.479-.165 0-.24-.157-.24-.479-.96-.639-1.763-1.275-2.4-1.921-.645-.638-1.439-1.274-2.399-1.92l-.96-1.44-.959-1.439-1.44-1.439-.48-.48h-.479v-.48h-.48v-.479l-4.319-5.761c-2.565-3.84-4.643-8.954-6.24-15.359-.322-1.598-.562-3.195-.72-4.8-.165-1.598-.24-3.195-.24-4.8-.322-.961-.48-2.558-.48-4.801v-5.279c.96-14.4 4.478-28.958 10.561-43.68 1.598-3.518 3.277-6.961 5.039-10.32 1.755-3.36 3.6-6.638 5.52-9.84 1.275-1.598 2.4-3.038 3.36-4.32.96-1.275 1.92-2.558 2.88-3.84 2.88-2.881 4.958-4.801 6.24-5.76.638-.315 1.117-.639 1.439-.961.315-.314.638-.479.96-.479l.96-.96h.48v-.48h4.798c.638 0 1.118.166 1.44.48 1.598 1.282 2.88 2.88 3.84 4.8 1.92 2.88 3.037 5.925 3.36 9.12.637 2.564 1.274 6.404 1.92 11.52.313 3.838.396 7.844.238 11.998zm214.793 117.121c-2.88 3.84-5.926 7.364-9.12 10.56-1.605 1.604-3.285 3.202-5.04 4.8-1.763 1.605-3.601 3.203-5.521 4.8-7.042 5.445-14.564 10.245-22.56 14.4-7.68 3.84-15.525 6.239-23.52 7.2-.96 0-1.92.082-2.88.24-.96.164-1.92.239-2.88.239h-8.639c-.646-.315-1.44-.479-2.4-.479-1.604 0-3.359-.315-5.28-.961-3.202-.959-5.925-2.077-8.159-3.359-1.283-.638-2.325-1.357-3.12-2.16-.803-.795-1.681-1.68-2.641-2.641-.645-.959-1.282-1.994-1.92-3.119-.645-1.117-1.282-2.318-1.92-3.6-1.282-3.518-2.085-6.721-2.399-9.601-1.283-6.397-1.44-14.077-.48-23.04.315-4.478.878-8.797 1.68-12.96.796-4.155 1.681-8.476 2.641-12.96 4.8-17.596 11.52-34.237 20.16-49.92 4.154-7.995 8.955-15.676 14.399-23.04.315-.315.556-.638.721-.96.157-.314.397-.638.72-.96v5.76c0 7.365.638 14.085 1.92 20.16 1.274 6.405 3.195 12.802 5.76 19.2.637 1.604 1.356 3.202 2.159 4.8.795 1.604 1.515 3.202 2.16 4.8.314.322.555.645.72.96.157.323.397.646.72.96v.959h.48l.479 1.44c1.275 1.92 2.235 3.202 2.881 3.84 7.034 11.205 15.675 21.12 25.92 29.76 2.557 1.92 5.279 3.766 8.159 5.52 2.881 1.764 5.918 3.443 9.12 5.041 1.598.645 2.955 1.282 4.08 1.92 1.118.645 2.476 1.282 4.08 1.92 0 .323-.165.481-.48.481zm42.238-107.041c-.645 4.801-1.282 9.601-1.92 14.4-.645 4.8-1.604 9.442-2.88 13.92-1.282 4.8-2.64 9.525-4.08 14.16-1.439 4.643-2.962 9.202-4.56 13.68-.96 2.565-2.003 5.04-3.12 7.44-1.125 2.399-2.16 4.882-3.12 7.44-1.282-.639-2.085-1.118-2.4-1.44-.96-.638-2.242-1.755-3.84-3.36-1.282-1.598-2.482-3.037-3.6-4.32-1.125-1.274-2.16-2.715-3.12-4.319-4.162-7.035-7.199-13.921-9.119-20.64-.322-.639-.479-1.118-.479-1.44 0-.315-.165-.795-.48-1.44v-.959c-.322 0-.479-.157-.479-.479v-1.44c-.646-1.92-.96-3.518-.96-4.8-.646-1.92-.96-3.758-.96-5.52 0-1.756-.165-3.436-.48-5.041 0-1.92-.082-3.757-.24-5.52-.165-1.755-.082-3.436.24-5.04 0-1.598.075-3.36.24-5.28.157-1.92.397-3.675.72-5.279.315-3.518.795-6.878 1.44-10.08.637-3.195 1.274-6.555 1.92-10.08.314-3.195 1.274-6.555 2.879-10.08.314-.638.638-1.357.96-2.16.314-.795.638-1.516.96-2.16 1.274-1.92 2.235-3.195 2.88-3.84 3.518-5.76 8.16-8.797 13.92-9.12.96-.315 2.077-.479 3.36-.479.638 0 1.117.082 1.439.24.315.164.638.239.96.239.96 0 1.755.479 2.4 1.44.638.322 1.598 1.125 2.88 2.4 1.598 1.604 3.195 4.642 4.8 9.119 1.598 3.84 2.558 7.846 2.88 12 .638 4.485 1.035 9.045 1.2 13.68.157 4.641.075 9.359-.241 14.158zM858.887 211.906c11.52 0 21.435-4.08 29.76-12.24 8.317-8.16 12.48-18.157 12.48-30 0-11.835-4.163-21.84-12.48-30-8.325-8.16-18.24-12.24-29.76-12.24-11.842 0-21.839 4.08-30 12.24-8.16 8.16-12.24 18.165-12.24 30 0 11.843 4.08 21.84 12.24 30 8.161 8.16 18.158 12.24 30 12.24z"/><path fill="none" d="M0 47.268h2048v678.068h-2048z"/></g></svg>