<?xml version="1.0" encoding="utf-8"?>
<!-- Generator: Adobe Illustrator 16.0.0, SVG Export Plug-In . SVG Version: 6.00 Build 0)  -->
<!DOCTYPE svg PUBLIC "-//W3C//DTD SVG 1.1//EN" "http://www.w3.org/Graphics/SVG/1.1/DTD/svg11.dtd">
<svg version="1.1" id="Calque_1" xmlns="http://www.w3.org/2000/svg" xmlns:xlink="http://www.w3.org/1999/xlink" x="0px" y="0px"
	 width="2048px" height="2048px" viewBox="0 0 2048 2048" enable-background="new 0 0 2048 2048" xml:space="preserve">
<g>
	<path fill="#010101" d="M415.379,1804.274h22.084v114.484c0,45.438-22.338,59.399-51.784,59.399
		c-8.123,0-18.023-1.776-23.608-4.062l3.3-18.022c4.569,1.776,11.169,3.3,18.531,3.3c19.8,0,31.477-8.885,31.477-42.393V1804.274z"
		/>
	<path fill="#010101" d="M485.944,1917.997c0.508,30.208,19.8,42.646,42.138,42.646c15.992,0,25.638-2.793,34.015-6.347
		l3.808,15.992c-7.869,3.554-21.323,7.615-40.869,7.615c-37.823,0-60.415-24.877-60.415-61.938
		c0-37.062,21.831-66.254,57.623-66.254c40.107,0,50.769,35.284,50.769,57.877c0,4.569-0.508,8.123-0.762,10.407H485.944z
		 M551.437,1902.005c0.253-14.215-5.839-36.3-30.969-36.3c-22.592,0-32.492,20.815-34.269,36.3H551.437z"/>
	<path fill="#010101" d="M654.488,1892.612c0-15.738-0.508-28.431-1.016-40.107h20.054l1.015,21.069h0.508
		c9.138-14.977,23.607-23.861,43.661-23.861c29.7,0,52.039,25.131,52.039,62.446c0,44.169-26.908,65.999-55.846,65.999
		c-16.246,0-30.461-7.107-37.823-19.292h-0.508v66.762h-22.084V1892.612z M676.572,1925.358c0,3.3,0.508,6.347,1.016,9.139
		c4.062,15.484,17.515,26.146,33.507,26.146c23.607,0,37.315-19.293,37.315-47.47c0-24.623-12.946-45.691-36.554-45.691
		c-15.231,0-29.446,10.915-33.762,27.669c-0.761,2.792-1.523,6.092-1.523,9.138V1925.358z"/>
	<path fill="#010101" d="M866.948,1975.366l-1.777-15.484h-0.761c-6.854,9.646-20.054,18.276-37.569,18.276
		c-24.877,0-37.569-17.515-37.569-35.284c0-29.7,26.4-45.946,73.869-45.692v-2.538c0-10.154-2.792-28.431-27.923-28.431
		c-11.423,0-23.354,3.554-31.984,9.139l-5.077-14.724c10.154-6.6,24.877-10.915,40.361-10.915c37.569,0,46.708,25.639,46.708,50.262
		v45.945c0,10.662,0.508,21.069,2.031,29.446H866.948z M863.648,1912.666c-24.369-0.507-52.038,3.809-52.038,27.67
		c0,14.469,9.646,21.322,21.069,21.322c15.992,0,26.146-10.153,29.7-20.562c0.761-2.284,1.269-4.822,1.269-7.107V1912.666z"/>
	<path fill="#010101" d="M921.267,1890.836c0-14.47-0.254-26.908-1.016-38.331h19.546l0.761,24.115h1.016
		c5.584-16.5,19.038-26.907,34.015-26.907c2.539,0,4.315,0.254,6.346,0.762v21.069c-2.285-0.508-4.569-0.762-7.615-0.762
		c-15.738,0-26.908,11.931-29.954,28.685c-0.507,3.046-1.015,6.6-1.015,10.407v65.492h-22.084V1890.836z"/>
	<path fill="#010101" d="M1037.268,1817.221v35.284h31.984v17.008h-31.984v66.254c0,15.23,4.314,23.861,16.753,23.861
		c5.839,0,10.153-0.762,12.946-1.523l1.016,16.754c-4.315,1.777-11.17,3.046-19.801,3.046c-10.407,0-18.784-3.3-24.115-9.392
		c-6.346-6.601-8.631-17.516-8.631-31.984v-67.016h-19.038v-17.008h19.038v-29.446L1037.268,1817.221z"/>
	<path fill="#010101" d="M1119.255,1817.982c0.254,7.615-5.331,13.707-14.216,13.707c-7.869,0-13.453-6.092-13.453-13.707
		c0-7.869,5.838-13.962,13.961-13.962C1113.924,1804.021,1119.255,1810.113,1119.255,1817.982z M1094.378,1975.366v-122.861h22.338
		v122.861H1094.378z"/>
	<path fill="#010101" d="M1241.351,1970.797c-5.839,3.046-18.784,7.107-35.284,7.107c-37.062,0-61.177-25.13-61.177-62.699
		c0-37.823,25.892-65.238,65.999-65.238c13.2,0,24.877,3.3,30.97,6.346l-5.077,17.262c-5.331-3.046-13.708-5.838-25.893-5.838
		c-28.177,0-43.407,20.814-43.407,46.453c0,28.431,18.277,45.946,42.646,45.946c12.691,0,21.068-3.3,27.415-6.093L1241.351,1970.797
		z"/>
	<path fill="#010101" d="M1292.369,1817.982c0.254,7.615-5.33,13.707-14.215,13.707c-7.869,0-13.454-6.092-13.454-13.707
		c0-7.869,5.839-13.962,13.962-13.962C1287.039,1804.021,1292.369,1810.113,1292.369,1817.982z M1267.492,1975.366v-122.861h22.339
		v122.861H1267.492z"/>
	<path fill="#010101" d="M1326.889,1892.612c0-15.738-0.507-28.431-1.015-40.107h20.054l1.016,21.069h0.507
		c9.139-14.977,23.608-23.861,43.662-23.861c29.699,0,52.038,25.131,52.038,62.446c0,44.169-26.908,65.999-55.846,65.999
		c-16.246,0-30.462-7.107-37.823-19.292h-0.508v66.762h-22.085V1892.612z M1348.974,1925.358c0,3.3,0.508,6.347,1.016,9.139
		c4.062,15.484,17.515,26.146,33.507,26.146c23.608,0,37.315-19.293,37.315-47.47c0-24.623-12.946-45.691-36.554-45.691
		c-15.23,0-29.445,10.915-33.761,27.669c-0.762,2.792-1.523,6.092-1.523,9.138V1925.358z"/>
	<path fill="#010101" d="M1483.757,1917.997c0.508,30.208,19.8,42.646,42.139,42.646c15.992,0,25.639-2.793,34.016-6.347
		l3.808,15.992c-7.869,3.554-21.323,7.615-40.869,7.615c-37.823,0-60.415-24.877-60.415-61.938c0-37.062,21.83-66.254,57.622-66.254
		c40.108,0,50.77,35.284,50.77,57.877c0,4.569-0.508,8.123-0.762,10.407H1483.757z M1549.249,1902.005
		c0.254-14.215-5.838-36.3-30.969-36.3c-22.593,0-32.492,20.815-34.27,36.3H1549.249z"/>
	<path fill="#010101" d="M1647.986,1962.42c0-9.139,6.346-15.738,14.977-15.738c9.139,0,14.977,6.6,14.977,15.738
		c0,8.885-5.838,15.738-14.977,15.738C1654.078,1978.158,1647.986,1971.305,1647.986,1962.42z M1654.332,1926.12l-3.554-121.846
		h24.369l-3.554,121.846H1654.332z"/>
</g>
<g>
	<g>
		<path fill="#5ABA49" d="M1026.604,1534.109c-101.804,0-200.597-19.95-293.636-59.308
			c-89.833-37.992-170.496-92.376-239.75-161.626c-69.254-69.258-123.635-149.92-161.629-239.75
			c-39.353-93.042-59.306-191.834-59.306-293.637c0-101.804,19.953-200.596,59.306-293.637
			c37.994-89.831,92.375-170.493,161.629-239.75c69.254-69.251,149.917-123.634,239.75-161.627
			c93.039-39.353,191.832-59.307,293.636-59.307c101.805,0,200.596,19.955,293.638,59.307
			c89.83,37.993,170.492,92.376,239.75,161.627c69.25,69.256,123.634,149.919,161.626,239.75
			c39.353,93.041,59.308,191.833,59.308,293.637c0,101.803-19.955,200.596-59.308,293.637
			c-37.992,89.83-92.376,170.492-161.626,239.75c-69.258,69.25-149.92,123.634-239.75,161.626
			C1227.199,1514.159,1128.408,1534.109,1026.604,1534.109z M1026.604,158.41c-342.629,0-621.378,278.751-621.378,621.378
			c0,342.628,278.749,621.378,621.378,621.378c342.628,0,621.379-278.75,621.379-621.378
			C1647.982,437.161,1369.231,158.41,1026.604,158.41z"/>
		<circle fill="#CBE3B5" cx="1026.604" cy="779.788" r="687.849"/>
	</g>
	<path fill="#5ABA49" d="M540.949,618.152h60.838c9.237-70.301,69.176-124.605,141.805-124.605
		c72.632,0,132.568,54.304,141.807,124.605h59.037c-8.939-103.874-95.84-185.367-201.745-185.367
		C636.786,432.786,549.886,514.279,540.949,618.152L540.949,618.152z"/>
	<path fill="#5ABA49" d="M1092.249,618.152h60.84c9.238-70.301,69.175-124.605,141.805-124.605
		c72.632,0,132.567,54.304,141.805,124.605h59.034c-8.937-103.874-95.837-185.367-201.739-185.367
		C1188.087,432.786,1101.186,514.279,1092.249,618.152L1092.249,618.152z"/>
	<path fill="#5ABA49" d="M882.019,1038.39c105.603,0,192.279-81.27,201.216-184.846h-60.688
		c-9.164,70.078-68.95,124.233-141.429,124.233c-72.48,0-132.192-54.156-141.431-124.233h-58.886
		C689.74,957.12,776.414,1038.39,882.019,1038.39z"/>
</g>
</svg>
