<?xml version="1.0" encoding="utf-8"?>
<!-- Generator: Adobe Illustrator 16.0.0, SVG Export Plug-In . SVG Version: 6.00 Build 0)  -->
<!DOCTYPE svg PUBLIC "-//W3C//DTD SVG 1.1//EN" "http://www.w3.org/Graphics/SVG/1.1/DTD/svg11.dtd">
<svg version="1.1" id="Calque_1" xmlns="http://www.w3.org/2000/svg" xmlns:xlink="http://www.w3.org/1999/xlink" x="0px" y="0px"
	 width="2048px" height="2048px" viewBox="0 0 2048 2048" enable-background="new 0 0 2048 2048" xml:space="preserve">
<g>
	<path fill="#010101" d="M654.992,1895.151h-66.507v61.685h74.123v18.53H566.4v-171.092H658.8v18.531h-70.315v54.068h66.507
		V1895.151z"/>
	<path fill="#010101" d="M690.524,1885.759c0-12.692-0.254-23.1-1.016-33.254h19.8l1.269,20.308h0.508
		c6.092-11.677,20.308-23.1,40.615-23.1c17.007,0,43.407,10.153,43.407,52.292v73.361H772.77v-70.823c0-19.8-7.361-36.3-28.431-36.3
		c-14.723,0-26.146,10.408-29.954,22.847c-1.015,2.792-1.523,6.6-1.523,10.407v73.869h-22.338V1885.759z"/>
	<path fill="#010101" d="M836.737,1852.505l24.115,69.046c4.062,11.17,7.361,21.323,9.9,31.477h0.762
		c2.792-10.153,6.346-20.307,10.407-31.477l23.862-69.046h23.354l-48.23,122.861h-21.323l-46.708-122.861H836.737z"/>
	<path fill="#010101" d="M1058.846,1912.92c0,45.438-31.477,65.238-61.177,65.238c-33.253,0-58.892-24.369-58.892-63.207
		c0-41.123,26.908-65.238,60.923-65.238C1034.984,1849.713,1058.846,1875.352,1058.846,1912.92z M961.369,1914.189
		c0,26.907,15.484,47.215,37.315,47.215c21.323,0,37.315-20.054,37.315-47.723c0-20.815-10.408-47.215-36.808-47.215
		C972.792,1866.467,961.369,1890.836,961.369,1914.189z"/>
	<path fill="#010101" d="M1093.366,1852.505l26.908,72.6c2.792,8.123,5.838,17.77,7.869,25.131h0.508
		c2.284-7.361,4.823-16.754,7.869-25.638l24.369-72.093h23.607l-33.508,87.577c-15.992,42.138-26.907,63.715-42.138,76.915
		c-10.916,9.646-21.831,13.453-27.416,14.469l-5.584-18.784c5.584-1.777,12.946-5.331,19.546-10.916
		c6.092-4.822,13.708-13.453,18.784-24.876c1.016-2.285,1.777-4.062,1.777-5.331s-0.508-3.046-1.523-5.839l-45.438-113.215H1093.366
		z"/>
	<path fill="#010101" d="M1214.701,1917.997c0.508,30.208,19.801,42.646,42.139,42.646c15.992,0,25.639-2.793,34.016-6.347
		l3.808,15.992c-7.869,3.554-21.323,7.615-40.869,7.615c-37.823,0-60.415-24.877-60.415-61.938c0-37.062,21.83-66.254,57.622-66.254
		c40.108,0,50.77,35.284,50.77,57.877c0,4.569-0.508,8.123-0.762,10.407H1214.701z M1280.193,1902.005
		c0.254-14.215-5.838-36.3-30.969-36.3c-22.593,0-32.492,20.815-34.27,36.3H1280.193z"/>
	<path fill="#010101" d="M1329.434,1890.836c0-14.47-0.254-26.908-1.015-38.331h19.546l0.762,24.115h1.015
		c5.585-16.5,19.039-26.907,34.016-26.907c2.538,0,4.315,0.254,6.347,0.762v21.069c-2.285-0.508-4.569-0.762-7.616-0.762
		c-15.738,0-26.907,11.931-29.953,28.685c-0.508,3.046-1.016,6.6-1.016,10.407v65.492h-22.085V1890.836z"/>
	<path fill="#010101" d="M1461.934,1962.42c0-9.139,6.347-15.738,14.978-15.738c9.139,0,14.977,6.6,14.977,15.738
		c0,8.885-5.838,15.738-14.977,15.738C1468.026,1978.158,1461.934,1971.305,1461.934,1962.42z M1468.28,1926.12l-3.554-121.846
		h24.369l-3.554,121.846H1468.28z"/>
</g>
<rect x="338.754" y="1795.144" fill="none" width="1375.699" height="229.35"/>
<text transform="matrix(1 0 0 1 542.0361 1975.3662)" display="none" fill="#010101" font-family="'MyriadPro-Regular'" font-size="253.8379">Envoyer !</text>
<g>
	<g>
		<path fill="#5ABA49" d="M1026.604,1534.109c-101.804,0-200.597-19.95-293.636-59.308
			c-89.833-37.992-170.496-92.376-239.75-161.626c-69.254-69.258-123.635-149.92-161.629-239.75
			c-39.353-93.042-59.306-191.834-59.306-293.637c0-101.804,19.953-200.596,59.306-293.637
			c37.994-89.831,92.375-170.493,161.629-239.75c69.254-69.251,149.917-123.634,239.75-161.627
			c93.039-39.353,191.832-59.307,293.636-59.307c101.805,0,200.596,19.955,293.638,59.307
			c89.83,37.993,170.492,92.376,239.75,161.627c69.25,69.256,123.634,149.919,161.626,239.75
			c39.353,93.041,59.308,191.833,59.308,293.637c0,101.803-19.955,200.596-59.308,293.637
			c-37.992,89.83-92.376,170.492-161.626,239.75c-69.258,69.25-149.92,123.634-239.75,161.626
			C1227.199,1514.159,1128.408,1534.109,1026.604,1534.109z M1026.604,158.41c-342.629,0-621.378,278.751-621.378,621.378
			c0,342.628,278.749,621.378,621.378,621.378c342.628,0,621.379-278.75,621.379-621.378
			C1647.982,437.161,1369.231,158.41,1026.604,158.41z"/>
		<circle fill="#CBE3B5" cx="1026.604" cy="779.788" r="687.849"/>
	</g>
	<path fill="#5ABA49" d="M540.949,618.152h60.838c9.237-70.301,69.176-124.605,141.805-124.605
		c72.632,0,132.568,54.304,141.807,124.605h59.037c-8.939-103.874-95.84-185.367-201.745-185.367
		C636.786,432.786,549.886,514.279,540.949,618.152L540.949,618.152z"/>
	<path fill="#5ABA49" d="M1092.249,618.152h60.84c9.238-70.301,69.175-124.605,141.805-124.605
		c72.632,0,132.567,54.304,141.805,124.605h59.034c-8.937-103.874-95.837-185.367-201.739-185.367
		C1188.087,432.786,1101.186,514.279,1092.249,618.152L1092.249,618.152z"/>
	<path fill="#5ABA49" d="M882.019,1038.39c105.603,0,192.279-81.27,201.216-184.846h-60.688
		c-9.164,70.078-68.95,124.233-141.429,124.233c-72.48,0-132.192-54.156-141.431-124.233h-58.886
		C689.74,957.12,776.414,1038.39,882.019,1038.39z"/>
</g>
</svg>
