<?xml version="1.0" encoding="utf-8"?>
<!-- Generator: Adobe Illustrator 16.0.0, SVG Export Plug-In . SVG Version: 6.00 Build 0)  -->
<!DOCTYPE svg PUBLIC "-//W3C//DTD SVG 1.1//EN" "http://www.w3.org/Graphics/SVG/1.1/DTD/svg11.dtd">
<svg version="1.1" id="Calque_1" xmlns="http://www.w3.org/2000/svg" xmlns:xlink="http://www.w3.org/1999/xlink" x="0px" y="0px"
	 width="2048px" height="2048px" viewBox="0 0 2048 2048" enable-background="new 0 0 2048 2048" xml:space="preserve">
<g>
	<path fill="#010101" d="M411.187,1948.459c9.9,6.092,24.369,11.169,39.6,11.169c22.592,0,35.792-11.931,35.792-29.192
		c0-15.992-9.139-25.131-32.238-34.016c-27.923-9.899-45.185-24.369-45.185-48.484c0-26.653,22.084-46.453,55.338-46.453
		c17.515,0,30.208,4.062,37.823,8.377l-6.092,18.022c-5.584-3.046-17.007-8.123-32.492-8.123c-23.354,0-32.238,13.962-32.238,25.639
		c0,15.992,10.408,23.861,34.015,33c28.938,11.169,43.662,25.131,43.662,50.261c0,26.4-19.546,49.246-59.908,49.246
		c-16.5,0-34.523-4.822-43.661-10.915L411.187,1948.459z"/>
	<path fill="#010101" d="M641.42,1941.858c0,12.692,0.254,23.861,1.016,33.508h-19.8l-1.27-20.054h-0.508
		c-5.838,9.9-18.784,22.846-40.615,22.846c-19.292,0-42.392-10.661-42.392-53.814v-71.839h22.338v68.03
		c0,23.354,7.108,39.093,27.416,39.093c14.977,0,25.384-10.408,29.446-20.308c1.27-3.3,2.031-7.361,2.031-11.423v-75.393h22.338
		V1941.858z"/>
	<path fill="#010101" d="M678.476,1892.612c0-15.738-0.508-28.431-1.016-40.107h20.054l1.015,21.069h0.508
		c9.138-14.977,23.607-23.861,43.661-23.861c29.7,0,52.039,25.131,52.039,62.446c0,44.169-26.908,65.999-55.846,65.999
		c-16.246,0-30.461-7.107-37.823-19.292h-0.508v66.762h-22.084V1892.612z M700.561,1925.358c0,3.3,0.508,6.347,1.016,9.139
		c4.062,15.484,17.515,26.146,33.507,26.146c23.607,0,37.315-19.293,37.315-47.47c0-24.623-12.946-45.691-36.554-45.691
		c-15.231,0-29.446,10.915-33.762,27.669c-0.761,2.792-1.523,6.092-1.523,9.138V1925.358z"/>
	<path fill="#010101" d="M822.906,1892.612c0-15.738-0.508-28.431-1.016-40.107h20.054l1.016,21.069h0.508
		c9.138-14.977,23.607-23.861,43.661-23.861c29.7,0,52.039,25.131,52.039,62.446c0,44.169-26.908,65.999-55.846,65.999
		c-16.246,0-30.461-7.107-37.823-19.292h-0.508v66.762h-22.084V1892.612z M844.991,1925.358c0,3.3,0.508,6.347,1.015,9.139
		c4.062,15.484,17.516,26.146,33.508,26.146c23.607,0,37.315-19.293,37.315-47.47c0-24.623-12.946-45.691-36.554-45.691
		c-15.231,0-29.446,10.915-33.762,27.669c-0.761,2.792-1.523,6.092-1.523,9.138V1925.358z"/>
	<path fill="#010101" d="M967.336,1890.836c0-14.47-0.254-26.908-1.016-38.331h19.546l0.761,24.115h1.016
		c5.584-16.5,19.039-26.907,34.015-26.907c2.539,0,4.315,0.254,6.347,0.762v21.069c-2.285-0.508-4.57-0.762-7.616-0.762
		c-15.739,0-26.908,11.931-29.954,28.685c-0.508,3.046-1.016,6.6-1.016,10.407v65.492h-22.084V1890.836z"/>
	<path fill="#010101" d="M1076.232,1817.982c0.253,7.615-5.332,13.707-14.216,13.707c-7.869,0-13.454-6.092-13.454-13.707
		c0-7.869,5.838-13.962,13.961-13.962C1070.9,1804.021,1076.232,1810.113,1076.232,1817.982z M1051.355,1975.366v-122.861h22.338
		v122.861H1051.355z"/>
	<path fill="#010101" d="M1110.751,1885.759c0-12.692-0.253-23.1-1.015-33.254h19.546l1.016,19.8h0.761
		c6.854-11.677,18.277-22.592,38.585-22.592c16.754,0,29.446,10.153,34.776,24.623h0.508c3.808-6.854,8.631-12.185,13.708-15.992
		c7.361-5.585,15.484-8.631,27.161-8.631c16.246,0,40.361,10.661,40.361,53.308v72.346h-21.83v-69.554
		c0-23.607-8.631-37.823-26.654-37.823c-12.692,0-22.592,9.393-26.399,20.308c-1.016,3.047-1.777,7.108-1.777,11.17v75.899h-21.831
		v-73.615c0-19.546-8.63-33.762-25.638-33.762c-13.962,0-24.115,11.17-27.669,22.339c-1.27,3.3-1.777,7.107-1.777,10.915v74.123
		h-21.831V1885.759z"/>
	<path fill="#010101" d="M1334.891,1917.997c0.508,30.208,19.801,42.646,42.139,42.646c15.992,0,25.639-2.793,34.016-6.347
		l3.808,15.992c-7.869,3.554-21.323,7.615-40.869,7.615c-37.823,0-60.415-24.877-60.415-61.938c0-37.062,21.83-66.254,57.622-66.254
		c40.108,0,50.77,35.284,50.77,57.877c0,4.569-0.508,8.123-0.762,10.407H1334.891z M1400.383,1902.005
		c0.254-14.215-5.838-36.3-30.969-36.3c-22.593,0-32.492,20.815-34.27,36.3H1400.383z"/>
	<path fill="#010101" d="M1449.623,1890.836c0-14.47-0.254-26.908-1.015-38.331h19.546l0.762,24.115h1.015
		c5.585-16.5,19.039-26.907,34.016-26.907c2.538,0,4.315,0.254,6.347,0.762v21.069c-2.285-0.508-4.569-0.762-7.616-0.762
		c-15.738,0-26.907,11.931-29.953,28.685c-0.508,3.046-1.016,6.6-1.016,10.407v65.492h-22.085V1890.836z"/>
	<path fill="#010101" d="M1513.845,1962.166c0-9.392,6.346-15.992,15.23-15.992s14.977,6.601,14.977,15.992
		c0,9.139-5.838,15.992-15.23,15.992C1519.937,1978.158,1513.845,1971.305,1513.845,1962.166z"/>
	<path fill="#010101" d="M1566.386,1962.166c0-9.392,6.346-15.992,15.23-15.992s14.977,6.601,14.977,15.992
		c0,9.139-5.838,15.992-15.23,15.992C1572.478,1978.158,1566.386,1971.305,1566.386,1962.166z"/>
	<path fill="#010101" d="M1618.927,1962.166c0-9.392,6.346-15.992,15.23-15.992s14.977,6.601,14.977,15.992
		c0,9.139-5.838,15.992-15.23,15.992C1625.019,1978.158,1618.927,1971.305,1618.927,1962.166z"/>
</g>
<g>
	<g>
		<path fill="#EE6062" d="M1026,1538.274c-101.932,0-200.851-19.978-294.008-59.381c-89.945-38.042-170.711-92.492-240.053-161.834
			c-69.341-69.342-123.79-150.106-161.833-240.052c-39.402-93.156-59.38-192.077-59.38-294.008
			c0-101.932,19.979-200.851,59.38-294.007c38.043-89.946,92.493-170.71,161.833-240.052
			c69.342-69.342,150.107-123.791,240.053-161.834c93.157-39.402,192.076-59.38,294.008-59.38
			c101.931,0,200.85,19.979,294.008,59.38c89.944,38.043,170.71,92.493,240.052,161.834s123.79,150.106,161.835,240.052
			c39.402,93.156,59.38,192.075,59.38,294.007c0,101.931-19.978,200.852-59.38,294.008
			c-38.045,89.945-92.493,170.71-161.835,240.052s-150.107,123.792-240.052,161.834
			C1226.85,1518.297,1127.931,1538.274,1026,1538.274z M1026,160.837c-343.062,0-622.163,279.102-622.163,622.163
			c0,343.063,279.102,622.164,622.163,622.164c343.063,0,622.164-279.102,622.164-622.164
			C1648.164,439.938,1369.063,160.837,1026,160.837z"/>
		<circle fill="#F8BFBF" cx="1026" cy="783" r="688.719"/>
	</g>
	<path fill="#EE6062" d="M539.73,621.161h60.915c9.25-70.39,69.264-124.763,141.985-124.763
		c72.723,0,132.735,54.373,141.986,124.763h59.11c-8.95-104.007-95.96-185.604-201.998-185.604
		C635.691,435.557,548.68,517.154,539.73,621.161L539.73,621.161z"/>
	<path fill="#EE6062" d="M1091.728,621.161h60.915c9.251-70.39,69.264-124.763,141.985-124.763
		c72.724,0,132.735,54.373,141.987,124.763h59.109c-8.95-104.007-95.96-185.604-201.998-185.604
		C1187.689,435.557,1100.677,517.154,1091.728,621.161L1091.728,621.161z"/>
	<path fill="#EE6062" d="M933.875,804.959c-105.737,0-192.522,81.371-201.472,185.078h60.764
		c9.175-70.166,69.038-124.388,141.609-124.388s132.36,54.222,141.61,124.388h58.96
		C1126.397,886.33,1039.611,804.959,933.875,804.959z"/>
</g>
</svg>
