<?xml version="1.0" encoding="utf-8"?>
<!-- Generator: Adobe Illustrator 16.0.0, SVG Export Plug-In . SVG Version: 6.00 Build 0)  -->
<!DOCTYPE svg PUBLIC "-//W3C//DTD SVG 1.1//EN" "http://www.w3.org/Graphics/SVG/1.1/DTD/svg11.dtd">
<svg version="1.1" id="Calque_1" xmlns="http://www.w3.org/2000/svg" xmlns:xlink="http://www.w3.org/1999/xlink" x="0px" y="0px"
	 width="2048px" height="2048px" viewBox="0 0 2048 2048" enable-background="new 0 0 2048 2048" xml:space="preserve">
<g>
	<path fill="#010101" d="M99.991,1804.274h22.084v114.484c0,45.438-22.338,59.399-51.784,59.399c-8.123,0-18.023-1.776-23.607-4.062
		l3.3-18.022c4.569,1.776,11.169,3.3,18.531,3.3c19.8,0,31.477-8.885,31.477-42.393V1804.274z"/>
	<path fill="#010101" d="M170.556,1917.997c0.507,30.208,19.8,42.646,42.138,42.646c15.992,0,25.638-2.793,34.015-6.347
		l3.808,15.992c-7.869,3.554-21.323,7.615-40.869,7.615c-37.823,0-60.416-24.877-60.416-61.938
		c0-37.062,21.831-66.254,57.623-66.254c40.107,0,50.769,35.284,50.769,57.877c0,4.569-0.508,8.123-0.762,10.407H170.556z
		 M236.048,1902.005c0.254-14.215-5.838-36.3-30.969-36.3c-22.592,0-32.492,20.815-34.269,36.3H236.048z"/>
	<path fill="#010101" d="M339.1,1885.759c0-12.692-0.254-23.1-1.016-33.254h19.8l1.269,20.308h0.508
		c6.092-11.677,20.308-23.1,40.615-23.1c17.007,0,43.407,10.153,43.407,52.292v73.361h-22.338v-70.823
		c0-19.8-7.361-36.3-28.431-36.3c-14.723,0-26.146,10.408-29.954,22.847c-1.015,2.792-1.523,6.6-1.523,10.407v73.869H339.1V1885.759
		z"/>
	<path fill="#010101" d="M492.416,1917.997c0.508,30.208,19.8,42.646,42.138,42.646c15.992,0,25.638-2.793,34.015-6.347
		l3.808,15.992c-7.869,3.554-21.323,7.615-40.869,7.615c-37.823,0-60.415-24.877-60.415-61.938
		c0-37.062,21.831-66.254,57.623-66.254c40.107,0,50.769,35.284,50.769,57.877c0,4.569-0.508,8.123-0.762,10.407H492.416z
		 M557.908,1902.005c0.253-14.215-5.839-36.3-30.969-36.3c-22.592,0-32.492,20.815-34.269,36.3H557.908z"/>
	<path fill="#010101" d="M660.959,1892.612c0-15.738-0.508-28.431-1.016-40.107h20.054l1.015,21.069h0.508
		c9.138-14.977,23.607-23.861,43.661-23.861c29.7,0,52.039,25.131,52.039,62.446c0,44.169-26.908,65.999-55.846,65.999
		c-16.246,0-30.461-7.107-37.823-19.292h-0.508v66.762h-22.084V1892.612z M683.044,1925.358c0,3.3,0.508,6.347,1.016,9.139
		c4.062,15.484,17.515,26.146,33.507,26.146c23.607,0,37.315-19.293,37.315-47.47c0-24.623-12.946-45.691-36.554-45.691
		c-15.231,0-29.446,10.915-33.762,27.669c-0.761,2.792-1.523,6.092-1.523,9.138V1925.358z"/>
	<path fill="#010101" d="M873.42,1975.366l-1.777-15.484h-0.761c-6.854,9.646-20.054,18.276-37.569,18.276
		c-24.877,0-37.569-17.515-37.569-35.284c0-29.7,26.4-45.946,73.869-45.692v-2.538c0-10.154-2.792-28.431-27.923-28.431
		c-11.423,0-23.354,3.554-31.984,9.139l-5.077-14.724c10.154-6.6,24.877-10.915,40.361-10.915c37.569,0,46.708,25.639,46.708,50.262
		v45.945c0,10.662,0.508,21.069,2.031,29.446H873.42z M870.12,1912.666c-24.369-0.507-52.038,3.809-52.038,27.67
		c0,14.469,9.646,21.322,21.069,21.322c15.992,0,26.146-10.153,29.7-20.562c0.761-2.284,1.269-4.822,1.269-7.107V1912.666z"/>
	<path fill="#010101" d="M927.738,1890.836c0-14.47-0.254-26.908-1.016-38.331h19.546l0.761,24.115h1.016
		c5.584-16.5,19.038-26.907,34.015-26.907c2.539,0,4.315,0.254,6.346,0.762v21.069c-2.285-0.508-4.569-0.762-7.615-0.762
		c-15.738,0-26.908,11.931-29.954,28.685c-0.507,3.046-1.015,6.6-1.015,10.407v65.492h-22.084V1890.836z"/>
	<path fill="#010101" d="M1043.738,1817.221v35.284h31.984v17.008h-31.984v66.254c0,15.23,4.315,23.861,16.754,23.861
		c5.839,0,10.154-0.762,12.946-1.523l1.016,16.754c-4.315,1.777-11.169,3.046-19.8,3.046c-10.408,0-18.785-3.3-24.115-9.392
		c-6.347-6.601-8.631-17.516-8.631-31.984v-67.016h-19.038v-17.008h19.038v-29.446L1043.738,1817.221z"/>
	<path fill="#010101" d="M1125.727,1817.982c0.254,7.615-5.331,13.707-14.216,13.707c-7.869,0-13.453-6.092-13.453-13.707
		c0-7.869,5.838-13.962,13.961-13.962C1120.396,1804.021,1125.727,1810.113,1125.727,1817.982z M1100.85,1975.366v-122.861h22.338
		v122.861H1100.85z"/>
	<path fill="#010101" d="M1247.822,1970.797c-5.839,3.046-18.785,7.107-35.284,7.107c-37.062,0-61.177-25.13-61.177-62.699
		c0-37.823,25.892-65.238,65.999-65.238c13.2,0,24.877,3.3,30.97,6.346l-5.077,17.262c-5.331-3.046-13.708-5.838-25.893-5.838
		c-28.177,0-43.407,20.814-43.407,46.453c0,28.431,18.277,45.946,42.646,45.946c12.691,0,21.068-3.3,27.415-6.093L1247.822,1970.797
		z"/>
	<path fill="#010101" d="M1298.841,1817.982c0.254,7.615-5.33,13.707-14.215,13.707c-7.869,0-13.454-6.092-13.454-13.707
		c0-7.869,5.839-13.962,13.962-13.962C1293.511,1804.021,1298.841,1810.113,1298.841,1817.982z M1273.964,1975.366v-122.861h22.339
		v122.861H1273.964z"/>
	<path fill="#010101" d="M1333.36,1892.612c0-15.738-0.507-28.431-1.015-40.107h20.054l1.015,21.069h0.508
		c9.139-14.977,23.608-23.861,43.662-23.861c29.699,0,52.038,25.131,52.038,62.446c0,44.169-26.908,65.999-55.846,65.999
		c-16.246,0-30.462-7.107-37.823-19.292h-0.508v66.762h-22.085V1892.612z M1355.445,1925.358c0,3.3,0.508,6.347,1.016,9.139
		c4.062,15.484,17.515,26.146,33.508,26.146c23.607,0,37.314-19.293,37.314-47.47c0-24.623-12.945-45.691-36.554-45.691
		c-15.23,0-29.445,10.915-33.761,27.669c-0.762,2.792-1.523,6.092-1.523,9.138V1925.358z"/>
	<path fill="#010101" d="M1490.229,1917.997c0.508,30.208,19.801,42.646,42.139,42.646c15.992,0,25.639-2.793,34.016-6.347
		l3.808,15.992c-7.869,3.554-21.323,7.615-40.869,7.615c-37.823,0-60.415-24.877-60.415-61.938c0-37.062,21.83-66.254,57.622-66.254
		c40.108,0,50.77,35.284,50.77,57.877c0,4.569-0.508,8.123-0.762,10.407H1490.229z M1555.721,1902.005
		c0.254-14.215-5.838-36.3-30.969-36.3c-22.593,0-32.492,20.815-34.27,36.3H1555.721z"/>
	<path fill="#010101" d="M1658.772,1892.612c0-15.738-0.507-28.431-1.015-40.107h20.054l1.015,21.069h0.508
		c9.139-14.977,23.608-23.861,43.662-23.861c29.699,0,52.038,25.131,52.038,62.446c0,44.169-26.908,65.999-55.846,65.999
		c-16.246,0-30.462-7.107-37.823-19.292h-0.508v66.762h-22.085V1892.612z M1680.857,1925.358c0,3.3,0.508,6.347,1.016,9.139
		c4.062,15.484,17.515,26.146,33.508,26.146c23.607,0,37.314-19.293,37.314-47.47c0-24.623-12.945-45.691-36.554-45.691
		c-15.23,0-29.445,10.915-33.761,27.669c-0.762,2.792-1.523,6.092-1.523,9.138V1925.358z"/>
	<path fill="#010101" d="M1871.233,1975.366l-1.777-15.484h-0.762c-6.854,9.646-20.054,18.276-37.568,18.276
		c-24.877,0-37.569-17.515-37.569-35.284c0-29.7,26.399-45.946,73.869-45.692v-2.538c0-10.154-2.793-28.431-27.924-28.431
		c-11.423,0-23.354,3.554-31.984,9.139l-5.076-14.724c10.153-6.6,24.877-10.915,40.361-10.915c37.568,0,46.707,25.639,46.707,50.262
		v45.945c0,10.662,0.508,21.069,2.031,29.446H1871.233z M1867.934,1912.666c-24.369-0.507-52.039,3.809-52.039,27.67
		c0,14.469,9.646,21.322,21.069,21.322c15.992,0,26.146-10.153,29.7-20.562c0.762-2.284,1.27-4.822,1.27-7.107V1912.666z"/>
	<path fill="#010101" d="M1922.505,1952.521c6.601,4.315,18.277,8.884,29.446,8.884c16.246,0,23.861-8.123,23.861-18.276
		c0-10.661-6.346-16.5-22.846-22.593c-22.085-7.869-32.492-20.054-32.492-34.776c0-19.8,15.992-36.046,42.392-36.046
		c12.438,0,23.354,3.554,30.208,7.615l-5.585,16.246c-4.823-3.046-13.707-7.107-25.131-7.107c-13.199,0-20.562,7.615-20.562,16.754
		c0,10.153,7.362,14.723,23.354,20.815c21.322,8.123,32.238,18.784,32.238,37.061c0,21.577-16.754,36.808-45.946,36.808
		c-13.454,0-25.893-3.3-34.522-8.377L1922.505,1952.521z"/>
</g>
<g>
	<g>
		<path fill="#EE6062" d="M1026,1538.274c-101.932,0-200.851-19.978-294.008-59.381c-89.945-38.042-170.711-92.492-240.053-161.834
			c-69.341-69.342-123.79-150.106-161.833-240.052c-39.402-93.156-59.38-192.077-59.38-294.008
			c0-101.932,19.979-200.851,59.38-294.007c38.043-89.946,92.493-170.71,161.833-240.052
			c69.342-69.342,150.107-123.791,240.053-161.834c93.157-39.402,192.076-59.38,294.008-59.38
			c101.931,0,200.85,19.979,294.008,59.38c89.944,38.043,170.71,92.493,240.052,161.834s123.79,150.106,161.835,240.052
			c39.402,93.156,59.38,192.075,59.38,294.007c0,101.931-19.978,200.852-59.38,294.008
			c-38.045,89.945-92.493,170.71-161.835,240.052s-150.107,123.792-240.052,161.834
			C1226.85,1518.297,1127.931,1538.274,1026,1538.274z M1026,160.837c-343.062,0-622.163,279.102-622.163,622.163
			c0,343.063,279.102,622.164,622.163,622.164c343.063,0,622.164-279.102,622.164-622.164
			C1648.164,439.938,1369.063,160.837,1026,160.837z"/>
		<circle fill="#F8BFBF" cx="1026" cy="783" r="688.719"/>
	</g>
	<path fill="#EE6062" d="M539.73,621.161h60.915c9.25-70.39,69.264-124.763,141.985-124.763
		c72.723,0,132.735,54.373,141.986,124.763h59.11c-8.95-104.007-95.96-185.604-201.998-185.604
		C635.691,435.557,548.68,517.154,539.73,621.161L539.73,621.161z"/>
	<path fill="#EE6062" d="M1091.728,621.161h60.915c9.251-70.39,69.264-124.763,141.985-124.763
		c72.724,0,132.735,54.373,141.987,124.763h59.109c-8.95-104.007-95.96-185.604-201.998-185.604
		C1187.689,435.557,1100.677,517.154,1091.728,621.161L1091.728,621.161z"/>
	<path fill="#EE6062" d="M933.875,804.959c-105.737,0-192.522,81.371-201.472,185.078h60.764
		c9.175-70.166,69.038-124.388,141.609-124.388s132.36,54.222,141.61,124.388h58.96
		C1126.397,886.33,1039.611,804.959,933.875,804.959z"/>
</g>
</svg>
