<svg xmlns="http://www.w3.org/2000/svg" width="2048" height="2048" viewBox="0 0 2048 2048"><g><g><circle stroke="#F89837" stroke-width="298" stroke-miterlimit="10" cx="1024" cy="1024" r="851.7" fill="none"/><circle fill="#FEE0C1" cx="1024" cy="1024" r="851.7"/></g><path fill="#F89837" d="M351.4 820.8h138c12.3-93.6 85.1-158.9 181.8-158.9 96.7 0 169.5 65.3 181.8 158.9h136.6c-6.5-191.7-178.6-296.8-319.6-296.8-141 0-301.9 103.6-318.6 296.8z"/><path fill="#F89837" d="M1041.4 820.8h138c12.3-93.6 85.1-158.9 181.8-158.9 96.7 0 169.5 65.3 181.8 158.9h136.6c-6.5-191.7-178.6-296.8-319.6-296.8-141 0-301.9 103.6-318.6 296.8z"/><path fill="#F89837" d="M704.1 1035.6h279v79.5h-279z"/></g></svg>