<svg xmlns="http://www.w3.org/2000/svg" width="2048" height="2048" viewBox="0 0 2048 2048"><g><circle stroke="#59BA47" stroke-width="298" stroke-miterlimit="10" cx="1024" cy="1024" r="851.7" fill="none"/><circle fill="#CBE4B5" cx="1024" cy="1024" r="851.7"/></g><path fill="#59BA47" d="M351.4 820.8h138c12.3-93.6 85.1-158.9 181.8-158.9 96.7 0 169.5 65.3 181.8 158.9h136.6c-6.5-191.7-178.6-296.8-319.6-296.8-141 0-301.9 103.6-318.6 296.8z"/><path fill="#59BA47" d="M1041.4 820.8h138c12.3-93.6 85.1-158.9 181.8-158.9 96.7 0 169.5 65.3 181.8 158.9h136.6c-6.5-191.7-178.6-296.8-319.6-296.8-141 0-301.9 103.6-318.6 296.8z"/><path fill="#59BA47" d="M1164.1 1116.4h-138c-12.3 93.6-85.1 158.9-181.8 158.9-96.7 0-169.5-65.3-181.8-158.9h-136.6c6.5 191.6 178.6 296.8 319.6 296.8 141 0 301.9-103.6 318.6-296.8z"/></svg>