<?xml version="1.0" encoding="utf-8"?>
<!-- Generator: Adobe Illustrator 16.0.0, SVG Export Plug-In . SVG Version: 6.00 Build 0)  -->
<!DOCTYPE svg PUBLIC "-//W3C//DTD SVG 1.1//EN" "http://www.w3.org/Graphics/SVG/1.1/DTD/svg11.dtd">
<svg version="1.1" id="Calque_1" xmlns="http://www.w3.org/2000/svg" xmlns:xlink="http://www.w3.org/1999/xlink" x="0px" y="0px"
	 width="2048px" height="2048px" viewBox="0 0 2048 2048" enable-background="new 0 0 2048 2048" xml:space="preserve">
<g id="GREY_x5F_CHILL">
	<circle id="WHITE_x5F_BACK_5_" fill="#FFFFFF" cx="1025" cy="1024" r="970"/>
	
		<ellipse id="ORANGE_x5F_CIRCLE_5_" fill="none" stroke="#D3D3D2" stroke-width="35" stroke-miterlimit="10" cx="1025" cy="1024" rx="969" ry="969.4"/>
	<circle id="INSIDE_x5F_COLOUR_7_" fill="#F1F1F1" cx="1025" cy="1024" r="897.2"/>
	
		<linearGradient id="INSIDE_x5F_GRADIENT_1_" gradientUnits="userSpaceOnUse" x1="-428.0005" y1="-1079.2002" x2="-428.0006" y2="715.2007" gradientTransform="matrix(1 0 0 1 1453 1207)">
		<stop  offset="0" style="stop-color:#FFFFFF"/>
		<stop  offset="1" style="stop-color:#060606"/>
	</linearGradient>
	
		<circle id="INSIDE_x5F_GRADIENT_5_" opacity="0.3" fill="url(#INSIDE_x5F_GRADIENT_1_)" enable-background="new    " cx="1025" cy="1025" r="897.2"/>
</g>
<path id="Personnalise" fill="#D3D3D2" d="M682.607,791.877c0-43.456,13.916-87.469,41.764-132.074
	c27.849-44.588,68.48-81.517,121.895-110.786c53.415-29.269,115.74-43.912,186.96-43.912c66.197,0,124.633,12.225,175.309,36.675
	c50.658,24.45,89.803,57.692,117.432,99.727c27.611,42.035,41.426,87.739,41.426,137.079c0,38.856-7.879,72.894-23.639,102.146
	c-15.759,29.252-34.477,54.497-56.153,75.734c-21.694,21.254-60.618,57.016-116.771,107.268
	c-15.573,14.204-28.052,26.666-37.437,37.42c-9.384,10.754-16.367,20.595-20.932,29.522c-4.583,8.928-8.134,17.855-10.637,26.783
	c-2.52,8.928-6.289,24.602-11.328,47.023c-8.658,47.716-35.762,71.557-81.297,71.557c-23.689,0-43.607-7.777-59.772-23.351
	c-16.165-15.556-24.247-38.687-24.247-69.359c0-38.45,5.918-71.761,17.788-99.931c11.87-28.152,27.612-52.872,47.226-74.161
	c19.614-21.288,46.094-46.583,79.403-75.886c29.185-25.634,50.286-44.978,63.289-58.031s23.96-27.578,32.854-43.607
	c8.894-16.03,13.358-33.428,13.358-52.197c0-36.624-13.595-67.516-40.75-92.71c-27.172-25.177-62.207-37.774-105.121-37.774
	c-50.219,0-87.199,12.8-110.938,38.4s-43.828,63.289-60.263,113.102c-15.522,50.963-44.977,76.444-88.331,76.444
	c-25.566,0-47.141-8.961-64.727-26.885C691.383,832.171,682.607,812.76,682.607,791.877z M1016.723,1542.894
	c-27.798,0-52.045-9.013-72.758-27.021c-20.73-18.008-31.078-43.201-31.078-75.581c0-28.729,10.01-52.891,30.047-72.505
	s44.639-29.421,73.79-29.421c28.677,0,52.823,9.807,72.403,29.421c19.581,19.614,29.37,43.776,29.37,72.505
	c0,31.923-10.246,57.016-30.74,75.243C1067.264,1533.763,1043.574,1542.894,1016.723,1542.894z"/>
</svg>
