<?xml version="1.0" encoding="utf-8"?>
<!-- Generated by IcoMoon.io -->
<!DOCTYPE svg PUBLIC "-//W3C//DTD SVG 1.1//EN" "http://www.w3.org/Graphics/SVG/1.1/DTD/svg11.dtd">
<svg version="1.1" xmlns="http://www.w3.org/2000/svg" xmlns:xlink="http://www.w3.org/1999/xlink" width="32" height="32" viewBox="0 0 32 32">
<path fill="#f89837" d="M5.258 31.602h21.469c0 0-2.188-10.219-10.688-10.219s-10.781 10.219-10.781 10.219z"></path>
<path fill="#f89837" d="M16.039 1.445c-4.341 0-7.859 3.519-7.859 7.859s3.519 7.859 7.859 7.859 7.859-3.519 7.859-7.859c0-4.341-3.519-7.859-7.859-7.859zM11.542 7.653h-0.645c0.095-1.102 1.017-1.967 2.141-1.967s2.045 0.864 2.141 1.967h-0.627c-0.098-0.745-0.734-1.322-1.505-1.322-0.772 0-1.408 0.577-1.505 1.322zM14.498 12.056c-1.123 0-2.045-0.864-2.141-1.967h0.627c0.098 0.745 0.734 1.322 1.505 1.322s1.406-0.577 1.505-1.322h0.645c-0.095 1.103-1.017 1.967-2.141 1.967zM20.294 7.653c-0.098-0.745-0.734-1.322-1.505-1.322s-1.406 0.577-1.505 1.322h-0.645c0.095-1.102 1.017-1.967 2.141-1.967s2.045 0.864 2.141 1.967h-0.627z"></path>
</svg>
