<?xml version="1.0" encoding="utf-8"?>
<!-- Generated by IcoMoon.io -->
<!DOCTYPE svg PUBLIC "-//W3C//DTD SVG 1.1//EN" "http://www.w3.org/Graphics/SVG/1.1/DTD/svg11.dtd">
<svg version="1.1" xmlns="http://www.w3.org/2000/svg" xmlns:xlink="http://www.w3.org/1999/xlink" width="32" height="32" viewBox="0 0 32 32">
<path fill="#f89837" d="M18.283 25.697h0.625v5.93h-0.625v-5.93z"></path>
<path fill="#f89837" d="M13.142 25.697h0.625v5.93h-0.625v-5.93z"></path>
<path fill="#f89837" d="M8.528 18.216c-0.922 0-1.672-0.75-1.672-1.672s0.75-1.672 1.672-1.672 1.672 0.75 1.672 1.672-0.75 1.672-1.672 1.672zM8.528 15.497c-0.578 0-1.047 0.47-1.047 1.047 0 0.578 0.47 1.047 1.047 1.047s1.047-0.47 1.047-1.047c0-0.577-0.47-1.047-1.047-1.047z"></path>
<path fill="#f89837" d="M24.541 10.7l-17.134-0.014c-0.213-0.063-0.614-0.328-0.614-0.878v-3.131c0-0.55 0.402-0.814 0.614-0.878l0.048-0.014 17.136 0.014c0.212 0.063 0.614 0.328 0.614 0.878v3.133c0 0.55-0.402 0.814-0.614 0.878l-0.050 0.012zM7.578 10.012h16.841c0.045-0.028 0.097-0.086 0.097-0.205v-3.131c0-0.108-0.039-0.156-0.069-0.183-0.009-0.008-0.020-0.016-0.030-0.022h-16.841c-0.045 0.028-0.097 0.086-0.097 0.205v3.133c0 0.108 0.039 0.156 0.069 0.183 0.009 0.008 0.020 0.014 0.030 0.020z"></path>
<path fill="#f89837" d="M27.372 25.864h-22.717c-0.434 0-0.67-0.203-0.794-0.372-0.164-0.228-0.181-0.477-0.181-0.573v-19.791c0-0.202 0.078-0.475 0.203-0.713 0.117-0.222 0.331-0.519 0.686-0.677 0.077-0.034 1.325-0.602 3.348-1.173 1.198-0.339 2.42-0.609 3.631-0.805 1.514-0.242 3.017-0.366 4.464-0.366 1.448 0 2.944 0.13 4.444 0.386 1.198 0.205 2.405 0.489 3.581 0.847 1.903 0.578 3.095 1.15 3.261 1.23 0.361 0.131 0.645 0.369 0.823 0.689 0.173 0.313 0.211 0.63 0.211 0.841l0.016 19.456c-0.002 0.611-0.394 1.020-0.977 1.020zM16.012 2.036c-1.414 0-2.881 0.12-4.363 0.358-1.186 0.191-2.383 0.455-3.558 0.788-1.997 0.566-3.245 1.134-3.258 1.141l-0.005 0.002c-0.336 0.148-0.509 0.631-0.509 0.805v19.792c0 0.053 0.016 0.136 0.061 0.198 0.019 0.027 0.077 0.106 0.273 0.106h22.717c0.083 0 0.334 0 0.334-0.38l-0.016-19.456c0-0.214-0.061-0.734-0.623-0.931l-0.019-0.006-0.019-0.009c-0.012-0.006-1.231-0.609-3.194-1.203-1.15-0.348-2.328-0.627-3.498-0.825-1.459-0.252-2.916-0.378-4.325-0.378z"></path>
</svg>
