<?xml version="1.0" encoding="utf-8"?>
<!-- Generated by IcoMoon.io -->
<!DOCTYPE svg PUBLIC "-//W3C//DTD SVG 1.1//EN" "http://www.w3.org/Graphics/SVG/1.1/DTD/svg11.dtd">
<svg version="1.1" xmlns="http://www.w3.org/2000/svg" xmlns:xlink="http://www.w3.org/1999/xlink" width="32" height="32" viewBox="0 0 32 32">
<path fill="#f89837" d="M30.863 16.866c0.028-0.491 1.003-1.184 0.977-1.675s-1.080-1.097-1.159-1.583c-0.027-0.164 0.045-0.347 0.15-0.542 0.039-0.069 0.080-0.139 0.119-0.211 0.189-0.327 0.398-0.678 0.348-1.020-0.081-0.555-1.3-0.762-1.481-1.395-0.136-0.472 0.438-1.403 0.209-1.838s-1.358-0.458-1.72-0.995c-0.275-0.406 0.095-1.378-0.2-1.82-0.272-0.409-1.502-0.258-1.858-0.597-0.355-0.339-0.273-1.508-0.664-1.806s-1.456 0.13-1.877-0.125c-0.419-0.255-0.622-1.433-1.072-1.628-0.58-0.252-1.419 0.434-1.884 0.277-0.464-0.158-0.795-1.239-1.363-1.377-0.555-0.134-1.272 0.742-1.758 0.675-0.631-0.087-1.020-1.044-1.683-1.044-0.589 0-1.061 0.973-1.548 1.025-0.488 0.053-1.192-0.797-1.884-0.641-0.273 0.063-0.484 0.434-0.702 0.769-0.011 0.017-0.022 0.034-0.033 0.052-0.152 0.23-0.308 0.434-0.492 0.497-0.58 0.191-1.444-0.484-2.041-0.202-0.236 0.113-0.358 0.473-0.484 0.825-0.028 0.073-0.056 0.148-0.083 0.223-0.089 0.225-0.191 0.42-0.338 0.513-0.492 0.303-1.544-0.18-1.925 0.13-0.35 0.284-0.394 0.752-0.445 1.156-0.009 0.063-0.017 0.123-0.025 0.184-0.031 0.2-0.080 0.372-0.188 0.48-0.397 0.398-1.461 0.105-1.866 0.616-0.408 0.514 0.025 1.477-0.252 1.883s-1.414 0.434-1.683 0.955c-0.261 0.506 0.306 1.408 0.177 1.881-0.128 0.469-1.337 0.691-1.417 1.345-0.092 0.761 0.634 1.262 0.555 1.748-0.080 0.484-1.116 1.022-1.116 1.644 0 0.402 0.32 0.716 0.586 1.008 0.027 0.030 0.053 0.059 0.078 0.087 0.147 0.169 0.262 0.331 0.272 0.502 0.025 0.491-0.897 1.17-0.756 1.802s1.131 0.905 1.272 1.375c0.164 0.545-0.58 1.43-0.359 1.87 0.342 0.686 1.314 0.692 1.544 1.127s-0.259 1.5 0.095 1.959c0.247 0.319 0.616 0.391 0.956 0.441 0.133 0.031 0.263 0.050 0.378 0.067 0.009 0.002 0.020 0.003 0.031 0.005 0.136 0.034 0.25 0.087 0.328 0.18 0.317 0.375 0.128 1.586 0.486 1.922 0.281 0.264 0.697 0.248 1.081 0.227 0.12 0 0.236-0.006 0.348-0.012 0.003 0 0.008 0 0.011 0 0.178 0.002 0.333 0.025 0.442 0.109 0.389 0.298 0.328 1.481 0.845 1.73 0.455 0.217 0.864 0.092 1.214-0.003 0.070-0.016 0.137-0.033 0.202-0.050 0.161-0.034 0.308-0.044 0.438 0.017 0.445 0.208 0.775 1.383 1.327 1.52 0.589 0.147 1.311-0.581 1.789-0.475s0.964 1.113 1.489 1.186c0.705 0.097 1.252-0.848 1.742-0.847s1.123 0.909 1.689 0.853c0.625-0.063 1.030-1.086 1.509-1.191s1.288 0.592 1.842 0.456c0.594-0.145 0.728-1.283 1.173-1.488 0.445-0.206 1.488 0.341 1.942 0.048 0.495-0.317 0.458-1.406 0.848-1.703s1.533-0.033 1.886-0.373c0.456-0.441 0.113-1.47 0.431-1.844s1.519-0.367 1.794-0.773c0.277-0.406-0.192-1.512 0.038-1.947s1.392-0.633 1.573-1.089c0.183-0.456-0.514-1.417-0.381-1.891 0.131-0.473 1.225-0.936 1.305-1.42 0.081-0.489-0.813-1.272-0.784-1.762zM30.511 17.853c0.098 0.148 0.198 0.3 0.264 0.431 0.073 0.15 0.066 0.202 0.066 0.203s-0.011 0.055-0.128 0.175c-0.103 0.105-0.247 0.217-0.387 0.327-0.334 0.262-0.65 0.509-0.742 0.841s0.050 0.706 0.2 1.103c0.063 0.166 0.128 0.337 0.163 0.48 0.039 0.164 0.020 0.214 0.020 0.216-0.002 0.002-0.022 0.050-0.159 0.139-0.122 0.078-0.286 0.155-0.445 0.23-0.366 0.172-0.744 0.35-0.906 0.655-0.161 0.302-0.103 0.703-0.044 1.127 0.025 0.178 0.052 0.363 0.055 0.511 0.003 0.172-0.027 0.217-0.028 0.219s-0.034 0.048-0.197 0.111c-0.139 0.055-0.32 0.1-0.495 0.145-0.414 0.106-0.805 0.206-1.025 0.464-0.219 0.258-0.228 0.63-0.238 0.989-0.008 0.3-0.017 0.641-0.156 0.775-0.005 0.005-0.045 0.041-0.211 0.066-0.145 0.023-0.328 0.030-0.505 0.036-0.419 0.014-0.814 0.028-1.083 0.233-0.267 0.203-0.373 0.57-0.477 0.927-0.080 0.273-0.178 0.616-0.325 0.709-0.014 0.009-0.061 0.031-0.177 0.031v0c-0.164 0-0.38-0.044-0.586-0.084-0.228-0.045-0.466-0.094-0.678-0.094-0.156 0-0.289 0.025-0.402 0.078-0.305 0.141-0.47 0.478-0.63 0.805-0.127 0.256-0.283 0.577-0.445 0.616-0.020 0.005-0.042 0.008-0.067 0.008-0.18 0-0.433-0.111-0.68-0.219-0.284-0.123-0.578-0.253-0.856-0.253-0.061 0-0.12 0.006-0.177 0.019-0.323 0.070-0.566 0.355-0.8 0.628-0.202 0.234-0.43 0.502-0.625 0.52-0.005 0-0.011 0-0.016 0-0.161 0-0.43-0.203-0.644-0.367-0.298-0.227-0.606-0.461-0.944-0.462-0.327 0-0.605 0.222-0.875 0.436-0.242 0.192-0.491 0.392-0.716 0.392-0.017 0-0.034-0.002-0.052-0.003-0.142-0.020-0.386-0.291-0.564-0.489-0.258-0.286-0.525-0.583-0.853-0.656-0.055-0.012-0.114-0.019-0.173-0.019-0.277 0-0.555 0.133-0.823 0.262-0.233 0.113-0.472 0.228-0.653 0.228-0.028 0-0.055-0.003-0.078-0.009-0.156-0.039-0.381-0.408-0.53-0.652-0.209-0.342-0.406-0.666-0.695-0.802-0.106-0.050-0.227-0.075-0.355-0.075-0.181 0-0.363 0.050-0.537 0.097-0.175 0.048-0.356 0.097-0.534 0.097-0.131 0-0.252-0.027-0.369-0.083-0.131-0.063-0.233-0.444-0.298-0.697-0.1-0.381-0.195-0.741-0.461-0.944-0.205-0.156-0.459-0.177-0.659-0.177-0.103 0-0.211 0.006-0.314 0.012s-0.209 0.012-0.308 0.012c-0.258 0-0.417-0.042-0.517-0.137-0.002-0.002-0.042-0.041-0.080-0.217-0.033-0.15-0.050-0.341-0.067-0.523-0.041-0.43-0.080-0.836-0.297-1.094-0.219-0.259-0.548-0.308-0.866-0.353-0.308-0.045-0.598-0.087-0.769-0.306-0.1-0.13-0.047-0.519-0.009-0.803 0.052-0.389 0.102-0.758-0.050-1.047-0.153-0.292-0.466-0.43-0.766-0.563-0.308-0.136-0.597-0.264-0.728-0.523 0 0-0.016-0.041 0.017-0.172 0.031-0.123 0.089-0.269 0.152-0.423 0.148-0.369 0.316-0.786 0.202-1.164-0.095-0.319-0.389-0.53-0.67-0.734-0.252-0.181-0.511-0.369-0.556-0.575-0.044-0.195 0.163-0.494 0.342-0.758 0.214-0.311 0.416-0.606 0.398-0.933-0.017-0.339-0.258-0.6-0.491-0.853-0.205-0.223-0.417-0.453-0.417-0.68 0-0.192 0.275-0.467 0.495-0.689 0.272-0.273 0.53-0.531 0.581-0.85 0.055-0.334-0.111-0.62-0.27-0.897-0.155-0.269-0.302-0.522-0.266-0.814 0.022-0.183 0.345-0.373 0.606-0.527 0.328-0.192 0.667-0.392 0.759-0.731 0.080-0.295-0.009-0.623-0.105-0.972-0.077-0.281-0.172-0.633-0.094-0.786 0.077-0.15 0.423-0.269 0.7-0.364 0.372-0.128 0.723-0.25 0.911-0.525 0.188-0.277 0.162-0.641 0.139-0.994-0.022-0.317-0.044-0.644 0.091-0.813 0.12-0.152 0.439-0.186 0.748-0.219 0.378-0.041 0.77-0.083 1.036-0.348 0.228-0.228 0.27-0.567 0.311-0.895 0.042-0.344 0.083-0.669 0.3-0.845 0 0 0.039-0.028 0.192-0.028 0.127 0 0.278 0.019 0.438 0.038 0.183 0.022 0.372 0.044 0.556 0.044 0.267 0 0.478-0.050 0.644-0.153 0.3-0.184 0.433-0.559 0.563-0.922 0.056-0.159 0.111-0.309 0.172-0.425 0.066-0.125 0.106-0.147 0.111-0.148 0.050-0.023 0.111-0.036 0.184-0.036 0.18 0 0.408 0.069 0.628 0.136 0.259 0.080 0.528 0.161 0.794 0.161 0.119 0 0.231-0.017 0.334-0.050h0.002c0.334-0.112 0.548-0.448 0.755-0.772 0.091-0.142 0.175-0.275 0.261-0.375 0.091-0.106 0.136-0.119 0.141-0.12 0.030-0.006 0.061-0.009 0.094-0.009 0.228 0 0.498 0.159 0.761 0.313 0.289 0.17 0.563 0.33 0.853 0.33 0.027 0 0.053-0.002 0.080-0.005 0.339-0.036 0.606-0.302 0.864-0.559 0.194-0.194 0.436-0.433 0.602-0.433 0.198 0 0.408 0.202 0.628 0.414 0.261 0.253 0.556 0.539 0.958 0.594 0.033 0.005 0.066 0.006 0.1 0.006 0.309 0 0.609-0.189 0.898-0.372 0.223-0.141 0.477-0.3 0.636-0.3 0.014 0 0.027 0.002 0.038 0.005 0.167 0.041 0.373 0.342 0.539 0.584 0.223 0.327 0.436 0.634 0.753 0.742 0.081 0.028 0.17 0.041 0.264 0.041 0.242 0 0.5-0.092 0.748-0.181 0.227-0.081 0.461-0.166 0.642-0.166 0.058 0 0.105 0.008 0.145 0.027 0.002 0.002 0.053 0.023 0.144 0.173 0.078 0.128 0.156 0.3 0.231 0.466 0.173 0.384 0.337 0.747 0.623 0.92 0.148 0.091 0.334 0.131 0.584 0.131 0.167 0 0.344-0.019 0.514-0.036 0.163-0.017 0.316-0.033 0.448-0.033 0.189 0 0.238 0.033 0.242 0.036s0.047 0.039 0.098 0.198c0.045 0.139 0.080 0.319 0.114 0.492 0.081 0.412 0.156 0.803 0.403 1.037 0.241 0.23 0.634 0.286 1.048 0.345 0.177 0.025 0.361 0.052 0.503 0.091 0.163 0.044 0.2 0.086 0.2 0.086s0 0 0 0c0.081 0.122 0.063 0.444 0.045 0.702-0.023 0.381-0.047 0.775 0.148 1.066 0.245 0.364 0.694 0.523 1.091 0.664 0.156 0.056 0.305 0.109 0.417 0.166 0.12 0.061 0.142 0.1 0.142 0.102 0.005 0.008 0.025 0.059 0.003 0.213-0.020 0.141-0.069 0.313-0.116 0.478-0.1 0.353-0.205 0.719-0.116 1.027 0.127 0.441 0.547 0.691 0.919 0.911 0.184 0.109 0.494 0.294 0.509 0.398 0.030 0.206-0.128 0.481-0.283 0.745-0.183 0.314-0.37 0.639-0.316 0.981 0.055 0.338 0.345 0.625 0.652 0.928 0.13 0.128 0.262 0.259 0.356 0.377 0.108 0.136 0.111 0.189 0.113 0.192 0 0.002 0.002 0.056-0.089 0.198-0.080 0.125-0.197 0.267-0.311 0.405-0.272 0.33-0.53 0.641-0.548 0.984-0.019 0.35 0.202 0.684 0.438 1.039z"></path>
<path fill="#f89837" d="M16 29.584c-7.408 0-13.584-6.178-13.584-13.584s6.177-13.584 13.584-13.584 13.584 6.178 13.584 13.584-6.177 13.584-13.584 13.584zM16 3.009c-7.081 0-12.991 5.909-12.991 12.991s5.909 12.991 12.991 12.991 12.991-5.909 12.991-12.991-5.909-12.991-12.991-12.991z"></path>
<path fill="#f89837" d="M13.383 12.95h1.077c-0.172-2.003-1.786-3.419-3.828-3.419s-3.609 1.416-3.781 3.419h1.064c0.177-1.356 1.333-2.403 2.734-2.403 1.4 0 2.556 1.047 2.734 2.403z"></path>
<path fill="#f89837" d="M17.334 12.95h1.017c0.178-1.356 1.334-2.403 2.734-2.403 1.402 0 2.605 1.047 2.781 2.403h1.061c-0.172-2.003-1.817-3.434-3.859-3.434s-3.563 1.431-3.734 3.434z"></path>
<path fill="#f89837" d="M13.287 20.859c2.042 0 3.625-1.478 3.797-3.481h-1.080c-0.178 1.356-1.334 2.481-2.734 2.481-1.402 0-2.556-1.125-2.734-2.481h-1.030c0.172 2.003 1.739 3.481 3.781 3.481z"></path>
</svg>
