<?xml version="1.0" encoding="utf-8"?>
<!-- Generated by IcoMoon.io -->
<!DOCTYPE svg PUBLIC "-//W3C//DTD SVG 1.1//EN" "http://www.w3.org/Graphics/SVG/1.1/DTD/svg11.dtd">
<svg version="1.1" xmlns="http://www.w3.org/2000/svg" xmlns:xlink="http://www.w3.org/1999/xlink" width="32" height="32" viewBox="0 0 32 32">
<path fill="#f89837" d="M7.883 19.209c-1.783 0-3.233-1.45-3.233-3.233s1.45-3.233 3.233-3.233 3.233 1.45 3.233 3.233c0 1.783-1.45 3.233-3.233 3.233zM7.883 13.416c-1.412 0-2.561 1.148-2.561 2.561s1.148 2.561 2.561 2.561 2.561-1.148 2.561-2.561-1.148-2.561-2.561-2.561z"></path>
<path fill="#f89837" d="M15.953 19.209c-1.783 0-3.233-1.45-3.233-3.233s1.45-3.233 3.233-3.233c1.783 0 3.233 1.45 3.233 3.233s-1.45 3.233-3.233 3.233zM15.953 13.416c-1.412 0-2.561 1.148-2.561 2.561s1.148 2.561 2.561 2.561 2.561-1.148 2.561-2.561-1.148-2.561-2.561-2.561z"></path>
<path fill="#f89837" d="M24.141 19.209c-1.783 0-3.233-1.45-3.233-3.233s1.45-3.233 3.233-3.233 3.233 1.45 3.233 3.233c-0.002 1.783-1.452 3.233-3.233 3.233zM24.141 13.416c-1.413 0-2.561 1.148-2.561 2.561s1.148 2.561 2.561 2.561 2.561-1.148 2.561-2.561-1.15-2.561-2.561-2.561z"></path>
</svg>
