<?xml version="1.0" encoding="utf-8"?>
<!-- Generated by IcoMoon.io -->
<!DOCTYPE svg PUBLIC "-//W3C//DTD SVG 1.1//EN" "http://www.w3.org/Graphics/SVG/1.1/DTD/svg11.dtd">
<svg version="1.1" xmlns="http://www.w3.org/2000/svg" xmlns:xlink="http://www.w3.org/1999/xlink" width="32" height="32" viewBox="0 0 32 32">
<path fill="#f89837" d="M13.298 26.262h5.391v5.364h-5.391v-5.364z"></path>
<path fill="#f89837" d="M8.528 15.497c-0.578 0-1.047 0.47-1.047 1.047 0 0.578 0.47 1.047 1.047 1.047s1.047-0.47 1.047-1.047c0-0.577-0.47-1.047-1.047-1.047z"></path>
<path fill="#f89837" d="M28.319 5.175c0-0.425-0.178-1.027-0.859-1.266 0 0-5.014-2.5-11.447-2.5s-11.603 2.375-11.603 2.375c-0.503 0.223-0.719 0.864-0.719 1.125v20.298c0 0.2 0.108 0.641 0.672 0.641h23.3c0.486 0 0.672-0.352 0.672-0.719l-0.016-19.955zM8.528 18.216c-0.922 0-1.672-0.75-1.672-1.672s0.75-1.672 1.672-1.672 1.672 0.75 1.672 1.672-0.75 1.672-1.672 1.672zM24.519 9.581c0 0.375-0.355 0.469-0.355 0.469h-16.333c0 0-0.355-0.094-0.355-0.469 0-0.323 0-2.353 0-2.677 0-0.375 0.355-0.469 0.355-0.469h16.333c0 0 0.355 0.094 0.355 0.469 0 0.322 0 2.353 0 2.677z"></path>
</svg>
