<?xml version="1.0" encoding="utf-8"?>
<!-- Generated by IcoMoon.io -->
<!DOCTYPE svg PUBLIC "-//W3C//DTD SVG 1.1//EN" "http://www.w3.org/Graphics/SVG/1.1/DTD/svg11.dtd">
<svg version="1.1" xmlns="http://www.w3.org/2000/svg" xmlns:xlink="http://www.w3.org/1999/xlink" width="32" height="32" viewBox="0 0 32 32">
<path fill="#f89837" d="M16.039 21.383c-8.5 0-10.781 10.219-10.781 10.219h0.75c0 0 2.219-9.5 10.031-9.5s9.969 9.5 9.969 9.5h0.719c0 0-2.188-10.219-10.688-10.219z"></path>
<path fill="#f89837" d="M16.039 17.128c-4.264 0-7.823-3.559-7.823-7.823s3.559-7.823 7.823-7.823 7.823 3.559 7.823 7.823-3.559 7.823-7.823 7.823zM16.039 2.278c-3.83 0-7.027 3.197-7.027 7.027s3.197 7.027 7.027 7.027 7.027-3.197 7.027-7.027-3.197-7.027-7.027-7.027z"></path>
<path fill="#f89837" d="M14.552 7.653h0.627c-0.095-1.102-1.017-1.967-2.141-1.967s-2.045 0.864-2.141 1.967h0.645c0.098-0.745 0.734-1.322 1.505-1.322s1.406 0.577 1.505 1.322z"></path>
<path fill="#f89837" d="M16.639 7.653h0.645c0.098-0.745 0.734-1.322 1.505-1.322s1.406 0.577 1.505 1.322h0.627c-0.095-1.102-1.017-1.967-2.141-1.967s-2.045 0.866-2.141 1.967z"></path>
<path fill="#f89837" d="M14.498 12.056c1.123 0 2.045-0.864 2.141-1.967h-0.645c-0.098 0.745-0.734 1.322-1.505 1.322s-1.406-0.577-1.505-1.322h-0.627c0.095 1.103 1.017 1.967 2.141 1.967z"></path>
</svg>
