<?xml version="1.0" encoding="utf-8"?>
<!-- Generated by IcoMoon.io -->
<!DOCTYPE svg PUBLIC "-//W3C//DTD SVG 1.1//EN" "http://www.w3.org/Graphics/SVG/1.1/DTD/svg11.dtd">
<svg version="1.1" xmlns="http://www.w3.org/2000/svg" xmlns:xlink="http://www.w3.org/1999/xlink" width="32" height="32" viewBox="0 0 32 32">
<path fill="#f89837" d="M16 2.978c-7.097 0-13.022 5.923-13.022 13.022s5.923 13.022 13.022 13.022c7.097 0 13.022-5.923 13.022-13.022 0-7.097-5.925-13.022-13.022-13.022zM7.912 12.95h-1.173c0.172-2.003 1.848-3.575 3.891-3.575s3.719 1.572 3.891 3.575h-1.139c-0.177-1.356-1.333-2.403-2.733-2.403-1.402 0-2.558 1.047-2.736 2.403zM13.287 20.953c-2.042 0-3.719-1.572-3.891-3.575h1.139c0.178 1.356 1.334 2.403 2.734 2.403 1.402 0 2.556-1.047 2.734-2.403h1.173c-0.172 2.003-1.848 3.575-3.891 3.575zM23.822 12.95c-0.178-1.356-1.334-2.403-2.734-2.403-1.402 0-2.556 1.047-2.734 2.403h-1.173c0.172-2.003 1.848-3.575 3.891-3.575s3.719 1.572 3.891 3.575h-1.139z"></path>
<path fill="#f89837" d="M30.863 16.866c0.028-0.491 1.003-1.184 0.977-1.675s-1.080-1.097-1.159-1.583c-0.078-0.486 0.709-1.142 0.617-1.775-0.081-0.555-1.3-0.762-1.481-1.395-0.136-0.472 0.438-1.403 0.209-1.838s-1.358-0.458-1.72-0.995c-0.275-0.406 0.095-1.378-0.2-1.82-0.272-0.409-1.502-0.258-1.858-0.597-0.355-0.339-0.273-1.508-0.664-1.806s-1.456 0.13-1.877-0.125c-0.419-0.255-0.622-1.433-1.072-1.628-0.58-0.252-1.419 0.434-1.884 0.277-0.464-0.158-0.795-1.239-1.363-1.377-0.555-0.134-1.272 0.742-1.758 0.675-0.631-0.087-1.020-1.044-1.683-1.044-0.589 0-1.061 0.973-1.548 1.025-0.488 0.053-1.192-0.797-1.884-0.641-0.478 0.108-0.762 1.161-1.227 1.317-0.58 0.191-1.444-0.484-2.041-0.202-0.444 0.211-0.488 1.303-0.905 1.561-0.492 0.303-1.544-0.18-1.925 0.13-0.589 0.478-0.311 1.472-0.658 1.82-0.397 0.398-1.461 0.105-1.866 0.616-0.408 0.514 0.025 1.477-0.252 1.883s-1.414 0.434-1.683 0.955c-0.261 0.506 0.306 1.408 0.177 1.881-0.128 0.469-1.337 0.691-1.417 1.345-0.092 0.761 0.634 1.262 0.555 1.748-0.080 0.484-1.116 1.022-1.116 1.644 0 0.678 0.911 1.106 0.936 1.597s-0.897 1.17-0.756 1.802c0.141 0.631 1.131 0.905 1.272 1.375 0.164 0.545-0.58 1.43-0.359 1.87 0.342 0.686 1.314 0.692 1.544 1.127s-0.259 1.5 0.095 1.959c0.467 0.605 1.377 0.317 1.694 0.692s0.128 1.586 0.486 1.922c0.516 0.486 1.492 0.023 1.881 0.322s0.328 1.481 0.845 1.73c0.77 0.367 1.408-0.244 1.853-0.038 0.445 0.208 0.775 1.383 1.327 1.52 0.589 0.147 1.311-0.581 1.789-0.475s0.964 1.113 1.489 1.186c0.705 0.097 1.252-0.848 1.742-0.847s1.123 0.909 1.689 0.853c0.625-0.063 1.030-1.086 1.509-1.191s1.288 0.592 1.842 0.456c0.594-0.145 0.728-1.283 1.173-1.488 0.445-0.206 1.488 0.341 1.942 0.048 0.495-0.317 0.458-1.406 0.848-1.703s1.533-0.033 1.886-0.373c0.456-0.441 0.113-1.47 0.431-1.844s1.519-0.367 1.794-0.773c0.277-0.406-0.192-1.512 0.038-1.947s1.392-0.633 1.573-1.089c0.183-0.456-0.514-1.417-0.381-1.891 0.131-0.473 1.225-0.936 1.305-1.42 0.083-0.484-0.811-1.267-0.783-1.758zM16 29.725c-7.483 0-13.725-6.241-13.725-13.725s6.242-13.725 13.725-13.725 13.725 6.241 13.725 13.725-6.242 13.725-13.725 13.725z"></path>
</svg>
