<?xml version="1.0" encoding="utf-8"?>
<!-- Generator: Adobe Illustrator 16.0.0, SVG Export Plug-In . SVG Version: 6.00 Build 0)  -->
<!DOCTYPE svg PUBLIC "-//W3C//DTD SVG 1.1//EN" "http://www.w3.org/Graphics/SVG/1.1/DTD/svg11.dtd">
<svg version="1.1" id="Layer_1" xmlns="http://www.w3.org/2000/svg" xmlns:xlink="http://www.w3.org/1999/xlink" x="0px" y="0px"
	 width="2048px" height="2048px" viewBox="0 0 2048 2048" enable-background="new 0 0 2048 2048" xml:space="preserve">
<g id="Cochon_1_">
	<path fill="none" stroke="#F89639" stroke-width="120" stroke-miterlimit="10" d="M394.5,961.5c-74.25-0.75-60.5-56.5-76-56
		c-17.498,0.564-1,108.5,75,147c10.5,143,107.5,257.5,193,295c16,63.5,37.333,142.334,48,177c35.992,1.892,75.337,1.816,126,1
		c39.25-59,19.25-95,32-105c63.25,13.5,266.75,5.5,325,0c13,43,16.5,64.5,35,104c60.25,2.677,104.758,0.784,130,1
		c36.75-47.75,27.75-115.25,50-153c94.25-43.75,115-77.25,128-94c52-14,151.75-57,197-86c18-52.25,65.25-163.5,55-244
		c-41.5-47-89.713-75.532-120-103c-12-75-80-162-116-183c-9-63.5,14-149.5-2-159s-84,35.5-168,64
		c-188.414-155.879-536.396-149.879-714.528-0.9C468.175,670.137,406.052,818.087,394.5,961.5z"/>
	<path fill="#FFFFFF" d="M394.5,961.5c-74.25-0.75-60.5-56.5-76-56c-17.498,0.564-1,108.5,75,147c10.5,143,107.5,257.5,193,295
		c16,63.5,37.333,142.334,48,177c35.992,1.892,75.337,1.816,126,1c39.25-59,19.25-95,32-105c63.25,13.5,266.75,5.5,325,0
		c13,43,16.5,64.5,35,104c60.25,2.677,104.758,0.784,130,1c36.75-47.75,27.75-115.25,50-153c94.25-43.75,115-77.25,128-94
		c52-14,151.75-57,197-86c18-52.25,65.25-163.5,55-244c-41.5-47-89.713-75.532-120-103c-12-75-80-162-116-183
		c-9-63.5,14-149.5-2-159s-84,35.5-168,64c-188.414-155.879-536.396-149.879-714.528-0.9
		C468.175,670.137,406.052,818.087,394.5,961.5z"/>
</g>
<circle id="Oeil_1_" fill="#F89639" cx="1433" cy="844" r="59.5"/>
<path id="Fente_3_" fill="#F89639" d="M1229.5,610.5c-0.285,22.707-21.174,50.555-42,57c-100.333-87-317.667-105.667-481,6
	c-28.667-15-35.087-27.667-35-63C851.833,476.5,1132.5,515.167,1229.5,610.5z"/>
</svg>
