<svg xmlns="http://www.w3.org/2000/svg" width="2048" height="2048" viewBox="0 0 2048 2048"><path stroke="#fff" stroke-width="70" stroke-miterlimit="10" d="M1419.6 454.6h-849s-76.5-2.8-76.5 74v923.4c0 76.8 76.5 74 76.5 74h849s76.5 2.8 76.5-74v-923.4c0-76.8-76.5-74-76.5-74z" fill="none"/><path fill="#F89639" d="M1419.6 454.6h-849s-76.5-2.8-76.5 74v923.4c0 76.8 76.5 74 76.5 74h849s76.5 2.8 76.5-74v-923.4c0-76.8-76.5-74-76.5-74z"/><path fill="#fff" d="M1272.3 638.5h-553.3c-23.7 0-42.8 19.2-42.8 42.8s19.2 42.8 42.8 42.8h553.3c23.7 0 42.8-19.2 42.8-42.8s-19.1-42.8-42.8-42.8zm0 309h-553.3c-23.7 0-42.8 19.2-42.8 42.8s19.2 42.8 42.8 42.8h553.3c23.7 0 42.8-19.2 42.8-42.8s-19.1-42.8-42.8-42.8zm0 309h-553.3c-23.7 0-42.8 19.2-42.8 42.8s19.2 42.8 42.8 42.8h553.3c23.7 0 42.8-19.2 42.8-42.8s-19.1-42.8-42.8-42.8z"/></svg>