<svg xmlns="http://www.w3.org/2000/svg" width="2048" height="2048" viewBox="0 0 2048 2048"><path stroke="#fff" stroke-width="70" stroke-miterlimit="10" d="M394.5 961.5c-74.2-.8-60.5-56.5-76-56-17.5.6-1 108.5 75 147 10.5 143 107.5 257.5 193 295 16 63.5 37.3 142.3 48 177 36 1.9 75.3 1.8 126 1 39.2-59 19.2-95 32-105 63.2 13.5 266.8 5.5 325 0 13 43 16.5 64.5 35 104 60.2 2.7 104.8.8 130 1 36.8-47.8 27.8-115.2 50-153 94.2-43.8 115-77.2 128-94 52-14 151.8-57 197-86 18-52.2 65.2-163.5 55-244-41.5-47-89.7-75.5-120-103-12-75-80-162-116-183-9-63.5 14-149.5-2-159s-84 35.5-168 64c-188.4-155.9-536.4-149.9-714.5-.9-123.8 103.5-185.9 251.5-197.5 394.9z" fill="none"/><path fill="#F89639" d="M394.5 961.5c-74.2-.8-60.5-56.5-76-56-17.5.6-1 108.5 75 147 10.5 143 107.5 257.5 193 295 16 63.5 37.3 142.3 48 177 36 1.9 75.3 1.8 126 1 39.2-59 19.2-95 32-105 63.2 13.5 266.8 5.5 325 0 13 43 16.5 64.5 35 104 60.2 2.7 104.8.8 130 1 36.8-47.8 27.8-115.2 50-153 94.2-43.8 115-77.2 128-94 52-14 151.8-57 197-86 18-52.2 65.2-163.5 55-244-41.5-47-89.7-75.5-120-103-12-75-80-162-116-183-9-63.5 14-149.5-2-159s-84 35.5-168 64c-188.4-155.9-536.4-149.9-714.5-.9-123.8 103.5-185.9 251.5-197.5 394.9z"/><circle fill="#fff" cx="1433" cy="844" r="59.5"/><path fill="#fff" d="M1229.5 610.5c-.3 22.7-21.2 50.6-42 57-100.3-87-317.7-105.7-481 6-28.7-15-35.1-27.7-35-63 180.3-134 461-95.3 558 0z"/></svg>