<svg xmlns="http://www.w3.org/2000/svg" width="2048" height="2048" viewBox="0 0 2048 2048"><path stroke="#fff" stroke-width="94" stroke-miterlimit="10" d="M158.5 1354.5c132 0 1622.5 1 1756 1 26-186-59-295-155.9-337.5-75.9-33.3-110.1-24.1-284.1-25.5-144.9-636.4-1026.9-613.9-1148 17-203 84-192 287-168 345z" fill="none"/><path fill="#F5852F" d="M158.5 1354.5c132 0 1622.5 1 1756 1 26-186-59-295-155.9-337.5-75.9-33.3-110.1-24.1-284.1-25.5-144.9-636.4-1026.9-613.9-1148 17-203 84-192 287-168 345z"/><circle stroke="#fff" stroke-width="94" stroke-miterlimit="10" cx="590.7" cy="1365" r="160.6" fill="none"/><circle fill="#F5852F" cx="590.7" cy="1365" r="160.6"/><circle stroke="#fff" stroke-width="94" stroke-miterlimit="10" cx="1412.6" cy="1365" r="160.6" fill="none"/><circle fill="#F5852F" cx="1412.6" cy="1365" r="160.6"/></svg>