<?xml version="1.0" encoding="utf-8"?>
<!-- Generator: Adobe Illustrator 16.0.0, SVG Export Plug-In . SVG Version: 6.00 Build 0)  -->
<!DOCTYPE svg PUBLIC "-//W3C//DTD SVG 1.1//EN" "http://www.w3.org/Graphics/SVG/1.1/DTD/svg11.dtd">
<svg version="1.1" id="Layer_1" xmlns="http://www.w3.org/2000/svg" xmlns:xlink="http://www.w3.org/1999/xlink" x="0px" y="0px"
	 width="2048px" height="2048px" viewBox="0 0 2048 2048" enable-background="new 0 0 2048 2048" xml:space="preserve">
<g>
	<path fill="none" stroke="#F89639" stroke-width="120" stroke-miterlimit="10" d="M1419.572,454.619H570.614
		c0,0-76.496-2.785-76.496,73.997c0,53.378,0,880.016,0,923.442c0,76.782,76.496,73.997,76.496,73.997h848.958
		c0,0,76.496,2.785,76.496-73.997c0-43.426,0-870.063,0-923.442C1496.068,451.834,1419.572,454.619,1419.572,454.619z"/>
	<path fill="#FFFFFF" d="M1419.572,454.619H570.614c0,0-76.496-2.785-76.496,73.997c0,53.378,0,880.016,0,923.442
		c0,76.782,76.496,73.997,76.496,73.997h848.958c0,0,76.496,2.785,76.496-73.997c0-43.426,0-870.063,0-923.442
		C1496.068,451.834,1419.572,454.619,1419.572,454.619z"/>
</g>
<path fill="#F89639" d="M1272.334,638.5H719c-23.656,0-42.833,19.177-42.833,42.833s19.177,42.833,42.833,42.833h553.333
	c23.656,0,42.833-19.177,42.833-42.833S1295.99,638.5,1272.334,638.5z"/>
<path fill="#F89639" d="M1272.334,947.503H719c-23.656,0-42.833,19.177-42.833,42.833s19.177,42.833,42.833,42.833h553.333
	c23.656,0,42.833-19.177,42.833-42.833S1295.99,947.503,1272.334,947.503z"/>
<path fill="#F89639" d="M1272.334,1256.487H719c-23.656,0-42.833,19.177-42.833,42.833s19.177,42.834,42.833,42.834h553.333
	c23.656,0,42.833-19.178,42.833-42.834S1295.99,1256.487,1272.334,1256.487z"/>
</svg>
